<svg xmlns="http://www.w3.org/2000/svg" width="621" height="469.712" viewBox="0 0 621 469.712"><defs><style>.a{fill:#aaaaed;}.b{fill:#f2f6ff;}.c{fill:#e59f3f;}.d{fill:#9092ad;}.e{fill:#a6a8c3;}.f{fill:#e2e4fa;}.g{fill:#e28a24;}.h,.n,.p,.q{fill:none;}.h,.m{opacity:0.4;}.i{fill:#ffb93e;}.j,.t{fill:#fff;}.j,.n,.s{opacity:0.2;}.k{fill:#f79b29;}.l{fill:#fafafa;}.o,.p{opacity:0.3;}.r{fill:#e28a1d;}</style></defs><g transform="translate(-1045 -1551.313)"><g transform="translate(-5412 951)"><circle class="a" cx="6" cy="6" r="6" transform="translate(6504 743)"/><circle class="a" cx="6" cy="6" r="6" transform="translate(6457 743)"/><circle class="a" cx="6" cy="6" r="6" transform="translate(6504 803)"/><circle class="a" cx="6" cy="6" r="6" transform="translate(6457 803)"/><circle class="a" cx="6" cy="6" r="6" transform="translate(6504 863)"/><circle class="a" cx="6" cy="6" r="6" transform="translate(6457 863)"/><circle class="a" cx="6" cy="6" r="6" transform="translate(6692 743)"/><circle class="a" cx="6" cy="6" r="6" transform="translate(6692 803)"/><circle class="a" cx="6" cy="6" r="6" transform="translate(6692 863)"/><circle class="a" cx="6" cy="6" r="6" transform="translate(6598 743)"/><circle class="a" cx="6" cy="6" r="6" transform="translate(6598 803)"/><circle class="a" cx="6" cy="6" r="6" transform="translate(6598 863)"/><circle class="a" cx="6" cy="6" r="6" transform="translate(6786 743)"/><circle class="a" cx="6" cy="6" r="6" transform="translate(6786 803)"/><circle class="a" cx="6" cy="6" r="6" transform="translate(6786 863)"/><circle class="a" cx="6" cy="6" r="6" transform="translate(6551 743)"/><circle class="a" cx="6" cy="6" r="6" transform="translate(6551 803)"/><circle class="a" cx="6" cy="6" r="6" transform="translate(6551 863)"/><circle class="a" cx="6" cy="6" r="6" transform="translate(6739 743)"/><circle class="a" cx="6" cy="6" r="6" transform="translate(6739 803)"/><circle class="a" cx="6" cy="6" r="6" transform="translate(6739 863)"/><circle class="a" cx="6" cy="6" r="6" transform="translate(6645 743)"/><circle class="a" cx="6" cy="6" r="6" transform="translate(6645 803)"/><circle class="a" cx="6" cy="6" r="6" transform="translate(6645 863)"/><circle class="a" cx="6" cy="6" r="6" transform="translate(6833 743)"/><circle class="a" cx="6" cy="6" r="6" transform="translate(6833 803)"/><circle class="a" cx="6" cy="6" r="6" transform="translate(6833 863)"/><circle class="a" cx="6" cy="6" r="6" transform="translate(6504 623)"/><circle class="a" cx="6" cy="6" r="6" transform="translate(6457 623)"/><circle class="a" cx="6" cy="6" r="6" transform="translate(6692 623)"/><circle class="a" cx="6" cy="6" r="6" transform="translate(6598 623)"/><circle class="a" cx="6" cy="6" r="6" transform="translate(6786 623)"/><circle class="a" cx="6" cy="6" r="6" transform="translate(6551 623)"/><circle class="a" cx="6" cy="6" r="6" transform="translate(6739 623)"/><circle class="a" cx="6" cy="6" r="6" transform="translate(6645 623)"/><circle class="a" cx="6" cy="6" r="6" transform="translate(6833 623)"/><circle class="a" cx="6" cy="6" r="6" transform="translate(6504 683)"/><circle class="a" cx="6" cy="6" r="6" transform="translate(6457 683)"/><circle class="a" cx="6" cy="6" r="6" transform="translate(6692 683)"/><circle class="a" cx="6" cy="6" r="6" transform="translate(6598 683)"/><circle class="a" cx="6" cy="6" r="6" transform="translate(6786 683)"/><circle class="a" cx="6" cy="6" r="6" transform="translate(6551 683)"/><circle class="a" cx="6" cy="6" r="6" transform="translate(6739 683)"/><circle class="a" cx="6" cy="6" r="6" transform="translate(6645 683)"/><circle class="a" cx="6" cy="6" r="6" transform="translate(6833 683)"/><circle class="a" cx="6" cy="6" r="6" transform="translate(6504 773)"/><circle class="a" cx="6" cy="6" r="6" transform="translate(6457 773)"/><circle class="a" cx="6" cy="6" r="6" transform="translate(6504 833)"/><circle class="a" cx="6" cy="6" r="6" transform="translate(6457 833)"/><circle class="a" cx="6" cy="6" r="6" transform="translate(6504 893)"/><circle class="a" cx="6" cy="6" r="6" transform="translate(6457 893)"/><circle class="a" cx="6" cy="6" r="6" transform="translate(6692 773)"/><circle class="a" cx="6" cy="6" r="6" transform="translate(6692 833)"/><circle class="a" cx="6" cy="6" r="6" transform="translate(6692 893)"/><circle class="a" cx="6" cy="6" r="6" transform="translate(6598 773)"/><circle class="a" cx="6" cy="6" r="6" transform="translate(6598 833)"/><circle class="a" cx="6" cy="6" r="6" transform="translate(6598 893)"/><circle class="a" cx="6" cy="6" r="6" transform="translate(6786 773)"/><circle class="a" cx="6" cy="6" r="6" transform="translate(6786 833)"/><circle class="a" cx="6" cy="6" r="6" transform="translate(6786 893)"/><circle class="a" cx="6" cy="6" r="6" transform="translate(6551 773)"/><circle class="a" cx="6" cy="6" r="6" transform="translate(6551 833)"/><circle class="a" cx="6" cy="6" r="6" transform="translate(6551 893)"/><circle class="a" cx="6" cy="6" r="6" transform="translate(6739 773)"/><circle class="a" cx="6" cy="6" r="6" transform="translate(6739 833)"/><circle class="a" cx="6" cy="6" r="6" transform="translate(6739 893)"/><circle class="a" cx="6" cy="6" r="6" transform="translate(6645 773)"/><circle class="a" cx="6" cy="6" r="6" transform="translate(6645 833)"/><circle class="a" cx="6" cy="6" r="6" transform="translate(6645 893)"/><circle class="a" cx="6" cy="6" r="6" transform="translate(6833 773)"/><circle class="a" cx="6" cy="6" r="6" transform="translate(6833 833)"/><circle class="a" cx="6" cy="6" r="6" transform="translate(6833 893)"/><circle class="a" cx="6" cy="6" r="6" transform="translate(6504 653)"/><circle class="a" cx="6" cy="6" r="6" transform="translate(6457 653)"/><circle class="a" cx="6" cy="6" r="6" transform="translate(6692 653)"/><circle class="a" cx="6" cy="6" r="6" transform="translate(6598 653)"/><circle class="a" cx="6" cy="6" r="6" transform="translate(6786 653)"/><circle class="a" cx="6" cy="6" r="6" transform="translate(6551 653)"/><circle class="a" cx="6" cy="6" r="6" transform="translate(6739 653)"/><circle class="a" cx="6" cy="6" r="6" transform="translate(6645 653)"/><circle class="a" cx="6" cy="6" r="6" transform="translate(6833 653)"/><circle class="a" cx="6" cy="6" r="6" transform="translate(6504 713)"/><circle class="a" cx="6" cy="6" r="6" transform="translate(6457 713)"/><circle class="a" cx="6" cy="6" r="6" transform="translate(6692 713)"/><circle class="a" cx="6" cy="6" r="6" transform="translate(6598 713)"/><circle class="a" cx="6" cy="6" r="6" transform="translate(6786 713)"/><circle class="a" cx="6" cy="6" r="6" transform="translate(6551 713)"/><circle class="a" cx="6" cy="6" r="6" transform="translate(6739 713)"/><circle class="a" cx="6" cy="6" r="6" transform="translate(6645 713)"/><circle class="a" cx="6" cy="6" r="6" transform="translate(6833 713)"/></g><g transform="translate(80.085)"><path class="b" d="M0,68.9,537,0V310.088L0,389.648Z" transform="translate(1048.915 1607.777)"/><g transform="translate(1072.822 1551.313)"><g transform="translate(20.187 20.439)"><g transform="translate(20.52 97.878)"><path class="c" d="M741.929,660.536c0-.877-10.093-32.8-10.093-32.8l-8.76,3.643,4.741-29.093,21.144,19.79-8.347,3.034,11.265,33.243Z" transform="translate(-632.222 -331.118)"/><path class="c" d="M902.867,475.437c.429-.764,7.22-33.548,7.22-33.548l-9.423-1.1,18.352-23.067,8.779,27.6-8.766-1.432L912.614,478.4Z" transform="translate(-626.864 -336.687)"/><path class="c" d="M657.426,394.93c-.116-.868-14.341-31.175-14.341-31.175l-8.2,4.769.853-29.464,23.576,16.821-7.873,4.11L667,391.451Z" transform="translate(-634.883 -339.06)"/></g><g transform="translate(271.087 177.984)"><g transform="translate(0 0)"><g transform="translate(13.308 13.434)"><ellipse class="d" cx="58.857" cy="58.857" rx="58.857" ry="58.857" transform="translate(0 38.654) rotate(-19.17)"/></g><circle class="e" cx="58.857" cy="58.857" r="58.857" transform="translate(0 83.237) rotate(-45)"/><ellipse class="f" cx="44.847" cy="43.732" rx="44.847" ry="43.732" transform="translate(25.776 56.775) rotate(-19.784)"/><path class="d" d="M945.05,457.512a44.817,44.817,0,0,1,56.892,25.815c-.133-.4-.257-.811-.4-1.214a44.828,44.828,0,1,0-84.363,30.349c.145.4.307.8.463,1.192A44.819,44.819,0,0,1,945.05,457.512Z" transform="translate(-877.013 -415.745)"/><g transform="translate(55.229 51.054)"><path class="d" d="M985.488,502.166c-2.13-5.923-6.34-8.747-11.059-8.814,2.314-2.965,3.069-7.133,1.383-11.819-2.1-5.827-6.829-8.79-13.465-7.964l-2.587-7.19-6.639,2.389,2.4,6.683-3.769,1.356-2.4-6.683-6.64,2.388,2.4,6.684-6.048,2.176-4.212,1.515,2.388,6.639,4.212-1.515L953.072,520.3l-4.657,1.675,2.389,6.641,4.656-1.676h0l6.048-2.176,2.8,7.773,6.639-2.388-2.8-7.774,3.77-1.356,2.8,7.774,6.64-2.389-2.888-8.026C985.577,514.629,987.916,508.914,985.488,502.166Zm-35.616-17.183,8.989-3.234c4.989-1.8,8.565-.728,10.087,3.5,1.5,4.166-.579,7.266-5.568,9.06l-10.2,3.669-4.52-12.564Zm22.046,28.535-10.873,3.912-.768.276-4.729-13.149,11.64-4.188c5.432-1.954,9.1-.993,10.735,3.563S977.35,511.563,971.918,513.518Z" transform="translate(-931.629 -466.379)"/><path class="e" d="M982.357,503.292c-2.13-5.923-6.34-8.747-11.059-8.814,2.314-2.965,3.069-7.132,1.383-11.819-2.1-5.827-6.829-8.79-13.465-7.963l-2.587-7.191-6.639,2.389,2.4,6.683-3.769,1.356-2.4-6.683-6.639,2.389,2.4,6.683-6.048,2.176-4.213,1.515,2.389,6.639,4.212-1.515,11.615,32.288-4.656,1.675,2.389,6.639,4.656-1.675h0l6.048-2.176,2.8,7.774,6.639-2.389-2.8-7.773,3.769-1.357,2.8,7.774,6.639-2.389-2.888-8.026C982.446,515.756,984.784,510.04,982.357,503.292Zm-35.616-17.183,8.989-3.234c4.989-1.794,8.565-.728,10.087,3.5,1.5,4.166-.579,7.266-5.568,9.06l-10.2,3.669-4.52-12.563Zm22.046,28.535-10.873,3.913-.768.275-4.729-13.149,11.64-4.188c5.432-1.954,9.1-.993,10.735,3.564S974.219,512.689,968.786,514.644Z" transform="translate(-931.723 -466.345)"/></g></g></g><g transform="translate(0 297.325)"><g transform="translate(0 0)"><g transform="translate(6.292 12.116)"><ellipse class="d" cx="41.503" cy="41.503" rx="41.503" ry="41.503"/></g><ellipse class="e" cx="41.503" cy="41.503" rx="41.503" ry="41.503" transform="matrix(0.982, -0.191, 0.191, 0.982, 0, 15.816)"/><ellipse class="f" cx="30.838" cy="31.624" rx="30.838" ry="31.624" transform="matrix(0.563, -0.826, 0.826, 0.563, 5.243, 55.859)"/><path class="d" d="M680.336,555.013a31.6,31.6,0,0,1,8.809,43.164c.176-.243.356-.482.526-.731a31.611,31.611,0,0,0-52.243-35.6c-.17.25-.326.5-.488.758A31.6,31.6,0,0,1,680.336,555.013Z" transform="translate(-614.301 -532.203)"/><g transform="translate(25.841 26.653)"><path class="d" d="M671.442,596.747c2.5-3.668,2.369-7.239.454-9.962a8.484,8.484,0,0,0,7.32-4.1c2.459-3.609,2.192-7.537-1.027-10.984l3.035-4.452-4.112-2.8-2.82,4.138-2.334-1.591,2.821-4.138-4.112-2.8-2.82,4.138-3.746-2.553-2.608-1.777-2.8,4.111,2.608,1.778-13.626,19.994-2.883-1.966-2.8,4.111,2.883,1.966h0l3.746,2.553-3.28,4.813,4.111,2.8,3.28-4.813,2.334,1.591-3.28,4.813,4.111,2.8,3.387-4.971C664.362,601.957,668.593,600.926,671.442,596.747ZM666.51,569.3l5.567,3.793c3.09,2.106,3.961,4.588,2.175,7.208-1.758,2.581-4.388,2.677-7.477.572l-6.316-4.3,5.3-7.78Zm-7.167,24.4-6.733-4.588-.475-.323,5.55-8.144,7.208,4.913c3.364,2.292,4.332,4.782,2.409,7.6S662.708,595.99,659.343,593.7Z" transform="translate(-639.989 -558.499)"/><path class="e" d="M669.5,595.426c2.5-3.668,2.369-7.24.454-9.962a8.487,8.487,0,0,0,7.32-4.1c2.459-3.609,2.192-7.538-1.027-10.985l3.035-4.451-4.112-2.8-2.82,4.138-2.334-1.591,2.821-4.138-4.113-2.8-2.82,4.138-3.746-2.553-2.608-1.778-2.8,4.113,2.608,1.777-13.626,19.995-2.883-1.964-2.8,4.111,2.883,1.965h0l3.746,2.552L643.4,595.9l4.111,2.8,3.28-4.814,2.334,1.591-3.28,4.814,4.111,2.8,3.387-4.971C662.423,600.636,666.654,599.6,669.5,595.426Zm-4.931-27.446,5.567,3.793c3.089,2.106,3.961,4.589,2.175,7.209-1.758,2.58-4.387,2.676-7.477.572l-6.316-4.3,5.3-7.781Zm-7.166,24.4-6.734-4.589-.475-.323,5.55-8.142,7.208,4.913c3.364,2.292,4.332,4.781,2.408,7.6S660.769,594.669,657.405,592.377Z" transform="translate(-640.048 -558.539)"/></g></g></g><g transform="translate(186.826 0)"><g transform="translate(0)"><g transform="translate(0 1.277)"><ellipse class="d" cx="32.234" cy="32.234" rx="32.234" ry="32.234" transform="matrix(0.105, -0.995, 0.995, 0.105, 0, 64.116)"/></g><ellipse class="e" cx="32.234" cy="32.234" rx="32.234" ry="32.234" transform="translate(2.467 64.459) rotate(-89)"/><ellipse class="f" cx="23.951" cy="24.562" rx="23.951" ry="24.562" transform="translate(11.112 56.8) rotate(-91)"/><path class="d" d="M840.152,254.153a24.547,24.547,0,0,1,13.792,31.314c.093-.214.191-.424.279-.643A24.551,24.551,0,0,0,808.708,266.4c-.088.218-.165.437-.246.656A24.547,24.547,0,0,1,840.152,254.153Z" transform="translate(-795.951 -243.837)"/><g transform="translate(18.939 15.275)"><path class="d" d="M840.205,287.285c1.294-3.2.608-5.885-1.294-7.637a6.589,6.589,0,0,0,4.881-4.318c1.272-3.143.422-6.081-2.588-8.168l1.57-3.879-3.582-1.449-1.46,3.6-2.034-.823,1.46-3.6-3.582-1.451-1.46,3.606-3.262-1.321-2.273-.92-1.45,3.582,2.273.92-7.05,17.419-2.513-1.017-1.449,3.582,2.511,1.017h0l3.264,1.321-1.7,4.194,3.582,1.45,1.7-4.194,2.034.823-1.7,4.194,3.582,1.449,1.753-4.33C835.69,292.4,838.732,290.926,840.205,287.285Zm-8.26-20.02,4.849,1.963c2.692,1.089,3.762,2.83,2.838,5.113-.91,2.248-2.89,2.755-5.582,1.665l-5.5-2.227L831.292,267Zm-1.424,19.7-5.867-2.375-.413-.167,2.871-7.095,6.28,2.543c2.931,1.187,4.075,2.916,3.08,5.374S833.453,288.148,830.522,286.962Z" transform="translate(-814.651 -258.855)"/><path class="e" d="M838.516,286.6c1.294-3.2.608-5.885-1.294-7.636a6.589,6.589,0,0,0,4.88-4.32c1.273-3.143.423-6.081-2.587-8.167l1.57-3.88L837.5,261.15l-1.46,3.606-2.034-.823,1.46-3.606-3.582-1.45-1.46,3.606-3.263-1.321-2.274-.92-1.449,3.582,2.272.92-7.05,17.419-2.513-1.017-1.451,3.582,2.513,1.017h0l3.263,1.321-1.7,4.194,3.582,1.449,1.7-4.194,2.034.823-1.7,4.194,3.582,1.45,1.752-4.331C834,291.72,837.043,290.242,838.516,286.6Zm-8.26-20.02,4.849,1.964c2.692,1.089,3.762,2.831,2.838,5.114-.91,2.247-2.89,2.754-5.582,1.664l-5.5-2.227,2.743-6.777Zm-1.424,19.7-5.867-2.375-.414-.167,2.872-7.094,6.28,2.541c2.931,1.187,4.075,2.916,3.08,5.375S831.763,287.464,828.833,286.278Z" transform="translate(-814.702 -258.876)"/></g></g></g></g><g transform="translate(0 0)"><g transform="translate(273.58 34.805)"><path class="g" d="M996.507,263.447s-28.249-11.241-91.015,51.523c0,0-65.314,56.156-30.4,79.743,29.712,20.075,68.921-8.672,89.622-27.494A208.031,208.031,0,0,0,996,330.2C1010.328,308.086,1018.861,278.881,996.507,263.447Z" transform="translate(-860.819 -257.853)"/><path class="h" d="M996.507,263.447s-28.249-11.241-91.015,51.523c0,0-65.314,56.156-30.4,79.743,29.712,20.075,68.921-8.672,89.622-27.494A208.031,208.031,0,0,0,996,330.2C1010.328,308.086,1018.861,278.881,996.507,263.447Z" transform="translate(-860.819 -257.853)"/><path class="i" d="M994.479,262.733s-35.061-19.4-97.825,43.367c0,0-60.675,64.682-23.731,84.942,25.334,13.893,62.249-13.871,82.949-32.692,10.873-9.888,25.5-25.347,33.5-37.681C1003.7,298.559,1011.613,273.636,994.479,262.733Z" transform="translate(-860.934 -257.937)"/><ellipse class="j" cx="70.205" cy="27.394" rx="70.205" ry="27.394" transform="translate(2.818 99.285) rotate(-45)"/><path class="g" d="M967.909,295.155l-8.823,8.823-2.271-2.272,8.561-8.561-4.456-4.455-9.173,9.173-3.494-3.494L901.69,340.932l2.358,2.359-9.472,8.873,5.192,5.192,9.26-9.26,1.441,1.441-9,9,4.935,4.936L916.978,352.9s3.844,4.019,17.122-7.338c10.12-8.656,8.037-17.027,8.037-17.027s5.066.6,12.579-5.338a26.452,26.452,0,0,0,9-14.939l8.648-8.648Zm-38.393,44.526c-7.506,6.412-13.759-2.03-13.759-2.03l11.57-11.57S937.021,333.27,929.515,339.681Zm18.3-19.547c-7.194,5.947-11.292-2.5-11.292-2.5l9.946-9.946S956.082,313.3,947.812,320.134Z" transform="translate(-859.921 -257.068)"/><path class="h" d="M967.909,295.155l-8.823,8.823-2.271-2.272,8.561-8.561-4.456-4.455-9.173,9.173-3.494-3.494L901.69,340.932l2.358,2.359-9.472,8.873,5.192,5.192,9.26-9.26,1.441,1.441-9,9,4.935,4.936L916.978,352.9s3.844,4.019,17.122-7.338c10.12-8.656,8.037-17.027,8.037-17.027s5.066.6,12.579-5.338a26.452,26.452,0,0,0,9-14.939l8.648-8.648Zm-38.393,44.526c-7.506,6.412-13.759-2.03-13.759-2.03l11.57-11.57S937.021,333.27,929.515,339.681Zm18.3-19.547c-7.194,5.947-11.292-2.5-11.292-2.5l9.946-9.946S956.082,313.3,947.812,320.134Z" transform="translate(-859.921 -257.068)"/><path class="k" d="M963.281,292.772l-8.823,8.823-2.271-2.272,8.562-8.561-4.456-4.455-9.174,9.173-3.494-3.494-46.563,46.563,2.359,2.359-9.472,8.874,5.191,5.191,9.26-9.26,1.442,1.441-9,9,4.936,4.936,10.571-10.571s3.845,4.019,17.123-7.338c10.12-8.656,8.037-17.027,8.037-17.027s5.067.6,12.58-5.337a26.452,26.452,0,0,0,9-14.94l8.649-8.648ZM924.886,337.3c-7.506,6.412-13.759-2.03-13.759-2.03L922.7,323.7S932.393,330.887,924.886,337.3Zm18.3-19.548c-7.194,5.947-11.291-2.5-11.291-2.5l9.945-9.946S951.453,310.914,943.183,317.751Z" transform="translate(-860.061 -257.14)"/><g transform="translate(0 1.896)"><path class="l" d="M990.44,261.28c-.027.16-2.727-.4-7.661-.625A71.443,71.443,0,0,0,962.1,262.9a90,90,0,0,0-13.607,4.684,108.877,108.877,0,0,0-14.564,7.818c-9.878,6.222-19.749,14.523-29.65,23.709-19.936,18.191-33.574,39.222-39.5,55.792-2.932,8.3-3.53,15.574-2.716,20.416l.26,1.719q.2.791.373,1.48t.319,1.272c.112.383.255.717.359,1.025a9.368,9.368,0,0,1,.6,1.9,9.306,9.306,0,0,1-.9-1.786c-.13-.3-.3-.632-.438-1.013q-.184-.584-.4-1.271c-.14-.46-.3-.954-.452-1.49q-.159-.819-.339-1.74c-1.025-4.916-.587-12.4,2.257-20.882,5.742-16.923,19.373-38.247,39.486-56.609,9.931-9.213,19.915-17.555,29.954-23.781a107.25,107.25,0,0,1,14.825-7.789,88.335,88.335,0,0,1,13.865-4.564,67.565,67.565,0,0,1,20.989-1.768c1.246.076,2.343.225,3.292.363a24.237,24.237,0,0,1,2.391.4A9.26,9.26,0,0,1,990.44,261.28Z" transform="translate(-860.936 -259.835)"/></g><path class="m" d="M881.211,374.476s-18.632-22.707,28.157-70.622,72.541-26.922,72.541-26.922S960.574,259.61,911.5,308.424C868.78,350.923,881.211,374.476,881.211,374.476Z" transform="translate(-860.435 -257.561)"/></g><g transform="translate(20.765 0)"><g transform="translate(0)"><ellipse class="g" cx="54.166" cy="54.166" rx="54.166" ry="54.166" transform="translate(22.436 22.436)"/><path class="n" d="M54.166,0A54.166,54.166,0,1,1,0,54.166,54.166,54.166,0,0,1,54.166,0Z" transform="translate(0 76.603) rotate(-45)"/><ellipse class="i" cx="54.166" cy="54.166" rx="54.166" ry="54.166" transform="translate(26.165 28.016)"/><ellipse class="j" cx="41.273" cy="40.247" rx="41.273" ry="40.247" transform="translate(38.767 41.391)"/><path class="o" d="M691.013,264.765a41.247,41.247,0,0,1,44.494,36.415c-.023-.391-.037-.782-.071-1.174a41.255,41.255,0,1,0-82.209,7.038c.033.394.086.78.13,1.169A41.246,41.246,0,0,1,691.013,264.765Z" transform="translate(-614.392 -223.06)"/><g transform="translate(58.556 50.813)"><path class="g" d="M712.839,311.446c-.495-5.772-3.57-9.279-7.751-10.455,2.759-2.089,4.415-5.618,4.025-10.184-.486-5.678-3.995-9.433-10.093-10.268l-.6-7.006-6.471.553.557,6.513-3.672.314-.557-6.512-6.471.553.557,6.513-5.894.5-4.105.351.554,6.47,4.105-.351,2.694,31.464-4.538.388.554,6.47,4.537-.389h0l5.895-.5.648,7.575,6.47-.554-.649-7.575L696.31,325l.648,7.575,6.471-.554-.67-7.821C709.97,322.553,713.4,318.022,712.839,311.446ZM685.227,287.74l8.76-.75c4.861-.416,7.79,1.377,8.144,5.5.347,4.059-2.233,6.325-7.1,6.741l-9.938.851-1.049-12.243Zm12.858,30.592-10.6.908-.747.064-1.1-12.813,11.343-.971c5.294-.453,8.325,1.268,8.7,5.709S703.378,317.88,698.084,318.332Z" transform="translate(-672.366 -273.533)"/><path class="p" d="M712.839,311.446c-.495-5.772-3.57-9.279-7.751-10.455,2.759-2.089,4.415-5.618,4.025-10.184-.486-5.678-3.995-9.433-10.093-10.268l-.6-7.006-6.471.553.557,6.513-3.672.314-.557-6.512-6.471.553.557,6.513-5.894.5-4.105.351.554,6.47,4.105-.351,2.694,31.464-4.538.388.554,6.47,4.537-.389h0l5.895-.5.648,7.575,6.47-.554-.649-7.575L696.31,325l.648,7.575,6.471-.554-.67-7.821C709.97,322.553,713.4,318.022,712.839,311.446ZM685.227,287.74l8.76-.75c4.861-.416,7.79,1.377,8.144,5.5.347,4.059-2.233,6.325-7.1,6.741l-9.938.851-1.049-12.243Zm12.858,30.592-10.6.908-.747.064-1.1-12.813,11.343-.971c5.294-.453,8.325,1.268,8.7,5.709S703.378,317.88,698.084,318.332Z" transform="translate(-672.366 -273.533)"/><path class="k" d="M713.129,314.4c-.494-5.772-3.57-9.279-7.751-10.454,2.76-2.089,4.416-5.618,4.025-10.185-.486-5.678-3.994-9.433-10.093-10.268l-.6-7.006-6.469.554.557,6.512-3.674.315-.557-6.513-6.469.554.557,6.512-5.894.5-4.105.351.553,6.47,4.105-.351,2.694,31.462-4.537.388.553,6.471,4.538-.388h0l5.894-.5.649,7.575,6.469-.553-.648-7.575,3.673-.315.649,7.575,6.469-.553-.67-7.822C710.26,325.509,713.693,320.978,713.129,314.4ZM685.518,290.7l8.758-.75c4.862-.416,7.79,1.378,8.143,5.5.347,4.06-2.233,6.325-7.095,6.741l-9.939.851L684.338,290.8Zm12.858,30.593-10.6.908-.747.064-1.1-12.813,11.343-.971c5.293-.453,8.325,1.268,8.705,5.708S703.668,320.836,698.375,321.289Z" transform="translate(-672.357 -273.444)"/></g></g></g><g transform="translate(98.384 216.074)"><g transform="translate(0 0)"><g transform="translate(0)"><circle class="q" cx="89.674" cy="89.674" r="89.674" transform="translate(0 126.819) rotate(-45)"/><ellipse class="g" cx="89.674" cy="89.674" rx="89.674" ry="89.674" transform="translate(40.329 34.069) rotate(2)"/><path class="i" d="M89.674,0A89.674,89.674,0,1,1,0,89.674,89.674,89.674,0,0,1,89.674,0Z" transform="translate(28.615 30.901) rotate(-2)"/><ellipse class="j" cx="68.329" cy="66.63" rx="68.329" ry="66.63" transform="translate(53.716 48.681) rotate(1)"/><path class="o" d="M803.788,483.053a68.285,68.285,0,0,1,74.35,59.437c-.045-.648-.076-1.293-.14-1.943a68.3,68.3,0,0,0-135.957,13.216c.063.651.157,1.29.237,1.934A68.285,68.285,0,0,1,803.788,483.053Z" transform="translate(-689.337 -432.6)"/><g transform="translate(85.441 69.909)"><path class="r" d="M846.408,564.305c-.928-9.547-6.085-15.293-13.03-17.16,4.528-3.512,7.2-9.384,6.47-16.937-.914-9.391-6.792-15.54-16.9-16.806l-1.127-11.586-10.7,1.04,1.047,10.769-6.075.59-1.047-10.769-10.7,1.04,1.048,10.769-9.747.948-6.789.66,1.04,10.7,6.79-.659,5.058,52.033-7.5.73,1.041,10.7,7.5-.729h0l9.746-.948,1.219,12.527,10.7-1.039-1.218-12.528,6.075-.59,1.218,12.527,10.7-1.039-1.258-12.936C841.871,582.745,847.465,575.18,846.408,564.305Zm-46.161-38.719,14.486-1.408c8.039-.782,12.922,2.132,13.585,8.951.653,6.715-3.577,10.514-11.616,11.3l-16.437,1.6L798.3,525.776Zm21.867,50.4-17.524,1.7-1.235.121-2.06-21.192,18.759-1.823c8.754-.851,13.805,1.941,14.519,9.284S830.869,575.134,822.115,575.985Z" transform="translate(-773.657 -501.816)"/><path class="p" d="M846.408,564.305c-.928-9.547-6.085-15.293-13.03-17.16,4.528-3.512,7.2-9.384,6.47-16.937-.914-9.391-6.792-15.54-16.9-16.806l-1.127-11.586-10.7,1.04,1.047,10.769-6.075.59-1.047-10.769-10.7,1.04,1.048,10.769-9.747.948-6.789.66,1.04,10.7,6.79-.659,5.058,52.033-7.5.73,1.041,10.7,7.5-.729h0l9.746-.948,1.219,12.527,10.7-1.039-1.218-12.528,6.075-.59,1.218,12.527,10.7-1.039-1.258-12.936C841.871,582.745,847.465,575.18,846.408,564.305Zm-46.161-38.719,14.486-1.408c8.039-.782,12.922,2.132,13.585,8.951.653,6.715-3.577,10.514-11.616,11.3l-16.437,1.6L798.3,525.776Zm21.867,50.4-17.524,1.7-1.235.121-2.06-21.192,18.759-1.823c8.754-.851,13.805,1.941,14.519,9.284S830.869,575.134,822.115,575.985Z" transform="translate(-773.657 -501.816)"/><path class="k" d="M841.362,564.8c-.928-9.546-6.085-15.293-13.03-17.16,4.528-3.511,7.2-9.384,6.469-16.937-.914-9.39-6.792-15.54-16.9-16.805l-1.127-11.587-10.7,1.04,1.047,10.77-6.074.59L800,503.937l-10.7,1.04,1.048,10.77-9.747.947-6.789.66,1.039,10.7,6.79-.66,5.058,52.034-7.5.729,1.04,10.7,7.5-.729h0l9.746-.947,1.219,12.527,10.7-1.04-1.218-12.527,6.075-.59,1.218,12.527,10.7-1.041L824.919,586.1C836.825,583.235,842.419,575.67,841.362,564.8ZM795.2,526.076l14.486-1.408c8.04-.781,12.922,2.133,13.585,8.952.653,6.714-3.577,10.514-11.616,11.295l-16.437,1.6-1.968-20.247Zm21.867,50.4-17.524,1.7-1.235.121-2.06-21.191,18.759-1.823c8.754-.851,13.805,1.94,14.519,9.284S825.823,575.625,817.069,576.476Z" transform="translate(-773.809 -501.801)"/></g><g transform="translate(31.237 26.964)"><path class="l" d="M892.372,511.965a2.515,2.515,0,0,1-.4-.612l-1.037-1.865c-.438-.828-.991-1.846-1.713-3.01-.706-1.172-1.485-2.546-2.495-4.008a90.454,90.454,0,0,0-20.258-21.981,91.564,91.564,0,0,0-17.668-10.7,90.538,90.538,0,0,0-22.638-6.908,89.089,89.089,0,0,0-26.11-.467,88.566,88.566,0,0,0-13.548,2.852A89.167,89.167,0,0,0,760.84,477.5a88.58,88.58,0,0,0-10.746,8.736,89.1,89.1,0,0,0-16.074,20.587,90.57,90.57,0,0,0-8.88,21.943,91.632,91.632,0,0,0-2.8,20.465,90.506,90.506,0,0,0,4.333,29.575c.5,1.706,1.078,3.175,1.545,4.462.449,1.294.893,2.363,1.26,3.225q.518,1.287.8,1.979a.368.368,0,1,1-.149.07l-.944-1.919c-.417-.844-.91-1.9-1.408-3.18-.517-1.274-1.144-2.736-1.694-4.438a83.791,83.791,0,0,1-3.362-12.588,86.951,86.951,0,0,1-1.515-17.2A89.637,89.637,0,0,1,732.73,506.1a89.838,89.838,0,0,1,16.277-21,89.577,89.577,0,0,1,10.924-8.911,90.013,90.013,0,0,1,26.119-12.456,89.413,89.413,0,0,1,13.8-2.879,89.818,89.818,0,0,1,26.558.569,89.633,89.633,0,0,1,40.763,18.174,86.9,86.9,0,0,1,12.417,12,83.832,83.832,0,0,1,7.668,10.536c.976,1.5,1.717,2.906,2.383,4.11.682,1.2,1.192,2.242,1.585,3.1l.9,1.941A2.5,2.5,0,0,1,892.372,511.965Z" transform="translate(-721.193 -460.128)"/></g></g></g><g class="s" transform="translate(31.688 27.723)"><path class="q" d="M765.192,563.054a1.276,1.276,0,0,0-.006,1.174,1.2,1.2,0,0,0,2.23-.217,1.273,1.273,0,0,0-.232-1.151c-.478-.576-1.078-.516-1.065-.617C766.15,562.34,765.551,562.4,765.192,563.054Z" transform="translate(-720.321 -457.806)"/><path class="q" d="M807.627,533.376a1.277,1.277,0,0,0-.005,1.174,1.2,1.2,0,0,0,2.272-.623l-.015-.005.014-.008a1.283,1.283,0,0,0-.272-.732c-.479-.576-1.079-.516-1.066-.617C808.586,532.662,807.986,532.719,807.627,533.376Z" transform="translate(-719.041 -458.702)"/><path class="q" d="M757.773,603.956a1.277,1.277,0,0,0-.005,1.174,1.2,1.2,0,0,0,2.23-.217,1.276,1.276,0,0,0-.232-1.151c-.479-.576-1.079-.516-1.066-.617C758.732,603.242,758.133,603.3,757.773,603.956Z" transform="translate(-720.545 -456.572)"/><path class="q" d="M859.371,535.386a1.276,1.276,0,0,0-.006,1.174,1.2,1.2,0,0,0,2.23-.217,1.276,1.276,0,0,0-.231-1.151c-.479-.576-1.079-.516-1.066-.617C860.329,534.672,859.73,534.728,859.371,535.386Z" transform="translate(-717.48 -458.641)"/><path class="q" d="M771.188,497.845a1.279,1.279,0,0,0-.005,1.174,1.2,1.2,0,0,0,2.23-.216,1.278,1.278,0,0,0-.232-1.152,1.569,1.569,0,0,0-.828-.52l.013.194a3.617,3.617,0,0,1,.011.791,3.689,3.689,0,0,1-.141-.779l-.03-.246c-.06-.017-.094-.032-.092-.057C772.147,497.131,771.548,497.188,771.188,497.845Z" transform="translate(-720.14 -459.774)"/><path class="q" d="M863.3,519.371a1.276,1.276,0,0,0-.006,1.174,1.2,1.2,0,0,0,2.23-.217,1.276,1.276,0,0,0-.232-1.152c-.478-.575-1.078-.515-1.065-.617C864.262,518.657,863.663,518.714,863.3,519.371Z" transform="translate(-717.361 -459.124)"/><path class="q" d="M804.848,539.648a1.279,1.279,0,0,0-.006,1.174,1.205,1.205,0,0,0,2.231-.217,1.267,1.267,0,0,0-.129-.99l-.035,0a1.23,1.23,0,0,1-.368-.005,1.3,1.3,0,0,1,.352-.074c-.019-.027-.033-.059-.053-.084-.479-.576-1.079-.516-1.066-.617C805.806,538.934,805.207,538.991,804.848,539.648Z" transform="translate(-719.125 -458.513)"/><path class="q" d="M793.944,559.383a1.277,1.277,0,0,0-.005,1.174,1.2,1.2,0,0,0,2.23-.216,1.269,1.269,0,0,0,.041-.266c-.052,0-.085-.005-.086-.011s.036-.018.092-.029a1.288,1.288,0,0,0-.279-.846c-.479-.576-1.079-.516-1.066-.617C794.9,558.669,794.3,558.726,793.944,559.383Z" transform="translate(-719.454 -457.917)"/><path class="t" d="M753.3,519.691l72.8-7.143,10.783,11.261.071.073.1-.01,22.069-2.286,5.916-.642,1.528-.18c.121-.016.211-.029.291-.041a1.481,1.481,0,0,0,.076.265,1.751,1.751,0,0,0,3.3-.32,1.684,1.684,0,0,0-.464-1.593,1.486,1.486,0,0,0-1.007-.427c-.259,0-.386.071-.381.108-.012.1.587.042,1.065.617a1.276,1.276,0,0,1,.232,1.152,1.2,1.2,0,0,1-2.23.217,1.276,1.276,0,0,1,.006-1.174c.359-.657.958-.714.927-.812,0-.037-.142-.08-.4-.032a1.477,1.477,0,0,0-.905.612,1.679,1.679,0,0,0-.235,1.354c-.078,0-.169.008-.286.017l-1.533.124-5.927.534-21.988,2.09-10.742-11.329-.081-.086-.12.011-72.928,7.023L725.73,521.76c-.066.206-.134.412-.2.619Z" transform="translate(-721.513 -459.321)"/><path class="t" d="M865.066,502.856l11.492,11.728.09.092.124-.013,14.041-1.461c-.047-.107-.093-.215-.14-.321l-13.825,1.25-11.447-11.8-.1-.105-.146.014-9.162.885L822.1,506.507l-10.267,1.1-2.788.33a5.806,5.806,0,0,0-.968.157,5.806,5.806,0,0,0,.98-.032l2.8-.214,10.285-.9,33.911-3.2Z" transform="translate(-719.023 -459.617)"/><path class="t" d="M794.172,542.242,801.3,545.2l.045.019.045,0,12-1.1,3.182-.319.213-.025a.923.923,0,1,0-.005-.092l-.216.011-3.191.219-11.969.924-7.115-3.032-.052-.023-.058.006-51.134,4.886-17.909,1.75-3.5-1.7c0,.215-.009.43-.01.646L724.953,549l.076.038.086-.009,18-1.74Z" transform="translate(-721.631 -458.424)"/><path class="t" d="M799.571,538.078l-6.73-2.069-.058-.019-.06.006-4.314.444c-.235-2.759-.459-5.393-.673-7.885l-.024-.274-.27.031-19.72,2.185-5.516.654-.6.08a.881.881,0,1,0,.016.13l.6-.046,5.531-.508,19.471-1.938q.3,3.757.631,7.913l.023.294.295-.03,4.547-.45,6.727,2.086.059.019.062-.006,8.376-.811,37.742-3.753,7,3.833.049.027.053-.005,7.086-.771,1.872-.228.093-.013c0,.007,0,.014.006.022a1.751,1.751,0,0,0,3.3-.321,1.68,1.68,0,0,0-.464-1.592,1.488,1.488,0,0,0-1.005-.427c-.259,0-.387.071-.382.109-.012.1.587.041,1.066.617a1.276,1.276,0,0,1,.231,1.151,1.2,1.2,0,0,1-2.23.217,1.276,1.276,0,0,1,.006-1.174c.359-.657.958-.714.927-.811,0-.038-.142-.08-.4-.033a1.478,1.478,0,0,0-.9.612,1.683,1.683,0,0,0-.18,1.545l-.077,0-1.881.138-7.046.6-6.966-3.934-.061-.034-.072.006-37.827,3.593Z" transform="translate(-720.478 -458.831)"/><path class="t" d="M760.1,604.7a1.478,1.478,0,0,0-1.005-.427c-.259,0-.386.071-.382.108-.012.1.587.041,1.066.617a1.276,1.276,0,0,1,.232,1.151,1.2,1.2,0,0,1-2.23.217,1.276,1.276,0,0,1,.005-1.174c.36-.657.959-.714.927-.811,0-.038-.141-.08-.4-.033a1.481,1.481,0,0,0-.9.613,1.68,1.68,0,0,0-.148,1.651,1.751,1.751,0,0,0,3.3-.321c.005-.024,0-.046.006-.07.071,0,.157,0,.269-.009l1.334-.086,5.022-.407,17.617-1.6.16-.014.069-.147c1.576-3.338,3.28-6.95,5.07-10.745l.036-.076-.008-.084c-.158-1.632-.319-3.3-.482-4.987-.721-7.265-1.4-14.091-1.979-19.936l-.013-.13-.107-.07L779.13,562.4l-.065-.042-.074.008-8.239.9-2.217.272-.3.042a1.664,1.664,0,0,0-.488-1.017,1.481,1.481,0,0,0-1.006-.427c-.258,0-.386.071-.381.108-.012.1.587.041,1.065.617a1.273,1.273,0,0,1,.232,1.151,1.2,1.2,0,0,1-2.23.217,1.276,1.276,0,0,1,.006-1.174c.359-.657.958-.714.927-.811,0-.038-.142-.08-.4-.033a1.485,1.485,0,0,0-.906.613,1.683,1.683,0,0,0-.148,1.651,1.751,1.751,0,0,0,3.3-.321,1.691,1.691,0,0,0,.042-.482l.294-.016,2.227-.161,8.183-.7,8.2,5.512c.555,5.819,1.2,12.6,1.889,19.815q.243,2.491.479,4.9c-1.737,3.719-3.39,7.262-4.922,10.543l-17.434,1.807-5.007.568-1.326.173c-.105.015-.185.029-.254.041A1.677,1.677,0,0,0,760.1,604.7Z" transform="translate(-720.56 -457.81)"/><path class="t" d="M851.361,578.768a.887.887,0,0,0,.8-.917h.027l2.609-.2,9.643-.84.064-.006.053-.043,10.087-8.338,20.413-1.953c.046-.212.1-.423.14-.637L874.5,567.88l-.087.008-.066.055c-3.771,3.18-7.147,6.027-10.023,8.45l-9.557,1.026-2.6.31-.027,0a.891.891,0,1,0-.787,1.036Z" transform="translate(-717.747 -457.698)"/><path class="t" d="M806.567,635.955c-.015-.313-.04-.713-.073-1.192-.109-1.391-.254-3.224-.43-5.44-.389-4.593-.971-10.931-1.651-17.928-.216-2.19-.426-4.314-.625-6.333l-.012-.126-.1-.077-10.34-8.371c-.2-1.675-.362-3.047-.487-4.1-.093-.7-.162-1.162-.208-1.365a1.039,1.039,0,1,0-.06-.026c-.008.193.012.672.059,1.411.081,1.078.189,2.481.318,4.2l.006.078.064.054,10.169,8.5c.19,1.984.389,4.065.594,6.213.68,7,1.331,13.329,1.833,17.911.255,2.209.466,4.036.626,5.422.06.477.113.874.158,1.184a.887.887,0,0,0-.533.307c.467.016.936.029,1.4.038A.875.875,0,0,0,806.567,635.955Z" transform="translate(-719.508 -456.991)"/><path class="t" d="M765.705,506.255a.9.9,0,1,0,.8-.978A.894.894,0,0,0,765.705,506.255Z" transform="translate(-720.301 -459.525)"/><path class="t" d="M836.044,586.052l1.789-.189c.125-.014.224-.028.311-.04a.853.853,0,0,0-.018.177.9.9,0,1,0,.8-.978.884.884,0,0,0-.779.724c-.091,0-.195,0-.328.007l-1.8.086-6.681.417-22.414,1.6c-.306-2.5-.622-5.083-.946-7.73-.091-.732-.18-1.457-.265-2.142l8.036-8.829.088-.1-.012-.127c-.293-2.88-.568-5.6-.816-8.05l-.011-.107-.081-.066-2.686-2.183-.077-.063-.095.01-10.182,1.094-2.778.334c-.128.016-.235.032-.338.046a1.664,1.664,0,0,0-.5-1.057,1.478,1.478,0,0,0-1.005-.426c-.258,0-.387.071-.382.108-.012.1.587.041,1.066.617a1.289,1.289,0,0,1,.279.846c-.056.011-.092.022-.092.029s.034.01.086.011a1.275,1.275,0,0,1-.041.266,1.2,1.2,0,0,1-2.23.216,1.276,1.276,0,0,1,.005-1.174c.359-.657.959-.714.927-.811,0-.037-.141-.08-.4-.033a1.485,1.485,0,0,0-.9.613,1.683,1.683,0,0,0-.149,1.651,1.752,1.752,0,0,0,3.3-.32,1.683,1.683,0,0,0,.037-.425l.345-.021,2.791-.207,10.1-.88,2.5,2.085c.223,2.391.468,5.029.728,7.823l-8.077,8.813-.1.1.018.141c.09.725.184,1.5.281,2.284.34,2.746.672,5.427.993,8.016l.036.289.289-.024,22.687-1.836Z" transform="translate(-719.469 -457.92)"/><path class="t" d="M824.626,583.327c-.485-5.855-1-12.014-1.513-18.268q-.108-1.3-.214-2.585l-.011-.127-.1-.082-8.628-7.427-.1-.086-.132.012-53.3,5.217-.069.007-.057.038-32.369,21.728c.054.13.105.261.159.391,9.142-6.091,20.086-13.384,32.458-21.625l53.109-5.128,8.429,7.26q.1,1.225.2,2.458c.529,6.362,1.05,12.628,1.544,18.574l.026.308.307-.027,71.242-6.206c.056-.156.11-.311.165-.468Z" transform="translate(-721.435 -458.032)"/><path class="t" d="M820.566,550.427c.2,1.771.478,4.258.828,7.378l.008.077.063.048,15.168,11.752.088.068.112-.011,20.125-1.928,34.805-3.476,4.839-.515c.022-.118.039-.237.06-.355l-4.941.434L856.9,567.193l-20.009,1.972-15.134-11.484c-.418-3.074-.752-5.528-.99-7.278-.121-.81-.216-1.454-.291-1.946a.341.341,0,1,0-.1.012C820.421,548.964,820.485,549.613,820.566,550.427Z" transform="translate(-718.653 -458.242)"/><path class="t" d="M838.077,527.956l-.082.007-.067.046-5.23,3.681L816.27,533.4l-4.7.538-1.135.151a1.656,1.656,0,0,0-.473-.935,1.48,1.48,0,0,0-1.005-.428c-.259,0-.387.071-.382.109-.012.1.587.041,1.066.617a1.282,1.282,0,0,1,.272.732l-.014.008.015.005a1.2,1.2,0,0,1-2.271.623,1.276,1.276,0,0,1,.005-1.174c.359-.657.959-.714.927-.811,0-.038-.141-.08-.4-.033a1.48,1.48,0,0,0-.9.612,1.685,1.685,0,0,0-.149,1.652,1.752,1.752,0,0,0,3.3-.321,1.671,1.671,0,0,0,.027-.555l1.135-.07,4.719-.378,16.525-1.493.073-.007.063-.043,5.242-3.647,8.735-.683,27.006-2.226,8.181-.745,2.125-.225a.848.848,0,1,0-.025-.129l-2.12.112-8.2.549-27.021,2.045Z" transform="translate(-719.056 -458.972)"/><path class="t" d="M794.581,615.313c-.244-2.486-.482-4.9-.71-7.217l-.014-.148-.126-.078-5.587-3.487-.082-.051-.094.009L775.113,605.7l-3.636.433-.417.057a.892.892,0,1,0,.014.143l.42-.025,3.651-.276,12.78-1.13,5.357,3.4c.218,2.272.446,4.638.68,7.072.742,7.318,1.422,14.034,1.97,19.439.157.024.314.044.471.068C795.9,629.452,795.268,622.687,794.581,615.313Z" transform="translate(-720.193 -456.537)"/><path class="t" d="M802.632,631.219l.082-.1-.013-.128-2.613-26.516-.011-.114-.087-.072-7.859-6.421c-.7-6.765-1.275-12.3-1.679-16.2-.211-1.893-.378-3.387-.5-4.458-.059-.465-.106-.835-.143-1.132a.863.863,0,0,0,.185.02.9.9,0,1,0-.978-.8.885.885,0,0,0,.718.778c.021.3.045.679.077,1.153.09,1.073.213,2.571.37,4.471.356,3.922.862,9.5,1.48,16.315l.009.1.077.065,7.8,6.464,2.52,26.282-.864,1.05-3.368,4.095c.242.031.486.058.73.087l3.116-3.787Z" transform="translate(-719.598 -457.442)"/><path class="t" d="M883.738,591.1l-44.777,4.262-9.814.958-.21.02-.056.205c-1.091,4.033-2.143,7.918-3.14,11.6l-.014.052.006.053L828.33,634c.129-.03.255-.063.383-.093-.646-6.913-1.466-15.688-2.4-25.649.985-3.607,2.023-7.4,3.1-11.342l9.6-.929,44.76-4.443,2.127-.223c.082-.143.163-.287.245-.432Z" transform="translate(-718.49 -456.942)"/><path class="t" d="M828.006,556.721l.014.14.115.082,3.173,2.254,8.892,6.3.093.066.11-.011,22.84-2.33,6.649-.734,1.516-.191a.9.9,0,1,0-.011-.119l-1.525.105-6.666.559-22.748,2.1-8.789-6.253-3.06-2.172c-.687-6.894-1.327-13.3-1.877-18.826l-.027-.263-.26.027L812,538.973l-4.027.464-.545.073a1.451,1.451,0,0,0-.251-.312,1.481,1.481,0,0,0-1.005-.427c-.259,0-.387.071-.382.108-.012.1.587.041,1.066.617.02.025.034.057.053.083a1.288,1.288,0,0,0-.352.074,1.234,1.234,0,0,0,.368.005l.035,0a1.267,1.267,0,0,1,.129.99,1.205,1.205,0,0,1-2.231.217,1.279,1.279,0,0,1,.006-1.174c.359-.657.958-.714.927-.811,0-.038-.142-.08-.4-.033a1.476,1.476,0,0,0-.9.613,1.68,1.68,0,0,0-.149,1.651,1.751,1.751,0,0,0,3.3-.321,1.676,1.676,0,0,0-.156-1.163l.5-.031,4.041-.32,14.2-1.271C826.755,543.509,827.359,549.875,828.006,556.721Z" transform="translate(-719.14 -458.555)"/><path class="t" d="M895.926,544.361l-8.491-6.992-.1-.082-.129.013-.752.072-36.686,3.613-5.847-3.311-.069-.039-.076.008-7.572.766-.09.009-.056.068-7.6,9.353-.037.045.006.056c.268,2.462.475,4.367.62,5.7.075.614.134,1.1.178,1.461a2.454,2.454,0,0,0,.085.491,2.571,2.571,0,0,0-.011-.5c-.027-.366-.062-.85-.107-1.468-.113-1.326-.275-3.216-.484-5.655l7.621-9.145,7.413-.691,5.835,3.35.072.042.086-.008,36.778-3.53.624-.061,8.494,6.984.1.081.127-.012,1.832-.183c-.008-.2-.011-.4-.021-.6Z" transform="translate(-718.409 -458.559)"/><path class="t" d="M780.6,471.1l.1.082.032.026,8.974,7.374c.88,8.749,1.668,16.592,2.3,22.872l.012.126.111.055,8.332,4.1.041.021.043-.005,5.126-.572,1.326-.169a1.842,1.842,0,0,0,.448-.086,1.974,1.974,0,0,0-.456,0l-1.334.09-5.094.422-8.117-4.152c-.591-6.294-1.328-14.138-2.149-22.888l-.012-.125-.1-.08-8.992-7.41q-.269-2.69-.531-5.309c-.193.065-.384.135-.577.2q.247,2.613.5,5.3Z" transform="translate(-719.867 -460.726)"/><path class="t" d="M795,477.9l-.076.094.011.117c.647,6.177,1.2,11.457,1.6,15.288.21,1.811.38,3.276.507,4.371a10.028,10.028,0,0,0,.244,1.556,10.012,10.012,0,0,0-.06-1.574c-.086-1.1-.2-2.568-.344-4.385-.342-3.812-.814-9.057-1.365-15.191l8.346-10.107,4.48-5.456.081-.1-.013-.125c-.052-.515-.1-1.016-.157-1.523-.2,0-.395,0-.593,0l.134,1.452q-2.137,2.593-4.411,5.352Z" transform="translate(-719.42 -460.865)"/><path class="t" d="M805.013,477.086a.88.88,0,0,0,.143-.551.9.9,0,1,0-.8.978.868.868,0,0,0,.512-.246c.241.226.549.5.917.832.977.866,2.372,2.065,4.019,3.449.121,1.306.249,2.7.384,4.167.315,3.25.637,6.19.9,8.315a19.12,19.12,0,0,0,.554,3.426,19.347,19.347,0,0,0-.117-3.469c-.151-2.136-.4-5.082-.718-8.332-.155-1.5-.3-2.942-.438-4.279l-.013-.122-.092-.074c-1.717-1.384-3.2-2.549-4.255-3.355C805.614,477.527,805.281,477.278,805.013,477.086Z" transform="translate(-719.165 -460.417)"/><path class="t" d="M815.324,500.683l.01.1.069.072,4.662,4.85.1.1.142-.013,27.258-2.635,14.056-1.37.134-.013.08-.106c3.705-4.873,7.28-9.575,10.67-14.035-.135-.138-.269-.277-.4-.414l-10.672,13.971-13.925,1.35-27.113,2.651-4.5-4.664c-1.606-16.053-2.975-29.73-3.946-39.436l-.018-.177c-.117,0-.233-.011-.349-.014l.02.226C812.51,470.858,813.8,484.577,815.324,500.683Z" transform="translate(-718.917 -460.864)"/><path class="t" d="M828.063,509.1l-6.467.533-21.342,1.976c-.09-.926-.183-1.893-.279-2.877l-.022-.225-.016-.161-.14-.079c-2.917-1.651-5.73-3.243-8.334-4.715l-.082-.047-.093.009-17.125,1.776-4.954.569-1.321.177a1.6,1.6,0,0,0-.453.1,1.62,1.62,0,0,0,.463.006l1.331-.08,4.971-.4,17.051-1.546,8.1,4.612.007.066c.106,1.09.211,2.167.31,3.182l.031.309.307-.031,21.63-2.2,6.449-.723,1.74-.225a2.461,2.461,0,0,0,.6-.117,2.389,2.389,0,0,0-.613,0Z" transform="translate(-720.249 -459.578)"/><path class="t" d="M750.354,483.3l5.7,5.679.1.1.141-.014,15.408-1.572c.363,3.315.661,6.04.879,8.026.092.743.169,1.365.234,1.885-.044.02-.078.041-.077.057s.032.04.092.057l.03.246a3.692,3.692,0,0,0,.141.779,3.611,3.611,0,0,0-.011-.791l-.013-.194a1.569,1.569,0,0,1,.828.52,1.278,1.278,0,0,1,.232,1.152,1.2,1.2,0,0,1-2.23.216,1.279,1.279,0,0,1,.005-1.174c.36-.657.959-.714.927-.811,0-.038-.141-.08-.4-.033a1.481,1.481,0,0,0-.9.613,1.68,1.68,0,0,0-.148,1.651,1.751,1.751,0,0,0,3.3-.321,1.681,1.681,0,0,0-.465-1.592,1.477,1.477,0,0,0-1.005-.427.784.784,0,0,0-.158.022c-.036-.519-.08-1.14-.132-1.88-.173-2.037-.411-4.843-.7-8.27L772.11,487l-.228.021-15.5,1.433-5.562-5.566C750.663,483.025,750.508,483.161,750.354,483.3Z" transform="translate(-720.764 -460.201)"/></g></g><g transform="translate(0 200.734)"><g transform="translate(0 0)"><path class="g" d="M599.427,427.871s13.959-11.248,60.24,13.189c0,0,46.569,20.271,31.005,39.635-13.246,16.48-40.337,7.107-55.275.106a122.637,122.637,0,0,1-24.069-15.414C599.408,455.425,589.519,440.456,599.427,427.871Z" transform="translate(-595.368 -418.875)"/><path class="h" d="M599.427,427.871s13.959-11.248,60.24,13.189c0,0,46.569,20.271,31.005,39.635-13.246,16.48-40.337,7.107-55.275.106a122.637,122.637,0,0,1-24.069-15.414C599.408,455.425,589.519,440.456,599.427,427.871Z" transform="translate(-595.368 -418.875)"/><path class="i" d="M600.431,427.166s16.378-17.03,62.659,7.409c0,0,45.438,25.882,28.15,43.725-11.855,12.235-37.484,3.017-52.421-3.985-7.846-3.678-18.778-9.841-25.428-15.4C601.471,448.954,592.676,436.29,600.431,427.166Z" transform="translate(-595.304 -418.993)"/><ellipse class="j" cx="16.152" cy="41.395" rx="16.152" ry="41.395" transform="translate(6.922 28.567) rotate(-62.165)"/><g transform="translate(23.996 14.408)"><path class="g" d="M671.019,461.908l-6.253-3.593a15.6,15.6,0,0,0-7.418-7.122c-5.189-2.227-7.981-1.105-7.981-1.105s-.1-5.085-7.193-8.457c-9.3-4.425-10.875-1.546-10.875-1.546l-7.642-4.393-2.051,3.569,6.5,3.74-.6,1.042-6.694-3.848-2.158,3.753,6.756,3.6-.98,1.7L658.1,468.6l1.453-2.526,6.631,3.812,1.851-3.221-6.189-3.557.944-1.642,6.171,3.547Zm-29.707-8.147-8.364-4.808s2.262-5.767,7.52-3.271S641.312,453.761,641.312,453.761Zm13.723,7.531-7.191-4.133s1.034-5.44,6.044-3.16C659.647,456.62,655.035,461.292,655.035,461.292Z" transform="translate(-618.661 -432.969)"/><path class="h" d="M671.019,461.908l-6.253-3.593a15.6,15.6,0,0,0-7.418-7.122c-5.189-2.227-7.981-1.105-7.981-1.105s-.1-5.085-7.193-8.457c-9.3-4.425-10.875-1.546-10.875-1.546l-7.642-4.393-2.051,3.569,6.5,3.74-.6,1.042-6.694-3.848-2.158,3.753,6.756,3.6-.98,1.7L658.1,468.6l1.453-2.526,6.631,3.812,1.851-3.221-6.189-3.557.944-1.642,6.171,3.547Zm-29.707-8.147-8.364-4.808s2.262-5.767,7.52-3.271S641.312,453.761,641.312,453.761Zm13.723,7.531-7.191-4.133s1.034-5.44,6.044-3.16C659.647,456.62,655.035,461.292,655.035,461.292Z" transform="translate(-618.661 -432.969)"/><path class="k" d="M672.514,459.265l-6.252-3.594a15.6,15.6,0,0,0-7.418-7.121c-5.19-2.227-7.982-1.105-7.982-1.105s-.1-5.085-7.192-8.457c-9.3-4.425-10.875-1.546-10.875-1.546l-7.642-4.393-2.051,3.568,6.506,3.739-.6,1.043-6.694-3.849-2.157,3.754,6.756,3.6-.981,1.7,33.662,19.351,1.453-2.527,6.631,3.813,1.851-3.221-6.189-3.558.945-1.641,6.379,3.666Zm-29.706-8.147-8.365-4.808s2.262-5.767,7.52-3.271S642.808,451.118,642.808,451.118Zm13.723,7.531-7.191-4.134s1.034-5.439,6.043-3.16C661.142,453.977,656.531,458.649,656.531,458.649Z" transform="translate(-618.616 -433.049)"/></g><g transform="translate(7.15 1.603)"><path class="l" d="M602.31,425.667c-.027-.048.31-.277.979-.671a13.266,13.266,0,0,1,1.267-.673c.508-.253,1.1-.539,1.785-.809a39.168,39.168,0,0,1,12.164-2.769,51.744,51.744,0,0,1,8.648.12,63.082,63.082,0,0,1,9.757,1.786,118.384,118.384,0,0,1,21.077,8.183c14.572,6.866,25.978,16.566,32.143,25.18,3.072,4.326,4.6,8.515,4.843,11.491.035.369.067.719.1,1.049l-.01.924a7.5,7.5,0,0,1-.106,1.439c-.12.772-.208,1.167-.264,1.159-.169-.014.131-1.642-.338-4.483a25.669,25.669,0,0,0-5.145-10.911c-6.238-8.223-17.564-17.64-31.916-24.4a124.492,124.492,0,0,0-20.767-8.2,64.414,64.414,0,0,0-9.515-1.892,53.391,53.391,0,0,0-8.438-.31,43.019,43.019,0,0,0-12.011,2.219C603.818,425.048,602.374,425.792,602.31,425.667Z" transform="translate(-602.309 -420.619)"/></g><path class="m" d="M683.113,470.551s6.545-16.035-28.151-34.887-45.552-2.544-45.552-2.544,9-13.472,45.145,5.491C686.018,455.119,683.113,470.551,683.113,470.551Z" transform="translate(-594.945 -418.837)"/></g></g></g></g></g></g></svg>