<svg xmlns="http://www.w3.org/2000/svg" width="388" height="282" viewBox="0 0 388 282">
  <g id="Group_31" data-name="Group 31" transform="translate(-6457 -623)">
    <circle id="Ellipse_9" data-name="Ellipse 9" cx="6" cy="6" r="6" transform="translate(6504 743)" fill="#aaaaed"/>
    <circle id="Ellipse_231" data-name="Ellipse 231" cx="6" cy="6" r="6" transform="translate(6457 743)" fill="#aaaaed"/>
    <circle id="Ellipse_120" data-name="Ellipse 120" cx="6" cy="6" r="6" transform="translate(6504 803)" fill="#aaaaed"/>
    <circle id="Ellipse_239" data-name="Ellipse 239" cx="6" cy="6" r="6" transform="translate(6457 803)" fill="#aaaaed"/>
    <circle id="Ellipse_205" data-name="Ellipse 205" cx="6" cy="6" r="6" transform="translate(6504 863)" fill="#aaaaed"/>
    <circle id="Ellipse_241" data-name="Ellipse 241" cx="6" cy="6" r="6" transform="translate(6457 863)" fill="#aaaaed"/>
    <circle id="Ellipse_65" data-name="Ellipse 65" cx="6" cy="6" r="6" transform="translate(6692 743)" fill="#aaaaed"/>
    <circle id="Ellipse_124" data-name="Ellipse 124" cx="6" cy="6" r="6" transform="translate(6692 803)" fill="#aaaaed"/>
    <circle id="Ellipse_213" data-name="Ellipse 213" cx="6" cy="6" r="6" transform="translate(6692 863)" fill="#aaaaed"/>
    <circle id="Ellipse_37" data-name="Ellipse 37" cx="6" cy="6" r="6" transform="translate(6598 743)" fill="#aaaaed"/>
    <circle id="Ellipse_121" data-name="Ellipse 121" cx="6" cy="6" r="6" transform="translate(6598 803)" fill="#aaaaed"/>
    <circle id="Ellipse_207" data-name="Ellipse 207" cx="6" cy="6" r="6" transform="translate(6598 863)" fill="#aaaaed"/>
    <circle id="Ellipse_66" data-name="Ellipse 66" cx="6" cy="6" r="6" transform="translate(6786 743)" fill="#aaaaed"/>
    <circle id="Ellipse_125" data-name="Ellipse 125" cx="6" cy="6" r="6" transform="translate(6786 803)" fill="#aaaaed"/>
    <circle id="Ellipse_217" data-name="Ellipse 217" cx="6" cy="6" r="6" transform="translate(6786 863)" fill="#aaaaed"/>
    <circle id="Ellipse_23" data-name="Ellipse 23" cx="6" cy="6" r="6" transform="translate(6551 743)" fill="#aaaaed"/>
    <circle id="Ellipse_122" data-name="Ellipse 122" cx="6" cy="6" r="6" transform="translate(6551 803)" fill="#aaaaed"/>
    <circle id="Ellipse_206" data-name="Ellipse 206" cx="6" cy="6" r="6" transform="translate(6551 863)" fill="#aaaaed"/>
    <circle id="Ellipse_67" data-name="Ellipse 67" cx="6" cy="6" r="6" transform="translate(6739 743)" fill="#aaaaed"/>
    <circle id="Ellipse_126" data-name="Ellipse 126" cx="6" cy="6" r="6" transform="translate(6739 803)" fill="#aaaaed"/>
    <circle id="Ellipse_215" data-name="Ellipse 215" cx="6" cy="6" r="6" transform="translate(6739 863)" fill="#aaaaed"/>
    <circle id="Ellipse_38" data-name="Ellipse 38" cx="6" cy="6" r="6" transform="translate(6645 743)" fill="#aaaaed"/>
    <circle id="Ellipse_123" data-name="Ellipse 123" cx="6" cy="6" r="6" transform="translate(6645 803)" fill="#aaaaed"/>
    <circle id="Ellipse_211" data-name="Ellipse 211" cx="6" cy="6" r="6" transform="translate(6645 863)" fill="#aaaaed"/>
    <circle id="Ellipse_68" data-name="Ellipse 68" cx="6" cy="6" r="6" transform="translate(6833 743)" fill="#aaaaed"/>
    <circle id="Ellipse_134" data-name="Ellipse 134" cx="6" cy="6" r="6" transform="translate(6833 803)" fill="#aaaaed"/>
    <circle id="Ellipse_219" data-name="Ellipse 219" cx="6" cy="6" r="6" transform="translate(6833 863)" fill="#aaaaed"/>
    <circle id="Ellipse_15" data-name="Ellipse 15" cx="6" cy="6" r="6" transform="translate(6504 623)" fill="#aaaaed"/>
    <circle id="Ellipse_232" data-name="Ellipse 232" cx="6" cy="6" r="6" transform="translate(6457 623)" fill="#aaaaed"/>
    <circle id="Ellipse_43" data-name="Ellipse 43" cx="6" cy="6" r="6" transform="translate(6692 623)" fill="#aaaaed"/>
    <circle id="Ellipse_27" data-name="Ellipse 27" cx="6" cy="6" r="6" transform="translate(6598 623)" fill="#aaaaed"/>
    <circle id="Ellipse_51" data-name="Ellipse 51" cx="6" cy="6" r="6" transform="translate(6786 623)" fill="#aaaaed"/>
    <circle id="Ellipse_19" data-name="Ellipse 19" cx="6" cy="6" r="6" transform="translate(6551 623)" fill="#aaaaed"/>
    <circle id="Ellipse_44" data-name="Ellipse 44" cx="6" cy="6" r="6" transform="translate(6739 623)" fill="#aaaaed"/>
    <circle id="Ellipse_28" data-name="Ellipse 28" cx="6" cy="6" r="6" transform="translate(6645 623)" fill="#aaaaed"/>
    <circle id="Ellipse_59" data-name="Ellipse 59" cx="6" cy="6" r="6" transform="translate(6833 623)" fill="#aaaaed"/>
    <circle id="Ellipse_12" data-name="Ellipse 12" cx="6" cy="6" r="6" transform="translate(6504 683)" fill="#aaaaed"/>
    <circle id="Ellipse_233" data-name="Ellipse 233" cx="6" cy="6" r="6" transform="translate(6457 683)" fill="#aaaaed"/>
    <circle id="Ellipse_45" data-name="Ellipse 45" cx="6" cy="6" r="6" transform="translate(6692 683)" fill="#aaaaed"/>
    <circle id="Ellipse_33" data-name="Ellipse 33" cx="6" cy="6" r="6" transform="translate(6598 683)" fill="#aaaaed"/>
    <circle id="Ellipse_52" data-name="Ellipse 52" cx="6" cy="6" r="6" transform="translate(6786 683)" fill="#aaaaed"/>
    <circle id="Ellipse_21" data-name="Ellipse 21" cx="6" cy="6" r="6" transform="translate(6551 683)" fill="#aaaaed"/>
    <circle id="Ellipse_46" data-name="Ellipse 46" cx="6" cy="6" r="6" transform="translate(6739 683)" fill="#aaaaed"/>
    <circle id="Ellipse_34" data-name="Ellipse 34" cx="6" cy="6" r="6" transform="translate(6645 683)" fill="#aaaaed"/>
    <circle id="Ellipse_60" data-name="Ellipse 60" cx="6" cy="6" r="6" transform="translate(6833 683)" fill="#aaaaed"/>
    <circle id="Ellipse_10" data-name="Ellipse 10" cx="6" cy="6" r="6" transform="translate(6504 773)" fill="#aaaaed"/>
    <circle id="Ellipse_235" data-name="Ellipse 235" cx="6" cy="6" r="6" transform="translate(6457 773)" fill="#aaaaed"/>
    <circle id="Ellipse_127" data-name="Ellipse 127" cx="6" cy="6" r="6" transform="translate(6504 833)" fill="#aaaaed"/>
    <circle id="Ellipse_240" data-name="Ellipse 240" cx="6" cy="6" r="6" transform="translate(6457 833)" fill="#aaaaed"/>
    <circle id="Ellipse_208" data-name="Ellipse 208" cx="6" cy="6" r="6" transform="translate(6504 893)" fill="#aaaaed"/>
    <circle id="Ellipse_242" data-name="Ellipse 242" cx="6" cy="6" r="6" transform="translate(6457 893)" fill="#aaaaed"/>
    <circle id="Ellipse_69" data-name="Ellipse 69" cx="6" cy="6" r="6" transform="translate(6692 773)" fill="#aaaaed"/>
    <circle id="Ellipse_128" data-name="Ellipse 128" cx="6" cy="6" r="6" transform="translate(6692 833)" fill="#aaaaed"/>
    <circle id="Ellipse_214" data-name="Ellipse 214" cx="6" cy="6" r="6" transform="translate(6692 893)" fill="#aaaaed"/>
    <circle id="Ellipse_39" data-name="Ellipse 39" cx="6" cy="6" r="6" transform="translate(6598 773)" fill="#aaaaed"/>
    <circle id="Ellipse_129" data-name="Ellipse 129" cx="6" cy="6" r="6" transform="translate(6598 833)" fill="#aaaaed"/>
    <circle id="Ellipse_209" data-name="Ellipse 209" cx="6" cy="6" r="6" transform="translate(6598 893)" fill="#aaaaed"/>
    <circle id="Ellipse_70" data-name="Ellipse 70" cx="6" cy="6" r="6" transform="translate(6786 773)" fill="#aaaaed"/>
    <circle id="Ellipse_130" data-name="Ellipse 130" cx="6" cy="6" r="6" transform="translate(6786 833)" fill="#aaaaed"/>
    <circle id="Ellipse_218" data-name="Ellipse 218" cx="6" cy="6" r="6" transform="translate(6786 893)" fill="#aaaaed"/>
    <circle id="Ellipse_24" data-name="Ellipse 24" cx="6" cy="6" r="6" transform="translate(6551 773)" fill="#aaaaed"/>
    <circle id="Ellipse_131" data-name="Ellipse 131" cx="6" cy="6" r="6" transform="translate(6551 833)" fill="#aaaaed"/>
    <circle id="Ellipse_210" data-name="Ellipse 210" cx="6" cy="6" r="6" transform="translate(6551 893)" fill="#aaaaed"/>
    <circle id="Ellipse_71" data-name="Ellipse 71" cx="6" cy="6" r="6" transform="translate(6739 773)" fill="#aaaaed"/>
    <circle id="Ellipse_132" data-name="Ellipse 132" cx="6" cy="6" r="6" transform="translate(6739 833)" fill="#aaaaed"/>
    <circle id="Ellipse_216" data-name="Ellipse 216" cx="6" cy="6" r="6" transform="translate(6739 893)" fill="#aaaaed"/>
    <circle id="Ellipse_40" data-name="Ellipse 40" cx="6" cy="6" r="6" transform="translate(6645 773)" fill="#aaaaed"/>
    <circle id="Ellipse_133" data-name="Ellipse 133" cx="6" cy="6" r="6" transform="translate(6645 833)" fill="#aaaaed"/>
    <circle id="Ellipse_212" data-name="Ellipse 212" cx="6" cy="6" r="6" transform="translate(6645 893)" fill="#aaaaed"/>
    <circle id="Ellipse_72" data-name="Ellipse 72" cx="6" cy="6" r="6" transform="translate(6833 773)" fill="#aaaaed"/>
    <circle id="Ellipse_135" data-name="Ellipse 135" cx="6" cy="6" r="6" transform="translate(6833 833)" fill="#aaaaed"/>
    <circle id="Ellipse_220" data-name="Ellipse 220" cx="6" cy="6" r="6" transform="translate(6833 893)" fill="#aaaaed"/>
    <circle id="Ellipse_16" data-name="Ellipse 16" cx="6" cy="6" r="6" transform="translate(6504 653)" fill="#aaaaed"/>
    <circle id="Ellipse_236" data-name="Ellipse 236" cx="6" cy="6" r="6" transform="translate(6457 653)" fill="#aaaaed"/>
    <circle id="Ellipse_48" data-name="Ellipse 48" cx="6" cy="6" r="6" transform="translate(6692 653)" fill="#aaaaed"/>
    <circle id="Ellipse_31" data-name="Ellipse 31" cx="6" cy="6" r="6" transform="translate(6598 653)" fill="#aaaaed"/>
    <circle id="Ellipse_54" data-name="Ellipse 54" cx="6" cy="6" r="6" transform="translate(6786 653)" fill="#aaaaed"/>
    <circle id="Ellipse_20" data-name="Ellipse 20" cx="6" cy="6" r="6" transform="translate(6551 653)" fill="#aaaaed"/>
    <circle id="Ellipse_49" data-name="Ellipse 49" cx="6" cy="6" r="6" transform="translate(6739 653)" fill="#aaaaed"/>
    <circle id="Ellipse_32" data-name="Ellipse 32" cx="6" cy="6" r="6" transform="translate(6645 653)" fill="#aaaaed"/>
    <circle id="Ellipse_62" data-name="Ellipse 62" cx="6" cy="6" r="6" transform="translate(6833 653)" fill="#aaaaed"/>
    <circle id="Ellipse_11" data-name="Ellipse 11" cx="6" cy="6" r="6" transform="translate(6504 713)" fill="#aaaaed"/>
    <circle id="Ellipse_237" data-name="Ellipse 237" cx="6" cy="6" r="6" transform="translate(6457 713)" fill="#aaaaed"/>
    <circle id="Ellipse_56" data-name="Ellipse 56" cx="6" cy="6" r="6" transform="translate(6692 713)" fill="#aaaaed"/>
    <circle id="Ellipse_35" data-name="Ellipse 35" cx="6" cy="6" r="6" transform="translate(6598 713)" fill="#aaaaed"/>
    <circle id="Ellipse_57" data-name="Ellipse 57" cx="6" cy="6" r="6" transform="translate(6786 713)" fill="#aaaaed"/>
    <circle id="Ellipse_22" data-name="Ellipse 22" cx="6" cy="6" r="6" transform="translate(6551 713)" fill="#aaaaed"/>
    <circle id="Ellipse_58" data-name="Ellipse 58" cx="6" cy="6" r="6" transform="translate(6739 713)" fill="#aaaaed"/>
    <circle id="Ellipse_36" data-name="Ellipse 36" cx="6" cy="6" r="6" transform="translate(6645 713)" fill="#aaaaed"/>
    <circle id="Ellipse_63" data-name="Ellipse 63" cx="6" cy="6" r="6" transform="translate(6833 713)" fill="#aaaaed"/>
  </g>
</svg>
