<svg xmlns="http://www.w3.org/2000/svg" width="885" height="574" viewBox="0 0 885 574"><defs><style>.a{fill:#f2f6ff;}.b{fill:#aaaaed;}</style></defs><g transform="translate(-1035 -181)"><rect class="a" width="885" height="574" transform="translate(1035 181)"/><g transform="translate(-5179 -249)"><circle class="b" cx="6" cy="6" r="6" transform="translate(6504 743)"/><circle class="b" cx="6" cy="6" r="6" transform="translate(6457 743)"/><circle class="b" cx="6" cy="6" r="6" transform="translate(6504 803)"/><circle class="b" cx="6" cy="6" r="6" transform="translate(6457 803)"/><circle class="b" cx="6" cy="6" r="6" transform="translate(6504 863)"/><circle class="b" cx="6" cy="6" r="6" transform="translate(6457 863)"/><circle class="b" cx="6" cy="6" r="6" transform="translate(6692 743)"/><circle class="b" cx="6" cy="6" r="6" transform="translate(6692 803)"/><circle class="b" cx="6" cy="6" r="6" transform="translate(6692 863)"/><circle class="b" cx="6" cy="6" r="6" transform="translate(6598 743)"/><circle class="b" cx="6" cy="6" r="6" transform="translate(6598 803)"/><circle class="b" cx="6" cy="6" r="6" transform="translate(6598 863)"/><circle class="b" cx="6" cy="6" r="6" transform="translate(6786 743)"/><circle class="b" cx="6" cy="6" r="6" transform="translate(6786 803)"/><circle class="b" cx="6" cy="6" r="6" transform="translate(6786 863)"/><circle class="b" cx="6" cy="6" r="6" transform="translate(6551 743)"/><circle class="b" cx="6" cy="6" r="6" transform="translate(6551 803)"/><circle class="b" cx="6" cy="6" r="6" transform="translate(6551 863)"/><circle class="b" cx="6" cy="6" r="6" transform="translate(6739 743)"/><circle class="b" cx="6" cy="6" r="6" transform="translate(6739 803)"/><circle class="b" cx="6" cy="6" r="6" transform="translate(6739 863)"/><circle class="b" cx="6" cy="6" r="6" transform="translate(6645 743)"/><circle class="b" cx="6" cy="6" r="6" transform="translate(6645 803)"/><circle class="b" cx="6" cy="6" r="6" transform="translate(6645 863)"/><circle class="b" cx="6" cy="6" r="6" transform="translate(6833 743)"/><circle class="b" cx="6" cy="6" r="6" transform="translate(6833 803)"/><circle class="b" cx="6" cy="6" r="6" transform="translate(6833 863)"/><circle class="b" cx="6" cy="6" r="6" transform="translate(6504 623)"/><circle class="b" cx="6" cy="6" r="6" transform="translate(6457 623)"/><circle class="b" cx="6" cy="6" r="6" transform="translate(6692 623)"/><circle class="b" cx="6" cy="6" r="6" transform="translate(6598 623)"/><circle class="b" cx="6" cy="6" r="6" transform="translate(6786 623)"/><circle class="b" cx="6" cy="6" r="6" transform="translate(6551 623)"/><circle class="b" cx="6" cy="6" r="6" transform="translate(6739 623)"/><circle class="b" cx="6" cy="6" r="6" transform="translate(6645 623)"/><circle class="b" cx="6" cy="6" r="6" transform="translate(6833 623)"/><circle class="b" cx="6" cy="6" r="6" transform="translate(6504 683)"/><circle class="b" cx="6" cy="6" r="6" transform="translate(6457 683)"/><circle class="b" cx="6" cy="6" r="6" transform="translate(6692 683)"/><circle class="b" cx="6" cy="6" r="6" transform="translate(6598 683)"/><circle class="b" cx="6" cy="6" r="6" transform="translate(6786 683)"/><circle class="b" cx="6" cy="6" r="6" transform="translate(6551 683)"/><circle class="b" cx="6" cy="6" r="6" transform="translate(6739 683)"/><circle class="b" cx="6" cy="6" r="6" transform="translate(6645 683)"/><circle class="b" cx="6" cy="6" r="6" transform="translate(6833 683)"/><circle class="b" cx="6" cy="6" r="6" transform="translate(6504 773)"/><circle class="b" cx="6" cy="6" r="6" transform="translate(6457 773)"/><circle class="b" cx="6" cy="6" r="6" transform="translate(6504 833)"/><circle class="b" cx="6" cy="6" r="6" transform="translate(6457 833)"/><circle class="b" cx="6" cy="6" r="6" transform="translate(6504 893)"/><circle class="b" cx="6" cy="6" r="6" transform="translate(6457 893)"/><circle class="b" cx="6" cy="6" r="6" transform="translate(6692 773)"/><circle class="b" cx="6" cy="6" r="6" transform="translate(6692 833)"/><circle class="b" cx="6" cy="6" r="6" transform="translate(6692 893)"/><circle class="b" cx="6" cy="6" r="6" transform="translate(6598 773)"/><circle class="b" cx="6" cy="6" r="6" transform="translate(6598 833)"/><circle class="b" cx="6" cy="6" r="6" transform="translate(6598 893)"/><circle class="b" cx="6" cy="6" r="6" transform="translate(6786 773)"/><circle class="b" cx="6" cy="6" r="6" transform="translate(6786 833)"/><circle class="b" cx="6" cy="6" r="6" transform="translate(6786 893)"/><circle class="b" cx="6" cy="6" r="6" transform="translate(6551 773)"/><circle class="b" cx="6" cy="6" r="6" transform="translate(6551 833)"/><circle class="b" cx="6" cy="6" r="6" transform="translate(6551 893)"/><circle class="b" cx="6" cy="6" r="6" transform="translate(6739 773)"/><circle class="b" cx="6" cy="6" r="6" transform="translate(6739 833)"/><circle class="b" cx="6" cy="6" r="6" transform="translate(6739 893)"/><circle class="b" cx="6" cy="6" r="6" transform="translate(6645 773)"/><circle class="b" cx="6" cy="6" r="6" transform="translate(6645 833)"/><circle class="b" cx="6" cy="6" r="6" transform="translate(6645 893)"/><circle class="b" cx="6" cy="6" r="6" transform="translate(6833 773)"/><circle class="b" cx="6" cy="6" r="6" transform="translate(6833 833)"/><circle class="b" cx="6" cy="6" r="6" transform="translate(6833 893)"/><circle class="b" cx="6" cy="6" r="6" transform="translate(6504 653)"/><circle class="b" cx="6" cy="6" r="6" transform="translate(6457 653)"/><circle class="b" cx="6" cy="6" r="6" transform="translate(6692 653)"/><circle class="b" cx="6" cy="6" r="6" transform="translate(6598 653)"/><circle class="b" cx="6" cy="6" r="6" transform="translate(6786 653)"/><circle class="b" cx="6" cy="6" r="6" transform="translate(6551 653)"/><circle class="b" cx="6" cy="6" r="6" transform="translate(6739 653)"/><circle class="b" cx="6" cy="6" r="6" transform="translate(6645 653)"/><circle class="b" cx="6" cy="6" r="6" transform="translate(6833 653)"/><circle class="b" cx="6" cy="6" r="6" transform="translate(6504 713)"/><circle class="b" cx="6" cy="6" r="6" transform="translate(6457 713)"/><circle class="b" cx="6" cy="6" r="6" transform="translate(6692 713)"/><circle class="b" cx="6" cy="6" r="6" transform="translate(6598 713)"/><circle class="b" cx="6" cy="6" r="6" transform="translate(6786 713)"/><circle class="b" cx="6" cy="6" r="6" transform="translate(6551 713)"/><circle class="b" cx="6" cy="6" r="6" transform="translate(6739 713)"/><circle class="b" cx="6" cy="6" r="6" transform="translate(6645 713)"/><circle class="b" cx="6" cy="6" r="6" transform="translate(6833 713)"/></g></g></svg>