<svg xmlns="http://www.w3.org/2000/svg" xmlns:xlink="http://www.w3.org/1999/xlink" width="685.029" height="457" viewBox="0 0 685.029 457"><defs><style>.a,.c{fill:none;}.b{fill:#aaaaed;}.c{stroke:#34383c;stroke-width:0.5px;}.d{fill:#fff;}.e{fill:#1f224e;}.f{fill:#34383c;}.g{fill:#e59f3f;}.h{fill:#eb3f00;}.i{fill:#f8be3b;}.j{fill:#63d600;}.k{isolation:isolate;}.l{fill:#f2f6ff;}.m{clip-path:url(#a);}.n{opacity:0.8;}.o{fill:#212121;}.p{opacity:0.7;}.q{fill:#292929;}.r{opacity:0.5;}.s{fill:#272727;}.t{opacity:0.3;}.u{fill:#222;}.v{opacity:0.1;}.w{fill:#3e3e3e;}.x{fill:#333443;}</style><clipPath id="a"><path class="a" d="M874.459-118.385a102.906,102.906,0,0,1,4.28-145.465,102.9,102.9,0,0,1,145.463,4.278l0,0a102.9,102.9,0,0,1-2.17,143.414l51.786,50.567a173.946,173.946,0,0,0,.9-246h0a173.948,173.948,0,0,0-246-.893,173.948,173.948,0,0,0-1.6,245.285Z" transform="translate(-777.323 362.982)"/></clipPath></defs><g transform="translate(-980.971 -1551)"><g transform="translate(-5179 1103)"><circle class="b" cx="6" cy="6" r="6" transform="translate(6504 743)"/><circle class="b" cx="6" cy="6" r="6" transform="translate(6457 743)"/><circle class="b" cx="6" cy="6" r="6" transform="translate(6504 803)"/><circle class="b" cx="6" cy="6" r="6" transform="translate(6457 803)"/><circle class="b" cx="6" cy="6" r="6" transform="translate(6504 863)"/><circle class="b" cx="6" cy="6" r="6" transform="translate(6457 863)"/><circle class="b" cx="6" cy="6" r="6" transform="translate(6692 743)"/><circle class="b" cx="6" cy="6" r="6" transform="translate(6692 803)"/><circle class="b" cx="6" cy="6" r="6" transform="translate(6692 863)"/><circle class="b" cx="6" cy="6" r="6" transform="translate(6598 743)"/><circle class="b" cx="6" cy="6" r="6" transform="translate(6598 803)"/><circle class="b" cx="6" cy="6" r="6" transform="translate(6598 863)"/><circle class="b" cx="6" cy="6" r="6" transform="translate(6786 743)"/><circle class="b" cx="6" cy="6" r="6" transform="translate(6786 803)"/><circle class="b" cx="6" cy="6" r="6" transform="translate(6786 863)"/><circle class="b" cx="6" cy="6" r="6" transform="translate(6551 743)"/><circle class="b" cx="6" cy="6" r="6" transform="translate(6551 803)"/><circle class="b" cx="6" cy="6" r="6" transform="translate(6551 863)"/><circle class="b" cx="6" cy="6" r="6" transform="translate(6739 743)"/><circle class="b" cx="6" cy="6" r="6" transform="translate(6739 803)"/><circle class="b" cx="6" cy="6" r="6" transform="translate(6739 863)"/><circle class="b" cx="6" cy="6" r="6" transform="translate(6645 743)"/><circle class="b" cx="6" cy="6" r="6" transform="translate(6645 803)"/><circle class="b" cx="6" cy="6" r="6" transform="translate(6645 863)"/><circle class="b" cx="6" cy="6" r="6" transform="translate(6833 743)"/><circle class="b" cx="6" cy="6" r="6" transform="translate(6833 803)"/><circle class="b" cx="6" cy="6" r="6" transform="translate(6833 863)"/><circle class="b" cx="6" cy="6" r="6" transform="translate(6504 623)"/><circle class="b" cx="6" cy="6" r="6" transform="translate(6457 623)"/><circle class="b" cx="6" cy="6" r="6" transform="translate(6692 623)"/><circle class="b" cx="6" cy="6" r="6" transform="translate(6598 623)"/><circle class="b" cx="6" cy="6" r="6" transform="translate(6786 623)"/><circle class="b" cx="6" cy="6" r="6" transform="translate(6551 623)"/><circle class="b" cx="6" cy="6" r="6" transform="translate(6739 623)"/><circle class="b" cx="6" cy="6" r="6" transform="translate(6645 623)"/><circle class="b" cx="6" cy="6" r="6" transform="translate(6833 623)"/><circle class="b" cx="6" cy="6" r="6" transform="translate(6504 683)"/><circle class="b" cx="6" cy="6" r="6" transform="translate(6457 683)"/><circle class="b" cx="6" cy="6" r="6" transform="translate(6692 683)"/><circle class="b" cx="6" cy="6" r="6" transform="translate(6598 683)"/><circle class="b" cx="6" cy="6" r="6" transform="translate(6786 683)"/><circle class="b" cx="6" cy="6" r="6" transform="translate(6551 683)"/><circle class="b" cx="6" cy="6" r="6" transform="translate(6739 683)"/><circle class="b" cx="6" cy="6" r="6" transform="translate(6645 683)"/><circle class="b" cx="6" cy="6" r="6" transform="translate(6833 683)"/><circle class="b" cx="6" cy="6" r="6" transform="translate(6504 773)"/><circle class="b" cx="6" cy="6" r="6" transform="translate(6457 773)"/><circle class="b" cx="6" cy="6" r="6" transform="translate(6504 833)"/><circle class="b" cx="6" cy="6" r="6" transform="translate(6457 833)"/><circle class="b" cx="6" cy="6" r="6" transform="translate(6504 893)"/><circle class="b" cx="6" cy="6" r="6" transform="translate(6457 893)"/><circle class="b" cx="6" cy="6" r="6" transform="translate(6692 773)"/><circle class="b" cx="6" cy="6" r="6" transform="translate(6692 833)"/><circle class="b" cx="6" cy="6" r="6" transform="translate(6692 893)"/><circle class="b" cx="6" cy="6" r="6" transform="translate(6598 773)"/><circle class="b" cx="6" cy="6" r="6" transform="translate(6598 833)"/><circle class="b" cx="6" cy="6" r="6" transform="translate(6598 893)"/><circle class="b" cx="6" cy="6" r="6" transform="translate(6786 773)"/><circle class="b" cx="6" cy="6" r="6" transform="translate(6786 833)"/><circle class="b" cx="6" cy="6" r="6" transform="translate(6786 893)"/><circle class="b" cx="6" cy="6" r="6" transform="translate(6551 773)"/><circle class="b" cx="6" cy="6" r="6" transform="translate(6551 833)"/><circle class="b" cx="6" cy="6" r="6" transform="translate(6551 893)"/><circle class="b" cx="6" cy="6" r="6" transform="translate(6739 773)"/><circle class="b" cx="6" cy="6" r="6" transform="translate(6739 833)"/><circle class="b" cx="6" cy="6" r="6" transform="translate(6739 893)"/><circle class="b" cx="6" cy="6" r="6" transform="translate(6645 773)"/><circle class="b" cx="6" cy="6" r="6" transform="translate(6645 833)"/><circle class="b" cx="6" cy="6" r="6" transform="translate(6645 893)"/><circle class="b" cx="6" cy="6" r="6" transform="translate(6833 773)"/><circle class="b" cx="6" cy="6" r="6" transform="translate(6833 833)"/><circle class="b" cx="6" cy="6" r="6" transform="translate(6833 893)"/><circle class="b" cx="6" cy="6" r="6" transform="translate(6504 653)"/><circle class="b" cx="6" cy="6" r="6" transform="translate(6457 653)"/><circle class="b" cx="6" cy="6" r="6" transform="translate(6692 653)"/><circle class="b" cx="6" cy="6" r="6" transform="translate(6598 653)"/><circle class="b" cx="6" cy="6" r="6" transform="translate(6786 653)"/><circle class="b" cx="6" cy="6" r="6" transform="translate(6551 653)"/><circle class="b" cx="6" cy="6" r="6" transform="translate(6739 653)"/><circle class="b" cx="6" cy="6" r="6" transform="translate(6645 653)"/><circle class="b" cx="6" cy="6" r="6" transform="translate(6833 653)"/><circle class="b" cx="6" cy="6" r="6" transform="translate(6504 713)"/><circle class="b" cx="6" cy="6" r="6" transform="translate(6457 713)"/><circle class="b" cx="6" cy="6" r="6" transform="translate(6692 713)"/><circle class="b" cx="6" cy="6" r="6" transform="translate(6598 713)"/><circle class="b" cx="6" cy="6" r="6" transform="translate(6786 713)"/><circle class="b" cx="6" cy="6" r="6" transform="translate(6551 713)"/><circle class="b" cx="6" cy="6" r="6" transform="translate(6739 713)"/><circle class="b" cx="6" cy="6" r="6" transform="translate(6645 713)"/><circle class="b" cx="6" cy="6" r="6" transform="translate(6833 713)"/></g><line class="c" y1="33" transform="translate(1530.5 1917.5)"/><g transform="translate(482.471 1926.46)"><g transform="translate(498.5 -375.461)"><g transform="translate(0 37.79)"><g transform="translate(0.375 0.379)"><path class="d" d="M0,0H549.212V361.509H0Z"/><path class="e" d="M0,0H549.212V35.033H0Z"/></g><path class="f" d="M1048.086,19.521c0-2.468-.114-141-.3-361.509l.3.3-549.165.078h-.043l.381-.379c-.011,128.6-.022,250.969-.032,361.509l-.348-.348,549.212.347V19.9l-549.212-.027h-.348v-.349c-.01-110.541-.021-232.907-.031-361.509v-.381h.424l549.165.078h.3v.3C1048.205-121.472,1048.088,17.06,1048.086,19.521Z" transform="translate(-498.5 342.368)"/><g transform="translate(0 34.443)"><g transform="translate(0 0)"><path class="f" d="M1046.637-314.206v.913H498.5v-.913H772.768C924.008-314.207,1046.637-314.206,1046.637-314.206Z" transform="translate(-498.5 314.206)"/></g></g><g transform="translate(51.547 86.03)"><rect class="b" width="460.42" height="63.011"/></g><g transform="translate(98.391 181.776)"><g transform="translate(0.372 0.377)"><path class="g" d="M712.673-149.087h-110.8a16.888,16.888,0,0,1-16.886-16.885h0a16.886,16.886,0,0,1,16.886-16.886h110.8a16.887,16.887,0,0,1,16.885,16.886h0a16.885,16.885,0,0,1-16.885,16.885Z" transform="translate(-584.986 182.858)"/></g><path class="f" d="M842.241-149.041s.513-.051,1.51-.114c.5-.038,1.108-.169,1.84-.277a18.6,18.6,0,0,0,2.46-.73,16.769,16.769,0,0,0,10.581-12.347,16.922,16.922,0,0,0-1.961-11.8,16.67,16.67,0,0,0-11.55-8.018,58.332,58.332,0,0,0-8.126-.251l-8.71.015-18.931.2-207.414-.056a16.494,16.494,0,0,0-16.679,16.3h0a16.493,16.493,0,0,0,15.58,16.655c2.357.114,4.8.032,7.168.057l55.072.022,93.251.082,62.866.121,17.093.072,4.444.038c1,.011,1.514.038,1.514.038s-.513.026-1.514.04l-4.444.038-17.093.344-62.866-.157-93.251.082-55.072.022c-2.4-.025-4.763.058-7.216-.054A17.253,17.253,0,0,1,584.7-167.056a17.254,17.254,0,0,1,17.244-16.132l207.413.114,18.932.027,8.71.015a57.993,57.993,0,0,1,8.2.292,17.062,17.062,0,0,1,11.791,8.254,16.932,16.932,0,0,1-6.091,23.158l0,0a16.968,16.968,0,0,1-2.8,1.305,18.505,18.505,0,0,1-2.481.7c-.739.1-1.354.215-1.856.241C842.748-149.041,842.241-149.041,842.241-149.041Z" transform="translate(-584.661 183.188)"/></g><g transform="translate(13.304 11.715)"><path class="h" d="M521.569-324.4a5.709,5.709,0,0,1-5.706,5.713h0a5.71,5.71,0,0,1-5.712-5.708,5.711,5.711,0,0,1,5.707-5.711h0A5.709,5.709,0,0,1,521.569-324.4Z" transform="translate(-510.15 330.109)"/></g><g transform="translate(30.411 11.715)"><path class="i" d="M536.551-324.4a5.709,5.709,0,0,1-5.706,5.713h0a5.712,5.712,0,0,1-5.712-5.708,5.711,5.711,0,0,1,5.707-5.711h0A5.709,5.709,0,0,1,536.551-324.4Z" transform="translate(-525.131 330.109)"/></g><g transform="translate(47.521 11.714)"><path class="j" d="M551.534-324.4a5.71,5.71,0,0,1-5.71,5.71,5.712,5.712,0,0,1-5.71-5.71,5.71,5.71,0,0,1,5.71-5.71,5.707,5.707,0,0,1,5.71,5.707Z" transform="translate(-540.114 330.11)"/></g><g class="k" transform="translate(214.502 225.634)"><g class="k"><path class="e" d="M686.338-144.782h3.426L692-135.6l.274,1.713h.183l.365-1.713,2.878-9.181h3.038l2.809,9.181.365,1.667h.183l.274-1.667,2.215-9.181h3.426l-4.225,16.353h-3.312l-2.786-9.866-.365-1.759h-.183l-.365,1.759-2.923,9.866h-3.175Z" transform="translate(-686.338 144.782)"/><path class="e" d="M707.318-144.782h5.961a5.957,5.957,0,0,1,2.843.662,4.793,4.793,0,0,1,1.93,1.839,5.188,5.188,0,0,1,.685,2.661,4.31,4.31,0,0,1-.993,2.8,5.652,5.652,0,0,1-2.5,1.77l-.023.16,4.385,6.281v.183h-3.54l-4.225-6.144H710.4v6.144h-3.083Zm5.938,7.377a2.366,2.366,0,0,0,1.713-.639,2.161,2.161,0,0,0,.662-1.622,2.243,2.243,0,0,0-.628-1.6,2.233,2.233,0,0,0-1.7-.662h-2.9v4.522Z" transform="translate(-683.36 144.782)"/><path class="e" d="M724.779-144.782h3.539l6.145,16.353h-3.4l-1.372-3.905H723.43l-1.37,3.905h-3.4Zm3.905,9.615-1.44-4.111-.594-1.964h-.182l-.594,1.964-1.463,4.111Z" transform="translate(-681.75 144.782)"/><path class="e" d="M734.438-144.782h5.755a6.16,6.16,0,0,1,2.832.651,4.959,4.959,0,0,1,2.009,1.827,4.977,4.977,0,0,1,.731,2.684,5.034,5.034,0,0,1-.731,2.7,4.931,4.931,0,0,1-2.009,1.839,6.16,6.16,0,0,1-2.832.651H737.52v6.007h-3.082Zm5.846,7.423a2.4,2.4,0,0,0,1.793-.662,2.2,2.2,0,0,0,.651-1.6,2.161,2.161,0,0,0-.651-1.587,2.421,2.421,0,0,0-1.793-.651H737.52v4.5Z" transform="translate(-679.51 144.782)"/></g></g></g><g transform="translate(300.287)"><g transform="translate(0.371 0.251)"><circle class="l" cx="191.684" cy="191.684" r="191.684"/></g><path class="e" d="M1145.2-183.525s-.052-1.053-.114-3.107q-.043-1.547-.114-3.827c-.036-1.522-.075-3.29-.273-5.287q-.228-3-.526-6.7c-.251-2.461-.646-5.139-1.007-8.047a201.2,201.2,0,0,0-3.9-19.851,190.084,190.084,0,0,0-7.848-24.057,184.836,184.836,0,0,0-13.336-26.987,193.785,193.785,0,0,0-48.647-54.422,190.957,190.957,0,0,0-80.59-35.761,194.5,194.5,0,0,0-74.994.86A188.9,188.9,0,0,0,863.368-352.3a201.6,201.6,0,0,0-23.573,14.928,209.982,209.982,0,0,0-21.591,18.6,206.248,206.248,0,0,0-18.9,22.059,188.679,188.679,0,0,0-15.6,25.106c-1.1,2.23-2.344,4.4-3.332,6.69q-1.542,3.414-3.091,6.84c-1.847,4.659-3.756,9.318-5.278,14.136a186.4,186.4,0,0,0-7.288,29.6,190.948,190.948,0,0,0-.007,61.6,186.829,186.829,0,0,0,7.283,29.609l1.215,3.587.605,1.789.692,1.752q1.384,3.511,2.766,7.006,1.55,3.426,3.091,6.841c.987,2.3,2.231,4.46,3.332,6.691a188.5,188.5,0,0,0,15.6,25.123A206.337,206.337,0,0,0,818.2-48.287a209.679,209.679,0,0,0,21.583,18.6A191.715,191.715,0,0,0,888.258-3.617a204.319,204.319,0,0,0,25.589,7.3,194.512,194.512,0,0,0,75,.855,190.925,190.925,0,0,0,80.589-35.773,193.71,193.71,0,0,0,48.647-54.432,184.879,184.879,0,0,0,13.328-26.984,189.76,189.76,0,0,0,7.851-24.067,201.134,201.134,0,0,0,3.894-19.851c.361-2.907.756-5.586,1.007-8.047q.293-3.7.529-6.7c.194-2,.235-3.768.272-5.285s.084-2.8.114-3.826c.066-2.056.114-3.107.114-3.107s0,1.053-.04,3.107q-.033,1.548-.079,3.83c-.023,1.523-.052,3.291-.235,5.291q-.219,3-.492,6.715c-.238,2.464-.621,5.147-.971,8.06a200.31,200.31,0,0,1-3.831,19.886,189.326,189.326,0,0,1-7.8,24.127,184.59,184.59,0,0,1-13.3,27.064,193.9,193.9,0,0,1-48.672,54.637,191.412,191.412,0,0,1-80.8,35.966,195.052,195.052,0,0,1-75.255-.806,189.422,189.422,0,0,1-50.684-18.47A202.045,202.045,0,0,1,839.36-29.1a210.557,210.557,0,0,1-21.682-18.664,207.12,207.12,0,0,1-18.984-22.137,189.235,189.235,0,0,1-15.668-25.213c-1.105-2.239-2.356-4.414-3.347-6.715q-1.549-3.426-3.1-6.86L773.8-115.73l-.693-1.764-.609-1.8-1.218-3.6a187.494,187.494,0,0,1-7.315-29.725,191.662,191.662,0,0,1,.009-61.832,186.985,186.985,0,0,1,7.32-29.715c1.529-4.838,3.446-9.515,5.3-14.193l3.1-6.861c.993-2.3,2.242-4.478,3.347-6.715a189.445,189.445,0,0,1,15.668-25.205,207.058,207.058,0,0,1,18.975-22.139,210.732,210.732,0,0,1,21.68-18.658,192.285,192.285,0,0,1,48.662-26.128,204.9,204.9,0,0,1,25.694-7.308,195.089,195.089,0,0,1,75.24-.832,191.4,191.4,0,0,1,80.8,35.957,193.925,193.925,0,0,1,48.685,54.632,184.634,184.634,0,0,1,13.3,27.07,188.83,188.83,0,0,1,7.8,24.129,200.09,200.09,0,0,1,3.839,19.889c.349,2.919.73,5.6.972,8.061q.272,3.7.492,6.715c.183,2,.211,3.768.235,5.291s.057,2.8.079,3.83C1145.2-184.577,1145.2-183.525,1145.2-183.525Z" transform="translate(-761.459 375.461)"/><g transform="translate(18.116 14.251)"><g class="m"><g transform="translate(-6.166 -0.022)"><g transform="translate(6.166 0.022)"><path class="g" d="M874.459-118.385a102.906,102.906,0,0,1,4.28-145.465,102.9,102.9,0,0,1,145.463,4.278l0,0a102.9,102.9,0,0,1-2.17,143.414l51.786,50.567a173.946,173.946,0,0,0,.9-246h0a173.948,173.948,0,0,0-246-.893,173.948,173.948,0,0,0-1.6,245.285Z" transform="translate(-777.323 362.982)"/></g><g class="n" transform="translate(250.555 173.126)"><path class="o" d="M1021.028-211.381l73.468-.014s3.586,25.331-8.74,63.081-48.883,79.761-48.883,79.761l-45.54-68.836Z" transform="translate(-991.332 211.395)"/></g><g class="p" transform="translate(250.702 50.459)"><path class="q" d="M991.461-263.564l55.87-55.25s25.091,28.851,37.4,58.9,11.2,63.76,11.2,63.76l-75.461.078c-1.348-12.221-1.925-23.344-6.422-34.787C1006.863-248.408,991.461-263.564,991.461-263.564Z" transform="translate(-991.461 318.814)"/></g><g class="r" transform="translate(183.659 0.089)"><path class="s" d="M932.752-292.091l.524-70.541s42.8-3.292,74.1,12.3,47.838,38.584,47.838,38.584l-55.3,54.46c-7.753-9.1-16.418-17.678-27.2-22.85C955.356-288.209,932.752-292.091,932.752-292.091Z" transform="translate(-932.752 362.922)"/></g><g class="t" transform="translate(53.984)"><path class="u" d="M819.2-308.23c1.418.473,47.634,50.464,47.634,50.464s16.887-16.353,37.406-24.849,44.6-6.2,44.6-6.2l.612-74.155s-37.156-1.27-71.125,12.683S819.2-308.23,819.2-308.23Z" transform="translate(-819.196 363)"/></g><g class="v" transform="translate(0 53.024)"><path class="w" d="M771.923-196.465c1.418.946,104.057,0,104.057,0l-1.81-67.549-49.543-52.554L790.843-276.4Z" transform="translate(-771.923 316.568)"/></g></g></g></g><g transform="translate(154.068 151.996)"><circle class="x" cx="39.94" cy="39.94" r="39.94"/></g><g transform="translate(182.601 102.545)"><path class="g" d="M924.442-188.025h0a11.34,11.34,0,0,0,15.963.541l105.851-98.179L926.38-205.215a11.348,11.348,0,0,0-3.087,15.749A11.342,11.342,0,0,0,924.442-188.025Z" transform="translate(-921.362 285.663)"/></g><g transform="translate(119.975 278.316)"><path class="g" d="M919.227-131.741l-7.641,38.759H901.453l3.988-20.435-12.9,16.611H887.72l-7.031-16.611-4.1,20.435H866.52l7.75-38.759h8.914l9.081,22.425,17.608-22.425Z" transform="translate(-866.52 131.741)"/><path class="g" d="M949.916-124.018l-5.985,30.009h-9.966l.61-2.824a12.321,12.321,0,0,1-8.695,3.322c-6.476,0-12.676-4.929-12.676-13.677,0-9.966,7.309-17.33,16.277-17.33,4.044,0,7.308,1.218,9.2,4.1l.719-3.6Zm-13.233,13.675a5.307,5.307,0,0,0-4.818-5.754h0a5.207,5.207,0,0,0-.885,0c-4.152,0-7.143,3.378-7.143,8.416a5.268,5.268,0,0,0,4.79,5.7,5.307,5.307,0,0,0,.914,0c4.208,0,7.143-3.378,7.143-8.364Z" transform="translate(-859.893 132.766)"/><path class="g" d="M969.077-108.965l8.139,14.9H966.033l-4.1-7.863-7.247,7.862h-11.9l15.005-15.394-7.918-14.617h11.013l3.986,7.64,7.143-7.64H983.58Z" transform="translate(-855.694 132.828)"/><path class="g" d="M975.361-101.571a6.532,6.532,0,0,1,6.358-6.7h.4a5.535,5.535,0,0,1,5.914,5.131h0a5.032,5.032,0,0,1,.009.629,6.547,6.547,0,0,1-6.391,6.7h-.308a5.673,5.673,0,0,1-5.971-5.359v0C975.364-101.307,975.36-101.439,975.361-101.571Z" transform="translate(-851.07 135.07)"/></g><g transform="translate(107.802 99.118)"><path class="e" d="M1014.316-237.852a3.412,3.412,0,0,1-.292-.539c-.191-.394-.448-.928-.776-1.606-.343-.7-.73-1.606-1.256-2.616l-1.9-3.478c-.73-1.3-1.654-2.677-2.6-4.225-1.01-1.5-2.155-3.11-3.412-4.806a92.387,92.387,0,0,0-9.65-10.626,84.57,84.57,0,0,0-32.024-18.644,77.25,77.25,0,0,0-21.689-3.516,84.152,84.152,0,0,0-45.161,12.026,77.287,77.287,0,0,0-17.078,13.84,84.622,84.622,0,0,0-18.511,32.112,92.693,92.693,0,0,0-3.083,14.013c-.248,2.1-.437,4.061-.571,5.867-.052,1.81-.167,3.465-.156,4.963s.058,2.807.083,3.96.158,2.114.208,2.9c.054.755.095,1.346.127,1.783a3.523,3.523,0,0,1,.017.612,3.706,3.706,0,0,1-.095-.6l-.2-1.778c-.073-.782-.21-1.752-.28-2.9q-.065-1.735-.146-3.972c-.033-1.495.057-3.157.089-4.978.109-1.816.282-3.795.51-5.9a91.383,91.383,0,0,1,2.992-14.121,84.565,84.565,0,0,1,18.512-32.422,77.58,77.58,0,0,1,17.2-14,84.531,84.531,0,0,1,45.564-12.132,77.572,77.572,0,0,1,21.881,3.593,84.527,84.527,0,0,1,32.18,18.906,91.006,91.006,0,0,1,9.62,10.762c1.249,1.72,2.381,3.346,3.379,4.866.933,1.563,1.837,2.96,2.553,4.274l1.843,3.522c.51,1.028.876,1.941,1.2,2.654l.709,1.643A3.755,3.755,0,0,1,1014.316-237.852Z" transform="translate(-855.861 288.664)"/><g transform="translate(45.889 13.861)"><path class="e" d="M992.095-243.568a6.1,6.1,0,0,1-.685-.876c-.437-.571-1.012-1.485-1.873-2.56A73.557,73.557,0,0,0,968.081-266.1a69.671,69.671,0,0,0-40.481-9.559,73.666,73.666,0,0,0-27.732,7.479c-1.256.584-2.17,1.135-2.818,1.453a5.9,5.9,0,0,1-1,.476,6.237,6.237,0,0,1,.927-.609c.631-.361,1.526-.961,2.761-1.584a66.353,66.353,0,0,1,10.778-4.568,70.574,70.574,0,0,1,71.668,16.923,66.12,66.12,0,0,1,7.591,8.907c.828,1.108,1.358,2.043,1.76,2.65A5.905,5.905,0,0,1,992.095-243.568Z" transform="translate(-896.045 276.525)"/></g></g></g></g><g transform="translate(825.852 -48.864)"><g transform="translate(57.882)"><path class="g" d="M838.549-84.092a1.232,1.232,0,0,1-1.2-1.26,1.229,1.229,0,0,1,.052-.328,2.22,2.22,0,0,1,2.034-1.619l70.628-.659a1.241,1.241,0,0,1,1.338,1.135,1.236,1.236,0,0,1-.048.457,2.22,2.22,0,0,1-2.045,1.623l-70.623.655C838.638-84.087,838.593-84.09,838.549-84.092Z" transform="translate(-835.634 89.676)"/><path class="g" d="M838.913-82.161c-.093,0-.164,0-.233-.006a2.924,2.924,0,0,1-2.019-.91,2.924,2.924,0,0,1-.813-2.1,2.937,2.937,0,0,1,.124-.782,3.914,3.914,0,0,1,3.595-2.837l70.642-.66a2.935,2.935,0,0,1,2.078.7,2.935,2.935,0,0,1,1.032,2.012,2.928,2.928,0,0,1-.114,1.088,3.913,3.913,0,0,1-3.613,2.843Zm.352-2.846v0Zm70.649-1.6v0Z" transform="translate(-835.847 89.462)"/></g><g transform="translate(118.176 11.389)"><path class="g" d="M891.348-74.557a1.231,1.231,0,0,1-1.2-1.258,1.232,1.232,0,0,1,.054-.329,2.218,2.218,0,0,1,2.034-1.62l22.994-.219a1.24,1.24,0,0,1,1.338,1.132,1.251,1.251,0,0,1-.048.46,2.222,2.222,0,0,1-2.048,1.628l-22.989.21A1.313,1.313,0,0,1,891.348-74.557Z" transform="translate(-888.433 79.702)"/><path class="g" d="M891.661-72.626c-.054,0-.116,0-.182-.007a2.948,2.948,0,0,1-2.832-3.011,2.969,2.969,0,0,1,.127-.788,3.909,3.909,0,0,1,3.595-2.832l23.007-.22a2.957,2.957,0,0,1,3.112,2.7,2.962,2.962,0,0,1-.114,1.1,3.909,3.909,0,0,1-3.617,2.847l-23.045.212Zm.018-3.424-.118,1.7.125-1.7Zm.386.576h0Zm23.015-1.161v0Z" transform="translate(-888.646 79.489)"/></g><g transform="translate(0 32.463)"><path class="g" d="M787.862-56.109a1.231,1.231,0,0,1-1.2-1.258,1.235,1.235,0,0,1,.052-.329,2.219,2.219,0,0,1,2.034-1.62l22.994-.214A1.241,1.241,0,0,1,813.08-58.4a1.259,1.259,0,0,1-.048.457,2.223,2.223,0,0,1-2.047,1.623L788-56.106A1.307,1.307,0,0,1,787.862-56.109Z" transform="translate(-784.947 61.248)"/><path class="g" d="M788.174-54.179c-.054,0-.115,0-.18-.006a2.923,2.923,0,0,1-2.019-.909,2.92,2.92,0,0,1-.813-2.1,2.926,2.926,0,0,1,.126-.785,3.913,3.913,0,0,1,3.595-2.835l23.008-.215A2.954,2.954,0,0,1,815-58.323a2.945,2.945,0,0,1-.113,1.088,3.914,3.914,0,0,1-3.618,2.843l-23.044.212Zm.019-3.422-.118,1.7.124-1.7Zm.385.576v0Zm23.016-1.161v0Z" transform="translate(-785.16 61.035)"/></g><g transform="translate(21.277 20.112)"><path class="g" d="M806.494-66.5a1.231,1.231,0,0,1-1.2-1.26,1.283,1.283,0,0,1,.052-.328,2.218,2.218,0,0,1,2.035-1.623l68.885-.639A1.242,1.242,0,0,1,877.6-69.21a1.252,1.252,0,0,1-.048.456,2.22,2.22,0,0,1-2.045,1.623l-68.88.639C806.583-66.492,806.539-66.494,806.494-66.5Z" transform="translate(-803.579 72.064)"/><path class="g" d="M806.855-64.565c-.086,0-.159,0-.23-.007a2.948,2.948,0,0,1-2.832-3.011,2.931,2.931,0,0,1,.126-.782,3.909,3.909,0,0,1,3.6-2.84l68.9-.641a2.942,2.942,0,0,1,2.078.7,2.927,2.927,0,0,1,1.031,2.012,2.909,2.909,0,0,1-.114,1.086,3.911,3.911,0,0,1-3.613,2.842l-68.937.642Zm.356-2.85v0ZM876.116-69v0Z" transform="translate(-803.792 71.851)"/></g></g></g></g></svg>