<svg xmlns="http://www.w3.org/2000/svg" width="576.154" height="457" viewBox="0 0 576.154 457"><defs><style>.a{fill:#aaaaed;}.b{fill:#e2e7e8;opacity:0.327;}.c{fill:#57a861;}.d{fill:#499350;}.e{fill:#43804b;}.f{fill:#fff;}.g{fill:#ffc68d;}.h{fill:#f69d69;}.i{fill:#a3a3a3;opacity:0.096;}.j{fill:#ffbe38;}.k{fill:#b3510d;}.l{fill:#f78f2a;}.m{fill:#cc6e0b;}.n{fill:#ffec37;}.o{fill:#e0772e;}.p{fill:#f68b09;}.q{fill:#ffa42c;}.r{fill:#ffa82c;}.s{fill:#ffb93e;}.t{fill:#e64d15;}.u{fill:#ffc39b;}.v{fill:#623423;}.w{fill:#eaa87c;}.x{fill:#012b42;}.y{fill:#283c76;}.z{fill:#f5a58e;}.aa{fill:#282133;}.ab{fill:#2a4785;}.ac{fill:#161d2f;}.ad{fill:#ffaa34;}</style></defs><g transform="translate(-1089.846 -1551)"><g transform="translate(-5179 928)"><circle class="a" cx="6" cy="6" r="6" transform="translate(6504 743)"/><circle class="a" cx="6" cy="6" r="6" transform="translate(6457 743)"/><circle class="a" cx="6" cy="6" r="6" transform="translate(6504 803)"/><circle class="a" cx="6" cy="6" r="6" transform="translate(6457 803)"/><circle class="a" cx="6" cy="6" r="6" transform="translate(6504 863)"/><circle class="a" cx="6" cy="6" r="6" transform="translate(6457 863)"/><circle class="a" cx="6" cy="6" r="6" transform="translate(6692 743)"/><circle class="a" cx="6" cy="6" r="6" transform="translate(6692 803)"/><circle class="a" cx="6" cy="6" r="6" transform="translate(6692 863)"/><circle class="a" cx="6" cy="6" r="6" transform="translate(6598 743)"/><circle class="a" cx="6" cy="6" r="6" transform="translate(6598 803)"/><circle class="a" cx="6" cy="6" r="6" transform="translate(6598 863)"/><circle class="a" cx="6" cy="6" r="6" transform="translate(6786 743)"/><circle class="a" cx="6" cy="6" r="6" transform="translate(6786 803)"/><circle class="a" cx="6" cy="6" r="6" transform="translate(6786 863)"/><circle class="a" cx="6" cy="6" r="6" transform="translate(6551 743)"/><circle class="a" cx="6" cy="6" r="6" transform="translate(6551 803)"/><circle class="a" cx="6" cy="6" r="6" transform="translate(6551 863)"/><circle class="a" cx="6" cy="6" r="6" transform="translate(6739 743)"/><circle class="a" cx="6" cy="6" r="6" transform="translate(6739 803)"/><circle class="a" cx="6" cy="6" r="6" transform="translate(6739 863)"/><circle class="a" cx="6" cy="6" r="6" transform="translate(6645 743)"/><circle class="a" cx="6" cy="6" r="6" transform="translate(6645 803)"/><circle class="a" cx="6" cy="6" r="6" transform="translate(6645 863)"/><circle class="a" cx="6" cy="6" r="6" transform="translate(6833 743)"/><circle class="a" cx="6" cy="6" r="6" transform="translate(6833 803)"/><circle class="a" cx="6" cy="6" r="6" transform="translate(6833 863)"/><circle class="a" cx="6" cy="6" r="6" transform="translate(6504 623)"/><circle class="a" cx="6" cy="6" r="6" transform="translate(6457 623)"/><circle class="a" cx="6" cy="6" r="6" transform="translate(6692 623)"/><circle class="a" cx="6" cy="6" r="6" transform="translate(6598 623)"/><circle class="a" cx="6" cy="6" r="6" transform="translate(6786 623)"/><circle class="a" cx="6" cy="6" r="6" transform="translate(6551 623)"/><circle class="a" cx="6" cy="6" r="6" transform="translate(6739 623)"/><circle class="a" cx="6" cy="6" r="6" transform="translate(6645 623)"/><circle class="a" cx="6" cy="6" r="6" transform="translate(6833 623)"/><circle class="a" cx="6" cy="6" r="6" transform="translate(6504 683)"/><circle class="a" cx="6" cy="6" r="6" transform="translate(6457 683)"/><circle class="a" cx="6" cy="6" r="6" transform="translate(6692 683)"/><circle class="a" cx="6" cy="6" r="6" transform="translate(6598 683)"/><circle class="a" cx="6" cy="6" r="6" transform="translate(6786 683)"/><circle class="a" cx="6" cy="6" r="6" transform="translate(6551 683)"/><circle class="a" cx="6" cy="6" r="6" transform="translate(6739 683)"/><circle class="a" cx="6" cy="6" r="6" transform="translate(6645 683)"/><circle class="a" cx="6" cy="6" r="6" transform="translate(6833 683)"/><circle class="a" cx="6" cy="6" r="6" transform="translate(6504 773)"/><circle class="a" cx="6" cy="6" r="6" transform="translate(6457 773)"/><circle class="a" cx="6" cy="6" r="6" transform="translate(6504 833)"/><circle class="a" cx="6" cy="6" r="6" transform="translate(6457 833)"/><circle class="a" cx="6" cy="6" r="6" transform="translate(6504 893)"/><circle class="a" cx="6" cy="6" r="6" transform="translate(6457 893)"/><circle class="a" cx="6" cy="6" r="6" transform="translate(6692 773)"/><circle class="a" cx="6" cy="6" r="6" transform="translate(6692 833)"/><circle class="a" cx="6" cy="6" r="6" transform="translate(6692 893)"/><circle class="a" cx="6" cy="6" r="6" transform="translate(6598 773)"/><circle class="a" cx="6" cy="6" r="6" transform="translate(6598 833)"/><circle class="a" cx="6" cy="6" r="6" transform="translate(6598 893)"/><circle class="a" cx="6" cy="6" r="6" transform="translate(6786 773)"/><circle class="a" cx="6" cy="6" r="6" transform="translate(6786 833)"/><circle class="a" cx="6" cy="6" r="6" transform="translate(6786 893)"/><circle class="a" cx="6" cy="6" r="6" transform="translate(6551 773)"/><circle class="a" cx="6" cy="6" r="6" transform="translate(6551 833)"/><circle class="a" cx="6" cy="6" r="6" transform="translate(6551 893)"/><circle class="a" cx="6" cy="6" r="6" transform="translate(6739 773)"/><circle class="a" cx="6" cy="6" r="6" transform="translate(6739 833)"/><circle class="a" cx="6" cy="6" r="6" transform="translate(6739 893)"/><circle class="a" cx="6" cy="6" r="6" transform="translate(6645 773)"/><circle class="a" cx="6" cy="6" r="6" transform="translate(6645 833)"/><circle class="a" cx="6" cy="6" r="6" transform="translate(6645 893)"/><circle class="a" cx="6" cy="6" r="6" transform="translate(6833 773)"/><circle class="a" cx="6" cy="6" r="6" transform="translate(6833 833)"/><circle class="a" cx="6" cy="6" r="6" transform="translate(6833 893)"/><circle class="a" cx="6" cy="6" r="6" transform="translate(6504 653)"/><circle class="a" cx="6" cy="6" r="6" transform="translate(6457 653)"/><circle class="a" cx="6" cy="6" r="6" transform="translate(6692 653)"/><circle class="a" cx="6" cy="6" r="6" transform="translate(6598 653)"/><circle class="a" cx="6" cy="6" r="6" transform="translate(6786 653)"/><circle class="a" cx="6" cy="6" r="6" transform="translate(6551 653)"/><circle class="a" cx="6" cy="6" r="6" transform="translate(6739 653)"/><circle class="a" cx="6" cy="6" r="6" transform="translate(6645 653)"/><circle class="a" cx="6" cy="6" r="6" transform="translate(6833 653)"/><circle class="a" cx="6" cy="6" r="6" transform="translate(6504 713)"/><circle class="a" cx="6" cy="6" r="6" transform="translate(6457 713)"/><circle class="a" cx="6" cy="6" r="6" transform="translate(6692 713)"/><circle class="a" cx="6" cy="6" r="6" transform="translate(6598 713)"/><circle class="a" cx="6" cy="6" r="6" transform="translate(6786 713)"/><circle class="a" cx="6" cy="6" r="6" transform="translate(6551 713)"/><circle class="a" cx="6" cy="6" r="6" transform="translate(6739 713)"/><circle class="a" cx="6" cy="6" r="6" transform="translate(6645 713)"/><circle class="a" cx="6" cy="6" r="6" transform="translate(6833 713)"/></g><g transform="translate(451.674 1138.075)"><path class="b" d="M1455.162,1573.778c0,13.5-83.642,24.437-186.818,24.437s-186.817-10.938-186.817-24.437,83.642-24.438,186.817-24.438S1455.162,1560.284,1455.162,1573.778Z" transform="translate(-298.99 -766.407)"/><g transform="translate(817.729 464.783)"><path class="c" d="M1368.956,597.186c4.684.107,8.507-2.752,15.453-7.986,5.791-4.366,16.959-14.04,24.989-10.112,13.151,6.433-5.17,32.3-9.316,40.925-6.8,14.137-17.232,31.261-18.931,46.4-2.211,19.736,15.723,26.5,29.028,36.531a193.147,193.147,0,0,1,65.517,88.861c9.275,25.7,21.513,75.309,5.1,99.743,3.9,9.88,8.035,11.119,12.121,21.764-3.212,7-12.275,4.842-18.509,1.556-12.736-6.714-24.55-17.253-39.079-10.882-6.585,2.887-17.865,5.371-24.056,8.807-7.293,4.042-16.587,5.843-24.916,7.544-25.073,5.115-48.208,2.215-72.5-3.944-16.53-4.192-36.6-13.5-53.838-12.668-19.127.927-36.927-3.831-54.177,4.149-6.441,2.978-12.571,10.446-15.535,3.363-2.784-6.653,4.222-16.614,6.992-22.011,8.348-16.283,14.1-14.66,15.077-33.14,1.01-19.242-2.092-38.027.228-56.971,4.878-39.831,36.146-69.977,57.777-100.575,11.034-15.613,22.986-19.415,14.24-37.823-9.394-19.774-21.378-48.575-34.958-65.807-2.608-3.309,25.992-18.993,27.623-19.546,26.748-9.087,56.043,3.46,78.927,16.857C1361.852,595.524,1365.621,597.109,1368.956,597.186Z" transform="translate(-1189.664 -572.274)"/><path class="d" d="M1323.048,681.579c1.042-1.872,3.554-11.056,5-11.8a15.738,15.738,0,0,0-5.159,4.275c-3.777,4.828-13.241,18.067-18.953,6.777-4.827-9.542-1.749-22.884.262-32.909,1.143-5.7,7.992-21.661,2.481-26.2-5.927-4.884-15.934-1.743-22.971-3.034-12.367-2.273-22.711-15.341-14.111-27.341,9.715-13.558,27-14.075,41.91-10.051,9.414,2.539,17.956,8.481,27.372,10.522a17.555,17.555,0,0,0,13.1-2.018c-22.195-12.415-49.567-22.97-74.693-14.433-1.631.553-30.231,16.237-27.623,19.546,13.58,17.232,25.564,46.033,34.958,65.807,8.746,18.408-3.206,22.21-14.24,37.823-21.632,30.6-52.9,60.744-57.777,100.575-2.32,18.944.782,37.729-.228,56.971-.974,18.48-6.729,16.857-15.077,33.14-2.77,5.4-9.776,15.358-6.992,22.011,2.963,7.083,9.093-.385,15.535-3.363,17.25-7.98,35.05-3.222,54.177-4.149,17.234-.832,37.308,8.476,53.838,12.668,24.29,6.16,47.425,9.06,72.5,3.944,8.329-1.7,17.623-3.5,24.916-7.543,6.191-3.435,17.471-5.919,24.056-8.807,14.529-6.371,26.343,4.168,39.079,10.882,6.234,3.286,15.3,5.44,18.509-1.556-4.087-10.646-8.226-11.884-12.121-21.764,16.416-24.434,4.177-74.042-5.1-99.743a193.279,193.279,0,0,0-45.862-71.827c-3.3,13.435,9.494,30.538,16.194,40.974,17.026,26.524,42.966,78.058,25.808,109.637-4.451,8.193-5.54,13.036-12.924,13.3-3.422,1.789-7.818,2.232-12.849,1.356-13.853-2.41-27.979-11.548-42.365-7.3-18.5,5.463-32.064,20.88-51.4,24.972-17.71,3.743-36.9,2.166-53.113-6.33-6.3-3.3-13.146-7.124-16.825-13.508-3.6-6.245-5.023-13.722-9.157-19.647-4.892-7.006-12.824-7.038-19.25-11.809-4.574-3.4-8.1-7.237-9.927-12.746-4.574-13.787-2.381-29.6.961-43.436,6.286-26.028,20.152-49.6,38.468-68.978C1283.458,726.465,1316.05,694.166,1323.048,681.579Z" transform="translate(-1189.664 -572.273)"/><path class="e" d="M1607.5,1122.227c-8.281-8.568-21.287-9.506-29.891-10.13-3.784-.274-6.542-1.845-7.566-4.317-1.09-2.635-.145-6.056,2.536-9.152,2.364-2.728,6.766-4.358,12.078-4.466,5.856-.118,10.026,1.659,10.94,2.5a6.757,6.757,0,0,0,11.769-6.637c-3.513-6.521-12.577-8.475-17-9.047v-6.088a6.756,6.756,0,1,0-13.513,0v6.692a26.821,26.821,0,0,0-14.486,8.207c-6.1,7.042-7.9,15.7-4.806,23.165,3.009,7.261,10.139,11.98,19.08,12.626,6.944.5,16.454,1.189,21.145,6.042a13.005,13.005,0,0,1,3.548,9.853,15.332,15.332,0,0,1-4.6,10.117c-5.166,4.981-13.526,6.768-20.8,4.444-3.242-1.036-8.876-3.816-10.181-10.8a6.758,6.758,0,1,0-13.284,2.489c1.9,10.142,8.953,17.862,19.351,21.184a34.639,34.639,0,0,0,5.033,1.194v6.2a6.756,6.756,0,0,0,13.513,0v-6.646a33.2,33.2,0,0,0,15.746-8.337,28.575,28.575,0,0,0,8.715-19.135A26.382,26.382,0,0,0,1607.5,1122.227Z" transform="translate(-1434.317 -906.636)"/><path class="f" d="M1621.858,1122.227c-8.28-8.568-21.283-9.506-29.89-10.133-3.786-.275-6.542-1.842-7.562-4.315-1.094-2.635-.146-6.056,2.533-9.152,2.363-2.732,6.764-4.358,12.077-4.466,5.857-.118,10.025,1.659,10.942,2.5a6.756,6.756,0,0,0,11.767-6.637c-3.513-6.523-12.574-8.475-17-9.047v-6.088a6.757,6.757,0,1,0-13.514,0v6.692a26.823,26.823,0,0,0-14.487,8.207c-6.1,7.042-7.892,15.7-4.8,23.165,3.005,7.261,10.138,11.98,19.078,12.626,6.945.5,16.455,1.189,21.145,6.042a13,13,0,0,1,3.548,9.853,15.3,15.3,0,0,1-4.6,10.113c-5.162,4.985-13.522,6.772-20.8,4.448-3.242-1.036-8.873-3.816-10.181-10.8a6.757,6.757,0,1,0-13.283,2.489c1.9,10.138,8.953,17.862,19.351,21.184a35.288,35.288,0,0,0,5.033,1.194v6.2a6.757,6.757,0,0,0,13.514,0v-6.646a33.185,33.185,0,0,0,15.745-8.338,28.561,28.561,0,0,0,8.716-19.135A26.375,26.375,0,0,0,1621.858,1122.227Z" transform="translate(-1444.003 -906.636)"/><path class="d" d="M1662.133,707.025s9.989-19.523,12.44-23.938c0,0,4.527-5.956-1.724-6.032-6.423,3.775-11.652,6.77-16.348,12.977a72.033,72.033,0,0,0-9.9,17.281c-2.067,5.356-2.178,14.471-7.771,17.843-12.737,7.677-11.094-28.824-19.249-11.67-2.494,5.245.181,13.948-2.463,18.687-4.435,7.938-7.511-.456-8.564-6.429-1.224-6.949-.308-40.554-14.321-29.692-6.618,5.133-2.84,12.6-2.156,19.281.877,8.544-2.517,16.848-1.411,25.345,2.015,15.486,12.969,17.937,26.41,17.262,11.116-.557,28.87-2,32.8-13.982,4.023-12.269,4.844-23.208,11.548-35.49" transform="translate(-1459.973 -642.955)"/><path class="g" d="M1566.1,848.449c0,3.759-1.916,6.81-4.272,6.81H1452.294c-2.361,0-4.274-3.051-4.274-6.81h0c0-3.761,1.913-6.812,4.274-6.812h109.535c2.357,0,4.272,3.051,4.272,6.812Z" transform="translate(-1363.941 -753.93)"/><path class="h" d="M1566.1,890.3c0,3.759-1.916,6.807-4.272,6.807H1452.294c-2.361,0-4.274-3.048-4.274-6.807h0c0-3.763,1.913-6.809,4.274-6.809h109.535c2.357,0,4.272,3.046,4.272,6.809Z" transform="translate(-1363.941 -782.159)"/></g><path class="i" d="M950.785,1676.163c0,13.173-65.048,23.856-145.294,23.856S660.2,1689.336,660.2,1676.163s65.05-23.854,145.292-23.854S950.785,1662.989,950.785,1676.163Z" transform="translate(-14.859 -830.094)"/><g transform="translate(638.172 412.925)"><g transform="translate(50.446 288.7)"><g transform="translate(0 42.399)"><g transform="translate(0 41.165)"><g transform="translate(0 27.384)"><g transform="translate(0.002)"><path class="j" d="M889.512,1654.715c0,7.9-21.566,14.292-48.165,14.292s-48.16-6.4-48.16-14.292,21.563-14.3,48.16-14.3S889.512,1646.819,889.512,1654.715Z" transform="translate(-793.187 -1640.418)"/></g><g transform="translate(11.39 3.379)"><path class="k" d="M901.727,1661.719c0,6.026-16.463,10.914-36.775,10.914s-36.772-4.888-36.772-10.914,16.463-10.917,36.772-10.917S901.727,1655.691,901.727,1661.719Z" transform="translate(-828.18 -1650.801)"/></g><g transform="translate(15.536 3.995)"><path class="l" d="M910.319,1663c0,5.689-15.536,10.3-34.7,10.3s-34.7-4.608-34.7-10.3,15.54-10.3,34.7-10.3S910.319,1657.307,910.319,1663Z" transform="translate(-840.918 -1652.695)"/></g><g transform="translate(32.889 6.06)"><path class="m" d="M920.869,1666.793c-4-1.228-10.28-1.363-14.432-1.453a8.146,8.146,0,0,1-3.655-.62c-.527-.374-.069-.868,1.227-1.311a21.1,21.1,0,0,1,5.827-.637,28.024,28.024,0,0,1,5.287.354,8.566,8.566,0,0,0,4.357.361c1.584-.252,2.176-.838,1.325-1.311-1.7-.933-6.073-1.213-8.209-1.3v-.874c0-.531-1.462-.968-3.263-.968s-3.263.436-3.263.968v.96a28.979,28.979,0,0,0-6.993,1.177c-2.947,1.011-3.816,2.25-2.32,3.319,1.448,1.04,4.894,1.716,9.21,1.809,3.352.073,7.944.17,10.209.867,1.2.369,1.809.871,1.714,1.412s-.906,1.073-2.221,1.448a30.482,30.482,0,0,1-10.045.637c-1.564-.146-4.283-.546-4.916-1.547-.33-.524-2.037-.87-3.809-.773s-2.935.605-2.6,1.132c.917,1.45,4.323,2.558,9.344,3.034.8.075,1.612.13,2.429.17v.889c0,.535,1.461.967,3.263.967s3.263-.432,3.263-.967v-.954a37.648,37.648,0,0,0,7.6-1.195c2.528-.722,4.023-1.7,4.208-2.74C924.6,1668.568,923.339,1667.551,920.869,1666.793Z" transform="translate(-894.24 -1659.039)"/></g><g transform="translate(35.145 6.06)"><path class="j" d="M927.8,1666.791c-4-1.225-10.277-1.36-14.433-1.45a8.146,8.146,0,0,1-3.652-.62c-.528-.374-.067-.868,1.223-1.311a21.042,21.042,0,0,1,5.832-.637,28.019,28.019,0,0,1,5.284.354,8.568,8.568,0,0,0,4.357.361c1.588-.252,2.18-.838,1.325-1.311-1.693-.933-6.07-1.213-8.208-1.3v-.874c0-.535-1.458-.968-3.263-.968s-3.264.432-3.264.968v.96a29.076,29.076,0,0,0-6.994,1.177c-2.943,1.011-3.811,2.25-2.319,3.319,1.45,1.04,4.894,1.716,9.21,1.809,3.352.073,7.948.17,10.212.867,1.2.369,1.809.871,1.714,1.412s-.907,1.073-2.225,1.448a30.456,30.456,0,0,1-10.042.637c-1.563-.146-4.285-.546-4.914-1.547-.335-.527-2.041-.87-3.809-.773s-2.937.605-2.606,1.132c.916,1.45,4.322,2.558,9.344,3.034.8.075,1.611.13,2.429.17v.889c0,.535,1.461.967,3.264.967s3.263-.432,3.263-.967v-.954a37.622,37.622,0,0,0,7.6-1.195c2.531-.722,4.023-1.7,4.21-2.74C931.53,1668.568,930.273,1667.551,927.8,1666.791Z" transform="translate(-901.172 -1659.039)"/></g><g transform="translate(0 11.646)"><path class="n" d="M805.81,1681.669,795.8,1683.5c-1.693-1.458-2.616-3.024-2.616-4.652,0-.121.006-.24.016-.36l12.463-2.289a4.088,4.088,0,0,0-1.089,2.649A4.209,4.209,0,0,0,805.81,1681.669Z" transform="translate(-793.18 -1676.203)"/></g><g transform="translate(56.143 1.353)"><path class="n" d="M992.094,1647.508l-10,1.834a88.529,88.529,0,0,0-16.394-2.483l12.473-2.286A92.5,92.5,0,0,1,992.094,1647.508Z" transform="translate(-965.695 -1644.574)"/></g><g transform="translate(4.89 18.789)"><path class="o" d="M821.939,1700.165l-9.7,1.781a29.647,29.647,0,0,1-4.03-2.009l9.743-1.785A23.083,23.083,0,0,0,821.939,1700.165Z" transform="translate(-808.207 -1698.152)"/></g><g transform="translate(76.686 5.619)"><path class="k" d="M1042.82,1659.648l-9.7,1.785a26.122,26.122,0,0,0-4.3-1.963l9.743-1.786A33.791,33.791,0,0,1,1042.82,1659.648Z" transform="translate(-1028.82 -1657.684)"/></g><g transform="translate(15.986 23.054)"><path class="p" d="M866.509,1713.157l-12.481,2.29a97.981,97.981,0,0,1-11.727-2.311l10.226-1.877A94.484,94.484,0,0,0,866.509,1713.157Z" transform="translate(-842.301 -1711.258)"/></g><g transform="translate(83.763 10.508)"><path class="p" d="M1063.128,1676.494c0,.122-.01.243-.017.362l-12.548,2.3a4,4,0,0,0,1.175-2.663,3.523,3.523,0,0,0-.6-1.9l10.274-1.884A5.6,5.6,0,0,1,1063.128,1676.494Z" transform="translate(-1050.563 -1672.707)"/></g><g transform="translate(0.002 14.297)"><path class="q" d="M841.347,1698.641c-26.6,0-48.16-6.4-48.16-14.293v11.264c0,7.895,21.563,14.3,48.16,14.3s48.165-6.4,48.165-14.3l-.173-10.1C887.343,1692.86,866.626,1698.641,841.347,1698.641Z" transform="translate(-793.187 -1684.348)"/></g><g transform="translate(16.748 25.125)"><g transform="translate(7.59 1.593)"><path class="j" d="M875.465,1723.546c-2.613-.278-5.116-.627-7.5-1.03v11.264q3.577.606,7.5,1.031Z" transform="translate(-867.965 -1722.516)"/></g><g transform="translate(0 0)"><path class="n" d="M848.394,1718.492c-1.3-.273-2.552-.562-3.75-.871v11.264c1.2.308,2.452.6,3.75.87Z" transform="translate(-844.644 -1717.621)"/></g></g></g><g transform="translate(0 13.578)"><g transform="translate(0.002)"><path class="j" d="M889.512,1612.29c0,7.9-21.566,14.3-48.165,14.3s-48.16-6.4-48.16-14.3S814.75,1598,841.347,1598,889.512,1604.4,889.512,1612.29Z" transform="translate(-793.187 -1597.996)"/></g><g transform="translate(11.39 3.379)"><path class="k" d="M901.727,1619.294c0,6.028-16.463,10.916-36.775,10.916s-36.772-4.888-36.772-10.916,16.463-10.915,36.772-10.915S901.727,1613.266,901.727,1619.294Z" transform="translate(-828.18 -1608.379)"/></g><g transform="translate(15.536 3.995)"><path class="l" d="M910.319,1620.572c0,5.688-15.536,10.3-34.7,10.3s-34.7-4.612-34.7-10.3,15.54-10.3,34.7-10.3S910.319,1614.884,910.319,1620.572Z" transform="translate(-840.918 -1610.273)"/></g><g transform="translate(32.889 6.06)"><path class="m" d="M920.869,1624.368c-4-1.228-10.28-1.363-14.432-1.449a8.143,8.143,0,0,1-3.655-.621c-.527-.377-.069-.868,1.227-1.311a21.084,21.084,0,0,1,5.827-.641,28.166,28.166,0,0,1,5.287.357,8.564,8.564,0,0,0,4.357.361c1.584-.253,2.176-.842,1.325-1.31-1.7-.936-6.073-1.217-8.209-1.3v-.872c0-.535-1.462-.967-3.263-.967s-3.263.432-3.263.967v.96a29.073,29.073,0,0,0-6.993,1.174c-2.947,1.011-3.816,2.254-2.32,3.322,1.448,1.041,4.894,1.716,9.21,1.81,3.352.071,7.944.169,10.209.866,1.2.367,1.809.87,1.714,1.414s-.906,1.069-2.221,1.448a30.512,30.512,0,0,1-10.045.637c-1.564-.149-4.283-.545-4.916-1.548-.33-.526-2.037-.871-3.809-.772s-2.935.6-2.6,1.128c.917,1.454,4.323,2.562,9.344,3.037q1.2.113,2.429.172v.886c0,.537,1.461.97,3.263.97s3.263-.434,3.263-.97v-.951a37.756,37.756,0,0,0,7.6-1.2c2.528-.724,4.023-1.7,4.208-2.742C924.6,1626.144,923.339,1625.127,920.869,1624.368Z" transform="translate(-894.24 -1616.617)"/></g><g transform="translate(35.145 6.06)"><path class="j" d="M927.8,1624.368c-4-1.228-10.277-1.363-14.433-1.453a8.1,8.1,0,0,1-3.652-.617c-.528-.377-.067-.868,1.223-1.311a21.11,21.11,0,0,1,5.832-.641,28.162,28.162,0,0,1,5.284.357,8.567,8.567,0,0,0,4.357.361c1.588-.253,2.18-.842,1.325-1.31-1.693-.936-6.07-1.217-8.208-1.3v-.872c0-.535-1.458-.967-3.263-.967s-3.264.432-3.264.967v.96a29.171,29.171,0,0,0-6.994,1.174c-2.943,1.011-3.811,2.25-2.319,3.322,1.45,1.041,4.894,1.716,9.21,1.81,3.352.071,7.948.169,10.212.866,1.2.367,1.809.87,1.714,1.414s-.907,1.069-2.225,1.448a30.486,30.486,0,0,1-10.042.637c-1.563-.149-4.285-.549-4.914-1.548-.335-.526-2.041-.871-3.809-.772s-2.937.6-2.606,1.128c.916,1.454,4.322,2.562,9.344,3.037q1.2.113,2.429.172v.886c0,.537,1.461.97,3.264.97s3.263-.434,3.263-.97v-.951a37.73,37.73,0,0,0,7.6-1.2c2.531-.724,4.023-1.7,4.21-2.742C931.53,1626.144,930.273,1625.127,927.8,1624.368Z" transform="translate(-901.172 -1616.617)"/></g><g transform="translate(0 11.645)"><path class="n" d="M805.81,1639.242l-10.014,1.835c-1.693-1.459-2.616-3.019-2.616-4.65,0-.123.006-.239.016-.359l12.463-2.291a4.088,4.088,0,0,0-1.089,2.649A4.2,4.2,0,0,0,805.81,1639.242Z" transform="translate(-793.18 -1633.777)"/></g><g transform="translate(56.143 1.349)"><path class="n" d="M992.094,1605.079l-10,1.834a88.629,88.629,0,0,0-16.394-2.487l12.473-2.286A92.72,92.72,0,0,1,992.094,1605.079Z" transform="translate(-965.695 -1602.141)"/></g><g transform="translate(4.89 18.788)"><path class="o" d="M821.939,1657.738l-9.7,1.781a29.823,29.823,0,0,1-4.03-2.006l9.743-1.786A23.112,23.112,0,0,0,821.939,1657.738Z" transform="translate(-808.207 -1655.727)"/></g><g transform="translate(76.686 5.616)"><path class="k" d="M1042.82,1617.219l-9.7,1.783a26.027,26.027,0,0,0-4.3-1.96l9.743-1.789A33.582,33.582,0,0,1,1042.82,1617.219Z" transform="translate(-1028.82 -1615.254)"/></g><g transform="translate(15.986 23.054)"><path class="p" d="M866.509,1670.733l-12.481,2.29a98.262,98.262,0,0,1-11.727-2.312l10.226-1.874A94.164,94.164,0,0,0,866.509,1670.733Z" transform="translate(-842.301 -1668.836)"/></g><g transform="translate(83.763 10.504)"><path class="p" d="M1063.128,1634.063c0,.122-.01.244-.017.364l-12.548,2.3a4,4,0,0,0,1.175-2.664,3.513,3.513,0,0,0-.6-1.9l10.274-1.887A5.611,5.611,0,0,1,1063.128,1634.063Z" transform="translate(-1050.563 -1630.273)"/></g><g transform="translate(0.002 14.294)"><path class="q" d="M841.347,1656.213c-26.6,0-48.16-6.4-48.16-14.3v11.266c0,7.9,21.563,14.294,48.16,14.294s48.165-6.4,48.165-14.294l-.173-10.1C887.343,1650.433,866.626,1656.213,841.347,1656.213Z" transform="translate(-793.187 -1641.918)"/></g><g transform="translate(16.748 25.125)"><g transform="translate(7.59 1.59)"><path class="j" d="M875.465,1681.116q-3.919-.417-7.5-1.03v11.266q3.577.6,7.5,1.028Z" transform="translate(-867.965 -1680.086)"/></g><g transform="translate(0 0)"><path class="n" d="M848.394,1676.066c-1.3-.271-2.552-.56-3.75-.867v11.265c1.2.306,2.452.6,3.75.867Z" transform="translate(-844.644 -1675.199)"/></g></g></g><g transform="translate(0.002)"><path class="j" d="M889.512,1570.57c0,7.9-21.562,14.3-48.165,14.3s-48.16-6.4-48.16-14.3,21.563-14.3,48.16-14.3S889.512,1562.674,889.512,1570.57Z" transform="translate(-793.187 -1556.273)"/></g><g transform="translate(11.39 3.383)"><path class="k" d="M901.727,1577.582c0,6.03-16.463,10.914-36.775,10.914s-36.772-4.884-36.772-10.914,16.463-10.913,36.772-10.913S901.727,1571.552,901.727,1577.582Z" transform="translate(-828.18 -1566.668)"/></g><g transform="translate(15.536 4)"><path class="l" d="M910.319,1578.86c0,5.689-15.536,10.3-34.7,10.3s-34.7-4.611-34.7-10.3,15.54-10.3,34.7-10.3S910.319,1573.171,910.319,1578.86Z" transform="translate(-840.918 -1568.563)"/></g><g transform="translate(32.889 6.061)"><path class="m" d="M920.869,1582.65c-4-1.227-10.28-1.363-14.432-1.452a8.1,8.1,0,0,1-3.655-.617c-.525-.38-.069-.87,1.227-1.311a21.031,21.031,0,0,1,5.827-.641,27.874,27.874,0,0,1,5.287.356,8.6,8.6,0,0,0,4.357.361c1.584-.254,2.18-.842,1.325-1.313-1.7-.933-6.073-1.213-8.209-1.3v-.87c0-.535-1.462-.97-3.263-.97s-3.263.435-3.263.97v.958a29.02,29.02,0,0,0-6.993,1.174c-2.947,1.012-3.812,2.251-2.32,3.322,1.45,1.04,4.894,1.716,9.21,1.807,3.352.073,7.944.173,10.209.866,1.2.371,1.809.872,1.714,1.413s-.906,1.073-2.221,1.449a30.438,30.438,0,0,1-10.043.637c-1.564-.148-4.285-.547-4.919-1.548-.33-.524-2.037-.87-3.8-.773s-2.939.6-2.606,1.131c.917,1.451,4.323,2.558,9.344,3.035q1.2.117,2.43.17v.89c0,.534,1.461.968,3.263.968s3.263-.434,3.263-.968v-.954a37.746,37.746,0,0,0,7.6-1.194c2.528-.723,4.023-1.7,4.208-2.741C924.6,1584.426,923.343,1583.412,920.869,1582.65Z" transform="translate(-894.24 -1574.898)"/></g><g transform="translate(35.145 6.061)"><path class="j" d="M927.8,1582.65c-4-1.227-10.281-1.363-14.437-1.452a8.038,8.038,0,0,1-3.652-.62c-.528-.377-.067-.866,1.223-1.307a21.058,21.058,0,0,1,5.832-.641,27.836,27.836,0,0,1,5.284.356,8.6,8.6,0,0,0,4.357.361c1.588-.254,2.18-.842,1.325-1.313-1.693-.933-6.07-1.213-8.208-1.3v-.87c0-.539-1.458-.97-3.263-.97s-3.264.431-3.264.97v.958a29.049,29.049,0,0,0-6.994,1.174c-2.943,1.012-3.811,2.251-2.319,3.322,1.45,1.04,4.894,1.716,9.21,1.807,3.352.073,7.948.173,10.212.866,1.2.371,1.809.872,1.714,1.413s-.907,1.073-2.225,1.449a30.423,30.423,0,0,1-10.042.637c-1.563-.148-4.285-.547-4.914-1.548-.331-.524-2.041-.87-3.809-.773s-2.937.6-2.606,1.131c.916,1.451,4.322,2.558,9.344,3.035q1.2.117,2.429.17v.89c0,.534,1.465.968,3.264.968s3.263-.434,3.263-.968v-.954a37.692,37.692,0,0,0,7.6-1.194c2.531-.723,4.026-1.7,4.21-2.741C931.53,1584.426,930.273,1583.412,927.8,1582.65Z" transform="translate(-901.172 -1574.898)"/></g><g transform="translate(0 11.648)"><path class="n" d="M805.81,1597.528l-10.011,1.837c-1.7-1.458-2.619-3.02-2.619-4.65,0-.122.01-.241.016-.359l12.463-2.289a4.088,4.088,0,0,0-1.089,2.648A4.207,4.207,0,0,0,805.81,1597.528Z" transform="translate(-793.18 -1592.066)"/></g><g transform="translate(56.143 1.353)"><path class="n" d="M992.094,1563.367l-10,1.832a88.672,88.672,0,0,0-16.394-2.483l12.473-2.286A92.441,92.441,0,0,1,992.094,1563.367Z" transform="translate(-965.695 -1560.43)"/></g><g transform="translate(4.89 18.788)"><path class="o" d="M821.941,1616.019l-9.7,1.78a29.778,29.778,0,0,1-4.03-2.007L817.95,1614A22.941,22.941,0,0,0,821.941,1616.019Z" transform="translate(-808.207 -1614.004)"/></g><g transform="translate(76.686 5.618)"><path class="k" d="M1042.824,1575.5l-9.705,1.784a25.8,25.8,0,0,0-4.3-1.96l9.743-1.79A33.963,33.963,0,0,1,1042.824,1575.5Z" transform="translate(-1028.82 -1573.535)"/></g><g transform="translate(15.986 23.057)"><path class="p" d="M866.509,1629.018l-12.481,2.287A97.786,97.786,0,0,1,842.3,1629l10.226-1.875A94.812,94.812,0,0,0,866.509,1629.018Z" transform="translate(-842.301 -1627.121)"/></g><g transform="translate(83.765 10.508)"><path class="p" d="M1063.133,1592.351c0,.121-.006.241-.017.361l-12.546,2.3a4.011,4.011,0,0,0,1.172-2.665,3.524,3.524,0,0,0-.6-1.9l10.274-1.884A5.612,5.612,0,0,1,1063.133,1592.351Z" transform="translate(-1050.57 -1588.563)"/></g><g transform="translate(0.002 14.297)"><path class="r" d="M841.347,1614.5c-26.6,0-48.16-6.4-48.16-14.3v11.264c0,7.9,21.563,14.3,48.16,14.3s48.165-6.4,48.165-14.3l-.173-10.1C887.343,1608.715,866.626,1614.5,841.347,1614.5Z" transform="translate(-793.187 -1600.203)"/></g><g transform="translate(16.748 25.128)"><g transform="translate(7.59 1.589)"><path class="j" d="M875.465,1639.4q-3.919-.419-7.5-1.032v11.268q3.577.6,7.5,1.028Z" transform="translate(-867.965 -1638.367)"/></g><g transform="translate(0 0)"><path class="n" d="M848.394,1634.351c-1.3-.271-2.552-.56-3.75-.867v11.266c1.2.306,2.452.6,3.75.867Z" transform="translate(-844.644 -1633.484)"/></g></g></g><g transform="translate(0 27.38)"><g transform="translate(0.002)"><path class="j" d="M889.512,1528.211c0,7.895-21.566,14.3-48.165,14.3s-48.16-6.4-48.16-14.3,21.563-14.3,48.16-14.3S889.512,1520.315,889.512,1528.211Z" transform="translate(-793.187 -1513.914)"/></g><g transform="translate(11.39 3.383)"><path class="k" d="M901.727,1535.223c0,6.029-16.463,10.913-36.775,10.913s-36.772-4.884-36.772-10.913,16.463-10.914,36.772-10.914S901.727,1529.2,901.727,1535.223Z" transform="translate(-828.18 -1524.309)"/></g><g transform="translate(15.536 3.995)"><path class="l" d="M910.319,1536.492c0,5.689-15.536,10.3-34.7,10.3s-34.7-4.611-34.7-10.3,15.54-10.3,34.7-10.3S910.319,1530.8,910.319,1536.492Z" transform="translate(-840.918 -1526.191)"/></g><g transform="translate(32.889 6.061)"><path class="m" d="M920.869,1540.292c-4-1.228-10.28-1.363-14.432-1.453a8.1,8.1,0,0,1-3.655-.616c-.527-.378-.069-.872,1.227-1.312a21.093,21.093,0,0,1,5.827-.64,28.07,28.07,0,0,1,5.287.354,8.537,8.537,0,0,0,4.357.361c1.584-.252,2.176-.838,1.325-1.311-1.7-.933-6.073-1.213-8.209-1.294v-.875c0-.533-1.462-.968-3.263-.968s-3.263.435-3.263.968v.961a28.888,28.888,0,0,0-6.993,1.173c-2.947,1.012-3.816,2.251-2.32,3.322,1.448,1.039,4.894,1.716,9.21,1.808,3.352.073,7.944.174,10.209.866,1.2.371,1.809.872,1.714,1.414s-.906,1.073-2.221,1.449a30.479,30.479,0,0,1-10.045.637c-1.564-.147-4.283-.547-4.916-1.548-.33-.524-2.037-.87-3.809-.773s-2.935.605-2.6,1.132c.917,1.453,4.323,2.558,9.344,3.034q1.2.114,2.429.17v.89c0,.533,1.461.969,3.263.969s3.263-.436,3.263-.969v-.955a37.731,37.731,0,0,0,7.6-1.194c2.528-.723,4.023-1.7,4.208-2.742C924.6,1542.067,923.339,1541.05,920.869,1540.292Z" transform="translate(-894.24 -1532.539)"/></g><g transform="translate(35.145 6.061)"><path class="j" d="M927.8,1540.292c-4-1.228-10.277-1.363-14.433-1.453a8.031,8.031,0,0,1-3.652-.62c-.528-.374-.067-.868,1.223-1.308a21.119,21.119,0,0,1,5.832-.64,28.065,28.065,0,0,1,5.284.354,8.54,8.54,0,0,0,4.357.361c1.588-.252,2.18-.838,1.325-1.311-1.693-.933-6.07-1.213-8.208-1.294v-.875c0-.537-1.458-.968-3.263-.968s-3.264.431-3.264.968v.961a28.984,28.984,0,0,0-6.994,1.173c-2.943,1.012-3.811,2.251-2.319,3.322,1.45,1.039,4.894,1.716,9.21,1.808,3.352.073,7.948.174,10.212.866,1.2.371,1.809.872,1.714,1.414s-.907,1.073-2.225,1.449a30.453,30.453,0,0,1-10.042.637c-1.563-.147-4.285-.547-4.914-1.548-.335-.524-2.041-.87-3.809-.773s-2.937.605-2.606,1.132c.916,1.453,4.322,2.558,9.344,3.034q1.2.114,2.429.17v.89c0,.533,1.461.969,3.264.969s3.263-.436,3.263-.969v-.955a37.7,37.7,0,0,0,7.6-1.194c2.531-.723,4.023-1.7,4.21-2.742C931.53,1542.067,930.273,1541.05,927.8,1540.292Z" transform="translate(-901.172 -1532.539)"/></g><g transform="translate(0 11.65)"><path class="n" d="M805.81,1555.171l-10.014,1.837c-1.693-1.458-2.616-3.022-2.616-4.65,0-.122.006-.241.016-.361l12.463-2.286a4.079,4.079,0,0,0-1.089,2.647A4.189,4.189,0,0,0,805.81,1555.171Z" transform="translate(-793.18 -1549.711)"/></g><g transform="translate(56.143 1.353)"><path class="n" d="M992.094,1521.007l-10,1.832a88.755,88.755,0,0,0-16.394-2.483l12.473-2.286A92.5,92.5,0,0,1,992.094,1521.007Z" transform="translate(-965.695 -1518.07)"/></g><g transform="translate(4.89 18.789)"><path class="o" d="M821.939,1573.662l-9.7,1.779a29.537,29.537,0,0,1-4.03-2.007l9.743-1.785A23.16,23.16,0,0,0,821.939,1573.662Z" transform="translate(-808.207 -1571.648)"/></g><g transform="translate(76.686 5.619)"><path class="k" d="M1042.82,1533.144l-9.7,1.785a25.916,25.916,0,0,0-4.3-1.96l9.743-1.789A33.585,33.585,0,0,1,1042.82,1533.144Z" transform="translate(-1028.82 -1531.18)"/></g><g transform="translate(15.986 23.054)"><path class="p" d="M866.509,1586.653l-12.481,2.287a97.726,97.726,0,0,1-11.727-2.307l10.226-1.879A94.515,94.515,0,0,0,866.509,1586.653Z" transform="translate(-842.301 -1584.754)"/></g><g transform="translate(83.763 10.508)"><path class="p" d="M1063.128,1549.991c0,.121-.01.242-.017.361l-12.548,2.3a3.991,3.991,0,0,0,1.175-2.662,3.528,3.528,0,0,0-.6-1.9l10.274-1.884A5.61,5.61,0,0,1,1063.128,1549.991Z" transform="translate(-1050.563 -1546.203)"/></g><g transform="translate(0.002 14.297)"><path class="q" d="M841.347,1572.139c-26.6,0-48.16-6.4-48.16-14.3v11.264c0,7.894,21.563,14.3,48.16,14.3s48.165-6.4,48.165-14.3l-.173-10.1C887.343,1566.356,866.626,1572.139,841.347,1572.139Z" transform="translate(-793.187 -1557.844)"/></g><g transform="translate(16.748 25.128)"><g transform="translate(7.59 1.59)"><path class="j" d="M875.465,1597.043q-3.919-.42-7.5-1.031v11.264q3.577.606,7.5,1.031Z" transform="translate(-867.965 -1596.012)"/></g><g transform="translate(0 0)"><path class="n" d="M848.394,1591.993c-1.3-.271-2.552-.562-3.75-.868v11.266c1.2.307,2.452.6,3.75.867Z" transform="translate(-844.644 -1591.125)"/></g></g></g><g transform="translate(0 13.574)"><g transform="translate(0.002)"><path class="j" d="M889.512,1485.789c0,7.892-21.566,14.292-48.165,14.292s-48.16-6.4-48.16-14.292,21.563-14.3,48.16-14.3S889.512,1477.893,889.512,1485.789Z" transform="translate(-793.187 -1471.492)"/></g><g transform="translate(11.39 3.379)"><path class="k" d="M901.727,1492.792c0,6.026-16.463,10.914-36.775,10.914s-36.772-4.888-36.772-10.914,16.463-10.917,36.772-10.917S901.727,1486.763,901.727,1492.792Z" transform="translate(-828.18 -1481.875)"/></g><g transform="translate(15.536 3.996)"><path class="l" d="M910.319,1494.071c0,5.686-15.536,10.3-34.7,10.3s-34.7-4.611-34.7-10.3,15.54-10.3,34.7-10.3S910.319,1488.381,910.319,1494.071Z" transform="translate(-840.918 -1483.77)"/></g><g transform="translate(32.889 6.06)"><path class="m" d="M920.869,1497.865c-4-1.226-10.28-1.362-14.432-1.45a8.145,8.145,0,0,1-3.655-.621c-.527-.376-.069-.868,1.227-1.311a21.079,21.079,0,0,1,5.827-.641,28.143,28.143,0,0,1,5.287.357,8.6,8.6,0,0,0,4.357.361c1.584-.253,2.176-.839,1.325-1.311-1.7-.935-6.073-1.215-8.209-1.3v-.873c0-.535-1.462-.968-3.263-.968s-3.263.432-3.263.968v.96a29.128,29.128,0,0,0-6.993,1.174c-2.947,1.012-3.816,2.254-2.32,3.323,1.448,1.04,4.894,1.713,9.21,1.809,3.352.071,7.944.17,10.209.865,1.2.368,1.809.872,1.714,1.411s-.906,1.072-2.221,1.451a30.558,30.558,0,0,1-10.045.637c-1.564-.149-4.283-.545-4.916-1.548-.33-.526-2.037-.872-3.809-.772s-2.935.605-2.6,1.128c.917,1.454,4.323,2.561,9.344,3.037.8.077,1.612.131,2.429.172v.887c0,.535,1.461.969,3.263.969s3.263-.434,3.263-.969v-.952a37.927,37.927,0,0,0,7.6-1.195c2.528-.725,4.023-1.7,4.208-2.744C924.6,1499.64,923.339,1498.624,920.869,1497.865Z" transform="translate(-894.24 -1490.113)"/></g><g transform="translate(35.145 6.06)"><path class="j" d="M927.8,1497.865c-4-1.226-10.277-1.362-14.433-1.45a8.145,8.145,0,0,1-3.652-.621c-.528-.376-.067-.868,1.223-1.311a21.105,21.105,0,0,1,5.832-.641,28.139,28.139,0,0,1,5.284.357,8.6,8.6,0,0,0,4.357.361c1.588-.253,2.18-.842,1.325-1.311-1.693-.937-6.07-1.215-8.208-1.3v-.873c0-.535-1.458-.968-3.263-.968s-3.264.432-3.264.968v.96a29.226,29.226,0,0,0-6.994,1.174c-2.943,1.012-3.811,2.254-2.319,3.323,1.45,1.04,4.894,1.713,9.21,1.809,3.352.071,7.948.17,10.212.865,1.2.368,1.809.872,1.714,1.411s-.907,1.072-2.225,1.451a30.532,30.532,0,0,1-10.042.637c-1.563-.149-4.285-.545-4.914-1.548-.335-.526-2.041-.872-3.809-.772s-2.937.605-2.606,1.128c.916,1.454,4.322,2.561,9.344,3.037.8.077,1.611.131,2.429.172v.887c0,.535,1.461.969,3.264.969s3.263-.434,3.263-.969v-.952a37.9,37.9,0,0,0,7.6-1.195c2.531-.725,4.023-1.7,4.21-2.744C931.53,1499.64,930.273,1498.624,927.8,1497.865Z" transform="translate(-901.172 -1490.113)"/></g><g transform="translate(0 11.646)"><path class="n" d="M805.81,1512.741l-10.014,1.836c-1.693-1.459-2.616-3.021-2.616-4.653,0-.12.006-.238.016-.357l12.463-2.29a4.084,4.084,0,0,0-1.089,2.647A4.2,4.2,0,0,0,805.81,1512.741Z" transform="translate(-793.18 -1507.277)"/></g><g transform="translate(56.143 1.349)"><path class="n" d="M992.094,1478.575l-10,1.833a88.664,88.664,0,0,0-16.394-2.484l12.473-2.287A93.1,93.1,0,0,1,992.094,1478.575Z" transform="translate(-965.695 -1475.637)"/></g><g transform="translate(4.89 18.788)"><path class="o" d="M821.939,1531.238l-9.7,1.779a29.95,29.95,0,0,1-4.03-2.007l9.743-1.786A23.089,23.089,0,0,0,821.939,1531.238Z" transform="translate(-808.207 -1529.223)"/></g><g transform="translate(76.686 5.616)"><path class="k" d="M1042.82,1490.715l-9.7,1.786a25.821,25.821,0,0,0-4.3-1.963l9.743-1.789A34.188,34.188,0,0,1,1042.82,1490.715Z" transform="translate(-1028.82 -1488.75)"/></g><g transform="translate(15.986 23.054)"><path class="p" d="M866.509,1544.229l-12.481,2.289a98.043,98.043,0,0,1-11.727-2.31l10.226-1.876A94.147,94.147,0,0,0,866.509,1544.229Z" transform="translate(-842.301 -1542.332)"/></g><g transform="translate(83.763 10.507)"><path class="p" d="M1063.128,1507.563c0,.123-.01.245-.017.365l-12.548,2.3a4,4,0,0,0,1.175-2.665,3.529,3.529,0,0,0-.6-1.9l10.274-1.884A5.6,5.6,0,0,1,1063.128,1507.563Z" transform="translate(-1050.563 -1503.777)"/></g><g transform="translate(0.002 14.297)"><path class="q" d="M841.347,1529.715c-26.6,0-48.16-6.4-48.16-14.293v11.263c0,7.895,21.563,14.294,48.16,14.294s48.165-6.4,48.165-14.294l-.173-10.1C887.343,1523.934,866.626,1529.715,841.347,1529.715Z" transform="translate(-793.187 -1515.422)"/></g><g transform="translate(16.748 25.125)"><g transform="translate(7.59 1.59)"><path class="j" d="M875.465,1554.613q-3.919-.419-7.5-1.031v11.266q3.577.608,7.5,1.03Z" transform="translate(-867.965 -1553.582)"/></g><g transform="translate(0 0)"><path class="n" d="M848.394,1549.562c-1.3-.271-2.552-.558-3.75-.867v11.265c1.2.307,2.452.6,3.75.87Z" transform="translate(-844.644 -1548.695)"/></g></g></g><g transform="translate(0.002)"><path class="j" d="M889.512,1444.074c0,7.9-21.562,14.3-48.165,14.3s-48.16-6.4-48.16-14.3,21.563-14.293,48.16-14.293S889.512,1436.179,889.512,1444.074Z" transform="translate(-793.187 -1429.781)"/></g><g transform="translate(11.39 3.379)"><path class="o" d="M901.727,1451.078c0,6.028-16.463,10.914-36.775,10.914s-36.772-4.885-36.772-10.914,16.463-10.914,36.772-10.914S901.727,1445.051,901.727,1451.078Z" transform="translate(-828.18 -1440.164)"/></g><g transform="translate(15.536 3.996)"><path class="s" d="M910.319,1452.356c0,5.689-15.536,10.3-34.7,10.3s-34.7-4.612-34.7-10.3,15.54-10.3,34.7-10.3S910.319,1446.667,910.319,1452.356Z" transform="translate(-840.918 -1442.059)"/></g><g transform="translate(35.145 6.058)"><path class="o" d="M927.8,1456.148c-4-1.228-10.281-1.36-14.437-1.449a8.145,8.145,0,0,1-3.652-.621c-.528-.378-.067-.868,1.223-1.311a21.063,21.063,0,0,1,5.832-.641,27.76,27.76,0,0,1,5.284.357,8.613,8.613,0,0,0,4.357.361c1.588-.253,2.18-.843,1.325-1.311-1.693-.937-6.07-1.217-8.208-1.3v-.872c0-.535-1.458-.97-3.263-.97s-3.264.435-3.264.97v.957a29.041,29.041,0,0,0-6.994,1.176c-2.943,1.01-3.811,2.253-2.319,3.321,1.45,1.038,4.894,1.716,9.21,1.81,3.352.071,7.948.17,10.212.864,1.2.371,1.809.872,1.714,1.415s-.907,1.072-2.225,1.448a30.436,30.436,0,0,1-10.042.635c-1.563-.145-4.285-.545-4.914-1.544-.331-.527-2.041-.872-3.809-.776s-2.937.6-2.606,1.131c.916,1.455,4.322,2.562,9.344,3.035q1.2.112,2.429.174v.886c0,.537,1.465.968,3.264.968s3.263-.431,3.263-.968v-.951a37.687,37.687,0,0,0,7.6-1.2c2.531-.722,4.026-1.695,4.21-2.738C931.53,1457.922,930.273,1456.908,927.8,1456.148Z" transform="translate(-901.172 -1448.395)"/></g><g transform="translate(0 11.645)"><path class="n" d="M805.81,1471.028l-10.011,1.834c-1.7-1.459-2.619-3.023-2.619-4.651,0-.122.01-.24.016-.358l12.463-2.289a4.087,4.087,0,0,0-1.089,2.648A4.221,4.221,0,0,0,805.81,1471.028Z" transform="translate(-793.18 -1465.563)"/></g><g transform="translate(56.143 1.349)"><path class="n" d="M992.094,1436.862l-10,1.834a88.224,88.224,0,0,0-16.394-2.484l12.473-2.287A92.639,92.639,0,0,1,992.094,1436.862Z" transform="translate(-965.695 -1433.926)"/></g><g transform="translate(4.89 18.787)"><path class="o" d="M821.941,1489.52l-9.7,1.782a30.242,30.242,0,0,1-4.03-2.007l9.743-1.787A22.826,22.826,0,0,0,821.941,1489.52Z" transform="translate(-808.207 -1487.508)"/></g><g transform="translate(76.686 5.616)"><path class="o" d="M1042.824,1449.006l-9.705,1.781a25.945,25.945,0,0,0-4.3-1.961l9.743-1.787A33.248,33.248,0,0,1,1042.824,1449.006Z" transform="translate(-1028.82 -1447.039)"/></g><g transform="translate(15.986 23.053)"><path class="p" d="M866.509,1502.512l-12.481,2.291a97.765,97.765,0,0,1-11.727-2.311l10.226-1.875A93.8,93.8,0,0,0,866.509,1502.512Z" transform="translate(-842.301 -1500.617)"/></g><g transform="translate(83.765 10.506)"><path class="p" d="M1063.133,1465.85c0,.123-.006.244-.017.363l-12.546,2.3a4.008,4.008,0,0,0,1.172-2.665,3.524,3.524,0,0,0-.6-1.9l10.274-1.883A5.606,5.606,0,0,1,1063.133,1465.85Z" transform="translate(-1050.57 -1462.063)"/></g><g transform="translate(0.002 14.293)"><path class="q" d="M841.347,1488c-26.6,0-48.16-6.4-48.16-14.3v11.265c0,7.9,21.563,14.295,48.16,14.295s48.165-6.4,48.165-14.295l-.173-10.1C887.343,1482.211,866.626,1488,841.347,1488Z" transform="translate(-793.187 -1473.699)"/></g><g transform="translate(16.748 25.124)"><g transform="translate(7.59 1.591)"><path class="j" d="M875.465,1512.9q-3.919-.419-7.5-1.03v11.264q3.577.606,7.5,1.031Z" transform="translate(-867.965 -1511.871)"/></g><path class="n" d="M848.394,1507.848c-1.3-.271-2.552-.561-3.75-.867v11.264c1.2.306,2.452.6,3.75.868Z" transform="translate(-844.644 -1506.981)"/></g></g><g transform="translate(111.595)"><g transform="translate(0 83.564)"><g transform="translate(0 27.384)"><g transform="translate(0.004)"><path class="j" d="M1232.424,1654.715c0,7.9-21.563,14.292-48.165,14.292s-48.161-6.4-48.161-14.292,21.563-14.3,48.161-14.3S1232.424,1646.819,1232.424,1654.715Z" transform="translate(-1136.098 -1640.418)"/></g><g transform="translate(11.392 3.379)"><path class="k" d="M1244.641,1661.719c0,6.026-16.468,10.914-36.777,10.914s-36.773-4.888-36.773-10.914,16.467-10.917,36.773-10.917S1244.641,1655.691,1244.641,1661.719Z" transform="translate(-1171.09 -1650.801)"/></g><g transform="translate(15.541 3.995)"><path class="l" d="M1253.241,1663c0,5.689-15.537,10.3-34.7,10.3s-34.7-4.608-34.7-10.3,15.536-10.3,34.7-10.3S1253.241,1657.307,1253.241,1663Z" transform="translate(-1183.84 -1652.695)"/></g><g transform="translate(32.889 6.06)"><path class="m" d="M1263.778,1666.793c-4-1.228-10.278-1.363-14.434-1.453a8.149,8.149,0,0,1-3.652-.62c-.528-.374-.066-.868,1.223-1.311a21.158,21.158,0,0,1,5.835-.637,28,28,0,0,1,5.282.354,8.565,8.565,0,0,0,4.355.361c1.589-.252,2.18-.838,1.326-1.311-1.7-.933-6.071-1.213-8.211-1.3v-.874c0-.531-1.459-.968-3.26-.968s-3.263.436-3.263.968v.96a29.066,29.066,0,0,0-7,1.177c-2.94,1.011-3.811,2.25-2.319,3.319,1.45,1.04,4.9,1.716,9.211,1.809,3.353.073,7.945.17,10.209.867,1.2.369,1.81.871,1.716,1.412s-.908,1.073-2.223,1.448a30.473,30.473,0,0,1-10.044.637c-1.561-.146-4.286-.546-4.914-1.547-.334-.524-2.04-.87-3.81-.773s-2.94.605-2.6,1.132c.915,1.45,4.323,2.558,9.344,3.034.8.075,1.615.13,2.431.17v.889c0,.535,1.462.967,3.263.967s3.26-.432,3.26-.967v-.954a37.612,37.612,0,0,0,7.6-1.195c2.532-.722,4.026-1.7,4.212-2.74C1267.508,1668.568,1266.252,1667.551,1263.778,1666.793Z" transform="translate(-1237.148 -1659.039)"/></g><g transform="translate(35.145 6.06)"><path class="j" d="M1270.709,1666.791c-4-1.225-10.275-1.36-14.431-1.45a8.113,8.113,0,0,1-3.65-.62c-.531-.374-.073-.868,1.222-1.311a21.052,21.052,0,0,1,5.833-.637,28.019,28.019,0,0,1,5.283.354,8.55,8.55,0,0,0,4.353.361c1.59-.252,2.182-.838,1.327-1.311-1.7-.933-6.073-1.213-8.208-1.3v-.874c0-.535-1.461-.968-3.263-.968s-3.263.432-3.263.968v.96a29.016,29.016,0,0,0-6.995,1.177c-2.945,1.011-3.81,2.25-2.321,3.319,1.454,1.04,4.9,1.716,9.214,1.809,3.352.073,7.945.17,10.207.867,1.2.369,1.809.871,1.714,1.412s-.9,1.073-2.22,1.448a30.471,30.471,0,0,1-10.042.637c-1.569-.146-4.287-.546-4.918-1.547-.333-.527-2.043-.87-3.807-.773s-2.938.605-2.609,1.132c.922,1.45,4.326,2.558,9.346,3.034.8.075,1.612.13,2.431.17v.889c0,.535,1.462.967,3.263.967s3.263-.432,3.263-.967v-.954a37.607,37.607,0,0,0,7.6-1.195c2.531-.722,4.027-1.7,4.209-2.74C1274.437,1668.568,1273.18,1667.551,1270.709,1666.791Z" transform="translate(-1244.079 -1659.039)"/></g><g transform="translate(0 11.646)"><path class="n" d="M1148.716,1681.669l-10.01,1.835c-1.7-1.458-2.62-3.024-2.62-4.652,0-.121.01-.24.02-.36l12.462-2.289a4.1,4.1,0,0,0-1.091,2.649A4.23,4.23,0,0,0,1148.716,1681.669Z" transform="translate(-1136.086 -1676.203)"/></g><g transform="translate(56.148 1.353)"><path class="n" d="M1335.014,1647.508l-10,1.834a88.613,88.613,0,0,0-16.394-2.483l12.47-2.286A92.707,92.707,0,0,1,1335.014,1647.508Z" transform="translate(-1308.617 -1644.574)"/></g><g transform="translate(4.896 18.789)"><path class="k" d="M1164.858,1700.165l-9.7,1.781a29.528,29.528,0,0,1-4.026-2.009l9.739-1.785A23.23,23.23,0,0,0,1164.858,1700.165Z" transform="translate(-1151.129 -1698.152)"/></g><g transform="translate(76.692 5.619)"><path class="k" d="M1385.741,1659.648l-9.7,1.785a26.275,26.275,0,0,0-4.3-1.963l9.739-1.786A34.255,34.255,0,0,1,1385.741,1659.648Z" transform="translate(-1371.742 -1657.684)"/></g><g transform="translate(15.988 23.054)"><path class="p" d="M1209.421,1713.157l-12.479,2.29a97.883,97.883,0,0,1-11.727-2.311l10.223-1.877A94.65,94.65,0,0,0,1209.421,1713.157Z" transform="translate(-1185.215 -1711.258)"/></g><g transform="translate(83.765 10.508)"><path class="p" d="M1406.043,1676.494c0,.122-.01.243-.02.362l-12.546,2.3a4.016,4.016,0,0,0,1.177-2.663,3.568,3.568,0,0,0-.6-1.9l10.268-1.884A5.6,5.6,0,0,1,1406.043,1676.494Z" transform="translate(-1393.477 -1672.707)"/></g><g transform="translate(0.004 14.297)"><path class="q" d="M1184.259,1698.641c-26.6,0-48.161-6.4-48.161-14.293v11.264c0,7.895,21.563,14.3,48.161,14.3s48.165-6.4,48.165-14.3l-.173-10.1C1230.257,1692.86,1209.539,1698.641,1184.259,1698.641Z" transform="translate(-1136.098 -1684.348)"/></g><g transform="translate(6.319 21.368)"><path class="o" d="M1155.5,1717.344a43.834,43.834,0,0,0,7.5,2.946v-11.267a43.859,43.859,0,0,1-7.5-2.944Z" transform="translate(-1155.504 -1706.078)"/><g transform="translate(18.024 5.35)"><path class="j" d="M1218.386,1723.546c-2.616-.278-5.121-.627-7.5-1.03v11.264c2.378.4,4.883.75,7.5,1.031Z" transform="translate(-1210.887 -1722.516)"/></g><g transform="translate(10.429 3.757)"><path class="n" d="M1191.3,1718.492q-1.947-.41-3.75-.871v11.264q1.8.462,3.75.87Z" transform="translate(-1187.551 -1717.621)"/></g></g></g><g transform="translate(0 13.578)"><g transform="translate(0.004)"><path class="j" d="M1232.424,1612.29c0,7.9-21.563,14.3-48.165,14.3s-48.161-6.4-48.161-14.3S1157.661,1598,1184.259,1598,1232.424,1604.4,1232.424,1612.29Z" transform="translate(-1136.098 -1597.996)"/></g><g transform="translate(11.392 3.379)"><path class="k" d="M1244.641,1619.294c0,6.028-16.468,10.916-36.777,10.916s-36.773-4.888-36.773-10.916,16.467-10.915,36.773-10.915S1244.641,1613.266,1244.641,1619.294Z" transform="translate(-1171.09 -1608.379)"/></g><g transform="translate(15.541 3.995)"><path class="l" d="M1253.241,1620.572c0,5.688-15.537,10.3-34.7,10.3s-34.7-4.612-34.7-10.3,15.536-10.3,34.7-10.3S1253.241,1614.884,1253.241,1620.572Z" transform="translate(-1183.84 -1610.273)"/></g><g transform="translate(32.889 6.06)"><path class="m" d="M1263.778,1624.368c-4-1.228-10.278-1.363-14.434-1.449a8.145,8.145,0,0,1-3.652-.621c-.528-.377-.066-.868,1.223-1.311a21.14,21.14,0,0,1,5.835-.641,28.138,28.138,0,0,1,5.282.357,8.563,8.563,0,0,0,4.355.361c1.589-.253,2.18-.842,1.326-1.31-1.7-.936-6.071-1.217-8.211-1.3v-.872c0-.535-1.459-.967-3.26-.967s-3.263.432-3.263.967v.96a29.161,29.161,0,0,0-7,1.174c-2.94,1.011-3.811,2.254-2.319,3.322,1.45,1.041,4.9,1.716,9.211,1.81,3.353.071,7.945.169,10.209.866,1.2.367,1.81.87,1.716,1.414s-.908,1.069-2.223,1.448a30.5,30.5,0,0,1-10.044.637c-1.561-.149-4.286-.545-4.914-1.548-.334-.526-2.04-.871-3.81-.772s-2.94.6-2.6,1.128c.915,1.454,4.323,2.562,9.344,3.037.8.075,1.615.131,2.431.172v.886c0,.537,1.462.97,3.263.97s3.26-.434,3.26-.97v-.951a37.719,37.719,0,0,0,7.6-1.2c2.532-.724,4.026-1.7,4.212-2.742C1267.508,1626.144,1266.252,1625.127,1263.778,1624.368Z" transform="translate(-1237.148 -1616.617)"/></g><g transform="translate(35.145 6.06)"><path class="j" d="M1270.709,1624.368c-4-1.228-10.275-1.363-14.431-1.453a8.069,8.069,0,0,1-3.65-.617c-.531-.377-.073-.868,1.222-1.311a21.12,21.12,0,0,1,5.833-.641,28.162,28.162,0,0,1,5.283.357,8.549,8.549,0,0,0,4.353.361c1.59-.253,2.182-.842,1.327-1.31-1.7-.936-6.073-1.217-8.208-1.3v-.872c0-.535-1.461-.967-3.263-.967s-3.263.432-3.263.967v.96a29.11,29.11,0,0,0-6.995,1.174c-2.945,1.011-3.81,2.25-2.321,3.322,1.454,1.041,4.9,1.716,9.214,1.81,3.352.071,7.945.169,10.207.866,1.2.367,1.809.87,1.714,1.414s-.9,1.069-2.22,1.448a30.5,30.5,0,0,1-10.042.637c-1.569-.149-4.287-.549-4.918-1.548-.333-.526-2.043-.871-3.807-.772s-2.938.6-2.609,1.128c.922,1.454,4.326,2.562,9.346,3.037.8.075,1.612.131,2.431.172v.886c0,.537,1.462.97,3.263.97s3.263-.434,3.263-.97v-.951a37.714,37.714,0,0,0,7.6-1.2c2.531-.724,4.027-1.7,4.209-2.742C1274.437,1626.144,1273.18,1625.127,1270.709,1624.368Z" transform="translate(-1244.079 -1616.617)"/></g><g transform="translate(0 11.645)"><path class="n" d="M1148.716,1639.242l-10.01,1.835c-1.7-1.459-2.62-3.019-2.62-4.65,0-.123.01-.239.02-.359l12.462-2.291a4.1,4.1,0,0,0-1.091,2.649A4.225,4.225,0,0,0,1148.716,1639.242Z" transform="translate(-1136.086 -1633.777)"/></g><g transform="translate(56.148 1.349)"><path class="n" d="M1335.014,1605.079l-10,1.834a88.714,88.714,0,0,0-16.394-2.487l12.47-2.286A92.924,92.924,0,0,1,1335.014,1605.079Z" transform="translate(-1308.617 -1602.141)"/></g><g transform="translate(4.896 18.788)"><path class="k" d="M1164.858,1657.738l-9.7,1.781a29.7,29.7,0,0,1-4.026-2.006l9.739-1.786A23.259,23.259,0,0,0,1164.858,1657.738Z" transform="translate(-1151.129 -1655.727)"/></g><g transform="translate(76.692 5.616)"><path class="k" d="M1385.741,1617.219l-9.7,1.783a26.178,26.178,0,0,0-4.3-1.96l9.739-1.789A34.041,34.041,0,0,1,1385.741,1617.219Z" transform="translate(-1371.742 -1615.254)"/></g><g transform="translate(15.988 23.054)"><path class="p" d="M1209.421,1670.733l-12.479,2.29a98.164,98.164,0,0,1-11.727-2.312l10.223-1.874A94.329,94.329,0,0,0,1209.421,1670.733Z" transform="translate(-1185.215 -1668.836)"/></g><g transform="translate(83.765 10.504)"><path class="p" d="M1406.043,1634.063c0,.122-.01.244-.02.364l-12.546,2.3a4.015,4.015,0,0,0,1.177-2.664,3.558,3.558,0,0,0-.6-1.9l10.268-1.887A5.6,5.6,0,0,1,1406.043,1634.063Z" transform="translate(-1393.477 -1630.273)"/></g><g transform="translate(0.004 14.294)"><path class="q" d="M1184.259,1656.213c-26.6,0-48.161-6.4-48.161-14.3v11.266c0,7.9,21.563,14.294,48.161,14.294s48.165-6.4,48.165-14.294l-.173-10.1C1230.257,1650.433,1209.539,1656.213,1184.259,1656.213Z" transform="translate(-1136.098 -1641.918)"/></g><g transform="translate(6.319 21.365)"><path class="o" d="M1155.5,1674.91a43.374,43.374,0,0,0,7.5,2.947v-11.265a43.433,43.433,0,0,1-7.5-2.947Z" transform="translate(-1155.504 -1663.645)"/><g transform="translate(18.024 5.351)"><path class="j" d="M1218.386,1681.116c-2.616-.278-5.121-.624-7.5-1.03v11.266c2.378.4,4.883.749,7.5,1.028Z" transform="translate(-1210.887 -1680.086)"/></g><g transform="translate(10.429 3.76)"><path class="n" d="M1191.3,1676.066q-1.947-.406-3.75-.867v11.265q1.8.459,3.75.867Z" transform="translate(-1187.551 -1675.199)"/></g></g></g><g transform="translate(0.004)"><path class="j" d="M1232.424,1570.57c0,7.9-21.563,14.3-48.165,14.3s-48.161-6.4-48.161-14.3,21.563-14.3,48.161-14.3S1232.424,1562.674,1232.424,1570.57Z" transform="translate(-1136.098 -1556.273)"/></g><g transform="translate(11.392 3.383)"><path class="k" d="M1244.641,1577.582c0,6.03-16.468,10.914-36.777,10.914s-36.773-4.884-36.773-10.914,16.467-10.913,36.773-10.913S1244.641,1571.552,1244.641,1577.582Z" transform="translate(-1171.09 -1566.668)"/></g><g transform="translate(15.541 4)"><path class="l" d="M1253.241,1578.86c0,5.689-15.537,10.3-34.7,10.3s-34.7-4.611-34.7-10.3,15.536-10.3,34.7-10.3S1253.241,1573.171,1253.241,1578.86Z" transform="translate(-1183.84 -1568.563)"/></g><g transform="translate(32.89 6.061)"><path class="m" d="M1263.781,1582.65c-4-1.227-10.278-1.363-14.434-1.452a8.106,8.106,0,0,1-3.652-.617c-.527-.38-.066-.87,1.228-1.311a21.017,21.017,0,0,1,5.83-.641,27.849,27.849,0,0,1,5.282.356,8.6,8.6,0,0,0,4.355.361c1.589-.254,2.18-.842,1.326-1.313-1.7-.933-6.071-1.213-8.211-1.3v-.87c0-.535-1.457-.97-3.26-.97s-3.263.435-3.263.97v.958a29.038,29.038,0,0,0-7,1.174c-2.94,1.012-3.811,2.251-2.319,3.322,1.451,1.04,4.9,1.716,9.212,1.807,3.353.073,7.945.173,10.211.866,1.2.371,1.809.872,1.715,1.413s-.908,1.073-2.223,1.449a30.44,30.44,0,0,1-10.044.637c-1.561-.148-4.285-.547-4.913-1.548-.332-.524-2.04-.87-3.81-.773s-2.936.6-2.6,1.131c.918,1.451,4.323,2.558,9.344,3.035.8.078,1.614.134,2.431.17v.89c0,.534,1.462.968,3.263.968s3.26-.434,3.26-.968v-.954a37.711,37.711,0,0,0,7.6-1.194c2.532-.723,4.026-1.7,4.212-2.741C1267.51,1584.426,1266.254,1583.412,1263.781,1582.65Z" transform="translate(-1237.151 -1574.898)"/></g><g transform="translate(35.145 6.061)"><path class="j" d="M1270.711,1582.65c-4-1.227-10.278-1.363-14.434-1.452a8.021,8.021,0,0,1-3.65-.62c-.529-.377-.073-.866,1.222-1.307a21.067,21.067,0,0,1,5.833-.641,27.869,27.869,0,0,1,5.283.356,8.586,8.586,0,0,0,4.353.361c1.59-.254,2.182-.842,1.327-1.313-1.7-.933-6.073-1.213-8.208-1.3v-.87c0-.539-1.461-.97-3.263-.97s-3.263.431-3.263.97v.958a28.989,28.989,0,0,0-6.995,1.174c-2.945,1.012-3.81,2.251-2.32,3.322,1.453,1.04,4.9,1.716,9.213,1.807,3.352.073,7.945.173,10.207.866,1.2.371,1.809.872,1.714,1.413s-.9,1.073-2.22,1.449a30.43,30.43,0,0,1-10.042.637c-1.564-.148-4.287-.547-4.918-1.548-.333-.524-2.038-.87-3.807-.773s-2.938.6-2.609,1.131c.922,1.451,4.326,2.558,9.346,3.035.8.078,1.612.134,2.431.17v.89c0,.534,1.462.968,3.263.968s3.263-.434,3.263-.968v-.954a37.707,37.707,0,0,0,7.6-1.194c2.531-.723,4.027-1.7,4.209-2.741C1274.437,1584.426,1273.18,1583.412,1270.711,1582.65Z" transform="translate(-1244.079 -1574.898)"/></g><g transform="translate(0 11.648)"><path class="n" d="M1148.716,1597.528l-10.01,1.837c-1.7-1.458-2.62-3.02-2.62-4.65,0-.122.01-.241.02-.359l12.463-2.289a4.091,4.091,0,0,0-1.092,2.648A4.21,4.21,0,0,0,1148.716,1597.528Z" transform="translate(-1136.086 -1592.066)"/></g><g transform="translate(56.148 1.353)"><path class="n" d="M1335.014,1563.367l-10,1.832a88.757,88.757,0,0,0-16.394-2.483l12.47-2.286A92.644,92.644,0,0,1,1335.014,1563.367Z" transform="translate(-1308.617 -1560.43)"/></g><g transform="translate(4.896 18.788)"><path class="k" d="M1164.858,1616.019l-9.7,1.78a29.658,29.658,0,0,1-4.026-2.007l9.739-1.787A23.148,23.148,0,0,0,1164.858,1616.019Z" transform="translate(-1151.129 -1614.004)"/></g><g transform="translate(76.692 5.618)"><path class="k" d="M1385.741,1575.5l-9.7,1.784a25.945,25.945,0,0,0-4.3-1.96l9.74-1.79A34.163,34.163,0,0,1,1385.741,1575.5Z" transform="translate(-1371.742 -1573.535)"/></g><g transform="translate(15.988 23.057)"><path class="p" d="M1209.421,1629.018l-12.479,2.287a97.9,97.9,0,0,1-11.727-2.309l10.223-1.875A94.98,94.98,0,0,0,1209.421,1629.018Z" transform="translate(-1185.215 -1627.121)"/></g><g transform="translate(83.765 10.508)"><path class="p" d="M1406.043,1592.351c0,.121-.01.241-.02.361l-12.546,2.3a4,4,0,0,0,1.177-2.665,3.57,3.57,0,0,0-.6-1.9l10.268-1.884A5.6,5.6,0,0,1,1406.043,1592.351Z" transform="translate(-1393.477 -1588.563)"/></g><g transform="translate(0.004 14.297)"><path class="q" d="M1184.259,1614.5c-26.6,0-48.161-6.4-48.161-14.3v11.264c0,7.9,21.563,14.3,48.161,14.3s48.165-6.4,48.165-14.3l-.173-10.1C1230.257,1608.715,1209.539,1614.5,1184.259,1614.5Z" transform="translate(-1136.098 -1600.203)"/></g><g transform="translate(6.319 21.369)"><path class="o" d="M1155.5,1633.2a43.951,43.951,0,0,0,7.5,2.947v-11.267a43.689,43.689,0,0,1-7.5-2.944Z" transform="translate(-1155.504 -1621.934)"/><g transform="translate(18.024 5.348)"><path class="j" d="M1218.386,1639.4c-2.613-.28-5.121-.627-7.5-1.032v11.268c2.378.4,4.887.749,7.5,1.028Z" transform="translate(-1210.887 -1638.367)"/></g><g transform="translate(10.429 3.759)"><path class="n" d="M1191.3,1634.351q-1.953-.406-3.754-.867v11.266q1.8.459,3.754.867Z" transform="translate(-1187.551 -1633.484)"/></g></g></g><g transform="translate(0 42.399)"><g transform="translate(0 27.38)"><g transform="translate(0.004)"><path class="j" d="M1232.424,1528.211c0,7.895-21.563,14.3-48.165,14.3s-48.161-6.4-48.161-14.3,21.563-14.3,48.161-14.3S1232.424,1520.315,1232.424,1528.211Z" transform="translate(-1136.098 -1513.914)"/></g><g transform="translate(11.392 3.383)"><path class="k" d="M1244.641,1535.223c0,6.029-16.468,10.913-36.777,10.913s-36.773-4.884-36.773-10.913,16.467-10.914,36.773-10.914S1244.641,1529.2,1244.641,1535.223Z" transform="translate(-1171.09 -1524.309)"/></g><g transform="translate(15.541 3.995)"><path class="l" d="M1253.241,1536.492c0,5.689-15.537,10.3-34.7,10.3s-34.7-4.611-34.7-10.3,15.536-10.3,34.7-10.3S1253.241,1530.8,1253.241,1536.492Z" transform="translate(-1183.84 -1526.191)"/></g><g transform="translate(32.889 6.061)"><path class="m" d="M1263.778,1540.292c-4-1.228-10.278-1.363-14.434-1.453a8.105,8.105,0,0,1-3.652-.616c-.528-.378-.066-.872,1.223-1.312a21.149,21.149,0,0,1,5.835-.64,28.041,28.041,0,0,1,5.282.354,8.537,8.537,0,0,0,4.355.361c1.589-.252,2.18-.838,1.326-1.311-1.7-.933-6.071-1.213-8.211-1.294v-.875c0-.533-1.459-.968-3.26-.968s-3.263.435-3.263.968v.961a28.974,28.974,0,0,0-7,1.173c-2.94,1.012-3.811,2.251-2.319,3.322,1.45,1.039,4.9,1.716,9.211,1.808,3.353.073,7.945.174,10.209.866,1.2.371,1.81.872,1.716,1.414s-.908,1.073-2.223,1.449a30.47,30.47,0,0,1-10.044.637c-1.561-.147-4.286-.547-4.914-1.548-.334-.524-2.04-.87-3.81-.773s-2.94.605-2.6,1.132c.915,1.453,4.323,2.558,9.344,3.034.8.076,1.615.133,2.431.17v.89c0,.533,1.462.969,3.263.969s3.26-.436,3.26-.969v-.955a37.7,37.7,0,0,0,7.6-1.194c2.532-.723,4.026-1.7,4.212-2.742C1267.508,1542.067,1266.252,1541.05,1263.778,1540.292Z" transform="translate(-1237.148 -1532.539)"/></g><g transform="translate(35.145 6.061)"><path class="j" d="M1270.709,1540.292c-4-1.228-10.275-1.363-14.431-1.453a8,8,0,0,1-3.65-.62c-.531-.374-.073-.868,1.222-1.308a21.129,21.129,0,0,1,5.833-.64,28.065,28.065,0,0,1,5.283.354,8.522,8.522,0,0,0,4.353.361c1.59-.252,2.182-.838,1.327-1.311-1.7-.933-6.073-1.213-8.208-1.294v-.875c0-.537-1.461-.968-3.263-.968s-3.263.431-3.263.968v.961a28.924,28.924,0,0,0-6.995,1.173c-2.945,1.012-3.81,2.251-2.321,3.322,1.454,1.039,4.9,1.716,9.214,1.808,3.352.073,7.945.174,10.207.866,1.2.371,1.809.872,1.714,1.414s-.9,1.073-2.22,1.449a30.468,30.468,0,0,1-10.042.637c-1.569-.147-4.287-.547-4.918-1.548-.333-.524-2.043-.87-3.807-.773s-2.938.605-2.609,1.132c.922,1.453,4.326,2.558,9.346,3.034.8.076,1.612.133,2.431.17v.89c0,.533,1.462.969,3.263.969s3.263-.436,3.263-.969v-.955a37.69,37.69,0,0,0,7.6-1.194c2.531-.723,4.027-1.7,4.209-2.742C1274.437,1542.067,1273.18,1541.05,1270.709,1540.292Z" transform="translate(-1244.079 -1532.539)"/></g><g transform="translate(0 11.65)"><path class="n" d="M1148.716,1555.171l-10.01,1.837c-1.7-1.458-2.62-3.022-2.62-4.65,0-.122.01-.241.02-.361l12.462-2.286a4.087,4.087,0,0,0-1.091,2.647A4.21,4.21,0,0,0,1148.716,1555.171Z" transform="translate(-1136.086 -1549.711)"/></g><g transform="translate(56.148 1.353)"><path class="n" d="M1335.014,1521.007l-10,1.832a88.84,88.84,0,0,0-16.394-2.483l12.47-2.286A92.7,92.7,0,0,1,1335.014,1521.007Z" transform="translate(-1308.617 -1518.07)"/></g><g transform="translate(4.896 18.789)"><path class="k" d="M1164.858,1573.662l-9.7,1.779a29.419,29.419,0,0,1-4.026-2.007l9.739-1.785A23.308,23.308,0,0,0,1164.858,1573.662Z" transform="translate(-1151.129 -1571.648)"/></g><g transform="translate(76.692 5.619)"><path class="k" d="M1385.741,1533.144l-9.7,1.785a26.067,26.067,0,0,0-4.3-1.96l9.739-1.789A34.044,34.044,0,0,1,1385.741,1533.144Z" transform="translate(-1371.742 -1531.18)"/></g><g transform="translate(15.988 23.054)"><path class="p" d="M1209.421,1586.653l-12.479,2.287a97.629,97.629,0,0,1-11.727-2.307l10.223-1.879A94.682,94.682,0,0,0,1209.421,1586.653Z" transform="translate(-1185.215 -1584.754)"/></g><g transform="translate(83.765 10.508)"><path class="p" d="M1406.043,1549.991c0,.121-.01.242-.02.361l-12.546,2.3a4.008,4.008,0,0,0,1.177-2.662,3.573,3.573,0,0,0-.6-1.9l10.268-1.884A5.6,5.6,0,0,1,1406.043,1549.991Z" transform="translate(-1393.477 -1546.203)"/></g><g transform="translate(0.004 14.297)"><path class="q" d="M1184.259,1572.139c-26.6,0-48.161-6.4-48.161-14.3v11.264c0,7.894,21.563,14.3,48.161,14.3s48.165-6.4,48.165-14.3l-.173-10.1C1230.257,1566.356,1209.539,1572.139,1184.259,1572.139Z" transform="translate(-1136.098 -1557.844)"/></g><g transform="translate(6.319 21.368)"><path class="o" d="M1155.5,1590.839a43.671,43.671,0,0,0,7.5,2.944v-11.264a43.629,43.629,0,0,1-7.5-2.944Z" transform="translate(-1155.504 -1579.574)"/><g transform="translate(18.024 5.35)"><path class="j" d="M1218.386,1597.043c-2.616-.28-5.121-.627-7.5-1.031v11.264c2.378.4,4.883.751,7.5,1.031Z" transform="translate(-1210.887 -1596.012)"/></g><g transform="translate(10.429 3.759)"><path class="n" d="M1191.3,1591.993q-1.947-.406-3.75-.868v11.266q1.8.46,3.75.867Z" transform="translate(-1187.551 -1591.125)"/></g></g></g><g transform="translate(0 13.574)"><g transform="translate(0.004)"><path class="j" d="M1232.424,1485.789c0,7.892-21.563,14.292-48.165,14.292s-48.161-6.4-48.161-14.292,21.563-14.3,48.161-14.3S1232.424,1477.893,1232.424,1485.789Z" transform="translate(-1136.098 -1471.492)"/></g><g transform="translate(11.392 3.379)"><path class="k" d="M1244.641,1492.792c0,6.026-16.468,10.914-36.777,10.914s-36.773-4.888-36.773-10.914,16.467-10.917,36.773-10.917S1244.641,1486.763,1244.641,1492.792Z" transform="translate(-1171.09 -1481.875)"/></g><g transform="translate(15.541 3.996)"><path class="l" d="M1253.241,1494.071c0,5.686-15.537,10.3-34.7,10.3s-34.7-4.611-34.7-10.3,15.536-10.3,34.7-10.3S1253.241,1488.381,1253.241,1494.071Z" transform="translate(-1183.84 -1483.77)"/></g><g transform="translate(32.889 6.06)"><path class="m" d="M1263.778,1497.865c-4-1.226-10.278-1.362-14.434-1.45a8.147,8.147,0,0,1-3.652-.621c-.528-.376-.066-.868,1.223-1.311a21.135,21.135,0,0,1,5.835-.641,28.115,28.115,0,0,1,5.282.357,8.594,8.594,0,0,0,4.355.361c1.589-.253,2.18-.839,1.326-1.311-1.7-.935-6.071-1.215-8.211-1.3v-.873c0-.535-1.459-.968-3.26-.968s-3.263.432-3.263.968v.96a29.216,29.216,0,0,0-7,1.174c-2.94,1.012-3.811,2.254-2.319,3.323,1.45,1.04,4.9,1.713,9.211,1.809,3.353.071,7.945.17,10.209.865,1.2.368,1.81.872,1.716,1.411s-.908,1.072-2.223,1.451a30.55,30.55,0,0,1-10.044.637c-1.561-.149-4.286-.545-4.914-1.548-.334-.526-2.04-.872-3.81-.772s-2.94.605-2.6,1.128c.915,1.454,4.323,2.561,9.344,3.037.8.077,1.615.131,2.431.172v.887c0,.535,1.462.969,3.263.969s3.26-.434,3.26-.969v-.952a37.89,37.89,0,0,0,7.6-1.195c2.532-.725,4.026-1.7,4.212-2.744C1267.508,1499.64,1266.252,1498.624,1263.778,1497.865Z" transform="translate(-1237.148 -1490.113)"/></g><g transform="translate(35.145 6.06)"><path class="j" d="M1270.709,1497.865c-4-1.226-10.275-1.362-14.431-1.45a8.111,8.111,0,0,1-3.65-.621c-.531-.376-.073-.868,1.222-1.311a21.115,21.115,0,0,1,5.833-.641,28.139,28.139,0,0,1,5.283.357,8.58,8.58,0,0,0,4.353.361c1.59-.253,2.182-.842,1.327-1.311-1.7-.937-6.073-1.215-8.208-1.3v-.873c0-.535-1.461-.968-3.263-.968s-3.263.432-3.263.968v.96a29.165,29.165,0,0,0-6.995,1.174c-2.945,1.012-3.81,2.254-2.321,3.323,1.454,1.04,4.9,1.713,9.214,1.809,3.352.071,7.945.17,10.207.865,1.2.368,1.809.872,1.714,1.411s-.9,1.072-2.22,1.451a30.548,30.548,0,0,1-10.042.637c-1.569-.149-4.287-.545-4.918-1.548-.333-.526-2.043-.872-3.807-.772s-2.938.605-2.609,1.128c.922,1.454,4.326,2.561,9.346,3.037.8.077,1.612.131,2.431.172v.887c0,.535,1.462.969,3.263.969s3.263-.434,3.263-.969v-.952a37.885,37.885,0,0,0,7.6-1.195c2.531-.725,4.027-1.7,4.209-2.744C1274.437,1499.64,1273.18,1498.624,1270.709,1497.865Z" transform="translate(-1244.079 -1490.113)"/></g><g transform="translate(0 11.646)"><path class="n" d="M1148.716,1512.741l-10.01,1.836c-1.7-1.459-2.62-3.021-2.62-4.653,0-.12.01-.238.02-.357l12.462-2.29a4.093,4.093,0,0,0-1.091,2.647A4.22,4.22,0,0,0,1148.716,1512.741Z" transform="translate(-1136.086 -1507.277)"/></g><g transform="translate(56.148 1.349)"><path class="n" d="M1335.014,1478.575l-10,1.833a88.749,88.749,0,0,0-16.394-2.484l12.47-2.287A93.307,93.307,0,0,1,1335.014,1478.575Z" transform="translate(-1308.617 -1475.637)"/></g><g transform="translate(4.896 18.788)"><path class="k" d="M1164.858,1531.238l-9.7,1.779a29.829,29.829,0,0,1-4.026-2.007l9.739-1.786A23.236,23.236,0,0,0,1164.858,1531.238Z" transform="translate(-1151.129 -1529.223)"/></g><g transform="translate(76.692 5.616)"><path class="k" d="M1385.741,1490.715l-9.7,1.786a25.97,25.97,0,0,0-4.3-1.963l9.739-1.789A34.663,34.663,0,0,1,1385.741,1490.715Z" transform="translate(-1371.742 -1488.75)"/></g><g transform="translate(15.988 23.054)"><path class="p" d="M1209.421,1544.229l-12.479,2.289a97.946,97.946,0,0,1-11.727-2.31l10.223-1.876A94.312,94.312,0,0,0,1209.421,1544.229Z" transform="translate(-1185.215 -1542.332)"/></g><g transform="translate(83.765 10.507)"><path class="p" d="M1406.043,1507.563c0,.123-.01.245-.02.365l-12.546,2.3a4.012,4.012,0,0,0,1.177-2.665,3.574,3.574,0,0,0-.6-1.9l10.268-1.884A5.593,5.593,0,0,1,1406.043,1507.563Z" transform="translate(-1393.477 -1503.777)"/></g><g transform="translate(0.004 14.297)"><path class="q" d="M1184.259,1529.715c-26.6,0-48.161-6.4-48.161-14.293v11.263c0,7.895,21.563,14.294,48.161,14.294s48.165-6.4,48.165-14.294l-.173-10.1C1230.257,1523.934,1209.539,1529.715,1184.259,1529.715Z" transform="translate(-1136.098 -1515.422)"/></g><g transform="translate(6.319 21.366)"><path class="o" d="M1155.5,1548.41a43.571,43.571,0,0,0,7.5,2.947V1540.09a43.546,43.546,0,0,1-7.5-2.945Z" transform="translate(-1155.504 -1537.145)"/><g transform="translate(18.024 5.349)"><path class="j" d="M1218.386,1554.613c-2.616-.279-5.121-.625-7.5-1.031v11.266c2.378.405,4.883.751,7.5,1.03Z" transform="translate(-1210.887 -1553.582)"/></g><g transform="translate(10.429 3.759)"><path class="n" d="M1191.3,1549.562q-1.947-.406-3.75-.867v11.265q1.8.461,3.75.87Z" transform="translate(-1187.551 -1548.695)"/></g></g></g><g transform="translate(0.004)"><path class="j" d="M1232.424,1444.074c0,7.9-21.563,14.3-48.165,14.3s-48.161-6.4-48.161-14.3,21.563-14.293,48.161-14.293S1232.424,1436.179,1232.424,1444.074Z" transform="translate(-1136.098 -1429.781)"/></g><g transform="translate(11.392 3.379)"><path class="k" d="M1244.641,1451.078c0,6.028-16.468,10.914-36.777,10.914s-36.773-4.885-36.773-10.914,16.467-10.914,36.773-10.914S1244.641,1445.051,1244.641,1451.078Z" transform="translate(-1171.09 -1440.164)"/></g><g transform="translate(15.541 3.996)"><path class="l" d="M1253.241,1452.356c0,5.689-15.537,10.3-34.7,10.3s-34.7-4.612-34.7-10.3,15.536-10.3,34.7-10.3S1253.241,1446.667,1253.241,1452.356Z" transform="translate(-1183.84 -1442.059)"/></g><g transform="translate(32.89 6.058)"><path class="m" d="M1263.781,1456.15c-4-1.229-10.278-1.362-14.434-1.45a8.148,8.148,0,0,1-3.652-.621c-.527-.378-.066-.868,1.228-1.311a21.023,21.023,0,0,1,5.83-.641,27.773,27.773,0,0,1,5.282.357,8.609,8.609,0,0,0,4.355.361c1.589-.253,2.18-.843,1.326-1.311-1.7-.937-6.071-1.217-8.211-1.3v-.872c0-.535-1.457-.97-3.26-.97s-3.263.435-3.263.97v.957a29.03,29.03,0,0,0-7,1.176c-2.94,1.01-3.811,2.253-2.319,3.321,1.451,1.038,4.9,1.716,9.212,1.81,3.353.071,7.945.17,10.211.864,1.2.371,1.809.872,1.715,1.415s-.908,1.072-2.223,1.448a30.453,30.453,0,0,1-10.044.635c-1.561-.145-4.285-.545-4.913-1.544-.332-.527-2.04-.872-3.81-.776s-2.936.6-2.6,1.131c.918,1.455,4.323,2.562,9.344,3.035.8.075,1.614.134,2.431.174v.886c0,.537,1.462.968,3.263.968s3.26-.431,3.26-.968v-.951a37.7,37.7,0,0,0,7.6-1.2c2.532-.722,4.026-1.695,4.212-2.738C1267.51,1457.922,1266.254,1456.908,1263.781,1456.15Z" transform="translate(-1237.151 -1448.395)"/></g><g transform="translate(35.145 6.058)"><path class="j" d="M1270.711,1456.148c-4-1.228-10.278-1.36-14.434-1.449a8.127,8.127,0,0,1-3.65-.621c-.529-.378-.073-.868,1.222-1.311a21.073,21.073,0,0,1,5.833-.641,27.793,27.793,0,0,1,5.283.357,8.6,8.6,0,0,0,4.353.361c1.59-.253,2.182-.843,1.327-1.311-1.7-.937-6.073-1.217-8.208-1.3v-.872c0-.535-1.461-.97-3.263-.97s-3.263.435-3.263.97v.957a28.98,28.98,0,0,0-6.995,1.176c-2.945,1.01-3.81,2.253-2.32,3.321,1.453,1.038,4.9,1.716,9.213,1.81,3.352.071,7.945.17,10.207.864,1.2.371,1.809.872,1.714,1.415s-.9,1.072-2.22,1.448a30.443,30.443,0,0,1-10.042.635c-1.564-.145-4.287-.545-4.918-1.544-.333-.527-2.038-.872-3.807-.776s-2.938.6-2.609,1.131c.922,1.455,4.326,2.562,9.346,3.035.8.075,1.612.134,2.431.174v.886c0,.537,1.462.968,3.263.968s3.263-.431,3.263-.968v-.951a37.7,37.7,0,0,0,7.6-1.2c2.531-.722,4.027-1.695,4.209-2.738C1274.437,1457.922,1273.18,1456.908,1270.711,1456.148Z" transform="translate(-1244.079 -1448.395)"/></g><g transform="translate(0 11.645)"><path class="n" d="M1148.716,1471.028l-10.01,1.834c-1.7-1.459-2.62-3.023-2.62-4.651,0-.122.01-.24.02-.358l12.463-2.289a4.091,4.091,0,0,0-1.092,2.648A4.225,4.225,0,0,0,1148.716,1471.028Z" transform="translate(-1136.086 -1465.563)"/></g><g transform="translate(56.148 1.349)"><path class="n" d="M1335.014,1436.862l-10,1.834a88.308,88.308,0,0,0-16.394-2.484l12.47-2.287A92.843,92.843,0,0,1,1335.014,1436.862Z" transform="translate(-1308.617 -1433.926)"/></g><g transform="translate(4.896 18.787)"><path class="k" d="M1164.858,1489.52l-9.7,1.782a30.119,30.119,0,0,1-4.026-2.007l9.739-1.787A23.031,23.031,0,0,0,1164.858,1489.52Z" transform="translate(-1151.129 -1487.508)"/></g><g transform="translate(76.692 5.616)"><path class="k" d="M1385.741,1449.006l-9.7,1.781a26.1,26.1,0,0,0-4.3-1.961l9.74-1.787A33.439,33.439,0,0,1,1385.741,1449.006Z" transform="translate(-1371.742 -1447.039)"/></g><g transform="translate(15.988 23.053)"><path class="p" d="M1209.421,1502.512l-12.479,2.291a97.875,97.875,0,0,1-11.727-2.311l10.223-1.875A93.965,93.965,0,0,0,1209.421,1502.512Z" transform="translate(-1185.215 -1500.617)"/></g><g transform="translate(83.765 10.506)"><path class="p" d="M1406.043,1465.85c0,.123-.01.244-.02.363l-12.546,2.3a4,4,0,0,0,1.177-2.665,3.57,3.57,0,0,0-.6-1.9l10.268-1.883A5.6,5.6,0,0,1,1406.043,1465.85Z" transform="translate(-1393.477 -1462.063)"/></g><g transform="translate(0.004 14.293)"><path class="q" d="M1184.259,1488c-26.6,0-48.161-6.4-48.161-14.3v11.265c0,7.9,21.563,14.295,48.161,14.295s48.165-6.4,48.165-14.295l-.173-10.1C1230.257,1482.211,1209.539,1488,1184.259,1488Z" transform="translate(-1136.098 -1473.699)"/></g><g transform="translate(6.319 21.366)"><path class="o" d="M1155.5,1506.7a43.76,43.76,0,0,0,7.5,2.947v-11.265a43.765,43.765,0,0,1-7.5-2.945Z" transform="translate(-1155.504 -1495.434)"/><g transform="translate(18.024 5.349)"><path class="j" d="M1218.386,1512.9c-2.613-.28-5.121-.625-7.5-1.03v11.264c2.378.4,4.887.751,7.5,1.031Z" transform="translate(-1210.887 -1511.871)"/></g><g transform="translate(10.429 3.758)"><path class="n" d="M1191.3,1507.848q-1.953-.406-3.754-.867v11.264q1.8.459,3.754.868Z" transform="translate(-1187.551 -1506.981)"/></g></g></g><g transform="translate(0 27.383)"><g transform="translate(0.004)"><path class="j" d="M1232.424,1397.937c0,7.895-21.563,14.294-48.165,14.294s-48.161-6.4-48.161-14.294,21.563-14.3,48.161-14.3S1232.424,1390.042,1232.424,1397.937Z" transform="translate(-1136.098 -1383.641)"/></g><g transform="translate(11.392 3.38)"><path class="k" d="M1244.641,1404.943c0,6.027-16.468,10.916-36.777,10.916s-36.773-4.889-36.773-10.916,16.467-10.916,36.773-10.916S1244.641,1398.916,1244.641,1404.943Z" transform="translate(-1171.09 -1394.027)"/></g><g transform="translate(15.541 3.997)"><path class="l" d="M1253.241,1406.221c0,5.689-15.537,10.3-34.7,10.3s-34.7-4.611-34.7-10.3,15.536-10.3,34.7-10.3S1253.241,1400.534,1253.241,1406.221Z" transform="translate(-1183.84 -1395.922)"/></g><g transform="translate(32.889 6.06)"><path class="m" d="M1263.778,1410.016c-4-1.228-10.278-1.363-14.434-1.453a8.173,8.173,0,0,1-3.652-.619c-.528-.375-.066-.867,1.223-1.312a21.273,21.273,0,0,1,5.835-.637,28.163,28.163,0,0,1,5.282.355,8.6,8.6,0,0,0,4.355.363c1.589-.253,2.18-.843,1.326-1.313-1.7-.933-6.071-1.213-8.211-1.294v-.874c0-.534-1.459-.97-3.26-.97s-3.263.436-3.263.97v.959a29.077,29.077,0,0,0-7,1.174c-2.94,1.01-3.811,2.253-2.319,3.322,1.45,1.039,4.9,1.716,9.211,1.809,3.353.071,7.945.17,10.209.864,1.2.369,1.81.872,1.716,1.414s-.908,1.073-2.223,1.45a30.492,30.492,0,0,1-10.044.634c-1.561-.146-4.286-.544-4.914-1.546-.334-.525-2.04-.872-3.81-.773s-2.94.605-2.6,1.13c.915,1.452,4.323,2.558,9.344,3.036.8.075,1.615.131,2.431.17v.888c0,.535,1.462.968,3.263.968s3.26-.432,3.26-.968v-.953a37.989,37.989,0,0,0,7.6-1.192c2.532-.726,4.026-1.7,4.212-2.745C1267.508,1411.791,1266.252,1410.776,1263.778,1410.016Z" transform="translate(-1237.148 -1402.262)"/></g><g transform="translate(35.145 6.06)"><path class="j" d="M1270.709,1410.015c-4-1.227-10.275-1.362-14.431-1.452a8.137,8.137,0,0,1-3.65-.619c-.531-.375-.073-.867,1.222-1.312a21.1,21.1,0,0,1,5.833-.637,28.187,28.187,0,0,1,5.283.355,8.582,8.582,0,0,0,4.353.363c1.59-.253,2.182-.843,1.327-1.313-1.7-.933-6.073-1.213-8.208-1.294v-.874c0-.536-1.461-.97-3.263-.97s-3.263.433-3.263.97v.959a29.026,29.026,0,0,0-6.995,1.174c-2.945,1.01-3.81,2.253-2.321,3.322,1.454,1.039,4.9,1.716,9.214,1.809,3.352.071,7.945.17,10.207.864,1.2.369,1.809.872,1.714,1.414s-.9,1.073-2.22,1.45a30.49,30.49,0,0,1-10.042.634c-1.569-.146-4.287-.544-4.918-1.546-.333-.526-2.043-.872-3.807-.773s-2.938.605-2.609,1.13c.922,1.452,4.326,2.558,9.346,3.036.8.075,1.612.131,2.431.17v.888c0,.535,1.462.968,3.263.968s3.263-.432,3.263-.968v-.953a37.984,37.984,0,0,0,7.6-1.192c2.531-.726,4.027-1.7,4.209-2.745C1274.437,1411.791,1273.18,1410.776,1270.709,1410.015Z" transform="translate(-1244.079 -1402.262)"/></g><g transform="translate(0 11.647)"><path class="n" d="M1148.716,1424.894l-10.01,1.835c-1.7-1.458-2.62-3.022-2.62-4.651,0-.121.01-.24.02-.359l12.462-2.288a4.1,4.1,0,0,0-1.091,2.648A4.228,4.228,0,0,0,1148.716,1424.894Z" transform="translate(-1136.086 -1419.43)"/></g><g transform="translate(56.148 1.353)"><path class="n" d="M1335.014,1390.732l-10,1.835a88.521,88.521,0,0,0-16.394-2.484l12.47-2.286A92.866,92.866,0,0,1,1335.014,1390.732Z" transform="translate(-1308.617 -1387.797)"/></g><g transform="translate(4.896 18.79)"><path class="k" d="M1164.858,1443.39l-9.7,1.781a29.66,29.66,0,0,1-4.026-2.006l9.739-1.786A23.25,23.25,0,0,0,1164.858,1443.39Z" transform="translate(-1151.129 -1441.379)"/></g><g transform="translate(76.692 5.619)"><path class="k" d="M1385.741,1402.87l-9.7,1.784a26.3,26.3,0,0,0-4.3-1.96l9.739-1.787A34.486,34.486,0,0,1,1385.741,1402.87Z" transform="translate(-1371.742 -1400.906)"/></g><g transform="translate(15.988 23.056)"><path class="p" d="M1209.421,1456.385l-12.479,2.29a97.715,97.715,0,0,1-11.727-2.311l10.223-1.875A94.62,94.62,0,0,0,1209.421,1456.385Z" transform="translate(-1185.215 -1454.488)"/></g><g transform="translate(83.765 10.509)"><path class="p" d="M1406.043,1419.719c0,.123-.01.244-.02.364l-12.546,2.3a4.017,4.017,0,0,0,1.177-2.665,3.562,3.562,0,0,0-.6-1.9l10.268-1.884A5.591,5.591,0,0,1,1406.043,1419.719Z" transform="translate(-1393.477 -1415.934)"/></g><g transform="translate(0.004 14.296)"><path class="q" d="M1184.259,1441.864c-26.6,0-48.161-6.4-48.161-14.294v11.266c0,7.894,21.563,14.294,48.161,14.294s48.165-6.4,48.165-14.294l-.173-10.1C1230.257,1436.084,1209.539,1441.864,1184.259,1441.864Z" transform="translate(-1136.098 -1427.57)"/></g><g transform="translate(6.319 21.368)"><path class="o" d="M1155.5,1460.566a43.531,43.531,0,0,0,7.5,2.947v-11.266a43.694,43.694,0,0,1-7.5-2.946Z" transform="translate(-1155.504 -1449.301)"/><g transform="translate(18.024 5.349)"><path class="j" d="M1218.386,1466.769c-2.616-.28-5.121-.626-7.5-1.031v11.267c2.378.4,4.883.747,7.5,1.029Z" transform="translate(-1210.887 -1465.738)"/></g><g transform="translate(10.429 3.759)"><path class="n" d="M1191.3,1461.72c-1.3-.273-2.547-.56-3.75-.868v11.263q1.8.459,3.75.868Z" transform="translate(-1187.551 -1460.852)"/></g></g></g><g transform="translate(0 13.577)"><g transform="translate(0.004)"><path class="j" d="M1232.424,1355.514c0,7.894-21.563,14.295-48.165,14.295s-48.161-6.4-48.161-14.295,21.563-14.3,48.161-14.3S1232.424,1347.619,1232.424,1355.514Z" transform="translate(-1136.098 -1341.219)"/></g><g transform="translate(11.392 3.379)"><path class="k" d="M1244.641,1362.518c0,6.027-16.468,10.916-36.777,10.916s-36.773-4.89-36.773-10.916,16.467-10.916,36.773-10.916S1244.641,1356.49,1244.641,1362.518Z" transform="translate(-1171.09 -1351.602)"/></g><g transform="translate(15.541 3.995)"><path class="l" d="M1253.241,1363.8c0,5.686-15.537,10.3-34.7,10.3s-34.7-4.611-34.7-10.3,15.536-10.3,34.7-10.3S1253.241,1358.108,1253.241,1363.8Z" transform="translate(-1183.84 -1353.496)"/></g><g transform="translate(32.889 6.06)"><path class="m" d="M1263.778,1367.593c-4-1.23-10.278-1.363-14.434-1.452a8.171,8.171,0,0,1-3.652-.619c-.528-.376-.066-.87,1.223-1.312a21.129,21.129,0,0,1,5.835-.641,27.978,27.978,0,0,1,5.282.358,8.581,8.581,0,0,0,4.355.361c1.589-.254,2.18-.842,1.326-1.312-1.7-.936-6.071-1.217-8.211-1.3v-.872c0-.535-1.459-.968-3.26-.968s-3.263.432-3.263.968v.961a28.974,28.974,0,0,0-7,1.174c-2.94,1.011-3.811,2.251-2.319,3.319,1.45,1.041,4.9,1.718,9.211,1.812,3.353.071,7.945.17,10.209.865,1.2.369,1.81.871,1.716,1.412s-.908,1.073-2.223,1.449a30.556,30.556,0,0,1-10.044.637c-1.561-.146-4.286-.546-4.914-1.546-.334-.529-2.04-.872-3.81-.774s-2.94.6-2.6,1.128c.915,1.454,4.323,2.562,9.344,3.037.8.075,1.615.131,2.431.172v.887c0,.535,1.462.97,3.263.97s3.26-.435,3.26-.97v-.952a37.793,37.793,0,0,0,7.6-1.195c2.532-.724,4.026-1.7,4.212-2.742C1267.508,1369.368,1266.252,1368.351,1263.778,1367.593Z" transform="translate(-1237.148 -1359.84)"/></g><g transform="translate(35.145 6.06)"><path class="j" d="M1270.709,1367.593c-4-1.23-10.275-1.363-14.431-1.454a8.108,8.108,0,0,1-3.65-.617c-.531-.376-.073-.87,1.222-1.312a21.109,21.109,0,0,1,5.833-.641,28,28,0,0,1,5.283.358,8.566,8.566,0,0,0,4.353.361c1.59-.254,2.182-.842,1.327-1.312-1.7-.936-6.073-1.217-8.208-1.3v-.872c0-.535-1.461-.968-3.263-.968s-3.263.432-3.263.968v.961a28.924,28.924,0,0,0-6.995,1.174c-2.945,1.011-3.81,2.25-2.321,3.319,1.454,1.041,4.9,1.718,9.214,1.808,3.352.075,7.945.174,10.207.868,1.2.369,1.809.871,1.714,1.412s-.9,1.073-2.22,1.449a30.554,30.554,0,0,1-10.042.637c-1.569-.146-4.287-.548-4.918-1.546-.333-.529-2.043-.872-3.807-.774s-2.938.6-2.609,1.128c.922,1.454,4.326,2.559,9.346,3.037.8.075,1.612.131,2.431.172v.887c0,.535,1.462.97,3.263.97s3.263-.435,3.263-.97v-.952a37.788,37.788,0,0,0,7.6-1.195c2.531-.724,4.027-1.7,4.209-2.742C1274.437,1369.368,1273.18,1368.351,1270.709,1367.593Z" transform="translate(-1244.079 -1359.84)"/></g><g transform="translate(0 11.647)"><path class="n" d="M1148.716,1382.472l-10.01,1.836c-1.7-1.459-2.62-3.022-2.62-4.651,0-.125.01-.241.02-.36l12.462-2.288a4.088,4.088,0,0,0-1.091,2.648A4.228,4.228,0,0,0,1148.716,1382.472Z" transform="translate(-1136.086 -1377.008)"/></g><g transform="translate(56.148 1.349)"><path class="n" d="M1335.014,1348.3l-10,1.834a88.747,88.747,0,0,0-16.394-2.486l12.47-2.286A93.182,93.182,0,0,1,1335.014,1348.3Z" transform="translate(-1308.617 -1345.363)"/></g><g transform="translate(4.896 18.786)"><path class="k" d="M1164.858,1400.96l-9.7,1.78a29.817,29.817,0,0,1-4.026-2.006l9.739-1.789A23.122,23.122,0,0,0,1164.858,1400.96Z" transform="translate(-1151.129 -1398.945)"/></g><g transform="translate(76.692 5.618)"><path class="k" d="M1385.741,1360.446l-9.7,1.785a26.044,26.044,0,0,0-4.3-1.961l9.739-1.789A33.7,33.7,0,0,1,1385.741,1360.446Z" transform="translate(-1371.742 -1358.481)"/></g><g transform="translate(15.988 23.054)"><path class="p" d="M1209.421,1413.957l-12.479,2.29a98.941,98.941,0,0,1-11.727-2.31l10.223-1.878A94.659,94.659,0,0,0,1209.421,1413.957Z" transform="translate(-1185.215 -1412.059)"/></g><g transform="translate(83.765 10.506)"><path class="p" d="M1406.043,1377.29c0,.121-.01.244-.02.361l-12.546,2.3a4.01,4.01,0,0,0,1.177-2.663,3.561,3.561,0,0,0-.6-1.9l10.268-1.887A5.6,5.6,0,0,1,1406.043,1377.29Z" transform="translate(-1393.477 -1373.5)"/></g><g transform="translate(0.004 14.295)"><path class="q" d="M1184.259,1399.44c-26.6,0-48.161-6.4-48.161-14.295v11.265c0,7.894,21.563,14.3,48.161,14.3s48.165-6.4,48.165-14.3l-.173-10.1C1230.257,1393.659,1209.539,1399.44,1184.259,1399.44Z" transform="translate(-1136.098 -1385.145)"/></g><g transform="translate(6.319 21.367)"><path class="o" d="M1155.5,1418.139a43.313,43.313,0,0,0,7.5,2.944v-11.264a43.549,43.549,0,0,1-7.5-2.944Z" transform="translate(-1155.504 -1406.875)"/><g transform="translate(18.024 5.35)"><path class="j" d="M1218.386,1424.343c-2.616-.278-5.121-.627-7.5-1.03v11.265c2.378.4,4.883.75,7.5,1.028Z" transform="translate(-1210.887 -1423.313)"/></g><g transform="translate(10.429 3.757)"><path class="n" d="M1191.3,1419.289q-1.947-.406-3.75-.871v11.267q1.8.46,3.75.868Z" transform="translate(-1187.551 -1418.418)"/></g></g></g><g transform="translate(0.004)"><path class="j" d="M1232.424,1313.8c0,7.892-21.563,14.294-48.165,14.294s-48.161-6.4-48.161-14.294,21.563-14.3,48.161-14.3S1232.424,1305.9,1232.424,1313.8Z" transform="translate(-1136.098 -1299.5)"/></g><g transform="translate(11.392 3.382)"><path class="o" d="M1244.641,1320.806c0,6.026-16.468,10.914-36.777,10.914s-36.773-4.888-36.773-10.914,16.467-10.915,36.773-10.915S1244.641,1314.776,1244.641,1320.806Z" transform="translate(-1171.09 -1309.891)"/></g><g transform="translate(15.541 3.995)"><path class="s" d="M1253.241,1322.078c0,5.687-15.537,10.3-34.7,10.3s-34.7-4.611-34.7-10.3,15.536-10.3,34.7-10.3S1253.241,1316.391,1253.241,1322.078Z" transform="translate(-1183.84 -1311.777)"/></g><g transform="translate(32.89 6.061)"><path class="m" d="M1263.781,1325.876c-4-1.225-10.278-1.36-14.434-1.45a8.183,8.183,0,0,1-3.652-.616c-.527-.38-.066-.87,1.228-1.312a21.07,21.07,0,0,1,5.83-.641,28.121,28.121,0,0,1,5.282.355,8.523,8.523,0,0,0,4.355.361c1.589-.25,2.18-.838,1.326-1.309-1.7-.933-6.071-1.216-8.211-1.3v-.871c0-.535-1.457-.969-3.26-.969s-3.263.433-3.263.969v.958a29.017,29.017,0,0,0-7,1.177c-2.94,1.008-3.811,2.249-2.319,3.318,1.451,1.041,4.9,1.718,9.212,1.809,3.353.071,7.945.172,10.211.867,1.2.37,1.809.871,1.715,1.412s-.908,1.073-2.223,1.451a30.559,30.559,0,0,1-10.044.635c-1.561-.149-4.285-.547-4.913-1.548-.332-.525-2.04-.871-3.81-.773s-2.936.6-2.6,1.13c.918,1.453,4.323,2.559,9.344,3.036.8.076,1.614.132,2.431.17v.887c0,.536,1.462.969,3.263.969s3.26-.432,3.26-.969v-.952a37.7,37.7,0,0,0,7.6-1.194c2.532-.724,4.026-1.7,4.212-2.741C1267.51,1327.651,1266.254,1326.637,1263.781,1325.876Z" transform="translate(-1237.151 -1318.125)"/></g><g transform="translate(35.145 6.061)"><path class="o" d="M1270.711,1325.876c-4-1.225-10.278-1.36-14.434-1.45a8.115,8.115,0,0,1-3.65-.619c-.529-.378-.073-.867,1.222-1.309a21.12,21.12,0,0,1,5.833-.641,28.141,28.141,0,0,1,5.283.355,8.513,8.513,0,0,0,4.353.361c1.59-.25,2.182-.838,1.327-1.309-1.7-.933-6.073-1.216-8.208-1.3v-.871c0-.538-1.461-.969-3.263-.969s-3.263.431-3.263.969v.958a28.968,28.968,0,0,0-6.995,1.177c-2.945,1.008-3.81,2.249-2.32,3.318,1.453,1.041,4.9,1.718,9.213,1.809,3.352.071,7.945.172,10.207.867,1.2.37,1.809.871,1.714,1.412s-.9,1.073-2.22,1.451a30.549,30.549,0,0,1-10.042.635c-1.564-.149-4.287-.547-4.918-1.548-.333-.525-2.038-.871-3.807-.773s-2.938.6-2.609,1.13c.922,1.453,4.326,2.559,9.346,3.036.8.076,1.612.132,2.431.17v.887c0,.536,1.462.969,3.263.969s3.263-.432,3.263-.969v-.952a37.7,37.7,0,0,0,7.6-1.194c2.531-.724,4.027-1.7,4.209-2.741C1274.437,1327.651,1273.18,1326.637,1270.711,1325.876Z" transform="translate(-1244.079 -1318.125)"/></g><g transform="translate(0 11.65)"><path class="n" d="M1148.716,1340.761l-10.01,1.832c-1.7-1.458-2.62-3.022-2.62-4.649,0-.123.01-.243.02-.361l12.463-2.286a4.086,4.086,0,0,0-1.092,2.647A4.229,4.229,0,0,0,1148.716,1340.761Z" transform="translate(-1136.086 -1335.297)"/></g><g transform="translate(56.148 1.351)"><path class="n" d="M1335.014,1306.589l-10,1.833a88.728,88.728,0,0,0-16.394-2.484l12.47-2.286A93.161,93.161,0,0,1,1335.014,1306.589Z" transform="translate(-1308.617 -1303.652)"/></g><g transform="translate(4.896 18.789)"><path class="k" d="M1164.858,1359.248l-9.7,1.78a29.855,29.855,0,0,1-4.026-2.009l9.739-1.785A23.123,23.123,0,0,0,1164.858,1359.248Z" transform="translate(-1151.129 -1357.234)"/></g><g transform="translate(76.692 5.616)"><path class="o" d="M1385.741,1318.727l-9.7,1.781a26.186,26.186,0,0,0-4.3-1.961l9.74-1.789A33.929,33.929,0,0,1,1385.741,1318.727Z" transform="translate(-1371.742 -1316.758)"/></g><g transform="translate(15.988 23.055)"><path class="p" d="M1209.421,1372.242l-12.479,2.287a97.624,97.624,0,0,1-11.727-2.31l10.223-1.875A94.839,94.839,0,0,0,1209.421,1372.242Z" transform="translate(-1185.215 -1370.344)"/></g><g transform="translate(83.765 10.508)"><path class="p" d="M1406.043,1335.577c0,.121-.01.241-.02.361l-12.546,2.3a4,4,0,0,0,1.177-2.663,3.572,3.572,0,0,0-.6-1.9l10.268-1.884A5.6,5.6,0,0,1,1406.043,1335.577Z" transform="translate(-1393.477 -1331.789)"/></g><g transform="translate(0.004 14.297)"><path class="q" d="M1184.259,1357.724c-26.6,0-48.161-6.4-48.161-14.294v11.265c0,7.9,21.563,14.3,48.161,14.3s48.165-6.4,48.165-14.3l-.173-10.1C1230.257,1351.942,1209.539,1357.724,1184.259,1357.724Z" transform="translate(-1136.098 -1343.43)"/></g><g transform="translate(6.319 21.367)"><path class="o" d="M1155.5,1376.422a43.845,43.845,0,0,0,7.5,2.945V1368.1a43.654,43.654,0,0,1-7.5-2.946Z" transform="translate(-1155.504 -1365.156)"/><g transform="translate(18.024 5.351)"><path class="j" d="M1218.386,1382.628c-2.613-.28-5.121-.627-7.5-1.03v11.264c2.378.4,4.887.751,7.5,1.03Z" transform="translate(-1210.887 -1381.598)"/></g><g transform="translate(10.429 3.759)"><path class="n" d="M1191.3,1377.577q-1.953-.408-3.754-.87v11.264q1.8.464,3.754.87Z" transform="translate(-1187.551 -1376.707)"/></g></g></g></g><g transform="translate(0 75.173)"><g transform="translate(33.862)"><path class="t" d="M985.682,704.191l15.4,26.542L792.744,851.595l-25.013-48.469-113.384,70.31-16.175-26.077,141.6-87.807,25.454,49.324Z" transform="translate(-638.172 -704.191)"/></g><g transform="translate(0 121.648)"><path class="t" d="M1727.907,711.019l-41.726-67.265-20.731,59.432Z" transform="translate(-1665.449 -643.754)"/></g></g><g transform="translate(65.491)"><g transform="translate(145.868 48.534)"><g transform="translate(14.708 9.289)"><path class="u" d="M1332.824,590.6" transform="translate(-1332.824 -590.602)"/></g><g transform="translate(0 2.789)"><path class="u" d="M1301.488,572.008c-1.447-.86-1.011-1.87-2.766-1.112-2,.862-4.219.723-5.539,1.386-2.3,1.166-10.117,7.353-1.847,9.607,1.918.524,8.328,3.925,10.312,1.089,2.934-4.193,1.961-2.7,1.651-8.666Z" transform="translate(-1287.628 -570.629)"/></g><g transform="translate(9.829)"><path class="u" d="M1317.832,565.622l11.107-3.563s1.817,2.494-9.689,6.094Z" transform="translate(-1317.832 -562.059)"/></g></g><g transform="translate(18.991)"><path class="v" d="M937.108,424.664s-3.845-16.126-25.843-10.577c0,0-12.988,3.078-13.5,21.358,0,0,.81,19.036,17.846,22.955C915.612,458.4,943.241,460.165,937.108,424.664Z" transform="translate(-897.766 -412.925)"/></g><g transform="translate(44.126 53.149)"><path class="u" d="M986.932,599.283l43.69,2.513s11.445.895,11.219-7.8c0,0-1.7-2.023-17.33-5.913l-35.74-11.83S975,575.259,975,589.606C975,589.606,975,598.77,986.932,599.283Z" transform="translate(-975 -576.24)"/></g><g transform="translate(97.244 57.299)"><path class="u" d="M1139.249,609.485s10.443,4.618,24.415-2.667l26.327-12.945-2.109-4.88-44.8,10S1135.529,601.905,1139.249,609.485Z" transform="translate(-1138.219 -588.992)"/></g><g transform="translate(9.354 50.213)"><path class="u" d="M917.408,628.244c8.108-29.245-.453-58.157-.453-58.157a70.669,70.669,0,0,0-12.57-2.868l-13.175,1.524s-13.074,4.731-23.058,11.645l20.166,51.218Z" transform="translate(-868.152 -567.219)"/></g><g transform="translate(30.792 30.471)"><g transform="translate(0 0)"><g transform="translate(0)"><rect class="u" width="14.938" height="22.149" transform="translate(0 0.023) rotate(-0.088)"/></g></g><g transform="translate(1.224 0)"><path class="w" d="M940.657,518.646c-2.006-3.664-2.617-7.668-2.868-12.07l13.714-.02.03,19.252C947.6,525.094,942.691,522.35,940.657,518.646Z" transform="translate(-937.789 -506.555)"/></g></g><g transform="translate(76.77 195.921)"><path class="x" d="M1075.305,1014.945" transform="translate(-1075.305 -1014.945)"/></g><g transform="translate(13.189 118.821)"><g transform="translate(29.728 27.296)"><path class="y" d="M1045.315,1003.065c-.611,6.991-12.654,1.254-12.654,1.254a397.137,397.137,0,0,1-7.743-82.126l-53.633-29.347c4.626-22.544,32.554-30.936,32.554-30.936s34.08,28.274,48.03,49.67C1057.808,920.692,1049.261,983.837,1045.315,1003.065Z" transform="translate(-971.285 -861.91)"/></g><g transform="translate(93.191 158.723)"><path class="z" d="M1167.267,1265.754c-.61,8.873-.974,14.217-.974,14.217l7.044,1.251q1.512-7.3,2.948-14.2Z" transform="translate(-1166.293 -1265.754)"/></g><g transform="translate(7.975 217.241)"><g transform="translate(2.048)"><path class="z" d="M919.2,1445.566h-5.433l-3.035,9.023s.023,3.25,6.829,3.25h5.784Z" transform="translate(-910.734 -1445.566)"/></g><g transform="translate(0 1.761)"><path class="aa" d="M921.32,1460.947l-2.459-4.836-3-4,.725,4.3a1.54,1.54,0,0,1-1.276,1.822h-4.987c-3.754-.181-1.792-7.262-1.792-7.262l-2.2,5.135-1.888,5.684v2.527H921.32Z" transform="translate(-904.441 -1450.977)"/></g></g><g transform="translate(90.939 172.94)"><g transform="translate(0.165)"><path class="z" d="M1168.869,1310.509l15.823,8.616s1.581,1.192,1.452,2.546l-26.265-5.223,2.088-7.007Z" transform="translate(-1159.879 -1309.441)"/></g><g transform="translate(0 0.787)"><path class="aa" d="M1175.8,1323.3c-3.088-.555-6.17-2.394-9.282-2.831-.79-.112-1.6-.129-2.389-.251,0,0-5.253-.725-4.721-2.16l1.922-6.2,12.609,6.6c3.809,1.684,5.819-.271,5.819-.271l6.288,3.509a3.882,3.882,0,0,1,1.439,2.486S1184.784,1325.88,1175.8,1323.3Z" transform="translate(-1159.372 -1311.859)"/></g></g><path class="y" d="M942.219,805.331a94.913,94.913,0,0,0-9.922-27.3s-13.241,3.82-38.159.421c-4.489,5.284-11.853,25.384-14.2,45.427a91.844,91.844,0,0,0,38.768,3.943C942.134,820.9,942.39,802.953,942.219,805.331Z" transform="translate(-879.937 -778.035)"/><g transform="translate(0 0.421)"><path class="ab" d="M919.713,825.522a151.945,151.945,0,0,1-39.776-.767c2.348-20.043,9.712-40.142,14.2-45.427a138.457,138.457,0,0,0,24.352,1.313S924.06,790.2,919.713,825.522Z" transform="translate(-879.937 -779.328)"/></g><g transform="translate(0 33.763)"><path class="ab" d="M919.713,893.865s-3.787,73.12-17.14,171.707c0,0-7.153,2.616-12.613,0-5.883-59.339-4.81-91.805-4.81-91.805l-5.212-79.9S914.137,866.674,919.713,893.865Z" transform="translate(-879.937 -881.78)"/></g><g transform="translate(13.601 4.319)"><path class="ac" d="M935.06,795.575c-4.578,0-9.408-.366-13.022-1.925a.511.511,0,0,1,.406-.938c5.18,2.232,13.162,1.909,18.99,1.672l.221-.008c.509-.02,1.118-.038,1.8-.056,4.738-.132,13.557-.377,15.56-2.826a.51.51,0,0,1,.79.647c-2.3,2.811-11.078,3.056-16.319,3.2-.679.019-1.281.037-1.785.057l-.219.007C939.519,795.486,937.318,795.575,935.06,795.575Z" transform="translate(-921.73 -791.307)"/></g><g transform="translate(31.516 9.623)"><path class="ac" d="M983.832,830.546h-6.544a.511.511,0,1,1,0-1.022h6.094a118.78,118.78,0,0,0,.511-17.369c-.037-1.5-.071-2.863-.071-4.04a.512.512,0,0,1,.514-.51h0a.509.509,0,0,1,.511.51c0,1.171.035,2.521.069,4.017a117.724,117.724,0,0,1-.572,17.968A.515.515,0,0,1,983.832,830.546Z" transform="translate(-976.777 -807.605)"/></g><g transform="translate(6.099 12.501)"><path class="ac" d="M904.045,834.426a11.166,11.166,0,0,1-5.09-1.327.511.511,0,1,1,.468-.909c3.178,1.625,6.148,1.631,8.829.022,4.738-2.843,7.388-9.986,7.473-15.259a.511.511,0,0,1,.511-.5h.01a.51.51,0,0,1,.5.521c-.093,5.549-2.916,13.084-7.968,16.118A9.1,9.1,0,0,1,904.045,834.426Z" transform="translate(-898.677 -816.449)"/></g><g transform="translate(50.082 9.433)"><path class="ac" d="M1042.875,822.873a5.2,5.2,0,0,1-2.824-.821c-3.666-2.312-5.046-8.885-5.962-13.234l-.248-1.176a.511.511,0,1,1,1-.22c.078.366.163.763.252,1.185.825,3.928,2.207,10.5,5.5,12.58a4.347,4.347,0,0,0,3.512.508.511.511,0,1,1,.238.993A6.172,6.172,0,0,1,1042.875,822.873Z" transform="translate(-1033.828 -807.022)"/></g></g><g transform="translate(54.488 232.201)"><path class="f" d="M1006.84,1126.426" transform="translate(-1006.84 -1126.426)"/></g><g transform="translate(24.151 0.567)"><g transform="translate(0 19.628)"><path class="u" d="M913.62,480.116c-.027,2.747,1.513,5.85,3.993,6.978,3.359,1.528,4.628-1.553,4.614-4.559-.013-2.426-1.1-6.594-3.849-7.439C915.784,474.3,913.641,477.865,913.62,480.116Z" transform="translate(-913.62 -474.982)"/></g><g transform="translate(4.36 3.672)"><path class="u" d="M929.57,454.469c1.594,3.95,3.757,7.184,7.494,9.454,3.655,2.22,7.425,3.347,10.931.425a18.622,18.622,0,0,0,5.586-9.107c2.306-7.829.463-18.643-4.537-24.919-5.494-6.893-16.03-5.3-20.07,2.441C925.686,439.064,927,448.1,929.57,454.469Z" transform="translate(-927.018 -425.951)"/></g><g transform="translate(0.063)"><path class="v" d="M922.167,439.958c-2.111-1.2-2.486-2.362-2.848-2.146h0a2.8,2.8,0,0,0-2.756-2.66c-1.191-.041-2.329,1.767-2.667,2.97-.085-1.264-.061-3.083-.081-4.432a30.433,30.433,0,0,1,.207-3.971,18.981,18.981,0,0,1,2.044-7.615,11.558,11.558,0,0,1,7.48-6.382c4.2-1.068,11.047-1.947,14.62.619,1.833,1.315.314,1.655.059,7.417C938.225,423.76,921.761,419.841,922.167,439.958Z" transform="translate(-913.812 -414.668)"/></g></g><g transform="translate(37.703 1.162)"><path class="v" d="M972.863,434.6c2.211-5.168,2.994-13.923-6.565-17.359-2.347-.845-8.077-1.381-9.974.712-4.2,4.628,5.257,6.454,7.788,6.707C968.144,425.063,970.89,426.165,972.863,434.6Z" transform="translate(-955.263 -416.494)"/></g><g transform="translate(17.114 52.169)"><path class="ad" d="M930.3,573.227l2.742.912s7.054,9.132,13,17.152c3.288,9.66-1.517,29.485-4.119,45.812-1.359,8.533-33.351,9.708-39.326,6-2.016-1.25-10.366-32.036-9.541-33.986,1.627-3.856,2.03-.333,3.4-8.968.842-5.294,3.168-14.644-4.459-20.6,0,0,3.492-1.685,3.505-1.692.675-.336,10.308,6.266,11.463,6.8C918.248,589.794,934.814,589.456,930.3,573.227Z" transform="translate(-891.996 -573.227)"/></g><g transform="translate(0 60.411)"><g transform="translate(8.517 106.821)"><path class="u" d="M867.284,946.84c-3.464-5.178-1.032-19.376,1.894-20.021,2.026-.441,8.4,4.3,11.013,7.091-.3,1.264-.44,1.862-5.859-.409-.832,4.872,2.636,9.674,1.56,14.151-1.911-.154-3.659-5.458-4-7.4-.107,1.653,3.079,6.431,2.207,9.083-1.56-.221-5.212-6.687-4.125-8.9-1.1,1.658,1.683,8.723,1.683,8.723-2.231.7-4.449-7.085-4.163-8.413C866.66,941.731,868.742,948.156,867.284,946.84Z" transform="translate(-865.582 -926.791)"/></g><path class="u" d="M843.957,612.562l-4.547,50.193s.562,4.18,4.009,4.343c0,0,5.344,4.123,9.265-2.333l9.583-49.195s2.943-23.035-12.426-15.5C849.841,600.067,844.523,603.143,843.957,612.562Z" transform="translate(-839.41 -598.553)"/><g transform="translate(0.001 56.438)"><path class="u" d="M842.781,772.133s-6.438-1.025-1.512,24.517l8.3,28.139,4.257-.158-1.142-42.885S851.948,770.512,842.781,772.133Z" transform="translate(-839.413 -771.974)"/></g></g><g transform="translate(38.434 0.687)"><path class="v" d="M969.456,466.753c10.072,6.651,3.093,20.556,4.431,30.436,1.829,13.509,19.024,8.356,27.881,14.065,4.254,2.738,8.764,10.779,9.888.6.74-6.694-5.456-9.731-9.044-14.32-7.719-9.875-14.236-22.693-10.579-34.776,1.5-4.966,3.487-10.889.862-15.948-2.722-5.246-8.844-7.78-10.921-13.3-2.823-7.508-9.194-20.963-19.945-18.069-4.969,1.337-5.791,5.742-2.714,9.464,2.551,3.09,6.884,3.974,10.065,6.22,4.121,2.908,5.716,7.813,5.529,12.539-.171,4.368-3.176,10.784-6.346,13.324a10.409,10.409,0,0,1-3.724,1.7v5.9S967.667,465.892,969.456,466.753Z" transform="translate(-957.509 -415.037)"/></g></g></g></g></g></svg>