<svg xmlns="http://www.w3.org/2000/svg" xmlns:xlink="http://www.w3.org/1999/xlink" width="767.001" height="503.042" viewBox="0 0 767.001 503.042"><defs><style>.a,.ah{fill:none;}.b{fill:#f2f6ff;}.c{fill:#ebebeb;}.d{fill:#e8eaf3;}.e{fill:#e0e0e0;}.f{fill:#f0f0f0;}.g{fill:#f5f5f5;}.h,.i{fill:#e59f3f;}.i{stroke:rgba(0,0,0,0);stroke-miterlimit:10;}.j{fill:#263238;}.k{fill:#fff;}.l{fill:#6e70f7;}.m{opacity:0.3;}.n{clip-path:url(#a);}.o{clip-path:url(#b);}.p{opacity:0.2;}.q{clip-path:url(#c);}.r{clip-path:url(#d);}.s{clip-path:url(#e);}.t{fill:#1f224e;}.u{fill:#eb3f00;}.v{fill:#ffaf41;}.w{fill:#2fd94a;}.x{fill:#623423;}.y{fill:#ffbe9d;}.z{fill:#eb996e;}.aa{fill:#f99746;}.ab{opacity:0.1;}.ac{clip-path:url(#f);}.ad{fill:#2f1c05;}.ae{fill:#283c76;}.af{fill:#142041;}.ag{fill:#6e7090;}.ah{stroke:#707070;}.ai{fill:#455a64;}.aj{opacity:0.3;}.ak{clip-path:url(#g);}</style><clipPath id="a"><rect class="a" width="1.786" height="20.341"/></clipPath><clipPath id="b"><rect class="a" width="4.126" height="6.226"/></clipPath><clipPath id="c"><rect class="a" width="29.573" height="81.695"/></clipPath><clipPath id="d"><rect class="a" width="12.157" height="23.787"/></clipPath><clipPath id="e"><rect class="a" width="4.898" height="24.015"/></clipPath><clipPath id="f"><rect class="a" width="65.158" height="74.687"/></clipPath><clipPath id="g"><rect class="a" width="66.748" height="7.853"/></clipPath></defs><g transform="translate(-670.999 -521.883)"><g transform="translate(717.5 515.883)"><g transform="translate(73.995 6)"><g transform="translate(0 0)"><rect class="b" width="624.467" height="323.39" transform="translate(-0.495 31.696)"/><g transform="translate(272.55 64.724)"><rect class="c" width="24.227" height="0.178" transform="translate(191.063 218.619)"/><path class="d" d="M165.516,117.813l.32-9.334-5.731-1.872a55.621,55.621,0,0,0-1.528-9.373l4.857-3.581-3.3-8.767-6.008.484a54.989,54.989,0,0,0-5-8.062l3.113-5.194-6.4-6.827-5.371,2.75a58.624,58.624,0,0,0-7.7-5.565l.87-5.962-8.522-3.868-3.9,4.576a57.7,57.7,0,0,0-9.246-2.166l-1.452-5.844-9.359-.32-1.848,5.731a57.705,57.705,0,0,0-9.372,1.528L86.33,51.314l-8.766,3.275.484,6.009a57.19,57.19,0,0,0-8.062,5.024l-5.17-3.111-6.851,6.373,2.75,5.4a55.052,55.052,0,0,0-5.541,7.7l-5.961-.894-3.892,8.52,4.6,3.906a55.7,55.7,0,0,0-2.166,9.246l-5.87,1.475-.32,9.334,5.755,1.874a55.185,55.185,0,0,0,1.529,9.372l-4.856,3.581,3.3,8.769,6.008-.486a55.017,55.017,0,0,0,5,8.063l-3.113,5.194,6.4,6.828,5.371-2.751a57.254,57.254,0,0,0,7.7,5.566l-.895,5.959,8.522,3.868,3.929-4.576a57.539,57.539,0,0,0,9.246,2.166l1.451,5.844,9.359.322,1.849-5.732a57.62,57.62,0,0,0,9.372-1.528l3.583,4.833,8.766-3.276-.46-6.006a58.607,58.607,0,0,0,8.063-5.026l5.17,3.113,6.851-6.373-2.75-5.395a55,55,0,0,0,5.541-7.7l5.961.895,3.892-8.522-4.6-3.905a55.114,55.114,0,0,0,2.166-9.245Zm-63.071,30.238A37.049,37.049,0,1,1,140.729,112.3a37.04,37.04,0,0,1-38.283,35.748" transform="translate(-68.566 -0.875)"/><path class="d" d="M325.514,142.9h-.051l-12.3-.421a1.5,1.5,0,0,1-1.238-.733l-3.312-5.578a33.668,33.668,0,0,1-5.172-2.4l-5.332.975a1.492,1.492,0,0,1-1.366-.452l-8.4-8.994a1.5,1.5,0,0,1-.357-1.394l1.341-5.263a32.637,32.637,0,0,1-2.031-5.306l-5.349-3.694a1.5,1.5,0,0,1-.647-1.286l.422-12.3a1.5,1.5,0,0,1,.733-1.238l5.587-3.318a32.849,32.849,0,0,1,2.394-5.148L289.454,81a1.5,1.5,0,0,1,.452-1.366l9-8.4a1.5,1.5,0,0,1,1.394-.357l5.281,1.346a33.273,33.273,0,0,1,5.291-2.039l3.691-5.345a1.453,1.453,0,0,1,1.285-.647l12.3.422a1.5,1.5,0,0,1,1.238.733l3.319,5.588a33.412,33.412,0,0,1,5.133,2.4l5.365-.983a1.5,1.5,0,0,1,1.367.452l8.4,9a1.5,1.5,0,0,1,.357,1.394l-1.346,5.282a33.281,33.281,0,0,1,2.039,5.289l5.345,3.691a1.5,1.5,0,0,1,.647,1.285l-.421,12.3a1.5,1.5,0,0,1-.734,1.238l-5.589,3.319a32.878,32.878,0,0,1-2.391,5.145l.98,5.353a1.5,1.5,0,0,1-.452,1.366l-9,8.4a1.5,1.5,0,0,1-1.394.357l-5.257-1.34a33.626,33.626,0,0,1-5.319,2.039l-3.688,5.341a1.5,1.5,0,0,1-1.235.647m-11.429-3.392,10.661.365,3.531-5.113a1.5,1.5,0,0,1,.845-.6,30.612,30.612,0,0,0,5.792-2.22l.01-.005a1.493,1.493,0,0,1,1.036-.109l5,1.274,7.8-7.28-.933-5.1a1.5,1.5,0,0,1,.19-1.044,29.829,29.829,0,0,0,2.593-5.564,1.5,1.5,0,0,1,.668-.832l5.343-3.174.366-10.661-5.117-3.534a1.5,1.5,0,0,1-.57-.759c-.013-.038-.024-.079-.035-.12a30.267,30.267,0,0,0-2.212-5.721,1.5,1.5,0,0,1-.116-1.049l1.281-5.027-7.28-7.8-5.106.935a1.5,1.5,0,0,1-1.038-.188,30.366,30.366,0,0,0-5.573-2.6,1.658,1.658,0,0,1-.313-.146,1.5,1.5,0,0,1-.5-.512l-3.177-5.348-10.661-.366-3.533,5.117a1.5,1.5,0,0,1-.883.606,30.419,30.419,0,0,0-5.721,2.21,1.5,1.5,0,0,1-1.049.116l-5.025-1.281-7.8,7.281.933,5.094a1.5,1.5,0,0,1-.134.941c-.021.04-.043.081-.068.121a29.787,29.787,0,0,0-2.6,5.582,1.5,1.5,0,0,1-.651.8l-5.347,3.176-.365,10.66,5.121,3.537a1.5,1.5,0,0,1,.6.842,29.606,29.606,0,0,0,2.209,5.766,1.435,1.435,0,0,1,.122.322,1.493,1.493,0,0,1,0,.734l-1.277,5.01,7.28,7.8,5.07-.927a1.508,1.508,0,0,1,1.033.184,30.7,30.7,0,0,0,5.6,2.6,1.5,1.5,0,0,1,.835.663Zm17.6-67.344h0ZM320.67,126.035c-.263,0-.525,0-.789-.014a22.405,22.405,0,1,1,.789.014m-.027-41.974a19.505,19.505,0,1,0,.676.012c-.226-.008-.452-.012-.676-.012" transform="translate(-103.018 -64.306)"/><path class="e" d="M89.784,239.9l2.734-.734.734-2.734-1.07-1.07L91.053,237.7l-2.339,1.13Z" transform="translate(-55.225 -89.899)"/><path class="e" d="M89.256,237.611a1.276,1.276,0,1,1,1.8-1.8l-1.36-2.04-1.824.922-.4,1.916Z" transform="translate(-54.867 -89.435)"/><path class="f" d="M91.668,234.852l-2-2-2.734.734-.734,2.735,2,2,2.735-.734ZM88.03,236.49a1.276,1.276,0,1,1,1.8,0,1.281,1.281,0,0,1-1.8,0" transform="translate(-54.496 -89.169)"/><path class="g" d="M331.547,358.006c0,4.442-61.659,8.043-137.718,8.043s-137.718-3.6-137.718-8.043,61.658-8.043,137.718-8.043,137.718,3.6,137.718,8.043" transform="translate(-45.78 -123.098)"/><path class="h" d="M86.566,60.573a10.13,10.13,0,0,1,.953-7.9A10.093,10.093,0,0,1,94.2,48.4q4.783-1.088,7.955.892a9.933,9.933,0,0,1,4.224,6.606,12.107,12.107,0,0,1,.122,5.766A8.27,8.27,0,0,1,104,65.759a11.064,11.064,0,0,1-5.054,2.406,12.576,12.576,0,0,1-5.6.188,8.28,8.28,0,0,1-4.186-2.485,11.125,11.125,0,0,1-2.592-5.295m5.927-1.319a6.581,6.581,0,0,0,2.026,3.924,4.186,4.186,0,0,0,5.893-1.312q.764-1.48.033-4.7a6.071,6.071,0,0,0-1.99-3.706,3.827,3.827,0,0,0-3.244-.575,3.687,3.687,0,0,0-2.587,1.921,6.607,6.607,0,0,0-.131,4.442" transform="translate(-54.496 -35.623)"/><path class="h" d="M118.5,58.558a7.121,7.121,0,0,1,.954-5.722,8.207,8.207,0,0,1,5.322-3.375q4.169-.948,6.849.986A7.753,7.753,0,0,1,133.5,60.586a8.324,8.324,0,0,1-5.41,3.381,8.448,8.448,0,0,1-5.8-.469,6.994,6.994,0,0,1-3.79-4.939m5.33-1.225a4.3,4.3,0,0,0,1.376,2.574,2.524,2.524,0,0,0,3.779-.846,4.436,4.436,0,0,0,.1-2.978,4.2,4.2,0,0,0-1.356-2.517,2.379,2.379,0,0,0-2.044-.463,2.469,2.469,0,0,0-1.718,1.333,4.243,4.243,0,0,0-.138,2.9" transform="translate(-63.792 -35.951)"/><path class="h" d="M146.808,64.727l-4.356-19.161,4.98-1.133.467,2.052a6.792,6.792,0,0,1,1.5-2.181,5.565,5.565,0,0,1,2.436-1.2,5.109,5.109,0,0,1,4.791,1.151,9.055,9.055,0,0,1,2.72,4.922,7.787,7.787,0,0,1-.458,5.664,5.569,5.569,0,0,1-3.782,2.778,5.986,5.986,0,0,1-2.336.091,5.488,5.488,0,0,1-2.093-.83l1.507,6.626Zm2.563-13.394a3.748,3.748,0,0,0,1.248,2.287,2.278,2.278,0,0,0,1.933.4,1.983,1.983,0,0,0,1.382-1.118,4.241,4.241,0,0,0,.038-2.737,3.954,3.954,0,0,0-1.217-2.328,2.048,2.048,0,0,0-1.774-.428,2.2,2.2,0,0,0-1.518,1.183,4.074,4.074,0,0,0-.091,2.742" transform="translate(-70.793 -34.151)"/><path class="h" d="M169.073,50.257l5.167-1.7a2.674,2.674,0,0,0,1.221,1.139,2.793,2.793,0,0,0,1.661.048,2.718,2.718,0,0,0,1.556-.835,1.047,1.047,0,0,0,.265-.952.994.994,0,0,0-.8-.751,11.284,11.284,0,0,0-2.412-.028,24.483,24.483,0,0,1-4.052-.018,4.175,4.175,0,0,1-2.133-.978,3.708,3.708,0,0,1-1.247-2.066,3.754,3.754,0,0,1,.26-2.544,4.871,4.871,0,0,1,1.86-1.982,11.964,11.964,0,0,1,3.64-1.342,13.292,13.292,0,0,1,3.752-.455,4.911,4.911,0,0,1,2.241.727,6.317,6.317,0,0,1,1.8,1.859l-4.932,1.644a1.762,1.762,0,0,0-.876-.832,2.725,2.725,0,0,0-1.612-.074,2.206,2.206,0,0,0-1.241.618.981.981,0,0,0-.235.87.847.847,0,0,0,.7.651,8.6,8.6,0,0,0,2.381-.047,16.021,16.021,0,0,1,4.137-.061,4.46,4.46,0,0,1,2.328,1.078,3.849,3.849,0,0,1,1.182,2.024,4.4,4.4,0,0,1-.194,2.5,5.041,5.041,0,0,1-1.877,2.328,11.3,11.3,0,0,1-4.1,1.64q-3.8.864-5.664.146a5,5,0,0,1-2.773-2.614" transform="translate(-78.249 -32.656)"/><path class="h" d="M193.848,30.6l5.831-.033.025,4.478-1.075,9-3.606.02-1.149-8.987Zm.285,14.837,5.442-.031.028,4.811-5.442.031Z" transform="translate(-85.683 -30.567)"/><path class="h" d="M148.427,146.124l-11.068,2.01L127.312,93.291,105.958,97.17l-34.8,61.795L74.9,179.356l44.633-8.107,3.056,16.678,21.354-3.879-3.056-16.678,11.068-2.011ZM92.422,156.3l18.439-32.366,5.145,28.082Z" transform="translate(-50.14 -48.739)"/><path class="i" d="M-6286.579-2657.616h0a62.391,62.391,0,0,1-8-.549,55,55,0,0,1-10.461-2.325,31.429,31.429,0,0,1-7.971-3.92,31.221,31.221,0,0,1-10.4-12.623c-1.784-3.731-2.925-8.734-3.394-14.869a99.314,99.314,0,0,1,.694-20.134,94.825,94.825,0,0,1,5.309-22.446c2.379-6.011,5.419-10.65,9.037-13.788a28.905,28.905,0,0,1,9.927-5.59,40.137,40.137,0,0,1,12.6-1.864,61.232,61.232,0,0,1,7.864.537c6.211.809,11.283,2.269,15.076,4.341a28.809,28.809,0,0,1,9.023,7.364,32.9,32.9,0,0,1,4.965,8.657,41.963,41.963,0,0,1,2.271,10.1,92.291,92.291,0,0,1-.227,22.245,101.708,101.708,0,0,1-4.984,21.854,42.317,42.317,0,0,1-8.372,14.442,25.387,25.387,0,0,1-9.754,6.427A37.766,37.766,0,0,1-6286.579-2657.616Zm-2.4-78.152c-5.214,0-9.223,1.28-12.257,3.912-2.784,2.415-6.479,8.211-8.267,22.1a64.543,64.543,0,0,0-.46,13.083,24.777,24.777,0,0,0,1.871,8.533l.025.051a16.355,16.355,0,0,0,5.508,6.719c2.413,1.694,5.963,2.855,10.552,3.452,1.319.172,2.6.281,3.813.322.431.014.807.021,1.148.021,5.455,0,9.425-1.408,12.14-4.3,3.9-4.163,6.588-11.748,7.978-22.544a59.632,59.632,0,0,0,.147-14.393,24.133,24.133,0,0,0-1.285-5.793,17.716,17.716,0,0,0-2.684-4.645,14.93,14.93,0,0,0-4.666-3.752,25.475,25.475,0,0,0-8.705-2.434c-1.3-.168-2.552-.274-3.72-.313C-6288.219-2735.762-6288.6-2735.768-6288.976-2735.768Z" transform="translate(6437.467 2765.547)"/><path class="h" d="M393.117,152.358l-11.148-1.5,7.373-55.267-21.508-2.9L315.66,140.718l-2.741,20.549,44.955,6.067-2.242,16.807,21.508,2.9,2.242-16.806,11.148,1.5Zm-56.411-7.613,27.53-25.093-3.775,28.3Z" transform="translate(-120.179 -48.563)"/><path class="j" d="M222.452,233.021c.987-15.912-.828-44.838,29.083-41.009,32.059,4.1,22.887,41.591,22.887,41.591Z" transform="translate(-93.97 -77.239)"/><path class="k" d="M259.242,212.725a13.052,13.052,0,1,1-13.052-13.052,13.052,13.052,0,0,1,13.052,13.052" transform="translate(-97.066 -79.558)"/><path class="j" d="M248.444,199.638c-6.182-1.055-12.792,3.5-13.444,8.119l24.51,2.254c-.864-5.263-6.161-9.534-11.066-10.372" transform="translate(-97.605 -79.504)"/><path class="j" d="M262.441,214.989c-.175,3.412-2.035,6.09-4.154,5.981s-3.694-2.963-3.519-6.376,2.034-6.09,4.153-5.981,3.695,2.963,3.519,6.376" transform="translate(-103.328 -82.147)"/><path class="l" d="M245.9,226.2a13.762,13.762,0,1,1,13.762-13.762A13.777,13.777,0,0,1,245.9,226.2m0-26.1a12.341,12.341,0,1,0,12.341,12.341A12.355,12.355,0,0,0,245.9,200.094" transform="translate(-96.776 -79.268)"/><g class="m" transform="translate(176.387 135.042)"><g transform="translate(0 0)"><g class="n"><path class="k" d="M290.314,241.029a.381.381,0,0,1-.084-.01.356.356,0,0,1-.262-.428,47.049,47.049,0,0,0-.064-19.465.355.355,0,0,1,.69-.166,47.8,47.8,0,0,1,.064,19.8.354.354,0,0,1-.344.272" transform="translate(-289.895 -220.688)"/></g></g></g><g class="m" transform="translate(171.055 123.927)"><g transform="translate(0 0)"><g class="o"><path class="k" d="M286.16,211.266a.355.355,0,0,1-.323-.207,25.088,25.088,0,0,0-3.368-5.439.355.355,0,0,1,.55-.45,25.806,25.806,0,0,1,3.463,5.593.356.356,0,0,1-.323.5" transform="translate(-282.389 -205.04)"/></g></g></g><path class="j" d="M127.218,343.74c-.089,0-.176,0-.264,0a3.551,3.551,0,1,1,.195-7.1h.068c2.052,0,6.989-2.493,17.316-18.773a3.553,3.553,0,0,1,5.334-.774,147.017,147.017,0,0,0,26.382,18.1,3.551,3.551,0,0,1-3.214,6.334,151.51,151.51,0,0,1-24.717-16.441c-8.655,13.012-15.078,18.661-21.1,18.661" transform="translate(-65.303 -113.322)"/><path class="j" d="M156.861,300.405a2.191,2.191,0,0,1-.3-.021,2.132,2.132,0,0,1-1.808-2.411c.505-3.534-.121-16.781-4.6-27.081a2.131,2.131,0,0,1,.754-2.611c9.73-6.631,30.455-7.423,31.333-7.454a2.131,2.131,0,0,1,.148,4.259c-.192.007-18.312.7-27.623,5.826,3.966,10.255,4.866,23.039,4.2,27.664a2.131,2.131,0,0,1-2.107,1.829" transform="translate(-72.972 -97.275)"/><path class="l" d="M157.939,311.694c-1.418-3.343-7.8-2.963-11.555-.1-2,1.531-4.717,6.138-5,7.808a2.515,2.515,0,0,0,2.858,3.01c2.448-.212,5.811-3.771,5.811-3.771-2.237,2.193.649,3.741,4.956.569,2.389-1.759,4.52-3.774,2.933-7.517" transform="translate(-70.471 -111.322)"/><path class="l" d="M267.924,323.064,184.25,320.29l-3.473-81.131,98.81,2.21Z" transform="translate(-81.896 -90.997)"/><path class="l" d="M303.469,323.965l22.49-3.424,7.083-75.44-17.91-2.831Z" transform="translate(-117.441 -91.899)"/><g class="p" transform="translate(186.028 150.371)"><g transform="translate(0 0)"><g class="q"><path d="M303.469,323.965l22.49-3.424,7.083-75.44-17.91-2.831Z" transform="translate(-303.469 -242.27)"/></g></g></g><path class="j" d="M194.89,308l-2.063-48.2a8.715,8.715,0,0,1,8.9-9.085l62.548,1.4a8.715,8.715,0,0,1,8.432,9.944l-6.935,48.578a8.715,8.715,0,0,1-8.916,7.478l-53.55-1.775A8.715,8.715,0,0,1,194.89,308" transform="translate(-85.385 -94.344)"/><path class="k" d="M260.846,313.571a.933.933,0,0,1-.689-.3l-6.08-6.655-6.561,5.995a.933.933,0,0,1-1.318-.059l-6.08-6.655-6.561,5.995a.933.933,0,0,1-1.317-.059l-6.081-6.655-6.561,5.995a.931.931,0,0,1-1.317-.059l-6.081-6.655-6.561,5.994a.932.932,0,1,1-1.257-1.376l7.249-6.623a.932.932,0,0,1,1.318.059l6.08,6.655,6.561-6a.934.934,0,0,1,1.318.059l6.08,6.655,6.561-5.995a.932.932,0,0,1,1.318.059l6.08,6.655,6.561-5.994a.93.93,0,0,1,1.317.059l6.71,7.343a.933.933,0,0,1-.688,1.561" transform="translate(-88.647 -109.262)"/><path class="l" d="M122.32,350.013l-4.445-2.12-3.966-19.3,2.152-2.37Z" transform="translate(-62.524 -116.221)"/><path class="l" d="M123.2,350.013l5.9-3.446-5.057-15.9-7.1-4.442Z" transform="translate(-63.402 -116.221)"/><g class="p" transform="translate(53.537 210.005)"><g transform="translate(0 0)"><g class="r"><path d="M123.2,350.013l5.9-3.446-5.057-15.9-7.1-4.442Z" transform="translate(-116.939 -326.226)"/></g></g></g><path class="j" d="M260.34,357.109c-.168,0-.332,0-.491-.007a3.551,3.551,0,1,1,.195-7.1c5.471.179,17.051-3.182,23.666-9.6a3.552,3.552,0,0,1,1.453-.854c11.214-3.365,15.388,3.433,15.56,3.725l-6.113,3.615a.915.915,0,0,0,.082.13c-.068-.094-1.656-2.159-6.713-.881-8.3,7.578-21.044,10.975-27.638,10.975" transform="translate(-103.803 -119.81)"/><path class="l" d="M255.7,361.24l-12.937-.815-1.021-23.849,17.386.65Z" transform="translate(-99.559 -119.22)"/><path class="l" d="M261.395,361.505l3.024-3.009,1.874-14.871-1.47-6.134Z" transform="translate(-105.252 -119.485)"/><g class="p" transform="translate(156.143 218.006)"><g transform="translate(0 0)"><g class="s"><path d="M261.395,361.505l3.024-3.009,1.874-14.871-1.47-6.134Z" transform="translate(-261.395 -337.491)"/></g></g></g><path class="j" d="M356.169,332.557a2.124,2.124,0,0,1-1.288-.434c-7.383-5.612-17.363-15.574-21.193-25.185a2.12,2.12,0,0,1-.121-.436c-1.867-11.1-3.652-34.478-3.727-35.468a2.131,2.131,0,1,1,4.25-.322c.018.239,1.82,23.842,3.642,34.856,3.82,9.345,14.176,18.941,19.729,23.161a2.131,2.131,0,0,1-1.291,3.828" transform="translate(-125.079 -99.568)"/><path class="j" d="M378.154,357.621a9.847,9.847,0,0,1-5.55-2.22,2.131,2.131,0,0,1,2.5-3.453c1.759,1.274,2.72,1.411,3.052,1.411a2.131,2.131,0,1,1,0,4.262" transform="translate(-137.214 -123.556)"/><path class="l" d="M373.763,354.746c2.28-6.773,11.628-5.434,14.847-4.429a34.158,34.158,0,0,1,7.862,3.411c1.744,1.14,1.771,3.044-.553,4.132-2.867,1.34-10.058.151-10.058.151,3.723,1.63-.007,4.242-6.538,1.676-2.126-.835-6.364-2.46-5.559-4.941" transform="translate(-137.777 -122.961)"/><path class="j" d="M336.521,271.409c-.846,5.755-5.611,10-9.487,9.428s-4.038-5.709-3.192-11.463,2.379-9.946,6.255-9.375,7.27,5.655,6.424,11.41" transform="translate(-123.222 -97.02)"/></g><g transform="translate(-0.495)"><path class="t" d="M866.086,134.068H241.619V116.683A14.439,14.439,0,0,1,256,102.189H854.28a11.856,11.856,0,0,1,11.806,11.9Z" transform="translate(-241.619 -102.189)"/><g transform="translate(12.261 11.035)"><path class="u" d="M254.637,109.6a4.9,4.9,0,1,1-4.9-4.907,4.9,4.9,0,0,1,4.9,4.907" transform="translate(-244.828 -104.693)"/><path class="v" d="M257.346,109.6a4.9,4.9,0,1,1-4.907-4.907,4.906,4.906,0,0,1,4.907,4.907" transform="translate(-232.815 -104.693)"/><path class="w" d="M259.921,109.6a4.9,4.9,0,1,1-4.9-4.907,4.9,4.9,0,0,1,4.9,4.907" transform="translate(-220.677 -104.693)"/></g></g></g></g><g transform="translate(99.292 101.395)"><path class="x" d="M211.009,279.871c-4.068-13.042-2.372-34.942,6.616-45.729S242.176,217.1,256.11,215.4c2.329-.286,4.818-.395,6.888.707s3.446,3.817,2.333,5.882c2.9-1.466,5.87-2.957,9.089-3.4s6.8.355,8.917,2.822,2.1,6.766-.549,8.649a10.521,10.521,0,0,1,11.97,15.15,33.406,33.406,0,0,1-8.556,9.505c-3.1,2.368-3.819,5.051-3.695,8.953" transform="translate(-146.365 -215.205)"/><path class="y" d="M218.005,252.873l-10.551,76.682A23.025,23.025,0,1,0,253.08,335.8c.788-5.773,1.459-10.587,1.577-11.173,0,0,19.775.849,23.842-18.276,1.966-9.245,4.465-28.611,6.523-46.159a36.425,36.425,0,0,0-29.053-39.94l-1.851-.371c-20.181-2.818-33.851,12.744-36.113,33" transform="translate(-148.004 -210.978)"/><path class="z" d="M242.938,278.617s-12.316-1.437-23.578-12.1c0,0,3.152,14.98,22.63,17.074Z" transform="translate(-136.199 -165.242)"/><path class="y" d="M219.367,244.621c-.3-.207-12.4-6.531-14.6,6.663s11.5,12.679,11.586,12.3,3.012-18.967,3.012-18.967" transform="translate(-150.637 -188.214)"/><path class="x" d="M293.675,238.03c-1.326,17.361-23.584,20.969-31.226,9.857-3.533-5.138-6.336-11.292-11.822-14.256a15.87,15.87,0,0,0-12.235-.752l-.12.038c-5.905,1.914-10.171,7.67-12.03,13.593-2.591,8.258-2.487,15.944-5.984,23.339a5.339,5.339,0,0,1-2.13,2.72c-1.79.882-3.926-.513-5-2.2-1.711-2.7-1.911-6.065-1.847-9.259a54.975,54.975,0,0,1,4.376-21.237,37.429,37.429,0,0,1,13.79-16.516,35.478,35.478,0,0,1,26.236-4.344,43.55,43.55,0,0,1,23,13.806c2.8,3.152,5.242,6.774,6.2,10.883" transform="translate(-144.071 -212.304)"/><path class="aa" d="M388.842,405.844a30.282,30.282,0,0,1-45.137-.039l-34.893-39.067-.415,55.668,12.312,35.7L198.364,479.329,193.175,382.8l-8.807-74.136a20.137,20.137,0,0,1,12.614-21.107L230.652,274.3l47.42,8.7,19.076,7.251a52.249,52.249,0,0,1,20.789,14.459l53.5,61.185" transform="translate(-170.407 -157.668)"/><path class="j" d="M248.192,390.628c.286,0,.359-19.285.164-43.066s-.584-43.068-.868-43.066-.359,19.285-.166,43.074.584,43.06.87,43.058" transform="translate(-109.078 -128.263)"/><path class="aa" d="M311.859,427.645l-73.925-29.759A16.892,16.892,0,0,1,227.4,383.5l-5.41-70.876s.641-30.144-18.188-31.613l-10.711,4.22c-13.844,7.35-17.272,27.505-15.389,43.068,2.678,22.109,3.793,53.4,6.79,72.591,2.451,15.7,11.444,29.509,26.807,33.551l91.055,19.713Z" transform="translate(-177.225 -151.129)"/><path class="j" d="M200.451,302.507a9.8,9.8,0,0,1,.233,1.622q.178,1.735.476,4.67c.377,4.155.91,10,1.563,17.189.626,7.291,1.368,15.924,2.191,25.5q.3,3.6.62,7.374a55.9,55.9,0,0,0,.943,7.583,12.6,12.6,0,0,0,3.675,6.642,25.032,25.032,0,0,0,6.821,4.245c20.384,8.82,39.172,16.1,52.808,21.209,6.77,2.495,12.278,4.524,16.19,5.967q2.771,1.018,4.4,1.622a10.085,10.085,0,0,1,1.514.628,10.049,10.049,0,0,1-1.579-.438q-1.655-.539-4.465-1.451c-3.868-1.281-9.448-3.2-16.3-5.67-13.717-4.948-32.534-12.121-52.978-20.969a25.78,25.78,0,0,1-7.088-4.429,13.584,13.584,0,0,1-3.941-7.137,55.71,55.71,0,0,1-.939-7.719q-.3-3.772-.588-7.378c-.744-9.586-1.415-18.227-1.98-25.522-.523-7.2-.949-13.054-1.249-17.217q-.183-2.946-.29-4.684a10.079,10.079,0,0,1-.036-1.638" transform="translate(-154.628 -130.2)"/><path class="j" d="M179.008,322.03a3.586,3.586,0,0,1,.146.949c.067.74.146,1.642.245,2.738.221,2.524.515,5.925.876,10.058.4,4.239.92,9.288,1.656,14.87a142.083,142.083,0,0,0,3.34,17.953,26.807,26.807,0,0,0,3.606,8.56,49.327,49.327,0,0,0,5.522,6.786,47.206,47.206,0,0,0,11.83,8.874c7.565,3.932,13.062,3.989,12.985,4.251a3.543,3.543,0,0,1-.963-.022,20.68,20.68,0,0,1-2.734-.353,36.183,36.183,0,0,1-9.606-3.253,46.3,46.3,0,0,1-12.16-8.86,48.782,48.782,0,0,1-5.676-6.88,27.507,27.507,0,0,1-3.76-8.838,134.334,134.334,0,0,1-3.288-18.1c-.689-5.607-1.133-10.674-1.449-14.929s-.476-7.707-.564-10.094c-.024-1.1-.043-2.007-.057-2.749a3.416,3.416,0,0,1,.051-.959" transform="translate(-175.539 -111.19)"/><path class="j" d="M195.008,355.791a10.843,10.843,0,0,1,1.346-3.94,25.43,25.43,0,0,1,15-12.809,10.873,10.873,0,0,1,4.1-.713c.032.164-1.522.474-3.872,1.374a28.76,28.76,0,0,0-14.609,12.478c-1.257,2.181-1.8,3.665-1.964,3.61" transform="translate(-159.928 -95.356)"/><g class="ab" transform="translate(48.231 193.38)"><g transform="translate(0 0)"><g class="ac"><path d="M266.82,387.871c-7.9-4.465-15.64-7.895-23.9-11.651s-16.362-8.578-21.772-15.869c-10.2-13.751-9.04-33.6-19.482-47.167q1.024,13.687,2.045,27.373c.626,8.364-.655,16.632,4.731,22.317,4.537,4.788,13.386,8.457,19.65,10.524,12.588,4.153,26.144,10.32,38.732,14.473" transform="translate(-201.662 -313.184)"/></g></g></g><path class="aa" d="M206.279,282.686l3.616-13.553,45.936,10.8a4.609,4.609,0,0,1,3.367,5.791l-3.523,11.969L239.1,318.965l-18.809-3.357-14.007-10.751Z" transform="translate(-148.935 -162.696)"/><path class="j" d="M251.539,283.849a5.148,5.148,0,0,1-1.62.375,37.353,37.353,0,0,1-4.506.44,54.129,54.129,0,0,1-28.749-6.9,37.5,37.5,0,0,1-3.815-2.431c-.861-.638-1.314-1.013-1.275-1.07.1-.146,2.064,1.149,5.432,2.862a62.364,62.364,0,0,0,28.394,6.809c3.778,0,6.118-.261,6.14-.089" transform="translate(-143.783 -157.709)"/><path class="ad" d="M306.788,403.8s61.856,17.12,64.337,17.992c3.724,1.313,3.1,14.963-2.7,14.751-2.741-.1-47.509,1.668-53.165,1.315s-22.723-7.08-22.723-7.08Z" transform="translate(-64.947 -31.567)"/><path class="k" d="M312.874,421.858c.31.041.728-3.231,2.726-6.641,1.948-3.44,4.565-5.445,4.374-5.694-.108-.239-3.182,1.506-5.27,5.179-2.126,3.651-2.09,7.184-1.83,7.157" transform="translate(-45.264 -26.02)"/><path class="k" d="M309.593,420.113c.3.051.93-2.872,2.578-6.1,1.614-3.249,3.59-5.493,3.367-5.7-.17-.2-2.588,1.818-4.293,5.238-1.731,3.4-1.916,6.551-1.652,6.569" transform="translate(-48.434 -27.197)"/><path class="k" d="M306.682,419.546c.312-.02.075-3.109,1.447-6.535,1.315-3.45,3.586-5.558,3.369-5.783-.124-.235-2.9,1.676-4.332,5.406-1.474,3.715-.734,7-.484,6.912" transform="translate(-51.571 -28.251)"/><path class="k" d="M309.456,416.5c.111.028.657-1.7.663-4.6a21.715,21.715,0,0,0-1.545-7.914,3.481,3.481,0,0,0-.991-1.516,1.653,1.653,0,0,0-2.126.1,2.725,2.725,0,0,0-.823,1.749,11.586,11.586,0,0,0-.081,1.634,13.609,13.609,0,0,0,.381,3.028,18.322,18.322,0,0,0,1.9,4.729c1.441,2.509,2.69,3.793,2.777,3.724.142-.1-.894-1.541-2.13-4.064a20.265,20.265,0,0,1-1.62-4.6,13.651,13.651,0,0,1-.3-2.828c.03-.949.014-2.138.57-2.594a.6.6,0,0,1,.817-.069,2.576,2.576,0,0,1,.679,1.082,22.146,22.146,0,0,1,.938,2.728,24.842,24.842,0,0,1,.819,4.832c.181,2.8-.1,4.549.067,4.575" transform="translate(-53.249 -33.197)"/><path class="k" d="M313.1,409.411c.03-.115-1.465-.628-3.989-.645a17.956,17.956,0,0,0-4.389.539,9.608,9.608,0,0,0-2.526.932,2.6,2.6,0,0,0-1.4,2.826,3.082,3.082,0,0,0,2.228,2.209,5.693,5.693,0,0,0,2.773-.008,10.638,10.638,0,0,0,4.018-1.976c1.984-1.555,2.951-2.747,2.876-2.832-.108-.13-1.279.886-3.294,2.23a10.954,10.954,0,0,1-3.8,1.642,4.9,4.9,0,0,1-2.294-.03,2.094,2.094,0,0,1-1.506-1.472,1.6,1.6,0,0,1,.918-1.727,9.393,9.393,0,0,1,2.246-.872,20.638,20.638,0,0,1,4.166-.728c2.422-.17,3.94.079,3.965-.087" transform="translate(-56.972 -26.736)"/><path class="k" d="M317.865,421.253c.306-.038,0-2.678,1.22-5.58,1.157-2.925,3.223-4.6,3.028-4.842-.1-.253-2.688,1.214-3.987,4.451-1.334,3.221-.511,6.079-.26,5.971" transform="translate(-40.752 -24.751)"/><path class="ad" d="M296.982,395.152S238.45,433.475,236.35,435.06c-3.15,2.382.466,13.723,5.925,11.759,2.584-.93,51.7-14.591,56.979-16.646s19.5-13.646,19.5-13.646Z" transform="translate(-120.796 -39.992)"/><path class="k" d="M262.87,415.268c.259-.055-.782-3.432-3.914-6.266-3.109-2.864-6.564-3.59-6.594-3.33-.111.294,2.994,1.409,5.9,4.1,2.937,2.645,4.33,5.633,4.612,5.5" transform="translate(-104.067 -29.796)"/><path class="j" d="M264.914,412.781c.249-.1-.884-3.037-3.568-5.757-2.663-2.74-5.58-3.932-5.68-3.687-.148.27,2.416,1.808,4.94,4.411,2.552,2.58,4.036,5.173,4.309,5.033" transform="translate(-100.854 -32.053)"/><path class="j" d="M267.132,411.482c.267.008-.028-3.347-2.56-6.44-2.5-3.119-5.724-4.1-5.771-3.835-.136.28,2.666,1.6,4.968,4.486,2.347,2.85,3.061,5.864,3.363,5.789" transform="translate(-97.799 -34.135)"/><path class="j" d="M262.747,409.929c.154-.073-.647-1.658-1.324-4.38a24.955,24.955,0,0,1-.689-4.851,23.049,23.049,0,0,1,.065-2.885,2.614,2.614,0,0,1,.318-1.236.6.6,0,0,1,.8-.182c.669.267,1.016,1.4,1.332,2.3a13.775,13.775,0,0,1,.574,2.783,20.414,20.414,0,0,1-.148,4.873c-.411,2.779-.963,4.465-.8,4.518.1.037.9-1.563,1.518-4.394a18.413,18.413,0,0,0,.377-5.082,13.721,13.721,0,0,0-.557-3,12.319,12.319,0,0,0-.572-1.531,2.737,2.737,0,0,0-1.316-1.417,1.652,1.652,0,0,0-2.057.547,3.441,3.441,0,0,0-.482,1.745,21.374,21.374,0,0,0-.006,3.016,21.622,21.622,0,0,0,.935,5c.886,2.763,1.932,4.242,2.029,4.182" transform="translate(-96.888 -39.861)"/><path class="j" d="M261.2,403.713c.075.15,1.445-.545,3.8-1.119a20.621,20.621,0,0,1,4.194-.572,9.372,9.372,0,0,1,2.4.152,1.6,1.6,0,0,1,1.4,1.364,2.1,2.1,0,0,1-.989,1.859,4.884,4.884,0,0,1-2.177.726,10.987,10.987,0,0,1-4.113-.41c-2.329-.671-3.752-1.285-3.819-1.127-.043.1,1.239.945,3.6,1.824a10.688,10.688,0,0,0,4.429.663,5.692,5.692,0,0,0,2.647-.837,3.09,3.09,0,0,0,1.451-2.779,2.608,2.608,0,0,0-2.189-2.268,9.569,9.569,0,0,0-2.692-.12,18.021,18.021,0,0,0-4.344.819c-2.4.785-3.667,1.727-3.606,1.826" transform="translate(-95.46 -34.269)"/><path class="k" d="M256.759,416.582c.27.03.19-2.943-2.062-5.607-2.22-2.69-5.13-3.3-5.149-3.03-.112.286,2.365,1.257,4.356,3.693,2.039,2.394,2.554,5,2.856,4.944" transform="translate(-106.809 -27.592)"/><path class="ae" d="M410.276,349.346s17.558,6.27,17.633,25.958c.142,37.715-76.2,79.285-76.2,79.285L250.114,387.276l-6.369-2.578s137.143-51.516,166.531-35.353" transform="translate(-112.455 -87.65)"/><path class="af" d="M273.047,410.329a18.789,18.789,0,0,0,2.647-1.794c1.666-1.208,4.04-3,6.947-5.246,5.819-4.5,13.731-10.869,22.246-18.174s16.009-14.175,21.332-19.244c2.665-2.536,4.794-4.613,6.239-6.077a18.71,18.71,0,0,0,2.173-2.343,19.271,19.271,0,0,0-2.451,2.051c-1.66,1.5-3.833,3.462-6.458,5.83-5.443,4.928-13.007,11.692-21.509,18.995s-16.328,13.749-22.024,18.389c-2.74,2.232-5.007,4.086-6.74,5.5a19.078,19.078,0,0,0-2.4,2.112" transform="translate(-83.925 -76.703)"/><path class="af" d="M322.715,355.065c.04-.253-4.492-.7-9.79.888-5.309,1.545-8.874,4.38-8.7,4.571.17.268,3.872-2.09,9-3.576,5.11-1.534,9.5-1.565,9.5-1.883" transform="translate(-53.574 -79.273)"/><path class="af" d="M313.71,351.941c-.091-.245-3.347,1.188-6.024,4.53-2.706,3.32-3.418,6.8-3.16,6.843.3.1,1.407-3.063,3.965-6.193,2.521-3.16,5.38-4.913,5.218-5.179" transform="translate(-53.32 -82.092)"/><path class="ag" d="M412.418,316.581,376.234,408.3l-155.8,2.538-2.886-8.43,54.6-1.98L298.4,319.065Z" transform="translate(-137.962 -116.496)"/><path class="c" d="M280.831,337.08c2-1.356,5.7-.813,7.494.8a6.061,6.061,0,0,1,1.466,6.638,6.569,6.569,0,0,1-5.629,3.932,5.913,5.913,0,0,1-5.949-3.93c-.716-2.463.077-6.142,2.617-7.439" transform="translate(-79.137 -97.286)"/><path class="ae" d="M413.475,454.952S269.935,360.8,264.058,358.841s-20.082-11.266-34.285-7.348-26.939,16.654-33.306,35.266c-3.637,10.632-5.359,28.777-6.162,42.381a62.873,62.873,0,0,0,14.712,44.831c4.841,5.615,10.814,10.5,17.9,12.7,1.5.468,3.047.868,4.64,1.212,27.138,5.886,55.029-6.3,70.275-29.507l3.349-5.1s93.9,34.5,95.369,34.007Z" transform="translate(-164.603 -83.43)"/><path class="af" d="M213.345,425.943s.261.132.788.349l2.349.931,9.1,3.5,33.817,12.74c14.369,5.361,31.575,11.732,50.88,18.758s40.706,14.724,63.557,22.461l.414.14.2-.389c3.588-6.853,7.374-14.08,11.214-21.417,1.958-3.742,3.9-7.455,5.716-10.923l.221-.42-.4-.253L281.716,381.919l-32.89-20.744c-3.853-2.406-6.855-4.279-8.933-5.578-1-.608-1.77-1.082-2.331-1.425-.529-.316-.813-.456-.813-.456s.249.2.758.543c.549.361,1.3.863,2.28,1.508l8.832,5.735c7.739,4.97,18.894,12.136,32.716,21.016,27.784,17.732,66.281,42.306,109.311,69.774l-.176-.673c-1.816,3.466-3.762,7.178-5.72,10.92-3.837,7.336-7.62,14.566-11.207,21.42l.618-.249c-22.838-7.719-44.246-15.385-63.571-22.348L259.64,442.824c-14.365-5.27-25.919-9.509-33.928-12.446l-9.162-3.334-2.384-.845c-.537-.185-.821-.257-.821-.257" transform="translate(-142.055 -80.337)"/></g><line class="ah" y1="1" x2="767" transform="translate(-46.5 507.5)"/><g transform="translate(-4.71 342.555)"><path class="ag" d="M608.676,303.774l8.313,54.631h48.3l11.21-53.841Z" transform="translate(-601.999 -191.919)"/><path class="ai" d="M645.9,227.238a.988.988,0,0,1-.059.268c-.059.207-.134.462-.225.772q-.334,1.077-.918,2.949c-.413,1.275-.907,2.841-1.417,4.673s-1.166,3.9-1.744,6.23c-.613,2.317-1.276,4.856-1.882,7.609-.669,2.735-1.234,5.693-1.862,8.8-1.158,6.227-2.214,13.114-2.959,20.387-.706,7.278-1.032,14.241-1.128,20.575,0,3.166-.03,6.176.086,8.993.049,2.817.2,5.438.342,7.83.1,2.394.33,4.552.476,6.449s.314,3.53.466,4.861c.135,1.3.241,2.325.318,3.072.028.324.051.587.069.8a.139.139,0,1,1-.058.007c-.034-.211-.075-.472-.124-.793-.1-.745-.245-1.768-.424-3.061-.187-1.328-.393-2.959-.562-4.858s-.432-4.055-.562-6.452c-.169-2.4-.342-5.02-.411-7.842-.137-2.821-.123-5.837-.139-9.013.068-6.349.377-13.33,1.086-20.626.748-7.29,1.823-14.193,3.011-20.43.644-3.109,1.227-6.068,1.917-8.806.627-2.754,1.314-5.29,1.954-7.606.6-2.323,1.275-4.389,1.825-6.214s1.066-3.385,1.511-4.651q.649-1.851,1.021-2.917c.113-.306.2-.554.278-.754a.941.941,0,0,1,.114-.251" transform="translate(-591.989 -223.183)"/><path class="l" d="M636.272,254.291a17.941,17.941,0,0,1,7.509-9.483c1.2-.741,2.706-1.344,3.972-.73,1.686.814,1.821,3.185,1.32,4.987a13.223,13.223,0,0,1-5.466,7.451,11.15,11.15,0,0,1-8.2,2.069" transform="translate(-591.081 -216.408)"/><path class="l" d="M634.083,271.967c1.247-4.716,5.009-11.417,8.914-14.337a5.739,5.739,0,0,1,2.028-1.079,2.358,2.358,0,0,1,2.168.468c.8.765.717,2.051.483,3.13a19.01,19.01,0,0,1-14.092,14.186" transform="translate(-591.824 -211.242)"/><path class="l" d="M633.363,285.364a27.607,27.607,0,0,1,8.995-11.31,4.289,4.289,0,0,1,3.138-1.118c1.706.31,2.48,2.393,2.331,4.121-.311,3.556-3.028,6.407-5.831,8.617a36.167,36.167,0,0,1-8.32,4.276" transform="translate(-591.915 -204.532)"/><path class="l" d="M633.685,294.842a26.565,26.565,0,0,1,7.654-8.713,5.564,5.564,0,0,1,2.294-1.028,2.343,2.343,0,0,1,2.254.856c.768,1.128.035,2.651-.786,3.738a21.819,21.819,0,0,1-10.919,8.01" transform="translate(-591.783 -199.557)"/><path class="l" d="M637.515,291.332a85.149,85.149,0,0,0-10.944-11.147c-.62-.527-1.406-1.078-2.179-.825a1.63,1.63,0,0,0-1,1.47,4.125,4.125,0,0,0,.416,1.828,21.218,21.218,0,0,0,14.089,11.852" transform="translate(-595.991 -201.917)"/><path class="l" d="M638.392,278.451q-4.3-5.24-8.6-10.481a10.355,10.355,0,0,0-2.789-2.647,3.531,3.531,0,0,0-3.668-.045,3.472,3.472,0,0,0-1.175,3.461,9.074,9.074,0,0,0,1.676,3.445,25.511,25.511,0,0,0,6.264,6.654c2.524,1.737,4.818,2.866,7.85,2.418" transform="translate(-596.518 -207.846)"/><path class="l" d="M638.9,263.614a29.961,29.961,0,0,0-8.651-12.988A5.044,5.044,0,0,0,628,249.312c-1.723-.334-3.386,1.106-3.944,2.769a7.1,7.1,0,0,0,.786,5.692,15.016,15.016,0,0,0,4.041,4.272,34.671,34.671,0,0,0,9.562,5.164" transform="translate(-595.837 -214.186)"/><path class="l" d="M640.7,251.27c-.832-6.075-3.995-11.131-7.658-16.048-.773-1.035-1.852-2.135-3.128-1.939a2.473,2.473,0,0,0-1.8,1.539,5.826,5.826,0,0,0-.341,2.428,18.773,18.773,0,0,0,12.181,16.767" transform="translate(-594.198 -220.724)"/><path class="l" d="M638.786,245.264a50.161,50.161,0,0,1-.316-9.395,16.808,16.808,0,0,1,3.12-8.75,7.221,7.221,0,0,1,3.121-2.489,3.945,3.945,0,0,1,3.83.507,4.17,4.17,0,0,1,1.31,3.372,10.582,10.582,0,0,1-.968,3.6c-2.29,5.511-6.11,11.612-10.1,13.155" transform="translate(-589.876 -224.359)"/><path class="j" d="M612.129,244.341a3.912,3.912,0,0,1,.047.77c.007.561.016,1.294.025,2.206,0,.956,0,2.128.053,3.486s.055,2.906.168,4.614c.148,3.417.48,7.479,1,11.969.556,4.487,1.321,9.4,2.378,14.509,1.086,5.106,2.359,9.913,3.652,14.245,1.331,4.323,2.659,8.173,3.9,11.364.583,1.608,1.2,3.03,1.7,4.292s.963,2.34,1.351,3.214l.863,2.028a4.169,4.169,0,0,1,.268.725,3.785,3.785,0,0,1-.37-.677c-.245-.5-.563-1.165-.962-1.986-.418-.862-.913-1.925-1.441-3.182s-1.175-2.665-1.783-4.269c-1.287-3.179-2.659-7.028-4.021-11.355-1.325-4.338-2.62-9.159-3.707-14.282-1.062-5.128-1.813-10.061-2.342-14.565-.493-4.509-.783-8.585-.88-12.013-.089-1.713-.069-3.265-.084-4.627s.006-2.534.044-3.493c.032-.911.06-1.645.08-2.206a3.918,3.918,0,0,1,.068-.768" transform="translate(-600.67 -216.197)"/><path class="l" d="M613.027,264.764a12.8,12.8,0,0,1,3.071-8.073,3.074,3.074,0,0,1,2.547-1.352c1.324.192,1.925,1.776,1.973,3.113A9.438,9.438,0,0,1,618.5,264.7a7.963,7.963,0,0,1-5.141,3.175" transform="translate(-600.222 -211.712)"/><path class="l" d="M615.1,277.324c-.165-3.478.954-8.851,2.983-11.679a4.124,4.124,0,0,1,1.149-1.172,1.685,1.685,0,0,1,1.576-.148,2.375,2.375,0,0,1,1,2.027,13.573,13.573,0,0,1-6.541,12.692" transform="translate(-599.38 -208.088)"/><path class="l" d="M617.781,286.573a19.7,19.7,0,0,1,3.69-9.637,3.058,3.058,0,0,1,1.9-1.437c1.228-.158,2.2,1.094,2.473,2.3.554,2.489-.683,5.016-2.116,7.123a25.837,25.837,0,0,1-4.742,4.7" transform="translate(-598.28 -203.474)"/><path class="l" d="M620.21,292.874a18.983,18.983,0,0,1,3.334-7.579,3.974,3.974,0,0,1,1.342-1.194,1.67,1.67,0,0,1,1.718.1c.765.6.6,1.8.269,2.714a15.586,15.586,0,0,1-5.709,7.8" transform="translate(-597.288 -200.032)"/><path class="l" d="M622.587,289.091a61.092,61.092,0,0,0-9.851-5.234,1.758,1.758,0,0,0-1.662-.092,1.165,1.165,0,0,0-.368,1.217,2.97,2.97,0,0,0,.679,1.154,15.146,15.146,0,0,0,12.143,5.038" transform="translate(-601.186 -200.165)"/><path class="l" d="M620.334,280.25l-8.109-5.286a7.417,7.417,0,0,0-2.469-1.2,2.517,2.517,0,0,0-2.506.759,2.477,2.477,0,0,0-.058,2.609,6.5,6.5,0,0,0,1.885,1.983,18.188,18.188,0,0,0,5.7,3.183c2.09.639,3.9.914,5.865-.042" transform="translate(-602.745 -204.204)"/><path class="l" d="M617.417,270.078a21.389,21.389,0,0,0-8.685-6.98,3.593,3.593,0,0,0-1.818-.41,2.7,2.7,0,0,0-2.089,2.734,5.071,5.071,0,0,0,1.761,3.706,10.693,10.693,0,0,0,3.669,2.038,24.725,24.725,0,0,0,7.623,1.458" transform="translate(-603.572 -208.708)"/><path class="l" d="M616.055,261.2c-1.875-3.958-5.116-6.72-8.668-9.278-.751-.539-1.721-1.056-2.549-.648a1.771,1.771,0,0,0-.89,1.435,4.137,4.137,0,0,0,.292,1.725,13.4,13.4,0,0,0,11.9,8.795" transform="translate(-603.935 -213.425)"/><path class="l" d="M612.979,257.882a35.835,35.835,0,0,1-2.235-6.328,11.989,11.989,0,0,1,.239-6.628,5.14,5.14,0,0,1,1.59-2.366,2.815,2.815,0,0,1,2.717-.479,2.972,2.972,0,0,1,1.617,2.013,7.531,7.531,0,0,1,.115,2.661c-.373,4.244-1.661,9.221-4.044,11.129" transform="translate(-601.297 -217.19)"/><path class="ai" d="M659.891,243.965a3.776,3.776,0,0,1,.068.768c.02.561.048,1.294.082,2.206.037.958.062,2.131.042,3.493s0,2.913-.083,4.627c-.1,3.428-.389,7.5-.88,12.013-.53,4.5-1.282,9.437-2.344,14.565-1.087,5.123-2.382,9.944-3.707,14.282-1.362,4.327-2.734,8.176-4.021,11.355-.608,1.6-1.249,3.017-1.783,4.269s-1.023,2.318-1.441,3.182c-.4.821-.717,1.482-.962,1.986a3.942,3.942,0,0,1-.369.677,4.02,4.02,0,0,1,.266-.725c.22-.516.506-1.189.863-2.028.387-.875.852-1.949,1.351-3.214s1.118-2.683,1.7-4.292c1.237-3.19,2.565-7.042,3.9-11.364,1.293-4.333,2.566-9.141,3.652-14.245,1.058-5.109,1.821-10.023,2.378-14.509.518-4.49.851-8.552,1-11.969.113-1.708.123-3.255.168-4.614s.056-2.53.053-3.487c.011-.911.02-1.644.025-2.2a4.032,4.032,0,0,1,.047-.77" transform="translate(-587.37 -216.35)"/><path class="l" d="M656.671,264.388a12.8,12.8,0,0,0-3.071-8.073,3.068,3.068,0,0,0-2.547-1.352c-1.324.192-1.925,1.776-1.972,3.113a9.446,9.446,0,0,0,2.117,6.248,7.967,7.967,0,0,0,5.141,3.175" transform="translate(-585.496 -211.865)"/><path class="l" d="M654.358,276.948c.165-3.479-.952-8.851-2.983-11.679a4.124,4.124,0,0,0-1.149-1.172,1.685,1.685,0,0,0-1.576-.148,2.376,2.376,0,0,0-1,2.027,13.578,13.578,0,0,0,6.541,12.692" transform="translate(-586.102 -208.242)"/><path class="l" d="M652.091,286.2a19.708,19.708,0,0,0-3.689-9.637,3.065,3.065,0,0,0-1.9-1.437c-1.228-.158-2.2,1.094-2.473,2.3-.554,2.489.683,5.014,2.116,7.123a25.8,25.8,0,0,0,4.744,4.7" transform="translate(-587.612 -203.628)"/><path class="l" d="M649.3,292.5a18.975,18.975,0,0,0-3.334-7.579,3.945,3.945,0,0,0-1.342-1.194,1.67,1.67,0,0,0-1.718.1c-.765.6-.6,1.8-.269,2.714a15.571,15.571,0,0,0,5.71,7.8" transform="translate(-588.24 -200.186)"/><path class="l" d="M648.639,288.715a61.01,61.01,0,0,1,9.85-5.234,1.761,1.761,0,0,1,1.663-.092,1.162,1.162,0,0,1,.366,1.217,2.948,2.948,0,0,1-.677,1.154A15.149,15.149,0,0,1,647.7,290.8" transform="translate(-586.059 -200.319)"/><path class="l" d="M651.161,279.874l8.11-5.286a7.4,7.4,0,0,1,2.468-1.2,2.518,2.518,0,0,1,2.506.759,2.477,2.477,0,0,1,.056,2.609,6.463,6.463,0,0,1-1.883,1.983,18.2,18.2,0,0,1-5.7,3.183c-2.092.638-3.9.914-5.865-.042" transform="translate(-584.769 -204.357)"/><path class="l" d="M653.864,269.7a21.391,21.391,0,0,1,8.685-6.98,3.593,3.593,0,0,1,1.818-.41,2.7,2.7,0,0,1,2.089,2.732,5.07,5.07,0,0,1-1.759,3.707,10.713,10.713,0,0,1-3.671,2.038,24.708,24.708,0,0,1-7.623,1.458" transform="translate(-583.729 -208.861)"/><path class="l" d="M654.981,260.823c1.875-3.958,5.116-6.72,8.669-9.278.749-.539,1.72-1.056,2.548-.649a1.77,1.77,0,0,1,.89,1.437,4.158,4.158,0,0,1-.29,1.725,13.4,13.4,0,0,1-11.9,8.793" transform="translate(-583.119 -213.579)"/><path class="l" d="M656.457,257.506a35.834,35.834,0,0,0,2.237-6.328,12,12,0,0,0-.241-6.628,5.152,5.152,0,0,0-1.59-2.368,2.822,2.822,0,0,0-2.717-.479,2.978,2.978,0,0,0-1.617,2.014,7.524,7.524,0,0,0-.115,2.659c.373,4.244,1.661,9.221,4.044,11.13" transform="translate(-584.158 -217.343)"/><path class="ag" d="M604.741,296.094v10.223a4.024,4.024,0,0,0,4.024,4.024h69.941a4.024,4.024,0,0,0,4.023-4.024V296.094Z" transform="translate(-603.607 -195.056)"/><g class="aj" transform="translate(7.199 115.285)"><g transform="translate(0 0)"><g class="ak"><path d="M609.047,306.209l.58,3.255,64.534,4.6,1.635-7.852Z" transform="translate(-609.047 -306.209)"/></g></g></g></g></g></g></svg>