<svg xmlns="http://www.w3.org/2000/svg" width="299" height="210" viewBox="0 0 299 210"><defs><style>.a{fill:#f2f6ff;}.b{fill:#6e7090;}.c{fill:#fff;}.d{fill:#37474f;}.e{fill:#ebebeb;}.f{fill:#f2af82;}.g{fill:#22407a;}.h{fill:#c65447;}.i{fill:#ffc39b;}.j{fill:#ebb38e;}.k{fill:none;stroke:#f4a69d;stroke-linecap:round;stroke-linejoin:round;stroke-width:0;}.l{fill:#623423;}.m{fill:#263238;}.n{fill:#455a64;}.o{fill:#ffc727;}.p{opacity:0.1;}.q{fill:#f7a9a0;}.r{fill:#d5d6ea;}.s{fill:#6e70f7;}.t{fill:#e59f3f;}.u{fill:#1f224e;font-size:8px;font-family:BrandonGrotesque-Black, Brandon Grotesque;font-weight:800;}.v{fill:#412115;}.w{fill:#f99746;}.x{fill:#e6b18e;}</style></defs><g transform="translate(-5623.493 -5324.136)"><path class="a" d="M-3040.183,1216.372s-27.249-37.828.389-84.844c25.629-43.6,65.3-22.681,90.311-62.7,63.369-101.4,198.638-23.448,178.342,62.728-9.821,41.7,29.891,43.219,9.656,84.906Z" transform="translate(8675.672 4303.266)"/><g transform="translate(5623.494 5361.825)"><g transform="translate(0 105.186)"><g transform="translate(0 0)"><path class="b" d="M188.151,355.483H111.346L105.4,303.319H182.2Z" transform="translate(-105.4 -303.319)"/><g transform="translate(4.185 3.499)"><path class="c" d="M187.29,354.763H118.057L112.909,309.6h69.233Z" transform="translate(-112.909 -309.597)"/></g><g transform="translate(47.333 48.665)"><rect class="d" width="78.83" height="3.502"/><rect class="b" width="39.676" height="3.502" transform="translate(39.154)"/></g><g transform="translate(4.609 3.501)"><path class="e" d="M165.831,309.6l-44.813,44.813-1.338-11.72L152.768,309.6Z" transform="translate(-116.331 -309.6)"/><path class="e" d="M225.721,362.866l-10.288,10.288H202.37l22.014-22.014Z" transform="translate(-152.936 -327.989)"/><path class="e" d="M121.823,309.6l-7.7,7.7-.457-4,3.7-3.7Z" transform="translate(-113.67 -309.6)"/><path class="e" d="M213.317,334.441,183.768,363.99H179.31l33.55-33.55Z" transform="translate(-142.728 -318.826)"/><path class="e" d="M128.374,309.6l-12.913,12.913-.111-1,11.91-11.91Z" transform="translate(-114.414 -309.6)"/><path class="e" d="M177.219,309.6l-45.165,45.165H130.94L176.1,309.6Z" transform="translate(-121.315 -309.6)"/><path class="e" d="M209.377,324.973l-36.153,36.153H172.11l37.156-37.156Z" transform="translate(-139.541 -315.961)"/></g></g><g transform="translate(172.837 0)"><g transform="translate(43.411)"><path class="b" d="M495.3,355.483h76.8l5.946-52.164H501.247Z" transform="translate(-495.302 -303.319)"/></g><g transform="translate(47.596 3.499)"><path class="c" d="M502.811,354.763h69.233l5.149-45.166H507.959Z" transform="translate(-502.811 -309.597)"/></g><g transform="translate(0 48.665)"><rect class="b" width="78.83" height="3.502"/><rect class="b" width="39.676" height="3.502"/></g><g transform="translate(47.596 3.501)"><path class="e" d="M610.721,340.99l-1.683,14.746-12.924,12.924H583.05Z" transform="translate(-538.331 -323.496)"/><path class="e" d="M550.65,309.6l-45.159,45.165H502.81l1.338-11.72L537.592,309.6Z" transform="translate(-502.81 -309.6)"/><path class="e" d="M523.965,309.6,508.99,324.575l.574-5.033,9.942-9.942Z" transform="translate(-505.546 -309.6)"/><path class="e" d="M584.833,309.6l-45.165,45.165H535.21L580.375,309.6Z" transform="translate(-517.153 -309.6)"/><path class="e" d="M607.4,330.89l-.139,1.26-32.04,32.04H574.11Z" transform="translate(-534.374 -319.025)"/><path class="e" d="M595.884,309.6l-45.159,45.165H549.61L594.775,309.6Z" transform="translate(-523.528 -309.6)"/><path class="e" d="M534.618,309.6,506.24,337.978l.145-1.259L533.5,309.6Z" transform="translate(-504.328 -309.6)"/></g></g></g><g transform="translate(23.802 0)"><g transform="translate(0 24.557)"><g transform="translate(51.779 46.313)"><g transform="translate(0.269 0.891)"><path class="f" d="M243.384,249.386c9.528,19.232,23.632,38.425,27.413,42.054,10.153,9.745,37.261,16.75,45.251,16.972,3.448.1,8.219-22.822,5.677-25.495s-36.016-9.949-37.809-11.322c-1.246-.955-17.211-16.13-27.8-25.139C242.967,235.259,240.882,244.335,243.384,249.386Z" transform="translate(-242.464 -241.108)"/></g><path class="g" d="M314.117,279.032l-8.639,27.279s-28.326-7.482-35.905-14.745-23.278-33.381-26.345-41.983-1.068-15.4,12.793-4.238,25.663,22.585,28.124,24.423S314.117,279.032,314.117,279.032Z" transform="translate(-241.982 -239.511)"/><path class="g" d="M284.582,299.549c-6.2-2.408-12.116-5.211-15.008-7.981-7.579-7.267-23.279-33.383-26.344-41.988-1.962-5.5-1.856-10.26,2.1-10.065Z" transform="translate(-241.981 -239.51)"/></g><g transform="translate(7.785 43.778)"><path class="g" d="M163.052,321.714l71.505.014c.286-2.613-14.427-75.473-21.43-84.606-1.5-1.953-6.441-2.5-10.642-1.973a18.733,18.733,0,0,0-3.235.661.493.493,0,0,1-.109.03A7.749,7.749,0,0,0,196.764,237C185.076,246.334,162.489,321.073,163.052,321.714Z" transform="translate(-163.042 -234.962)"/></g><g transform="translate(52.054 56.489)"><path class="h" d="M242.474,263.69l3.04-5.92,3.921,4.282-.959,4.26-3.873.5Z" transform="translate(-242.474 -257.77)"/><path class="h" d="M244.822,273.6l-1.853,43.542,8.162,14.4,4.236-16.206L248.7,273.1Z" transform="translate(-242.693 -264.555)"/></g><g transform="translate(37.425)"><g transform="translate(5.73 30.139)"><path class="i" d="M237.423,236.049c-1.126-.045-8.594-5.887-10.892-10.437-.155-.313.422-3.526.939-7.464.3-2.391.587-5.061.67-7.515.014-.5,1.7.479,1.7.479l3.151.873,10.42,2.9a39.127,39.127,0,0,0-1.8,9.375,5.506,5.506,0,0,0,.072,1.011c0,.046.015.1.017.168C241.945,227.364,239.264,236.121,237.423,236.049Z" transform="translate(-226.506 -210.488)"/><path class="j" d="M243.581,226.211c0,.046.015.1.017.168a9.688,9.688,0,0,1-1.585.031c-10.358-.577-11.213-13.8-11.213-13.8l4.091.315,10.42,2.9a39.127,39.127,0,0,0-1.8,9.375A5.505,5.505,0,0,0,243.581,226.211Z" transform="translate(-228.407 -211.427)"/></g><path class="k" d="M239.678,229.865a0,0,0,1,1,0-.006" transform="translate(-226.606 -188.925)"/><g transform="translate(4.538 3.159)"><path class="i" d="M224.773,171.168c-1.562,5.492,1.622,21.212,5.573,24.655,5.728,4.992,14.956,5.3,19.159-1.548,4.075-6.64-.438-27.054-4.837-30.168C238.187,159.522,227.081,163.055,224.773,171.168Z" transform="translate(-224.367 -162.077)"/></g><path class="l" d="M223.51,180.918c3.752-.561,3.487-7.484,3.487-7.484s6.293-2,6.522-6.987c0,0,6.689,3.013,11.245.566s2.752-7.741,2.049-8.827-3.055,1.465-3.055,1.465-.755-3.035-1.623-3.228-1.49,1.8-1.49,1.8a40.4,40.4,0,0,0-12.1-.193c-5.6.981-7.558,7.057-7.558,7.057s-2.914,1.078-3.581,3.327S221.118,181.276,223.51,180.918Z" transform="translate(-216.716 -156.409)"/><path class="m" d="M231.878,180.456c5.083-.066,7.907-3.862,7.934-8.745a.047.047,0,0,1,.094-.006c.507,4.47-2.925,10.036-8.044,8.978A.116.116,0,0,1,231.878,180.456Z" transform="translate(-223.108 -163.162)"/><path class="m" d="M220.614,171.778a.053.053,0,0,1,.047.094c-1.3.851-2.828,1.569-3.624,2.984-.961,1.709-.412,3.687.285,5.369,1.08,2.605,2.988,5.916,5.638,7.154.153.071.037.294-.115.232-3.152-1.287-5.5-5.6-6.37-8.727C215.508,175.383,217.43,173.028,220.614,171.778Z" transform="translate(-216.225 -163.211)"/><path class="m" d="M256.325,168.378a7.433,7.433,0,0,0,7.59-1.236c2.353-2.215,1.356-5.157-.148-7.511-.074-.115.086-.275.188-.167,1.876,1.99,2.494,5.337.627,7.557-1.93,2.293-5.788,2.79-8.423,1.689C255.939,168.619,256.106,168.286,256.325,168.378Z" transform="translate(-233.858 -157.746)"/><g transform="translate(3.055 16.764)"><path class="n" d="M247.626,198.684a4.624,4.624,0,1,1,4.26-5.931h0a4.626,4.626,0,0,1-4.26,5.93Zm-.327-8.624a4.006,4.006,0,1,0,3.993,2.868A4,4,0,0,0,247.3,190.061Z" transform="translate(-231.056 -187.795)"/><path class="n" d="M267.147,195.688c-1.768.067-3.44-1.683-3.813-4.067a5.517,5.517,0,0,1,.468-3.344,2.88,2.88,0,0,1,4.872-.76,5.524,5.524,0,0,1,1.462,3.043c.392,2.518-.813,4.806-2.687,5.1A2.649,2.649,0,0,1,267.147,195.688Zm-.795-8.577a1.931,1.931,0,0,0-.233.022,2.467,2.467,0,0,0-1.768,1.426,4.914,4.914,0,0,0-.406,2.967c.341,2.182,1.865,3.765,3.409,3.522s2.512-2.211,2.173-4.393a4.908,4.908,0,0,0-1.291-2.7A2.545,2.545,0,0,0,266.352,187.111Z" transform="translate(-240.102 -186.49)"/><path class="n" d="M258.584,195.157l-.466-.406c.6-.69,2.083-1.723,3.384-.7l-.381.487C259.956,193.619,258.64,195.094,258.584,195.157Z" transform="translate(-237.826 -189.646)"/><path class="n" d="M222.293,200.811l-.586-.2c.092-.274.931-2.684,2.26-3.118,1.243-.4,9.55-.912,9.9-.933l.037.617c-2.381.144-8.788.591-9.747.9C223.281,198.372,222.515,200.15,222.293,200.811Z" transform="translate(-221.707 -190.949)"/></g><g transform="translate(2.352 21.375)"><path class="i" d="M227.276,198.6s-3.765-4.958-6.028-3.6.707,8.647,3.463,9.552a2.765,2.765,0,0,0,3.643-1.63Z" transform="translate(-220.446 -194.762)"/></g><g transform="translate(2.74 42.892)"><path class="g" d="M239.358,235.774l-3.723,9.134-11.281-11.536-3.212,3.687s11.02,18.313,11.092,17.487L236,246.712l5.4,5.468-.41-13.7Z" transform="translate(-221.142 -233.372)"/><path class="m" d="M241.944,249c-.144-2.259-.225-4.539-.473-6.79-.008-.08-.134-.116-.153-.022-.458,2.181.137,10.819.123,12.89l-.024-.024c-.225-.236-5.007-4.812-5.054-4.739-.816,1.243-3.58,6.949-3.769,7.468-1.743-2.909-8.424-13.485-10.488-16.237a.078.078,0,0,0-.135.079c1.538,3.071,10.378,17.312,10.515,17.273a88.378,88.378,0,0,0,3.939-8.283c.809,1,5.633,6.158,5.651,5.822A71.032,71.032,0,0,0,241.944,249Z" transform="translate(-221.504 -236.975)"/></g></g><g transform="translate(17.674 96.353)"><g transform="translate(8.175)"><path class="o" d="M251.4,374.373l-55.682,5.512-.177-43.168,55.682-5.512Z" transform="translate(-195.491 -330.142)"/><path class="o" d="M213.676,329.3l-18.223,1.8.048,4.77,19.5-1.931Z" transform="translate(-195.453 -329.299)"/><g class="p"><path d="M251.4,374.373l-55.682,5.512-.177-43.168,55.682-5.512Z" transform="translate(-195.491 -330.142)"/><path d="M213.676,329.3l-18.223,1.8.048,4.77,19.5-1.931Z" transform="translate(-195.453 -329.299)"/></g></g><path class="e" d="M246.942,374.691l-53.7,5.316-7.683-43.285,57.241-4.807Z" transform="translate(-182.898 -330.457)"/><path class="c" d="M245.42,375.4l-55.071,5.452-8.231-41.6L240,333.518Z" transform="translate(-181.375 -331.167)"/><path class="o" d="M244.729,376.353l-55.8,5.524-8.142-40.706,55.8-5.524Z" transform="translate(-180.785 -332.109)"/></g><g transform="translate(0 47.452)"><path class="q" d="M184.415,247.761c-19.032,17.268-32.765,47.036-32.345,55.056.557,10.6,19.753,28.712,32.252,33.956,3.163,1.328,15.391-24.553,10.764-25.9-4.881-1.422-16.17-11.658-16.72-12.122-1.174-.991,7.922-23.635,11.729-37.381C194.394,245.849,192.426,240.493,184.415,247.761Z" transform="translate(-150.395 -242.886)"/><g transform="translate(26.86 67.055)"><path class="f" d="M197.267,384.746c12.1,8.741,28.563,10.635,31.4,10.346,2.42-.237,3.666-.383,3.666-.383,4.35-.342,5.913-2.4,5.913-2.4s5.147,1.085,6.319-1.917c1.324-3.363-6.163-4.228-9.989-7.222-8.767-6.86-19.31-19.063-21.642-21.292Z" transform="translate(-197.267 -361.873)"/><path class="m" d="M238.494,398.743a71.529,71.529,0,0,0,8.016,5.571,71.869,71.869,0,0,0,9.839,4.189.087.087,0,0,1-.049.167,37.948,37.948,0,0,1-17.986-9.707C238.2,398.852,238.363,398.645,238.494,398.743Z" transform="translate(-215.421 -378.184)"/><path class="m" d="M229.671,407.156c2.656,1.773,7.344,4.859,16.935,7.484.031.008.027.064-.009.06a34.042,34.042,0,0,1-17.1-7.271C229.345,407.3,229.494,407.038,229.671,407.156Z" transform="translate(-211.508 -381.906)"/><path class="f" d="M236.987,374.231c-.788-1.346-.087-1.768,2.492-.753,2.612,1.02,11.928,7.219,13.816,3.775s-11.426-12.008-15.85-13.369-12.06-2.011-12.06-2.011C227.643,364.059,232.612,369.884,236.987,374.231Z" transform="translate(-209.715 -361.873)"/></g><path class="g" d="M176.37,333.431l15.162-25.455s-14.19-9.95-14.258-10.946,9.972-28.42,13.006-41.918,1.53-19.937-11.754-4.888-30.323,40.365-29.419,51.215S176.37,333.431,176.37,333.431Z" transform="translate(-149.072 -241.555)"/><path class="m" d="M210.188,285.264c-.551.967-1.14,1.911-1.64,2.906l-.487.971c.124-.39.251-.778.376-1.168.779-2.446,1.532-4.9,2.188-7.387.016-.06-.079-.1-.1-.041-1.753,4.212-3.2,8.556-4.637,12.884q-2.172,6.539-4.1,13.155c-.723,2.462-1.471,4.933-2.038,7.437-.013.056.065.071.085.021.834-2.144,1.544-4.345,2.269-6.528s1.456-4.363,2.166-6.551q1.7-5.231,3.366-10.47a11.73,11.73,0,0,0,1.217-2.1c.514-1.013.931-2.069,1.388-3.108A.024.024,0,0,0,210.188,285.264Z" transform="translate(-171.501 -258.803)"/><path class="m" d="M166.608,377.137c1.758,1.5,3.406,3.1,5.041,4.714.811.814,1.621,1.628,2.416,2.457s1.583,1.666,2.369,2.511a48.783,48.783,0,0,1-5.179-4.573A63.622,63.622,0,0,1,166.608,377.137Z" transform="translate(-156.835 -301.575)"/></g></g><g transform="translate(92.415)"><path class="c" d="M184.516,50.462v94.175a1.731,1.731,0,0,0,1.731,1.732h58.139c6.676,0,9.46-7.444,9.46-16.625V50.462a1.732,1.732,0,0,0-1.732-1.732H186.247A1.731,1.731,0,0,0,184.516,50.462Z" transform="translate(-184.516 -48.73)"/><path class="r" d="M222.71,135.172s12.652-2.7,20.946-20.5,8.158-28.187,8.158-28.187.485,41.51-.267,47.044c-.372,2.732-1.983,8.9-6.4,10.515-3.618,1.323-11.733-1.963-11.733-1.963Z" transform="translate(-182.344 -46.856)"/><g transform="translate(43.198 23.463)"><path class="b" d="M245.014,72.133H225.933a.525.525,0,0,1,0-1.05h19.081a.525.525,0,0,1,0,1.05Z" transform="translate(-225.408 -71.083)"/></g><g transform="translate(43.198 28.602)"><path class="b" d="M245.014,77.029H225.933a.525.525,0,0,1,0-1.05h19.081a.525.525,0,0,1,0,1.05Z" transform="translate(-225.408 -75.979)"/></g><g transform="translate(19.022 39.1)"><path class="b" d="M234.425,87.031H202.9a.525.525,0,1,1,0-1.05h31.525a.525.525,0,0,1,0,1.05Z" transform="translate(-202.375 -85.981)"/></g><g transform="translate(6.266 45.56)"><path class="b" d="M246.331,93.185H190.748a.525.525,0,0,1,0-1.05h55.583a.525.525,0,1,1,0,1.05Z" transform="translate(-190.223 -92.135)"/></g><g transform="translate(6.266 51.47)"><path class="b" d="M246.331,98.816H190.748a.525.525,0,0,1,0-1.05h55.583a.525.525,0,1,1,0,1.05Z" transform="translate(-190.223 -97.766)"/></g><g transform="translate(6.266 57.38)"><path class="b" d="M246.331,104.446H190.748a.525.525,0,0,1,0-1.05h55.583a.525.525,0,1,1,0,1.05Z" transform="translate(-190.223 -103.396)"/></g><g transform="translate(6.266 63.29)"><path class="b" d="M246.331,110.077H190.748a.525.525,0,0,1,0-1.05h55.583a.525.525,0,1,1,0,1.05Z" transform="translate(-190.223 -109.027)"/></g><g transform="translate(39 68.439)"><path class="s" d="M227.611,127.728a.525.525,0,0,1-.394-.177c-1-1.14-1.014-3.6-.579-5.532a9.49,9.49,0,0,1,.378-1.273c-.293-2.291-.822-4.492-1.577-5.407a.792.792,0,0,0-.585-.357,1.334,1.334,0,0,0-.973.634c-1.315,1.75-1.7,6.323-1.238,8.269a.525.525,0,0,1-1.021.24c-.512-2.172-.133-7.075,1.42-9.14a2.338,2.338,0,0,1,1.759-1.052,1.735,1.735,0,0,1,1.446.738,10.66,10.66,0,0,1,1.609,4.53,2.377,2.377,0,0,1,.883-.7,2.181,2.181,0,0,1,2.264.36c.027-.146.058-.288.091-.424.34-1.4.963-2.28,1.8-2.551a1.94,1.94,0,0,1,1.886.365,4.98,4.98,0,0,1,1.358,2.107c.289-1.786.837-3.286,1.8-3.71.867-.384,1.844.1,2.9,1.446a6.682,6.682,0,0,1,.9,2.06c.284.894.577,1.821,1.087,1.965.332.076,1.345-1.224,1.732-1.717a6.269,6.269,0,0,1,1.562-1.625.526.526,0,0,1,.766.418l.078.866a.526.526,0,0,1-.477.57.539.539,0,0,1-.523-.3c-.19.225-.392.481-.582.723-.952,1.212-1.847,2.361-2.842,2.078-1.054-.3-1.434-1.5-1.8-2.659a6.039,6.039,0,0,0-.733-1.731c-.684-.877-1.285-1.288-1.643-1.133-.907.4-1.352,3.253-1.432,5.955a18.689,18.689,0,0,1,.2,4.046.525.525,0,0,1-1.039.037,24.432,24.432,0,0,1-.214-4.077c-.305-1.916-.889-3.807-1.749-4.5a.894.894,0,0,0-.9-.184c-.463.151-.854.79-1.1,1.8a9.233,9.233,0,0,0-.2,1.151c1.179,1.671,1.85,4.477,1.03,6.284a.524.524,0,0,1-.85.152c-1-1.006-1.418-3.781-1.255-6.116-.058-.069-.119-.135-.178-.2a1.333,1.333,0,0,0-1.51-.493,2.579,2.579,0,0,0-1.055,1.388,23.19,23.19,0,0,1,.022,6.472.523.523,0,0,1-.385.384A.5.5,0,0,1,227.611,127.728Zm4.276-5.617a10.912,10.912,0,0,0,.375,2.236A6.749,6.749,0,0,0,231.888,122.112Z" transform="translate(-221.409 -113.933)"/></g><g transform="translate(5.925 67.455)"><path class="t" d="M192.378,130.308c-.471,0-1.144-.223-1.675-1.278-1.244-2.473-1.091-8.449.765-10.946a2.8,2.8,0,0,1,1.612-1.148c-.065-.475-.128-.925-.187-1.338-.111-.779-.208-1.466-.271-2.018a.525.525,0,0,1,1.043-.118c.062.545.157,1.221.267,1.989.066.465.136.961.207,1.482a4.72,4.72,0,0,1,2.458,2.179,2.467,2.467,0,0,1,2.18-1.666h.014c1.758.01,3.277,2.386,3.947,3.618a1.878,1.878,0,0,1,1.553-.737c1.821.107,3.11,2.256,3.836,4.311a3.216,3.216,0,0,1,1.161-1.654,2.057,2.057,0,0,1,2.27.063.525.525,0,1,1-.519.912c-.71-.4-1.063-.172-1.179-.1-.771.5-1.172,2.267-1.064,3.583,0,.033.006.065.008.1a.524.524,0,0,1-.474.566.53.53,0,0,1-.57-.47c0-.031-.006-.065-.009-.1-.208-2.111-1.7-6.06-3.522-6.166-.419-.018-.748.374-.964.765.744,1.675,1.453,4.023.686,5.137a1.311,1.311,0,0,1-1.3.547.521.521,0,0,1-.335-.176c-.974-1.118-.9-3.809-.2-5.512-.06-.126-.124-.252-.19-.378-1.017-1.947-2.277-3.258-3.134-3.263h-.006c-.785,0-1.251.939-1.509,1.767a15.374,15.374,0,0,1,1.376,3.756c.446,2.148.123,3.7-.91,4.386a.479.479,0,0,1-.3.086c-1.688-.041-1.669-4.519-1.661-5.029a13.487,13.487,0,0,1,.375-3.073,6.487,6.487,0,0,0-1.855-2.268c.551,4.479.863,10.062-1.582,12.07A.526.526,0,0,1,192.378,130.308Zm.84-12.321a1.885,1.885,0,0,0-.908.722c-1.586,2.136-1.753,7.694-.67,9.848a1.386,1.386,0,0,0,.574.668C194.1,127.364,193.726,122.042,193.218,117.987Zm3.7,3.995a11.484,11.484,0,0,0,.481,5.326c.439-.545.522-1.636.223-3.076A13.02,13.02,0,0,0,196.915,121.982Zm5.841,1.707a5.3,5.3,0,0,0,.218,3.084.206.206,0,0,0,.115-.089C203.361,126.29,203.253,125.127,202.756,123.689Z" transform="translate(-189.898 -112.995)"/></g><text class="u" transform="translate(35 14.04)"><tspan x="-21.004" y="0">CONTRACT</tspan></text><g transform="translate(12.978 21.276)"><g transform="translate(97.805)"><path class="l" d="M514.948,162.878c1.193-3.832,6.409-12.271,14.83-9.725,12.017,3.633,11.557,27.412,16.957,35.347,9.785,14.378,8.9,27.609-.358,28.861-10.373,1.4-19.218-10.421-16.615-33.949,1.627-14.712-1.911-21.637-4.891-21.475s-4.936,3.725-4.936,3.725Z" transform="translate(-514.239 -151.479)"/><path class="l" d="M515.933,160.491a23.826,23.826,0,0,1,2.945-4.956,14.1,14.1,0,0,1,4.407-3.831,9.614,9.614,0,0,1,5.818-1.1,12.438,12.438,0,0,1,5.542,2.116,13.981,13.981,0,0,1,3.926,4.422,25.729,25.729,0,0,1,2.263,5.38,51.664,51.664,0,0,1,1.783,11.38,76.165,76.165,0,0,0-2.589-11.123,27.4,27.4,0,0,0-2.337-5.109,13.162,13.162,0,0,0-3.672-4.066,11.58,11.58,0,0,0-5.055-1.986,8.977,8.977,0,0,0-5.3.842,14.385,14.385,0,0,0-4.386,3.421,23.275,23.275,0,0,0-1.792,2.21Q516.673,159.258,515.933,160.491Z" transform="translate(-514.675 -150.522)"/><path class="l" d="M540.471,193.239c-.095,2.35-.45,4.679-.716,7.009-.3,2.326-.589,4.651-.81,6.976s-.372,4.654-.355,6.976a35.344,35.344,0,0,0,.609,6.894,18.12,18.12,0,0,0,2.407,6.356,19.715,19.715,0,0,0,4.712,4.931,14.68,14.68,0,0,0,6.261,2.681,13.3,13.3,0,0,0,3.455.141,11.924,11.924,0,0,0,1.719-.28,6.168,6.168,0,0,0,1.645-.584,8.661,8.661,0,0,1-3.329,1.148,13.678,13.678,0,0,1-3.562.1,14.582,14.582,0,0,1-3.488-.84,15.8,15.8,0,0,1-3.186-1.674,18.593,18.593,0,0,1-2.769-2.3l-.623-.649-.594-.674a13.469,13.469,0,0,1-1.1-1.447,18.875,18.875,0,0,1-2.609-6.7,45.433,45.433,0,0,1-.03-14.173c.3-2.338.7-4.656,1.126-6.964C539.677,197.86,540.134,195.562,540.471,193.239Z" transform="translate(-524.25 -169.432)"/><path class="v" d="M513.677,168.808c-.031-1.1.763-2.52,1.476-2.717s6,2.074,6.453,3.43-1.9,2.553-1.9,2.553Z" transform="translate(-513.676 -157.409)"/></g><g transform="translate(0 43.138)"><path class="i" d="M454.438,251.238c-3.14,6.833-26.5,38.954-38.1,39.831-12.138.918-41.256-18.92-44.047-20.571-7.652-4.529,13.684-25.416,17.374-21.706,6.167,6.2,20.9,17.883,24.508,17.093,7.574-1.66,23.355-14.913,34.548-21.809C455.472,239.915,457.912,243.679,454.438,251.238Z" transform="translate(-352.553 -234.313)"/><path class="i" d="M359.752,265.176c-1.32-.877-11.938-6.777-15.922-12.466-2.11-3.013-6.976-11.949-5.3-13.462,1.526-1.381,3.463.74,3.463.74s-2.112-4.016.033-5.911,5.225,1.853,5.225,1.853-1.868-4.282.407-6.02,4.74,2.55,4.74,2.55-1.89-3.836.586-4.479c2.978-.774,5.664,6.692,8.551,9.563.656.652,14.232,12.269,14.232,12.269Z" transform="translate(-338.182 -227.927)"/><g transform="translate(3.819 4.364)"><path class="m" d="M363.757,235.924c1.988,5.485,3.806,7.541,8.344,11.063.089.069.006.216-.093.153-4.757-3.044-7.409-5.294-8.521-11.133C363.432,235.721,363.662,235.663,363.757,235.924Z" transform="translate(-353.2 -235.757)"/><path class="m" d="M354.526,242.142c2.562,5.517,4.515,7.764,9,11.8.064.057-.026.171-.1.118-4.727-3.594-7.322-5.9-9.158-11.748C354.185,242.05,354.409,241.889,354.526,242.142Z" transform="translate(-349.114 -238.527)"/><path class="m" d="M345.243,249.745c2.866,5.162,4.9,7.719,9.754,11.08a.109.109,0,0,1-.113.186c-5.282-2.947-7.845-6.118-9.789-11.162C344.963,249.505,345.063,249.421,345.243,249.745Z" transform="translate(-345.035 -241.859)"/></g><g transform="translate(22.116 3)"><path class="i" d="M397.926,250.52s-3.013-6.66-4.982-9.295-12.92-9.75-14.591-7.472c-2.158,2.941,3.355,8.294,6.4,10.563,0,0-5,6.8-1.873,11.5S397.926,250.52,397.926,250.52Z" transform="translate(-377.865 -233.31)"/><path class="m" d="M378.037,235.889c-.033,4.1,4.153,6.822,6.94,9.244a.338.338,0,0,1-.035.554c-1.9,2.989-3.72,7.761-2.279,11.214a.086.086,0,0,1-.152.079c-2.048-3.493-.646-8.327,1.649-11.468-2.9-2.439-6.975-5.352-6.163-9.625A.02.02,0,0,1,378.037,235.889Z" transform="translate(-377.877 -234.443)"/></g><g transform="translate(29.802 7.532)"><path class="w" d="M463.421,252.777c-3.638,7.251-24.848,38.182-36.3,38.674s-35.459-9.289-35.459-9.289l17.783-27.079s12.309,8.882,14.24,8.953,27.782-17.007,33.822-20.759S469.337,240.983,463.421,252.777Z" transform="translate(-391.657 -241.442)"/><g transform="translate(28.976 20.835)"><path class="c" d="M484.259,301.268a9.816,9.816,0,0,1,.064-2.473,9.658,9.658,0,0,1,.615-2.4,9.69,9.69,0,0,1-.063,2.473A9.8,9.8,0,0,1,484.259,301.268Z" transform="translate(-461.604 -286.606)"/><path class="c" d="M443.9,330.08a1.171,1.171,0,0,1-.106.128c-.045-.006-.095-.011-.145-.022C443.734,330.152,443.817,330.113,443.9,330.08Z" transform="translate(-443.65 -301.516)"/><path class="c" d="M494.106,278.827a9.811,9.811,0,0,1,1.7,1.793,9.683,9.683,0,0,1,1.26,2.129,9.683,9.683,0,0,1-1.7-1.793A9.789,9.789,0,0,1,494.106,278.827Z" transform="translate(-465.986 -278.827)"/></g><path class="m" d="M418.89,273.664c-2.24,4.048-4.4,8.138-6.814,12.085a130.589,130.589,0,0,1-7.622,11.428.077.077,0,0,1-.129-.082c2.141-4.04,4.585-7.939,6.965-11.843,2.4-3.935,4.957-7.767,7.349-11.7C418.729,273.4,418.978,273.505,418.89,273.664Z" transform="translate(-397.261 -255.623)"/></g></g><g transform="translate(75.204 51.929)"><path class="w" d="M478.347,325.582H545.6s-26.15-66.2-40.076-79.523c-3.786-3.621-13.136-3.353-17.719,2.754-3.756,5.006-14.182,24.938-14.658,32.107-.455,7.185,5.15,14.247,5.15,14.247Z" transform="translate(-473.122 -243.699)"/><g transform="translate(2.457 25.585)"><path class="c" d="M497.876,342.245a10.976,10.976,0,0,1,.678-4.869,9.67,9.67,0,0,1-.064,2.473A9.783,9.783,0,0,1,497.876,342.245Z" transform="translate(-486.513 -310.754)"/><path class="c" d="M516.742,294.476A9.79,9.79,0,0,1,516.8,292a9.689,9.689,0,0,1,.615-2.4,9.693,9.693,0,0,1-.063,2.473A9.823,9.823,0,0,1,516.742,294.476Z" transform="translate(-494.865 -289.607)"/><path class="c" d="M522.873,340.061A9.8,9.8,0,0,1,520.4,340a9.7,9.7,0,0,1-2.4-.615,9.7,9.7,0,0,1,2.473.063A9.8,9.8,0,0,1,522.873,340.061Z" transform="translate(-495.447 -311.618)"/><path class="c" d="M508.771,365.379a9.813,9.813,0,0,1,1.793-1.7,9.683,9.683,0,0,1,2.129-1.26,9.683,9.683,0,0,1-1.793,1.7A9.818,9.818,0,0,1,508.771,365.379Z" transform="translate(-491.36 -321.838)"/><path class="c" d="M494.434,316.066a9.79,9.79,0,0,1,1.793-1.7,9.684,9.684,0,0,1,2.13-1.26,9.7,9.7,0,0,1-1.793,1.7A9.808,9.808,0,0,1,494.434,316.066Z" transform="translate(-485.013 -300.008)"/><path class="c" d="M484.207,353.56a9.7,9.7,0,0,1-1.767,1.683v-.68A8.725,8.725,0,0,1,484.207,353.56Z" transform="translate(-479.704 -317.918)"/><path class="c" d="M477.53,324.514a9.8,9.8,0,0,1,1.7,1.794,9.668,9.668,0,0,1,1.26,2.129,9.7,9.7,0,0,1-1.7-1.793A9.8,9.8,0,0,1,477.53,324.514Z" transform="translate(-477.53 -305.06)"/><path class="c" d="M527.363,313.558a11,11,0,0,1,2.964,3.922,10.984,10.984,0,0,1-2.964-3.922Z" transform="translate(-499.59 -300.21)"/></g></g><g transform="translate(79.694 10.689)"><g transform="translate(11.401 26.449)"><path class="i" d="M513.679,234.952c-.373.993-6.123,7.005-10.775,6.178-1.515-.272-.4-8.605-.4-8.605l-.058-.634-.809-8.875,10.975-5.185,1.576-.67s.061,2.443.107,5.485c0,.142.006.283.007.434.007.172.016.334.015.495.013.455.023.918.025,1.381,0,.352.007.694,0,1.064s-.011.731-.012,1.1A57.385,57.385,0,0,1,513.679,234.952Z" transform="translate(-501.637 -217.16)"/><path class="x" d="M514.3,222.645a17.876,17.876,0,0,1-11.849,9.246l-.809-8.875,10.975-5.185,1.576-.67S514.25,219.6,514.3,222.645Z" transform="translate(-501.637 -217.16)"/></g><path class="i" d="M481.293,189.68c-1.241,15.591,7.958,18.1,11.321,18.359,3.052.239,13.476.667,16.321-14.713s-4.012-20.886-10.964-21.8S482.534,174.088,481.293,189.68Z" transform="translate(-481.179 -170.448)"/><g transform="translate(0.746)"><path class="l" d="M508.833,194.133a6.413,6.413,0,0,1-3.566-5.239,16.74,16.74,0,0,1-6.8-5.521c.1.321.845,2.64,1.261,3.81-9.863-1.889-12.884-9.458-12.884-9.458a16.975,16.975,0,0,0-4.332,6.239s-.045-6.057,3.088-10.1c3.833-4.948,16.708-6.23,22.635.273C514.62,181.155,508.833,194.133,508.833,194.133Z" transform="translate(-482.517 -169.701)"/><path class="l" d="M495.4,190.627a18.2,18.2,0,0,0,5.055,1.883c.014,0,.018-.018,0-.022a15.477,15.477,0,0,1-7.227-4.414,14.671,14.671,0,0,1-2.117-2.987,10.149,10.149,0,0,1-1.295-3.77.077.077,0,0,0-.153.012,11.876,11.876,0,0,0,.766,3.894,10.855,10.855,0,0,0,2.178,3.278,12.468,12.468,0,0,0,2.787,2.126" transform="translate(-485.685 -174.813)"/></g><g transform="translate(24.345 19.985)"><path class="i" d="M525.7,209.454s3.378-4.906,5.6-3.7-.292,8.3-2.886,9.283a2.646,2.646,0,0,1-3.555-1.4Z" transform="translate(-524.862 -205.56)"/></g></g><path class="i" d="M493.393,249.315s-3.192,9.059,2.578,9.7,20.835-10.5,20.835-10.5-4.183-6.77-10.86-6.047C500.4,243.072,493.393,249.315,493.393,249.315Z" transform="translate(-406.502 -191.203)"/><g transform="translate(3.043 59.883)"><g transform="translate(0 0.77)"><path class="i" d="M488.882,267.421c-.011,11.193-6.431,44.747-12.606,49.266-12.357,9.045-41.333,8.422-49.324,8.56-3.449.06-7.98-22.908-5.41-25.553s37.872-3.619,39.678-4.974c1.256-.942,11.22-17.276,16.989-27.778C486.007,252.749,488.888,261.784,488.882,267.421Z" transform="translate(-377.793 -259.355)"/><g transform="translate(0 37.434)"><path class="i" d="M393.54,328.207s-10.43-1.154-17.286-1.587c-3.825-.242-10.42-.072-13.311,1.035-4.325,1.657-21.355,11.348-19.094,15.527,2.046,3.784,7.249-.4,7.249-.4s-6.116,4.04-2.933,7.169c3.212,3.157,9.458-2.955,9.458-2.955s-6.79,3.839-3.074,6.854c3.226,2.618,11.184-3.638,11.184-3.638s-7.571,3.247-4.528,6.254c3.362,3.321,16.472-4.56,16.472-4.56,8.532,2.843,14.039,3.4,20.566,2.984C399.442,354.814,393.54,328.207,393.54,328.207Z" transform="translate(-343.643 -326.524)"/><g transform="translate(6.173 8.51)"><path class="m" d="M364.311,359.335c.511-.459,1.034-.905,1.546-1.363a33.663,33.663,0,0,1,3.1-2.542c1.068-.749,2.165-1.446,3.286-2.113,1.184-.7,2.447-1.291,3.611-2.024a.077.077,0,1,1,.078.132,35.644,35.644,0,0,0-3.348,2.331c-1.078.784-2.147,1.583-3.215,2.382-1.044.782-2.133,1.486-3.2,2.237-.531.375-1.046.772-1.559,1.169a10.862,10.862,0,0,1-1.49,1.1c-.053.028-.1-.045-.069-.088A8.445,8.445,0,0,1,364.311,359.335Z" transform="translate(-358.404 -345.992)"/><path class="m" d="M354.744,350.407a53.594,53.594,0,0,1,5.644-4.847,37.4,37.4,0,0,1,6.438-3.76.077.077,0,0,1,.077.132c-2.012,1.468-4.049,2.909-6.082,4.35-.994.7-5.411,4.04-5.917,4.332C354.783,350.683,354.668,350.507,354.744,350.407Z" transform="translate(-354.72 -341.793)"/><path class="m" d="M375.012,367.894a52.766,52.766,0,0,1,5.39-4.461,48,48,0,0,1,6.414-3.18c.082-.026.153.087.077.132-2.048,1.218-4.111,2.4-6.1,3.712-.969.641-4.684,3.419-5.663,3.95C375.042,368.1,374.949,367.968,375.012,367.894Z" transform="translate(-363.694 -349.963)"/></g></g></g><g transform="translate(46.955)"><path class="w" d="M438.216,326.324l-9.531-30.284s34.682-2.217,35.806-2.8,13.487-22.42,18.375-30.91,12.461-5,9.637,14.169c-2.842,19.28-5.96,34.261-10.28,38.718C476.981,320.624,457.808,326.195,438.216,326.324Z" transform="translate(-428.245 -257.972)"/><path class="m" d="M495.749,288.755c-1.13,1.693-2.175,3.44-3.221,5.185l-.087.146c.052-.132.1-.264.157-.4.34-.867.64-1.753,1.009-2.607.022-.051-.053-.093-.076-.042-.376.842-.794,1.66-1.151,2.511-.241.572-.459,1.153-.661,1.739-.776,1.293-1.552,2.586-2.313,3.888-1.027,1.754-2.046,3.513-3.08,5.263-.253.428-.5.859-.759,1.285a1.692,1.692,0,0,1-.9.833,7.192,7.192,0,0,1-1.422.188c-.508.053-1.014.115-1.52.177-2.308.28-4.6.661-6.9.962-.055.007-.055.091,0,.087,2.121-.158,4.245-.239,6.365-.411,1.043-.085,2.093-.158,3.132-.291a2.087,2.087,0,0,0,1.09-.391,3.138,3.138,0,0,0,.7-.918q3.15-5.452,6.3-10.907c1.185-2.061,2.39-4.114,3.483-6.227A.076.076,0,0,0,495.749,288.755Z" transform="translate(-448.65 -271.583)"/><path class="m" d="M516.207,300.789a11.763,11.763,0,0,1-.5,2.048c-.164.6-.326,1.194-.508,1.785-.207.67-.436,1.333-.669,1.994q.7-4.425,1.116-8.894c.008-.09-.147-.108-.159-.018-.557,4.16-1.325,8.307-2.2,12.412s-1.937,8.2-3.134,12.229c-.589,1.983-1.212,3.962-1.907,5.911a16.162,16.162,0,0,1-2.429,4.754,12.241,12.241,0,0,1-4.621,3.271,53.073,53.073,0,0,1-5.674,2.224c-4.388,1.436-8.926,2.349-13.409,3.43-.047.011-.035.093.014.085a101.05,101.05,0,0,0,12.225-2.474,50.7,50.7,0,0,0,5.995-2,16.987,16.987,0,0,0,5.078-2.885,12.743,12.743,0,0,0,2.987-4.612c.752-1.824,1.343-3.719,1.928-5.6,1.278-4.112,2.352-8.262,3.225-12.478q.379-1.834.7-3.674a23.565,23.565,0,0,0,1.214-3.6c.17-.64.333-1.283.458-1.934s.171-1.33.352-1.959C516.31,300.741,516.213,300.724,516.207,300.789Z" transform="translate(-451.888 -275.535)"/><path class="m" d="M450.1,355.239c-1.573-4.351-3.232-8.667-4.612-13.085a130.781,130.781,0,0,1-3.585-13.26.078.078,0,0,1,.147-.043c1.632,4.272,2.958,8.677,4.33,13.039,1.383,4.4,2.584,8.843,3.974,13.237C450.408,355.294,450.164,355.409,450.1,355.239Z" transform="translate(-434.097 -289.329)"/><path class="m" d="M438.055,324.983a24.767,24.767,0,0,0-2.491.008c-.83.021-1.66.054-2.489.09-1.659.071-3.317.194-4.971.336a.211.211,0,0,0-.2.269,7.124,7.124,0,0,0,.849,1.732c.024.031.084.023.08-.024a5.837,5.837,0,0,0-.434-1.579c1.583-.1,3.168-.2,4.751-.322.828-.064,1.658-.117,2.486-.182.807-.063,1.633-.089,2.432-.217C438.141,325.083,438.114,324.987,438.055,324.983Z" transform="translate(-427.896 -287.624)"/><path class="m" d="M438.055,324.983a24.767,24.767,0,0,0-2.491.008c-.83.021-2.212.165-3.041.2-1.716.166-3.427.257-5.082.4-.124.011-1.8.392.963.224,1.583-.1,3.168-.2,4.751-.322.828-.064,1.658-.117,2.486-.182.807-.063,1.633-.089,2.432-.217C438.141,325.083,438.114,324.987,438.055,324.983Z" transform="translate(-411.896 -288.624)"/></g></g><g transform="translate(13.697 90.753)"><path class="f" d="M378.957,313.362c2.067,1.025,11.514,1.416,14.271,4.8,1.833,2.252,1.652,4.53,2.72,11.26.927,5.838-3.915,4.448-5.3,1.461-2.184-4.7-4.063-9.85-4.063-9.85a37.046,37.046,0,0,0-4.835.074Z" transform="translate(-369.93 -313.362)"/><g transform="translate(0 21.865)"><path class="f" d="M390.354,352.816c3.27-2.074,13.734,11.131,8.506,14.631S386.65,355.164,390.354,352.816Z" transform="translate(-374.514 -352.596)"/><path class="f" d="M380.84,357.863c3.27-2.073,13.734,11.131,8.506,14.631S377.137,360.212,380.84,357.863Z" transform="translate(-370.303 -354.83)"/><path class="f" d="M373.813,358.884c3.261-1.43,10.932,12.03,5.692,14.481S370.12,360.5,373.813,358.884Z" transform="translate(-367.028 -355.333)"/><path class="f" d="M365.7,358.3c3.43-.408,6.759,14.248,1.2,15.049S361.818,358.757,365.7,358.3Z" transform="translate(-362.759 -355.115)"/><path class="m" d="M389.751,361.175a16.218,16.218,0,0,1,1.626,2.125c.543.785,1.078,1.581,1.543,2.415a22.881,22.881,0,0,1,1.227,2.463c.367.9.628,1.855,1.02,2.741a.077.077,0,1,1-.142.058,19.862,19.862,0,0,0-1.331-2.5c-.459-.807-.879-1.637-1.33-2.449-.439-.791-.858-1.594-1.31-2.378-.463-.8-.992-1.571-1.408-2.4A.066.066,0,0,1,389.751,361.175Z" transform="translate(-374.659 -356.385)"/><path class="m" d="M379.939,361.013c.339.993,1.46,4.782,1.841,5.762s.8,1.966,1.224,2.934c.436.983.819,2.024,1.342,2.963a.077.077,0,0,1-.134.076c-.527-.947-1.135-1.832-1.617-2.807s-.9-1.943-1.281-2.947a50.668,50.668,0,0,1-1.535-5.96C379.767,360.938,379.911,360.932,379.939,361.013Z" transform="translate(-370.293 -356.297)"/><path class="m" d="M372.551,362.7c.261,1.415.433,2.846.7,4.261.132.7.268,1.395.4,2.094.062.338.117.678.178,1.016a6.053,6.053,0,0,0,.218,1.158c.038.094-.137.14-.152.02a8.447,8.447,0,0,0-.4-1.242c-.1-.328-.193-.657-.276-.99-.173-.691-.309-1.384-.421-2.087a27.928,27.928,0,0,1-.435-4.205C372.361,362.616,372.531,362.589,372.551,362.7Z" transform="translate(-367.01 -357.037)"/></g></g></g></g></g></g></g></svg>