<svg id="Layer_1" data-name="Layer 1" xmlns="http://www.w3.org/2000/svg" xmlns:xlink="http://www.w3.org/1999/xlink" viewBox="0 0 585.001 429.999"><defs><style>.cls-1{fill:none;}.cls-2{fill:#aaaaed;}.cls-3{fill:#dde7fe;}.cls-4{fill:#f2f6ff;}.cls-5{fill:#e6e6e6;}.cls-6{fill:#dde7ff;}.cls-7{fill:#6c6c7c;opacity:0.15;}.cls-14,.cls-18,.cls-30,.cls-33,.cls-7{isolation:isolate;}.cls-8{fill:#1ba709;}.cls-11,.cls-12,.cls-9{fill:#1aa721;}.cls-10{fill:#fff;}.cls-11,.cls-12{stroke:#1aa721;}.cls-11{stroke-width:3px;}.cls-12{stroke-width:2px;}.cls-13{fill:#562c0c;}.cls-14,.cls-15{fill:#371d04;}.cls-14{opacity:0.3;}.cls-16{fill:#814c28;}.cls-17{fill:#793c13;}.cls-18{opacity:0.2;}.cls-19{fill:#f27c23;}.cls-20{fill:#e4a400;}.cls-21{fill:#ffec30;}.cls-22{fill:#ffd400;}.cls-23{fill:#fb0;}.cls-24{fill:#f88f00;}.cls-25{fill:#f37f00;}.cls-26{opacity:0.231;}.cls-27{clip-path:url(#clip-path);}.cls-28{opacity:0.127;}.cls-29{fill:#4c2709;}.cls-31,.cls-33{fill:#f37f24;}.cls-32{clip-path:url(#clip-path-2);}.cls-33{font-size:32px;font-family:KeaniaOne-Regular, Keania One;letter-spacing:0.05em;}</style><clipPath id="clip-path"><polygon class="cls-1" points="112.362 218.193 194.02 222.193 200.496 148.9 115.989 144.126 112.363 190.793 112.362 218.193"/></clipPath><clipPath id="clip-path-2"><polygon class="cls-1" points="465.67 218.155 534.859 210.878 534.859 163.394 477.015 163.394 464.023 184.411 465.67 218.155"/></clipPath></defs><g id="Group_3221" data-name="Group 3221"><g id="Group_3063" data-name="Group 3063"><ellipse id="Ellipse_9" data-name="Ellipse 9" class="cls-2" cx="38.5" cy="91" rx="4.5" ry="4"/><ellipse id="Ellipse_231" data-name="Ellipse 231" class="cls-2" cx="4.5" cy="91" rx="4.5" ry="4"/><circle id="Ellipse_120" data-name="Ellipse 120" class="cls-2" cx="38.5" cy="134.5" r="4.5"/><circle id="Ellipse_239" data-name="Ellipse 239" class="cls-2" cx="4.5" cy="134.5" r="4.5"/><circle id="Ellipse_205" data-name="Ellipse 205" class="cls-2" cx="38.5" cy="177.5" r="4.5"/><circle id="Ellipse_241" data-name="Ellipse 241" class="cls-2" cx="4.5" cy="177.5" r="4.5"/><ellipse id="Ellipse_65" data-name="Ellipse 65" class="cls-2" cx="174.5" cy="91" rx="4.5" ry="4"/><circle id="Ellipse_124" data-name="Ellipse 124" class="cls-2" cx="174.5" cy="134.5" r="4.5"/><circle id="Ellipse_213" data-name="Ellipse 213" class="cls-2" cx="174.5" cy="177.5" r="4.5"/><ellipse id="Ellipse_37" data-name="Ellipse 37" class="cls-2" cx="106.5" cy="91" rx="4.5" ry="4"/><circle id="Ellipse_121" data-name="Ellipse 121" class="cls-2" cx="106.5" cy="134.5" r="4.5"/><circle id="Ellipse_207" data-name="Ellipse 207" class="cls-2" cx="106.5" cy="177.5" r="4.5"/><circle id="Ellipse_66" data-name="Ellipse 66" class="cls-2" cx="242" cy="91" r="4"/><ellipse id="Ellipse_125" data-name="Ellipse 125" class="cls-2" cx="242" cy="134.5" rx="4" ry="4.5"/><ellipse id="Ellipse_217" data-name="Ellipse 217" class="cls-2" cx="242" cy="177.5" rx="4" ry="4.5"/><ellipse id="Ellipse_23" data-name="Ellipse 23" class="cls-2" cx="72.5" cy="91" rx="4.5" ry="4"/><circle id="Ellipse_122" data-name="Ellipse 122" class="cls-2" cx="72.5" cy="134.5" r="4.5"/><circle id="Ellipse_206" data-name="Ellipse 206" class="cls-2" cx="72.5" cy="177.5" r="4.5"/><ellipse id="Ellipse_67" data-name="Ellipse 67" class="cls-2" cx="208.5" cy="91" rx="4.5" ry="4"/><circle id="Ellipse_126" data-name="Ellipse 126" class="cls-2" cx="208.5" cy="134.5" r="4.5"/><circle id="Ellipse_215" data-name="Ellipse 215" class="cls-2" cx="208.5" cy="177.5" r="4.5"/><ellipse id="Ellipse_38" data-name="Ellipse 38" class="cls-2" cx="140.5" cy="91" rx="4.5" ry="4"/><circle id="Ellipse_123" data-name="Ellipse 123" class="cls-2" cx="140.5" cy="134.5" r="4.5"/><circle id="Ellipse_211" data-name="Ellipse 211" class="cls-2" cx="140.5" cy="177.5" r="4.5"/><circle id="Ellipse_68" data-name="Ellipse 68" class="cls-2" cx="276" cy="91" r="4"/><ellipse id="Ellipse_134" data-name="Ellipse 134" class="cls-2" cx="276" cy="134.5" rx="4" ry="4.5"/><ellipse id="Ellipse_219" data-name="Ellipse 219" class="cls-2" cx="276" cy="177.5" rx="4" ry="4.5"/><circle id="Ellipse_15" data-name="Ellipse 15" class="cls-2" cx="38.5" cy="4.5" r="4.5"/><circle id="Ellipse_232" data-name="Ellipse 232" class="cls-2" cx="4.5" cy="4.5" r="4.5"/><circle id="Ellipse_43" data-name="Ellipse 43" class="cls-2" cx="174.5" cy="4.5" r="4.5"/><circle id="Ellipse_27" data-name="Ellipse 27" class="cls-2" cx="106.5" cy="4.5" r="4.5"/><ellipse id="Ellipse_51" data-name="Ellipse 51" class="cls-2" cx="242" cy="4.5" rx="4" ry="4.5"/><circle id="Ellipse_19" data-name="Ellipse 19" class="cls-2" cx="72.5" cy="4.5" r="4.5"/><circle id="Ellipse_44" data-name="Ellipse 44" class="cls-2" cx="208.5" cy="4.5" r="4.5"/><circle id="Ellipse_28" data-name="Ellipse 28" class="cls-2" cx="140.5" cy="4.5" r="4.5"/><ellipse id="Ellipse_59" data-name="Ellipse 59" class="cls-2" cx="276" cy="4.5" rx="4" ry="4.5"/><ellipse id="Ellipse_12" data-name="Ellipse 12" class="cls-2" cx="38.5" cy="48" rx="4.5" ry="4"/><ellipse id="Ellipse_233" data-name="Ellipse 233" class="cls-2" cx="4.5" cy="48" rx="4.5" ry="4"/><ellipse id="Ellipse_45" data-name="Ellipse 45" class="cls-2" cx="174.5" cy="48" rx="4.5" ry="4"/><ellipse id="Ellipse_33" data-name="Ellipse 33" class="cls-2" cx="106.5" cy="48" rx="4.5" ry="4"/><circle id="Ellipse_52" data-name="Ellipse 52" class="cls-2" cx="242" cy="48" r="4"/><ellipse id="Ellipse_21" data-name="Ellipse 21" class="cls-2" cx="72.5" cy="48" rx="4.5" ry="4"/><ellipse id="Ellipse_46" data-name="Ellipse 46" class="cls-2" cx="208.5" cy="48" rx="4.5" ry="4"/><ellipse id="Ellipse_34" data-name="Ellipse 34" class="cls-2" cx="140.5" cy="48" rx="4.5" ry="4"/><circle id="Ellipse_60" data-name="Ellipse 60" class="cls-2" cx="276" cy="48" r="4"/><circle id="Ellipse_10" data-name="Ellipse 10" class="cls-2" cx="38.5" cy="113.5" r="4.5"/><circle id="Ellipse_235" data-name="Ellipse 235" class="cls-2" cx="4.5" cy="113.5" r="4.5"/><circle id="Ellipse_127" data-name="Ellipse 127" class="cls-2" cx="38.5" cy="156.5" r="4.5"/><circle id="Ellipse_240" data-name="Ellipse 240" class="cls-2" cx="4.5" cy="156.5" r="4.5"/><ellipse id="Ellipse_208" data-name="Ellipse 208" class="cls-2" cx="38.5" cy="200" rx="4.5" ry="4"/><ellipse id="Ellipse_242" data-name="Ellipse 242" class="cls-2" cx="4.5" cy="200" rx="4.5" ry="4"/><circle id="Ellipse_69" data-name="Ellipse 69" class="cls-2" cx="174.5" cy="113.5" r="4.5"/><circle id="Ellipse_128" data-name="Ellipse 128" class="cls-2" cx="174.5" cy="156.5" r="4.5"/><ellipse id="Ellipse_214" data-name="Ellipse 214" class="cls-2" cx="174.5" cy="200" rx="4.5" ry="4"/><circle id="Ellipse_39" data-name="Ellipse 39" class="cls-2" cx="106.5" cy="113.5" r="4.5"/><circle id="Ellipse_129" data-name="Ellipse 129" class="cls-2" cx="106.5" cy="156.5" r="4.5"/><ellipse id="Ellipse_209" data-name="Ellipse 209" class="cls-2" cx="106.5" cy="200" rx="4.5" ry="4"/><ellipse id="Ellipse_70" data-name="Ellipse 70" class="cls-2" cx="242" cy="113.5" rx="4" ry="4.5"/><ellipse id="Ellipse_130" data-name="Ellipse 130" class="cls-2" cx="242" cy="156.5" rx="4" ry="4.5"/><circle id="Ellipse_218" data-name="Ellipse 218" class="cls-2" cx="242" cy="200" r="4"/><circle id="Ellipse_24" data-name="Ellipse 24" class="cls-2" cx="72.5" cy="113.5" r="4.5"/><circle id="Ellipse_131" data-name="Ellipse 131" class="cls-2" cx="72.5" cy="156.5" r="4.5"/><ellipse id="Ellipse_210" data-name="Ellipse 210" class="cls-2" cx="72.5" cy="200" rx="4.5" ry="4"/><circle id="Ellipse_71" data-name="Ellipse 71" class="cls-2" cx="208.5" cy="113.5" r="4.5"/><circle id="Ellipse_132" data-name="Ellipse 132" class="cls-2" cx="208.5" cy="156.5" r="4.5"/><ellipse id="Ellipse_216" data-name="Ellipse 216" class="cls-2" cx="208.5" cy="200" rx="4.5" ry="4"/><circle id="Ellipse_40" data-name="Ellipse 40" class="cls-2" cx="140.5" cy="113.5" r="4.5"/><circle id="Ellipse_133" data-name="Ellipse 133" class="cls-2" cx="140.5" cy="156.5" r="4.5"/><ellipse id="Ellipse_212" data-name="Ellipse 212" class="cls-2" cx="140.5" cy="200" rx="4.5" ry="4"/><ellipse id="Ellipse_72" data-name="Ellipse 72" class="cls-2" cx="276" cy="113.5" rx="4" ry="4.5"/><ellipse id="Ellipse_135" data-name="Ellipse 135" class="cls-2" cx="276" cy="156.5" rx="4" ry="4.5"/><circle id="Ellipse_220" data-name="Ellipse 220" class="cls-2" cx="276" cy="200" r="4"/><circle id="Ellipse_16" data-name="Ellipse 16" class="cls-2" cx="38.5" cy="26.5" r="4.5"/><circle id="Ellipse_236" data-name="Ellipse 236" class="cls-2" cx="4.5" cy="26.5" r="4.5"/><circle id="Ellipse_48" data-name="Ellipse 48" class="cls-2" cx="174.5" cy="26.5" r="4.5"/><circle id="Ellipse_31" data-name="Ellipse 31" class="cls-2" cx="106.5" cy="26.5" r="4.5"/><ellipse id="Ellipse_54" data-name="Ellipse 54" class="cls-2" cx="242" cy="26.5" rx="4" ry="4.5"/><circle id="Ellipse_20" data-name="Ellipse 20" class="cls-2" cx="72.5" cy="26.5" r="4.5"/><circle id="Ellipse_49" data-name="Ellipse 49" class="cls-2" cx="208.5" cy="26.5" r="4.5"/><circle id="Ellipse_32" data-name="Ellipse 32" class="cls-2" cx="140.5" cy="26.5" r="4.5"/><ellipse id="Ellipse_62" data-name="Ellipse 62" class="cls-2" cx="276" cy="26.5" rx="4" ry="4.5"/><circle id="Ellipse_11" data-name="Ellipse 11" class="cls-2" cx="38.5" cy="69.5" r="4.5"/><circle id="Ellipse_237" data-name="Ellipse 237" class="cls-2" cx="4.5" cy="69.5" r="4.5"/><circle id="Ellipse_56" data-name="Ellipse 56" class="cls-2" cx="174.5" cy="69.5" r="4.5"/><circle id="Ellipse_35" data-name="Ellipse 35" class="cls-2" cx="106.5" cy="69.5" r="4.5"/><ellipse id="Ellipse_57" data-name="Ellipse 57" class="cls-2" cx="242" cy="69.5" rx="4" ry="4.5"/><circle id="Ellipse_22" data-name="Ellipse 22" class="cls-2" cx="72.5" cy="69.5" r="4.5"/><circle id="Ellipse_58" data-name="Ellipse 58" class="cls-2" cx="208.5" cy="69.5" r="4.5"/><circle id="Ellipse_36" data-name="Ellipse 36" class="cls-2" cx="140.5" cy="69.5" r="4.5"/><ellipse id="Ellipse_63" data-name="Ellipse 63" class="cls-2" cx="276" cy="69.5" rx="4" ry="4.5"/></g><g id="Background_Complete" data-name="Background Complete"><g id="Group_3154" data-name="Group 3154"><g id="Group_3150" data-name="Group 3150"><path id="Path_5332" data-name="Path 5332" class="cls-3" d="M448.18,335.231V207.068H350.741V95.526H337v63.933H299.52V141.773H232.065L232.041,79.2h-46.2V188.024H140.872V79.2h-81.2V188.024H19.7V335.231Z"/><g id="Group_3149" data-name="Group 3149"><g id="Group_3121" data-name="Group 3121"><g id="Group_3105" data-name="Group 3105"><rect id="Rectangle_749" data-name="Rectangle 749" class="cls-4" x="78.411" y="0.307" width="99.937" height="334.924"/></g><g id="Group_3106" data-name="Group 3106"><rect id="Rectangle_750" data-name="Rectangle 750" class="cls-3" x="78.411" y="22.071" width="99.937" height="2.721"/></g><g id="Group_3107" data-name="Group 3107"><rect id="Rectangle_751" data-name="Rectangle 751" class="cls-3" x="78.411" y="43.836" width="99.937" height="2.721"/></g><g id="Group_3108" data-name="Group 3108"><rect id="Rectangle_752" data-name="Rectangle 752" class="cls-3" x="78.411" y="65.6" width="99.937" height="2.721"/></g><g id="Group_3109" data-name="Group 3109"><rect id="Rectangle_753" data-name="Rectangle 753" class="cls-3" x="78.411" y="87.364" width="99.937" height="2.721"/></g><g id="Group_3110" data-name="Group 3110"><rect id="Rectangle_754" data-name="Rectangle 754" class="cls-3" x="78.411" y="109.129" width="99.937" height="2.721"/></g><g id="Group_3111" data-name="Group 3111"><rect id="Rectangle_755" data-name="Rectangle 755" class="cls-3" x="78.411" y="130.893" width="99.937" height="2.721"/></g><g id="Group_3112" data-name="Group 3112"><rect id="Rectangle_756" data-name="Rectangle 756" class="cls-3" x="78.411" y="152.657" width="99.937" height="2.721"/></g><g id="Group_3113" data-name="Group 3113"><rect id="Rectangle_757" data-name="Rectangle 757" class="cls-5" x="78.411" y="174.422" width="99.937" height="2.721"/></g><g id="Group_3114" data-name="Group 3114"><rect id="Rectangle_758" data-name="Rectangle 758" class="cls-5" x="78.411" y="196.186" width="99.937" height="2.721"/></g><g id="Group_3115" data-name="Group 3115"><rect id="Rectangle_759" data-name="Rectangle 759" class="cls-5" x="78.411" y="217.95" width="99.937" height="2.721"/></g><g id="Group_3116" data-name="Group 3116"><rect id="Rectangle_760" data-name="Rectangle 760" class="cls-5" x="78.411" y="239.715" width="99.937" height="2.721"/></g><g id="Group_3117" data-name="Group 3117"><rect id="Rectangle_761" data-name="Rectangle 761" class="cls-5" x="78.411" y="261.479" width="99.937" height="2.721"/></g><g id="Group_3118" data-name="Group 3118"><rect id="Rectangle_762" data-name="Rectangle 762" class="cls-5" x="78.411" y="283.243" width="99.937" height="2.721"/></g><g id="Group_3119" data-name="Group 3119"><rect id="Rectangle_763" data-name="Rectangle 763" class="cls-5" x="78.411" y="305.008" width="99.937" height="2.721"/></g><g id="Group_3120" data-name="Group 3120"><rect id="Rectangle_764" data-name="Rectangle 764" class="cls-5" x="78.411" y="326.772" width="99.937" height="2.721"/></g></g><g id="Group_3134" data-name="Group 3134"><g id="Group_3123" data-name="Group 3123"><g id="Group_3122" data-name="Group 3122"><rect id="Rectangle_765" data-name="Rectangle 765" class="cls-5" x="220.822" y="188.024" width="99.937" height="2.721"/></g></g><g id="Group_3124" data-name="Group 3124"><rect id="Rectangle_766" data-name="Rectangle 766" class="cls-4" x="220.822" y="100.967" width="99.937" height="234.264"/></g><g id="Group_3125" data-name="Group 3125"><rect id="Rectangle_767" data-name="Rectangle 767" class="cls-3" x="220.822" y="122.731" width="99.937" height="2.721"/></g><g id="Group_3126" data-name="Group 3126"><rect id="Rectangle_768" data-name="Rectangle 768" class="cls-3" x="220.822" y="144.496" width="99.937" height="2.721"/></g><g id="Group_3127" data-name="Group 3127"><rect id="Rectangle_769" data-name="Rectangle 769" class="cls-3" x="220.822" y="166.26" width="99.937" height="2.721"/></g><g id="Group_3128" data-name="Group 3128"><rect id="Rectangle_770" data-name="Rectangle 770" class="cls-3" x="220.822" y="209.789" width="99.937" height="2.721"/></g><g id="Group_3129" data-name="Group 3129"><rect id="Rectangle_771" data-name="Rectangle 771" class="cls-3" x="220.822" y="231.553" width="99.937" height="2.721"/></g><g id="Group_3130" data-name="Group 3130"><rect id="Rectangle_772" data-name="Rectangle 772" class="cls-3" x="220.822" y="253.317" width="99.937" height="2.721"/></g><g id="Group_3131" data-name="Group 3131"><rect id="Rectangle_773" data-name="Rectangle 773" class="cls-3" x="220.822" y="275.082" width="99.937" height="2.721"/></g><g id="Group_3132" data-name="Group 3132"><rect id="Rectangle_774" data-name="Rectangle 774" class="cls-3" x="220.822" y="296.846" width="99.937" height="2.721"/></g><g id="Group_3133" data-name="Group 3133"><rect id="Rectangle_775" data-name="Rectangle 775" class="cls-3" x="220.822" y="318.61" width="99.937" height="2.721"/></g></g><g id="Group_3148" data-name="Group 3148"><g id="Group_3135" data-name="Group 3135"><rect id="Rectangle_776" data-name="Rectangle 776" class="cls-4" x="364.482" y="60.159" width="99.937" height="275.072"/></g><g id="Group_3136" data-name="Group 3136"><rect id="Rectangle_777" data-name="Rectangle 777" class="cls-6" x="364.482" y="81.923" width="99.937" height="2.721"/></g><g id="Group_3137" data-name="Group 3137"><rect id="Rectangle_778" data-name="Rectangle 778" class="cls-6" x="364.482" y="103.688" width="99.937" height="2.721"/></g><g id="Group_3138" data-name="Group 3138"><rect id="Rectangle_779" data-name="Rectangle 779" class="cls-6" x="364.482" y="125.452" width="99.937" height="2.721"/></g><g id="Group_3139" data-name="Group 3139"><rect id="Rectangle_780" data-name="Rectangle 780" class="cls-6" x="364.482" y="147.216" width="99.937" height="2.721"/></g><g id="Group_3140" data-name="Group 3140"><rect id="Rectangle_781" data-name="Rectangle 781" class="cls-6" x="364.482" y="168.981" width="99.937" height="2.721"/></g><g id="Group_3141" data-name="Group 3141"><rect id="Rectangle_782" data-name="Rectangle 782" class="cls-5" x="364.482" y="190.745" width="99.937" height="2.721"/></g><g id="Group_3142" data-name="Group 3142"><rect id="Rectangle_783" data-name="Rectangle 783" class="cls-5" x="364.482" y="212.509" width="99.937" height="2.721"/></g><g id="Group_3143" data-name="Group 3143"><rect id="Rectangle_784" data-name="Rectangle 784" class="cls-5" x="364.482" y="234.274" width="99.937" height="2.721"/></g><g id="Group_3144" data-name="Group 3144"><rect id="Rectangle_785" data-name="Rectangle 785" class="cls-5" x="364.482" y="256.038" width="99.937" height="2.721"/></g><g id="Group_3145" data-name="Group 3145"><rect id="Rectangle_786" data-name="Rectangle 786" class="cls-5" x="364.482" y="277.802" width="99.937" height="2.721"/></g><g id="Group_3146" data-name="Group 3146"><rect id="Rectangle_787" data-name="Rectangle 787" class="cls-5" x="364.482" y="299.567" width="99.937" height="2.721"/></g><g id="Group_3147" data-name="Group 3147"><rect id="Rectangle_788" data-name="Rectangle 788" class="cls-5" x="364.482" y="321.331" width="99.937" height="2.721"/></g></g></g></g></g></g></g><g id="Shadow"><ellipse id="_Path_" data-name=" Path " class="cls-7" cx="291.211" cy="413.768" rx="277.928" ry="16.231"/></g><g id="Speech_bubbles" data-name="Speech bubbles"><g id="Group_3171" data-name="Group 3171"><g id="Group_3169" data-name="Group 3169"><rect id="Rectangle_794" data-name="Rectangle 794" class="cls-8" x="306.683" y="148.226" width="47.304" height="47.304" rx="3" transform="translate(157.109 501.509) rotate(-89.766)"/><path id="Path_5371" data-name="Path 5371" class="cls-9" d="M319.845,194.25s6.448,14.575,20.765,19.081c0,0-7.929-4.531-7.382-19.745Z"/><circle id="Ellipse_317" data-name="Ellipse 317" class="cls-10" cx="329.904" cy="171.782" r="15.051"/><path id="Path_5372" data-name="Path 5372" class="cls-9" d="M328.928,180.485h-.021a1.157,1.157,0,0,1-.9-.452l-6.653-8.67a1.153,1.153,0,1,1,1.761-1.488.98.98,0,0,1,.068.088l5.772,7.521,9.611-11.659a1.154,1.154,0,0,1,1.781,1.467l-10.531,12.773A1.156,1.156,0,0,1,328.928,180.485Z"/></g></g></g><g id="Group_3207" data-name="Group 3207"><g id="Wallet_1" data-name="Wallet 1"><g id="Group_3162" data-name="Group 3162"><g id="Group_3155" data-name="Group 3155"><path id="Path_5344" data-name="Path 5344" class="cls-11" d="M414.088,171.973a.717.717,0,0,0,.586-.979c-.013-.028-1.212-3.046-3.6-7.945a.717.717,0,0,0-1.289.626c2.359,4.849,3.541,7.818,3.553,7.846A.718.718,0,0,0,414.088,171.973Zm-8.2-16.832a.751.751,0,0,0,.257-.082.72.72,0,0,0,.283-.975c-1.373-2.5-2.82-5.028-4.3-7.5a.717.717,0,0,0-1.25.7l.021.034c1.473,2.459,2.912,4.967,4.276,7.455A.716.716,0,0,0,405.888,155.141Zm-9.648-15.99a.716.716,0,0,0,.512-1.105c-1.584-2.395-3.234-4.789-4.905-7.119a.717.717,0,0,0-1.163.837c1.661,2.315,3.3,4.693,4.874,7.071a.715.715,0,0,0,.681.316Zm-10.947-15.112a.717.717,0,0,0,.625-.8.725.725,0,0,0-.151-.361c-1.8-2.267-3.656-4.506-5.516-6.653a.717.717,0,0,0-1.084.939c1.848,2.132,3.69,4.354,5.477,6.605A.715.715,0,0,0,385.293,124.039ZM373.02,109.993a.718.718,0,0,0,.428-1.209c-2.012-2.086-4.08-4.134-6.149-6.073a.717.717,0,0,0-.98,1.044c2.05,1.927,4.1,3.955,6.1,6.023A.714.714,0,0,0,373.02,109.993ZM157.842,132.237a.716.716,0,0,0,.533-.351c1.434-2.454,2.967-4.888,4.56-7.232a.717.717,0,1,0-1.186-.806h0c-1.611,2.373-3.162,4.833-4.612,7.316a.716.716,0,0,0,.705,1.073ZM359.379,97.292a.706.706,0,0,0,.463-.253.717.717,0,0,0-.092-1.009c-2.23-1.852-4.517-3.648-6.8-5.336a.716.716,0,0,0-.852,1.151c2.259,1.675,4.526,3.453,6.734,5.288A.716.716,0,0,0,359.379,97.292Zm-190.985,19.6a.715.715,0,0,0,.472-.26c1.777-2.215,3.652-4.4,5.577-6.488a.716.716,0,0,0-1.055-.969c-1.944,2.111-3.843,4.319-5.643,6.56a.717.717,0,0,0,.646,1.16ZM344.348,86.293a.717.717,0,0,0,.3-1.316c-2.437-1.552-4.935-3.038-7.43-4.414a.717.717,0,0,0-.692,1.256c2.467,1.361,4.939,2.832,7.35,4.368A.717.717,0,0,0,344.348,86.293ZM181.082,103.259a.715.715,0,0,0,.4-.186c2.08-1.928,4.254-3.812,6.466-5.6a.717.717,0,0,0-.88-1.132l-.021.017c-2.233,1.807-4.431,3.712-6.535,5.662a.717.717,0,0,0,.576,1.239ZM328,77.4a.717.717,0,0,0,.211-1.365c-2.628-1.194-5.32-2.3-7.986-3.3a.717.717,0,0,0-.5,1.344c2.64.986,5.293,2.082,7.894,3.263A.724.724,0,0,0,328,77.4ZM195.616,91.627a.708.708,0,0,0,.319-.122c2.331-1.6,4.751-3.156,7.2-4.611a.717.717,0,0,0-.733-1.232c-2.472,1.473-4.921,3.043-7.278,4.666a.718.718,0,0,0,.5,1.3ZM310.537,71.013a.716.716,0,0,0,.107-1.4c-2.766-.778-5.591-1.463-8.4-2.037a.717.717,0,0,0-.287,1.4c2.771.567,5.561,1.244,8.294,2.011A.688.688,0,0,0,310.537,71.013ZM211.655,82.175a.753.753,0,0,0,.232-.071c2.521-1.262,5.138-2.466,7.766-3.583a.717.717,0,1,0-.559-1.32h0c-2.66,1.133-5.3,2.347-7.848,3.62a.717.717,0,0,0,.409,1.353Zm80.652-14.781a.717.717,0,0,0,0-1.424c-2.827-.336-5.722-.577-8.6-.716a.716.716,0,1,0-.07,1.431c2.849.138,5.71.376,8.5.711A.824.824,0,0,0,292.307,67.394Zm-63.482,7.584a.66.66,0,0,0,.146-.034c2.669-.918,5.417-1.774,8.167-2.553a.717.717,0,0,0-.385-1.381c-2.776.783-5.551,1.649-8.247,2.578a.717.717,0,0,0,.321,1.39ZM246.766,70a.462.462,0,0,0,.065-.008c2.76-.589,5.591-1.119,8.414-1.57a.716.716,0,0,0,.594-.82h0a.731.731,0,0,0-.82-.594c-2.849.451-5.705.988-8.489,1.584a.717.717,0,0,0,.237,1.413ZM273.743,66.6a.717.717,0,0,0-.112-1.428c-2.835.088-5.736.272-8.619.547a.717.717,0,0,0,.136,1.427c2.853-.273,5.722-.454,8.529-.544Z"/><path id="Path_5345" data-name="Path 5345" class="cls-12" d="M155.609,136.766a1.294,1.294,0,0,0,.151-.028l11.776-2.747a1.443,1.443,0,0,0,1.079-1.732h0a1.429,1.429,0,0,0-1.7-1.088l-.037.009-10.461,2.44-3.1-10.014a1.446,1.446,0,0,0-2.781.793l.018.06,3.5,11.3A1.444,1.444,0,0,0,155.609,136.766Z"/></g><rect id="Rectangle_789" data-name="Rectangle 789" class="cls-13" x="0.829" y="206.274" width="232.933" height="189.389" rx="6.536"/><rect id="Rectangle_790" data-name="Rectangle 790" class="cls-14" x="0.829" y="206.274" width="232.933" height="189.389" rx="6.536"/><path id="Path_5346" data-name="Path 5346" class="cls-15" d="M225.146,214.389a6.118,6.118,0,0,1-6.106,6.121H16.91a6.114,6.114,0,0,1,0-12.227H219.04A6.111,6.111,0,0,1,225.146,214.389Z"/><path id="Path_5355" data-name="Path 5355" class="cls-13" d="M210.618,227.6,9.268,207.131c-4.66-.473-8.439,3.175-8.439,8.149V386.656c0,4.974,3.779,9.39,8.439,9.865l201.35,20.461c4.66.474,8.439-3.175,8.439-8.149V237.462C219.053,232.482,215.274,228.07,210.618,227.6Z"/><g id="Group_3160" data-name="Group 3160"><path id="Path_5356" data-name="Path 5356" class="cls-16" d="M13.614,213.314l-7.182-.731a.713.713,0,0,0-.787.631v.014a.72.72,0,0,0,.631.788l7.2.731h.072a.718.718,0,0,0,.072-1.433Zm15.825,1.605-7.182-.731a.721.721,0,0,0-.158,1.433l7.2.731h.072a.718.718,0,0,0,.072-1.433Zm15.825,1.62-7.182-.731a.7.7,0,0,0-.785.6l0,.028a.713.713,0,0,0,.627.788h0l7.2.731h.066a.716.716,0,0,0,.717-.645.7.7,0,0,0-.623-.769l-.021,0Zm15.827,1.6-7.2-.731a.7.7,0,0,0-.773.619v.012a.713.713,0,0,0,.627.788h0l7.2.731h.072a.711.711,0,0,0,.072-1.419Zm15.825,1.605-7.2-.731a.708.708,0,0,0-.773.636v.009a.7.7,0,0,0,.619.773h.012l7.2.731a.163.163,0,0,0,.072.014.728.728,0,0,0,.717-.645.713.713,0,0,0-.635-.783h-.012Zm15.825,1.6-7.2-.731a.708.708,0,0,0-.773.636v.009a.72.72,0,0,0,.631.788l7.2.731h.072a.718.718,0,0,0,.072-1.433Zm15.825,1.6-7.2-.731a.72.72,0,0,0-.147,1.433h0l7.2.731h.072a.718.718,0,0,0,.072-1.433Zm15.825,1.62-7.2-.731a.691.691,0,0,0-.771.6l0,.03a.713.713,0,0,0,.627.788h0l7.2.731h.072a.716.716,0,0,0,.717-.645.7.7,0,0,0-.624-.768l-.022,0Zm15.825,1.6-7.2-.731a.691.691,0,0,0-.771.6l0,.03a.7.7,0,0,0,.6.785l.028,0,7.2.731a.61.61,0,0,1,.072.014.728.728,0,0,0,.717-.645.713.713,0,0,0-.637-.782h-.01Zm15.825,1.605-7.182-.731a.706.706,0,0,0-.785.619l0,.026a.7.7,0,0,0,.619.773h.012l7.2.731a.163.163,0,0,0,.072.014.728.728,0,0,0,.717-.645.713.713,0,0,0-.637-.782h-.013Zm15.825,1.6-7.2-.731a.72.72,0,0,0-.143,1.433l7.2.731h.072a.718.718,0,0,0,.072-1.433ZM187.691,231l-7.2-.731a.72.72,0,0,0-.147,1.433h0l7.2.731h.072a.718.718,0,0,0,.072-1.433Zm15.825,1.62-7.2-.731a.7.7,0,0,0-.773.619v.012a.713.713,0,0,0,.627.788h0l7.21.731.158-.7Zm7.569,5.06a.724.724,0,0,0-.989-.258.736.736,0,0,0-.244.989,9.481,9.481,0,0,1,1.319,4.788v1.82a.71.71,0,0,0,.694.726h.026a.718.718,0,0,0,.717-.717v-1.82a10.96,10.96,0,0,0-1.523-5.522Zm.8,15.3a.719.719,0,0,0-.717.717v7.239a.718.718,0,0,0,.717.717.728.728,0,0,0,.717-.717v-7.239a.728.728,0,0,0-.711-.711Zm0,15.911a.71.71,0,0,0-.717.7v7.239a.71.71,0,0,0,.7.717h.014a.719.719,0,0,0,.717-.717V269.6a.718.718,0,0,0-.711-.711Zm0,15.911a.71.71,0,0,0-.717.7v7.245a.71.71,0,0,0,.7.717h.014a.719.719,0,0,0,.717-.717v-7.225a.719.719,0,0,0-.711-.717Zm0,15.9a.719.719,0,0,0-.717.717v7.239a.718.718,0,0,0,.717.717.728.728,0,0,0,.717-.717v-7.239a.728.728,0,0,0-.711-.714Zm0,15.911a.71.71,0,0,0-.717.7v7.239a.71.71,0,0,0,.7.717h.014a.719.719,0,0,0,.717-.717v-7.225a.719.719,0,0,0-.711-.714Zm0,15.911a.71.71,0,0,0-.717.7v7.239a.71.71,0,0,0,.7.717h.014a.719.719,0,0,0,.717-.717v-7.225a.719.719,0,0,0-.711-.714Zm0,15.9a.719.719,0,0,0-.717.717v7.239a.718.718,0,0,0,.717.717.728.728,0,0,0,.717-.717v-7.239a.728.728,0,0,0-.711-.717Zm0,15.911a.71.71,0,0,0-.717.7v7.253a.718.718,0,0,0,.717.717.728.728,0,0,0,.717-.717v-7.241a.719.719,0,0,0-.711-.715Zm0,15.911a.71.71,0,0,0-.717.7v7.239a.71.71,0,0,0,.7.717h.014a.719.719,0,0,0,.717-.717v-7.225a.718.718,0,0,0-.711-.713ZM1.473,389.972c-.029,0-.043-.014-.072-.014a8.189,8.189,0,0,0,.473,1.161.538.538,0,0,0,.172-.3A.73.73,0,0,0,1.473,389.972Zm15.753,1.634-7.2-.731a.713.713,0,0,0-.135,1.419l7.2.731a.163.163,0,0,0,.072.014.728.728,0,0,0,.717-.645.713.713,0,0,0-.632-.786Zm15.825,1.605-7.2-.731a.7.7,0,0,0-.772.62l0,.025a.72.72,0,0,0,.631.788l7.2.731h.072a.718.718,0,0,0,.072-1.433Zm15.825,1.6-7.2-.731a.72.72,0,0,0-.147,1.433h0l7.2.731h.072a.718.718,0,0,0,.072-1.433Zm15.825,1.62-7.2-.731a.7.7,0,0,0-.773.619v.012a.713.713,0,0,0,.627.788h0l7.2.731h.072a.716.716,0,0,0,.717-.645.7.7,0,0,0-.62-.772l-.025,0Zm15.825,1.605-7.2-.731a.691.691,0,0,0-.771.6l0,.03a.713.713,0,0,0,.627.788h0l7.2.731h.072a.711.711,0,0,0,.072-1.419Zm15.825,1.605-7.2-.731a.713.713,0,1,0-.143,1.419h0l7.2.731a.163.163,0,0,0,.072.014.728.728,0,0,0,.717-.645.714.714,0,0,0-.632-.786h-.014Zm15.825,1.6-7.2-.731a.692.692,0,0,0-.77.6l0,.041a.72.72,0,0,0,.631.788l7.2.731h.072a.718.718,0,0,0,.072-1.434ZM128,402.856l-7.2-.731a.72.72,0,0,0-.143,1.433l7.2.731h.072a.718.718,0,0,0,.072-1.433Zm83.89-6.721a.718.718,0,0,0-.717.717v6.25c0,.3-.014.616-.043.917a.7.7,0,0,0,.619.773h.012a.163.163,0,0,0,.072.014.716.716,0,0,0,.717-.645,8.542,8.542,0,0,0,.057-1.061v-6.25A.728.728,0,0,0,211.891,396.135Zm-68.06,8.343-7.2-.731a.691.691,0,0,0-.771.6l0,.03a.713.713,0,0,0,.627.788h0l7.2.731h.072a.716.716,0,0,0,.717-.645.7.7,0,0,0-.62-.771l-.029,0Zm15.825,1.605-7.2-.731a.691.691,0,0,0-.771.6l0,.03a.7.7,0,0,0,.6.785l.028,0,7.2.731a.61.61,0,0,1,.072.014.728.728,0,0,0,.717-.645.713.713,0,0,0-.631-.786l-.018,0Zm15.825,1.6-7.2-.731a.713.713,0,1,0-.143,1.419l7.2.731a.163.163,0,0,0,.072.014.728.728,0,0,0,.717-.645.713.713,0,0,0-.632-.785l-.017,0Zm15.825,1.605-7.2-.731a.7.7,0,0,0-.772.62l0,.025a.72.72,0,0,0,.631.788l7.2.731h.072a.718.718,0,0,0,.072-1.433Zm16.37,1.218a.712.712,0,0,0-.924-.4l-.008,0a6.928,6.928,0,0,1-3.225.43l-3.584-.373a.72.72,0,0,0-.143,1.433l3.584.358c.3.029.588.043.889.043a8.2,8.2,0,0,0,3.01-.559.724.724,0,0,0,.4-.93Z"/></g><g id="Group_3161" data-name="Group 3161"><path id="Path_5357" data-name="Path 5357" class="cls-17" d="M231.589,292.069l-71.845-7.3a3.629,3.629,0,0,0-3.976,3.245,3.4,3.4,0,0,0-.019.364V312.8a3.627,3.627,0,0,0,3.261,3.6l72.419,7.361a3.629,3.629,0,0,0,3.406-1.627l6.379-9.772a3.629,3.629,0,0,0,.241-3.533l-6.952-14.7A3.631,3.631,0,0,0,231.589,292.069Z"/><path id="Path_5358" data-name="Path 5358" class="cls-18" d="M231.589,292.069l-71.845-7.3a3.629,3.629,0,0,0-3.976,3.245,3.4,3.4,0,0,0-.019.364V312.8a3.627,3.627,0,0,0,3.261,3.6l72.419,7.361a3.629,3.629,0,0,0,3.406-1.627l6.379-9.772a3.629,3.629,0,0,0,.241-3.533l-6.952-14.7A3.631,3.631,0,0,0,231.589,292.069Z"/><path id="Path_5359" data-name="Path 5359" class="cls-19" d="M231.548,307.659c0,4.385-3.237,7.938-7.23,7.938s-7.23-3.553-7.23-7.938,3.237-7.94,7.23-7.94S231.548,303.274,231.548,307.659Z"/></g><g id="Group_3220" data-name="Group 3220"><g id="Group_2640" data-name="Group 2640"><g id="Group_2637" data-name="Group 2637"><ellipse id="Ellipse_293" data-name="Ellipse 293" class="cls-20" cx="110.326" cy="371.337" rx="42.67" ry="41.776" transform="translate(-263.348 473.468) rotate(-88.74)"/><path id="Path_4704" data-name="Path 4704" class="cls-21" d="M148.63,371.336c0,23.573-18.7,42.679-41.766,42.679S65.1,394.908,65.1,371.336s18.7-42.68,41.767-42.68S148.63,347.764,148.63,371.336Z"/><ellipse id="Ellipse_294-2" data-name="Ellipse 294-2" class="cls-22" cx="103.932" cy="371.254" rx="42.669" ry="41.774" transform="translate(-269.326 467.742) rotate(-88.854)"/><path id="Path_4705" data-name="Path 4705" class="cls-23" d="M139.456,371.336c0,20.088-15.877,36.372-35.461,36.372s-35.458-16.283-35.458-36.372S84.412,334.964,104,334.964,139.456,351.248,139.456,371.336Z"/><path id="Path_4706" data-name="Path 4706" class="cls-24" d="M107.591,403.923c-19.536,0-35.373-16.285-35.373-36.373A36.818,36.818,0,0,1,80.812,343.8a36.705,36.705,0,0,0-12.275,27.534c0,20.089,15.837,36.372,35.374,36.372a34.894,34.894,0,0,0,26.78-12.621A34.663,34.663,0,0,1,107.591,403.923Z"/></g><g id="Group_2661" data-name="Group 2661"><g id="Path_4734" data-name="Path 4734"><path class="cls-25" d="M112.127,389.242H94.289v-5h17.838c2.833,0,4.363-3.461,4.363-6.718a7.85,7.85,0,0,0-1.213-4.434,3.617,3.617,0,0,0-3.15-1.591H94.289v-5h17.838a8.632,8.632,0,0,1,7.227,3.7,12.736,12.736,0,0,1,2.136,7.329C121.49,383.205,118.208,389.242,112.127,389.242Z"/></g><g id="Path_4735" data-name="Path 4735"><path class="cls-25" d="M101.734,386.743h-5V351.659h12.771c6.166,0,9.492,4.987,9.492,9.681a9.947,9.947,0,0,1-2.811,7.02,11.2,11.2,0,0,1-8.325,3.171v-5a6.471,6.471,0,0,0,4.754-1.67A4.978,4.978,0,0,0,114,361.34a4.405,4.405,0,0,0-4.492-4.681h-7.771Z"/></g><g id="Line_22" data-name="Line 22"><rect class="cls-25" x="96.734" y="348.849" width="5" height="5.312"/></g><g id="Line_23" data-name="Line 23"><rect class="cls-25" x="102.6" y="348.849" width="5" height="5.312"/></g><g id="Line_24" data-name="Line 24"><rect class="cls-25" x="96.734" y="386.743" width="5" height="5.31"/></g><g id="Line_25" data-name="Line 25"><rect class="cls-25" x="102.6" y="386.743" width="5" height="5.31"/></g></g></g><g id="Group_2662" data-name="Group 2662" class="cls-26"><path id="Path_4708" data-name="Path 4708" class="cls-10" d="M135.457,343.52,68.569,393.928a42.838,42.838,0,0,1-5.09-12.321L125.5,334.863A41.8,41.8,0,0,1,135.457,343.52Z"/><path id="Path_4709" data-name="Path 4709" class="cls-10" d="M141.887,353.563l-65.634,49.5a42.017,42.017,0,0,1-4.412-4.751l66.942-50.475A40.017,40.017,0,0,1,141.887,353.563Z"/><path id="Path_4710" data-name="Path 4710" class="cls-10" d="M145.131,364.039,83.563,409.3l-3.376-1.942,64.12-47.121C144.644,361.485,144.917,362.748,145.131,364.039Z"/></g></g></g></g><g id="Group_3197" data-name="Group 3197"><g id="Group_2640-2" data-name="Group 2640-2"><g id="Group_2637-2" data-name="Group 2637-2"><ellipse id="Ellipse_293-2" data-name="Ellipse 293-2" class="cls-20" cx="100.814" cy="172.87" rx="35.099" ry="34.364" transform="translate(-74.231 269.857) rotate(-88.74)"/><path id="Path_4704-2" data-name="Path 4704-2" class="cls-21" d="M132.321,172.869c0,19.39-15.382,35.107-34.356,35.107s-34.352-15.717-34.352-35.107,15.381-35.107,34.357-35.107S132.321,153.48,132.321,172.869Z"/><ellipse id="Ellipse_294-3" data-name="Ellipse 294-3" class="cls-22" cx="95.625" cy="172.87" rx="35.099" ry="34.364" transform="translate(-79.306 264.669) rotate(-88.74)"/><path id="Path_4705-2" data-name="Path 4705-2" class="cls-23" d="M124.775,172.869c0,16.524-13.06,29.919-29.169,29.919s-29.167-13.394-29.167-29.919S79.5,142.95,95.606,142.95,124.775,156.344,124.775,172.869Z"/><path id="Path_4706-2" data-name="Path 4706-2" class="cls-24" d="M99.475,199.675A29.91,29.91,0,0,1,76.826,150.22a29.912,29.912,0,1,0,42.186,42.185A29.794,29.794,0,0,1,99.475,199.675Z"/></g><g id="Group_2661-2" data-name="Group 2661-2"><g id="Path_4734-2" data-name="Path 4734-2"><path class="cls-25" d="M102.3,187.541H87.623v-4H102.3c2.367,0,3.645-2.878,3.645-5.585a6.51,6.51,0,0,0-1.008-3.682,3.027,3.027,0,0,0-2.637-1.333H87.623v-4H102.3a7.045,7.045,0,0,1,5.9,3.018,10.418,10.418,0,0,1,1.746,6C109.941,182.6,107.262,187.541,102.3,187.541Z"/></g><g id="Path_4735-2" data-name="Path 4735-2"><path class="cls-25" d="M93.69,185.541h-4v-28.8h10.449a7.673,7.673,0,0,1,7.751,7.906,8.127,8.127,0,0,1-2.3,5.736,9.158,9.158,0,0,1-6.807,2.591v-4a5.377,5.377,0,0,0,3.95-1.391,4.149,4.149,0,0,0,1.153-2.936,3.677,3.677,0,0,0-3.751-3.906H93.69Z"/></g><g id="Line_22-2" data-name="Line 22-2"><rect class="cls-25" x="89.691" y="154.371" width="4" height="4.368"/></g><g id="Line_23-2" data-name="Line 23-2"><rect class="cls-25" x="94.515" y="154.371" width="4" height="4.368"/></g><g id="Line_24-2" data-name="Line 24-2"><rect class="cls-25" x="89.691" y="185.542" width="4" height="4.368"/></g><g id="Line_25-2" data-name="Line 25-2"><rect class="cls-25" x="94.515" y="185.542" width="4" height="4.368"/></g></g></g><g id="Group_2662-2" data-name="Group 2662-2" class="cls-26"><path id="Path_4708-2" data-name="Path 4708-2" class="cls-10" d="M121.484,149.988l-55.02,41.464a35.231,35.231,0,0,1-4.187-10.135l51.013-38.45A34.382,34.382,0,0,1,121.484,149.988Z"/><path id="Path_4709-2" data-name="Path 4709-2" class="cls-10" d="M126.774,158.248,72.785,198.966a34.585,34.585,0,0,1-3.629-3.908l55.064-41.519A32.947,32.947,0,0,1,126.774,158.248Z"/><path id="Path_4710-2" data-name="Path 4710-2" class="cls-10" d="M129.443,166.866,78.8,204.1l-2.777-1.6,52.743-38.76C129.042,164.765,129.267,165.8,129.443,166.866Z"/></g></g><g id="Group_3213" data-name="Group 3213"><g id="Group_2640-3" data-name="Group 2640-3"><g id="Group_2637-3" data-name="Group 2637-3"><ellipse id="Ellipse_293-3" data-name="Ellipse 293-3" class="cls-20" cx="128.449" cy="144.406" rx="21.184" ry="20.74" transform="matrix(0.022, -1, 1, 0.022, -18.748, 269.648)"/><path id="Path_4704-3" data-name="Path 4704-3" class="cls-21" d="M147.464,144.406a20.74,20.74,0,1,1-20.735-21.189A20.965,20.965,0,0,1,147.464,144.406Z"/><ellipse id="Ellipse_294-4" data-name="Ellipse 294-4" class="cls-22" cx="125.317" cy="144.406" rx="21.184" ry="20.74" transform="matrix(0.022, -1, 1, 0.022, -21.811, 266.517)"/><path id="Path_4705-3" data-name="Path 4705-3" class="cls-23" d="M142.911,144.409a17.61,17.61,0,1,1-17.6-18.057A17.836,17.836,0,0,1,142.911,144.409Z"/><path id="Path_4706-3" data-name="Path 4706-3" class="cls-24" d="M127.638,160.584a18.052,18.052,0,0,1-13.67-29.848A18.053,18.053,0,1,0,139.429,156.2,17.985,17.985,0,0,1,127.638,160.584Z"/></g><g id="Group_2661-3" data-name="Group 2661-3"><g id="Path_4734-3" data-name="Path 4734-3"><path class="cls-25" d="M129.344,153.055h-8.856v-2h8.856c1.563,0,2.406-1.843,2.406-3.578a4.078,4.078,0,0,0-.647-2.34,2.021,2.021,0,0,0-1.759-.891h-8.856v-2h8.856a4.049,4.049,0,0,1,3.39,1.733,6.078,6.078,0,0,1,1.016,3.5C133.75,150.182,132.206,153.055,129.344,153.055Z"/></g><g id="Path_4735-3" data-name="Path 4735-3"><path class="cls-25" d="M123.942,152.054h-2V134.878h6.1a4.428,4.428,0,0,1,4.471,4.565,4.7,4.7,0,0,1-1.326,3.317,5.328,5.328,0,0,1-3.961,1.5v-2a3.444,3.444,0,0,0,2.532-.9,2.712,2.712,0,0,0,.755-1.917,2.417,2.417,0,0,0-2.471-2.565h-4.1Z"/></g><g id="Line_22-3" data-name="Line 22-3"><rect class="cls-25" x="121.943" y="133.242" width="2" height="2.637"/></g><g id="Line_23-3" data-name="Line 23-3"><rect class="cls-25" x="124.854" y="133.242" width="2" height="2.637"/></g><g id="Line_24-3" data-name="Line 24-3"><rect class="cls-25" x="121.943" y="152.055" width="2" height="2.636"/></g><g id="Line_25-3" data-name="Line 25-3"><rect class="cls-25" x="124.854" y="152.055" width="2" height="2.636"/></g></g></g><g id="Group_2662-3" data-name="Group 2662-3" class="cls-26"><path id="Path_4708-3" data-name="Path 4708-3" class="cls-10" d="M140.925,130.6l-33.207,25.025a21.288,21.288,0,0,1-2.527-6.117L135.979,126.3A20.753,20.753,0,0,1,140.925,130.6Z"/><path id="Path_4709-3" data-name="Path 4709-3" class="cls-10" d="M144.119,135.582l-32.584,24.575a20.79,20.79,0,0,1-2.19-2.358l33.234-25.06A19.8,19.8,0,0,1,144.119,135.582Z"/><path id="Path_4710-3" data-name="Path 4710-3" class="cls-10" d="M145.728,140.783l-30.566,22.47-1.676-.965L145.319,138.9C145.486,139.518,145.622,140.142,145.728,140.783Z"/></g></g><g class="cls-27"><g id="Mask_Group_1" data-name="Mask Group 1"><g id="Group_3195" data-name="Group 3195"><g id="Group_2640-4" data-name="Group 2640-4"><g id="Group_2637-4" data-name="Group 2637-4"><ellipse id="Ellipse_293-4" data-name="Ellipse 293-4" class="cls-20" cx="157.557" cy="186.294" rx="39.347" ry="38.522" transform="translate(-32.157 339.716) rotate(-88.74)"/><path id="Path_4704-4" data-name="Path 4704-4" class="cls-21" d="M192.878,186.292c0,21.737-17.244,39.355-38.513,39.355s-38.51-17.618-38.51-39.355,17.242-39.355,38.514-39.355S192.878,164.557,192.878,186.292Z"/><ellipse id="Ellipse_294-5" data-name="Ellipse 294-5" class="cls-22" cx="151.74" cy="186.294" rx="39.347" ry="38.522" transform="translate(-37.846 333.901) rotate(-88.74)"/><path id="Path_4705-4" data-name="Path 4705-4" class="cls-23" d="M184.419,186.292c0,18.524-14.64,33.539-32.7,33.539s-32.7-15.015-32.7-33.539,14.638-33.539,32.7-33.539S184.419,167.768,184.419,186.292Z"/><path id="Path_4706-4" data-name="Path 4706-4" class="cls-24" d="M155.219,216.342c-18.106,0-32.783-15.016-32.783-33.54a33.843,33.843,0,0,1,7.965-21.9,33.773,33.773,0,0,0-11.377,25.39c0,18.524,14.677,33.539,32.784,33.539a32.4,32.4,0,0,0,24.82-11.638A32.219,32.219,0,0,1,155.219,216.342Z"/></g><g id="Group_2661-4" data-name="Group 2661-4"><g id="Path_4734-4" data-name="Path 4734-4"><path class="cls-25" d="M160.043,205.321H141.052v-5h18.991c3.121,0,4.806-3.768,4.806-7.314a8.515,8.515,0,0,0-1.321-4.814,4,4,0,0,0-3.485-1.762H141.052v-5h18.991a9.034,9.034,0,0,1,7.562,3.867,13.391,13.391,0,0,1,2.244,7.709C169.849,198.977,166.412,205.321,160.043,205.321Z"/></g><g id="Path_4735-4" data-name="Path 4735-4"><path class="cls-25" d="M148.816,202.82h-5V165.631h13.435c6.459,0,9.945,5.226,9.945,10.144a10.431,10.431,0,0,1-2.948,7.362,11.767,11.767,0,0,1-8.747,3.327v-5a7.049,7.049,0,0,0,5.177-1.827,5.462,5.462,0,0,0,1.518-3.862,4.845,4.845,0,0,0-4.945-5.144h-8.435Z"/></g><g id="Line_22-4" data-name="Line 22-4"><rect class="cls-25" x="143.816" y="162.478" width="5" height="5.654"/></g><g id="Line_23-4" data-name="Line 23-4"><rect class="cls-25" x="150.06" y="162.478" width="5" height="5.654"/></g><g id="Line_24-4" data-name="Line 24-4"><rect class="cls-25" x="143.816" y="202.821" width="5" height="5.653"/></g><g id="Line_25-4" data-name="Line 25-4"><rect class="cls-25" x="150.06" y="202.821" width="5" height="5.653"/></g></g></g><g id="Group_2662-4" data-name="Group 2662-4" class="cls-28"><path id="Path_4708-4" data-name="Path 4708-4" class="cls-10" d="M180.731,160.643l-61.678,46.481a39.489,39.489,0,0,1-4.693-11.361l57.186-43.1A38.535,38.535,0,0,1,180.731,160.643Z"/><path id="Path_4709-4" data-name="Path 4709-4" class="cls-10" d="M186.659,169.9l-60.522,45.645a38.676,38.676,0,0,1-4.068-4.381L183.8,164.623A36.911,36.911,0,0,1,186.659,169.9Z"/><path id="Path_4710-4" data-name="Path 4710-4" class="cls-10" d="M189.656,179.563,132.879,221.3l-3.113-1.792,59.126-43.451C189.2,177.209,189.456,178.373,189.656,179.563Z"/></g></g></g></g><g id="Group_3196" data-name="Group 3196"><g id="Group_2640-5" data-name="Group 2640-5"><g id="Group_2637-5" data-name="Group 2637-5"><ellipse id="Ellipse_293-5" data-name="Ellipse 293-5" class="cls-20" cx="206.831" cy="75.303" rx="29.502" ry="28.884" transform="translate(126.997 280.428) rotate(-88.74)"/><path id="Path_4704-5" data-name="Path 4704-5" class="cls-21" d="M233.314,75.3c0,16.3-12.929,29.508-28.877,29.508S175.564,91.6,175.564,75.3s12.928-29.508,28.878-29.508S233.314,59,233.314,75.3Z"/><ellipse id="Ellipse_294-6" data-name="Ellipse 294-6" class="cls-22" cx="202.47" cy="75.303" rx="29.502" ry="28.884" transform="translate(122.732 276.068) rotate(-88.74)"/><path id="Path_4705-5" data-name="Path 4705-5" class="cls-23" d="M226.974,75.3c0,13.889-10.977,25.147-24.517,25.147S177.941,89.191,177.941,75.3s10.976-25.147,24.516-25.147S226.974,61.415,226.974,75.3Z"/><path id="Path_4706-5" data-name="Path 4706-5" class="cls-24" d="M205.7,97.833a25.141,25.141,0,0,1-19.037-41.568,25.142,25.142,0,1,0,35.458,35.458A25.039,25.039,0,0,1,205.7,97.833Z"/></g><g id="Group_2661-5" data-name="Group 2661-5"><g id="Path_4734-5" data-name="Path 4734-5"><path class="cls-25" d="M208.077,87.454H195.744v-3h12.333c2.107,0,3.245-2.511,3.245-4.874a5.65,5.65,0,0,0-.881-3.2,2.715,2.715,0,0,0-2.364-1.2H195.744v-3h12.333a5.744,5.744,0,0,1,4.81,2.459,8.577,8.577,0,0,1,1.435,4.935C214.322,83.4,212.133,87.454,208.077,87.454Z"/></g><g id="Path_4735-5" data-name="Path 4735-5"><path class="cls-25" d="M200.662,85.953h-3V61.925h8.6a6.272,6.272,0,0,1,6.335,6.464,6.647,6.647,0,0,1-1.879,4.694,7.522,7.522,0,0,1-5.593,2.124v-3a4.7,4.7,0,0,0,3.451-1.223,3.672,3.672,0,0,0,1.021-2.595,3.265,3.265,0,0,0-3.335-3.464h-5.6Z"/></g><g id="Line_22-5" data-name="Line 22-5"><rect class="cls-25" x="197.663" y="59.754" width="3" height="3.672"/></g><g id="Line_23-5" data-name="Line 23-5"><rect class="cls-25" x="201.718" y="59.754" width="3" height="3.672"/></g><g id="Line_24-5" data-name="Line 24-5"><rect class="cls-25" x="197.663" y="85.954" width="3" height="3.671"/></g><g id="Line_25-5" data-name="Line 25-5"><rect class="cls-25" x="201.718" y="85.954" width="3" height="3.671"/></g></g></g><g id="Group_2662-5" data-name="Group 2662-5" class="cls-26"><path id="Path_4708-5" data-name="Path 4708-5" class="cls-10" d="M224.206,56.071,177.96,90.926a29.607,29.607,0,0,1-3.519-8.518l42.878-32.319A28.911,28.911,0,0,1,224.206,56.071Z"/><path id="Path_4709-5" data-name="Path 4709-5" class="cls-10" d="M228.651,63.014,183.272,97.238a28.985,28.985,0,0,1-3.05-3.284l46.283-34.9A27.727,27.727,0,0,1,228.651,63.014Z"/><path id="Path_4710-5" data-name="Path 4710-5" class="cls-10" d="M230.9,70.257,188.327,101.55l-2.334-1.344,44.332-32.579C230.558,68.491,230.747,69.364,230.9,70.257Z"/></g></g></g><g id="Wallet_2" data-name="Wallet 2"><g id="Group_3168" data-name="Group 3168"><rect id="Rectangle_791" data-name="Rectangle 791" class="cls-29" x="352.067" y="206.273" width="232.933" height="189.389" rx="6.536"/><rect id="Rectangle_793" data-name="Rectangle 793" class="cls-15" x="360.677" y="208.735" width="214.354" height="12.236" rx="4.268"/><path id="Path_5360" data-name="Path 5360" class="cls-13" d="M375.215,227.6l201.347-20.465c4.66-.473,8.439,3.175,8.439,8.149V386.655c0,4.974-3.778,9.39-8.439,9.865L375.215,416.981c-4.66.474-8.439-3.175-8.439-8.149V237.461C366.776,232.481,370.555,228.069,375.215,227.6Z"/><g id="Group_3163" data-name="Group 3163"><path id="Path_5362" data-name="Path 5362" class="cls-16" d="M571.57,214.1a.716.716,0,0,0,.717.645h.072l7.2-.731a.72.72,0,0,0,.631-.788.712.712,0,0,0-.774-.646H579.4l-7.182.731a.713.713,0,0,0-.652.769Zm-15.826,1.6a.716.716,0,0,0,.717.645h.072l7.2-.731a.721.721,0,0,0-.158-1.433l-7.182.731a.721.721,0,0,0-.649.786Zm-15.825,1.605a.716.716,0,0,0,.717.645h.072l7.2-.731a.711.711,0,0,0,.631-.784v0a.7.7,0,0,0-.76-.634l-.028,0-7.181.731a.7.7,0,0,0-.653.744l0,.031Zm-15.825,1.62a.714.714,0,0,0,.717.631h.072l7.2-.731a.711.711,0,0,0,.631-.784v0a.7.7,0,0,0-.762-.632h-.012l-7.2.731a.712.712,0,0,0-.646.774v.014Zm-15.825,1.609a.728.728,0,0,0,.717.645.163.163,0,0,0,.072-.014l7.2-.731a.7.7,0,0,0,.632-.762v-.012a.708.708,0,0,0-.765-.646h-.009l-7.2.731a.713.713,0,0,0-.647.773Zm-15.825,1.6a.716.716,0,0,0,.717.645h.072l7.2-.731a.72.72,0,0,0,.631-.788.708.708,0,0,0-.765-.646h-.009l-7.2.731a.713.713,0,0,0-.647.773Zm-15.825,1.605a.716.716,0,0,0,.717.645h.072l7.2-.731a.711.711,0,0,0,.631-.784v0a.719.719,0,0,0-.774-.645l-7.2.731a.72.72,0,0,0-.646.789v0Zm-15.825,1.6a.716.716,0,0,0,.717.645h.072l7.2-.731a.711.711,0,0,0,.631-.784v0a.691.691,0,0,0-.744-.634l-.03,0-7.2.731a.7.7,0,0,0-.649.748l0,.029Zm-15.825,1.62a.728.728,0,0,0,.717.645.61.61,0,0,1,.072-.014l7.2-.731a.7.7,0,0,0,.634-.76l0-.028a.691.691,0,0,0-.744-.634l-.03,0-7.2.731a.713.713,0,0,0-.648.773l0,.018Zm-15.825,1.609a.728.728,0,0,0,.717.645.163.163,0,0,0,.072-.014l7.2-.731a.7.7,0,0,0,.632-.762v-.012a.708.708,0,0,0-.762-.648l-.026,0-7.182.731a.713.713,0,0,0-.652.769Zm-15.825,1.6a.716.716,0,0,0,.717.645h.072l7.2-.731a.72.72,0,0,0-.143-1.433l-7.2.731a.714.714,0,0,0-.649.772l0,.016Zm-15.825,1.6a.716.716,0,0,0,.717.645h.072l7.2-.731a.711.711,0,0,0,.631-.784v0a.72.72,0,0,0-.774-.645l-7.2.731a.721.721,0,0,0-.647.788Zm-15.21,1.551.158.7,7.21-.731a.711.711,0,0,0,.631-.784v0a.7.7,0,0,0-.762-.632h-.012l-7.2.731Zm-9.059,9.862v1.82a.719.719,0,0,0,.717.717.71.71,0,0,0,.717-.7V243.2a9.478,9.478,0,0,1,1.319-4.788.736.736,0,0,0-.244-.989.724.724,0,0,0-.989.258,10.962,10.962,0,0,0-1.52,5.517Zm0,10.493v7.239a.728.728,0,0,0,.717.717.718.718,0,0,0,.717-.717V253.7a.718.718,0,0,0-.717-.717.729.729,0,0,0-.717.714Zm0,15.911v7.225a.719.719,0,0,0,.717.717.71.71,0,0,0,.717-.7v-7.239a.71.71,0,0,0-.7-.717h-.014a.718.718,0,0,0-.717.715Zm0,15.911v7.223a.719.719,0,0,0,.717.717.71.71,0,0,0,.717-.7v-7.239a.71.71,0,0,0-.7-.717h-.014a.719.719,0,0,0-.717.717Zm0,15.9v7.239a.728.728,0,0,0,.717.717.718.718,0,0,0,.717-.717v-7.239a.719.719,0,0,0-.717-.717.728.728,0,0,0-.717.712Zm0,15.911v7.225a.719.719,0,0,0,.717.717.71.71,0,0,0,.717-.7v-7.239a.71.71,0,0,0-.7-.717h-.014a.719.719,0,0,0-.717.712Zm0,15.911v7.225a.719.719,0,0,0,.717.717.71.71,0,0,0,.717-.7V333.24a.71.71,0,0,0-.7-.717h-.014a.719.719,0,0,0-.717.712Zm0,15.9v7.239a.728.728,0,0,0,.717.717.718.718,0,0,0,.717-.717V349.14a.719.719,0,0,0-.717-.717.729.729,0,0,0-.717.709Zm0,15.911v7.239a.728.728,0,0,0,.717.717.718.718,0,0,0,.717-.717v-7.249a.71.71,0,0,0-.7-.717h-.014a.719.719,0,0,0-.717.717Zm0,15.911v7.225a.719.719,0,0,0,.717.717.71.71,0,0,0,.717-.7v-7.239a.71.71,0,0,0-.7-.717h-.014a.719.719,0,0,0-.717.709Zm210.558,9.862a.538.538,0,0,0,.172.3,8.189,8.189,0,0,0,.473-1.161c-.029,0-.043.014-.072.014a.73.73,0,0,0-.573.839ZM567.958,392.4a.728.728,0,0,0,.717.645.163.163,0,0,0,.072-.014l7.2-.731a.713.713,0,0,0-.143-1.419l-7.2.731a.714.714,0,0,0-.647.774v.014Zm-15.825,1.6a.716.716,0,0,0,.717.645h.072l7.2-.731a.72.72,0,0,0,.631-.788.7.7,0,0,0-.749-.647l-.025,0-7.2.731a.714.714,0,0,0-.647.774v.014Zm-15.825,1.605a.716.716,0,0,0,.717.645h.072l7.2-.731a.711.711,0,0,0,.631-.784v0a.72.72,0,0,0-.774-.645l-7.2.731a.721.721,0,0,0-.646.781Zm-15.825,1.605a.716.716,0,0,0,.717.645h.072l7.2-.731a.711.711,0,0,0,.631-.784v0a.7.7,0,0,0-.762-.632h-.012l-7.2.731a.7.7,0,0,0-.649.748l0,.019Zm-15.825,1.62a.714.714,0,0,0,.717.631h.072l7.2-.731a.711.711,0,0,0,.631-.784v0a.691.691,0,0,0-.744-.634l-.03,0-7.2.731a.714.714,0,0,0-.648.773v.015Zm-15.825,1.606a.728.728,0,0,0,.717.645.163.163,0,0,0,.072-.014l7.2-.731a.713.713,0,1,0-.143-1.419l-7.2.731a.714.714,0,0,0-.648.773v.015Zm-15.826,1.6a.716.716,0,0,0,.717.645h.072l7.2-.731a.72.72,0,0,0,.631-.788.692.692,0,0,0-.733-.649l-.041,0-7.2.731a.713.713,0,0,0-.647.773Zm-15.825,1.6a.716.716,0,0,0,.717.645h.072l7.2-.731a.72.72,0,0,0-.143-1.433l-7.2.731A.721.721,0,0,0,457.182,403.641Zm-83.957-6.794v6.25a8.553,8.553,0,0,0,.057,1.061.716.716,0,0,0,.717.645.163.163,0,0,0,.072-.014.7.7,0,0,0,.632-.762v-.012c-.029-.3-.043-.616-.043-.917v-6.25a.718.718,0,0,0-.717-.717.727.727,0,0,0-.717.72Zm68.131,8.4a.716.716,0,0,0,.717.645h.072l7.2-.731a.711.711,0,0,0,.631-.784v0a.691.691,0,0,0-.744-.634l-.03,0-7.2.731a.7.7,0,0,0-.649.748l0,.03Zm-15.825,1.62a.728.728,0,0,0,.717.645.61.61,0,0,1,.072-.014l7.2-.731a.7.7,0,0,0,.634-.76l0-.028a.691.691,0,0,0-.744-.634l-.03,0-7.2.731a.713.713,0,0,0-.648.773l0,.019Zm-15.825,1.6a.728.728,0,0,0,.717.645.163.163,0,0,0,.072-.014l7.2-.731a.713.713,0,1,0-.143-1.419l-7.2.731a.713.713,0,0,0-.648.773l0,.019Zm-15.825,1.605a.716.716,0,0,0,.717.645h.072l7.2-.731a.72.72,0,0,0,.631-.788.7.7,0,0,0-.749-.647l-.025,0-7.2.731a.713.713,0,0,0-.648.772l0,.021Zm-15.324,1.364a8.2,8.2,0,0,0,3.01.559c.3,0,.588-.014.889-.043l3.584-.358a.72.72,0,1,0-.143-1.433h0l-3.584.373a6.928,6.928,0,0,1-3.225-.43.713.713,0,0,0-.929.392l0,.008A.724.724,0,0,0,378.557,411.441Z"/></g><path id="Path_5363" data-name="Path 5363" class="cls-19" d="M408.625,323.114A10.034,10.034,0,1,1,398.59,313.08a10.034,10.034,0,0,1,10.035,10.034Z"/></g></g><g id="Group_3202" data-name="Group 3202"><g id="Group_3200" data-name="Group 3200"><g id="Group_3198" data-name="Group 3198"><ellipse id="Ellipse_318" data-name="Ellipse 318" class="cls-20" cx="466.434" cy="156.369" rx="30.44" ry="29.803" transform="translate(299.844 619.25) rotate(-88.74)"/><path id="Path_5376" data-name="Path 5376" class="cls-21" d="M493.759,156.367c0,16.817-13.341,30.447-29.8,30.447s-29.8-13.631-29.8-30.447,13.34-30.447,29.8-30.447S493.759,139.556,493.759,156.367Z"/><ellipse id="Ellipse_319-2" data-name="Ellipse 319-2" class="cls-22" cx="461.934" cy="156.369" rx="30.44" ry="29.803" transform="translate(295.443 614.751) rotate(-88.74)"/><path id="Path_5377" data-name="Path 5377" class="cls-23" d="M487.215,156.367c0,14.331-11.326,25.948-25.3,25.948s-25.3-11.617-25.3-25.948,11.325-25.947,25.3-25.947S487.215,142.037,487.215,156.367Z"/><path id="Path_5378" data-name="Path 5378" class="cls-24" d="M464.47,179.615c-13.931,0-25.223-11.617-25.223-25.948a26.274,26.274,0,0,1,6.128-16.943,26.191,26.191,0,0,0-8.753,19.643c0,14.331,11.293,25.948,25.224,25.948a24.875,24.875,0,0,0,19.1-9A24.715,24.715,0,0,1,464.47,179.615Z"/></g><g id="M" class="cls-30"><g class="cls-30"><path class="cls-31" d="M457.05,161.038h-2.1a1.267,1.267,0,0,1-.89-.22,1.4,1.4,0,0,1-.21-.92v-12.52a.826.826,0,0,1,.2-.58.67.67,0,0,1,.521-.22h2.479Zm.819-14.46h5.122a.668.668,0,0,1,.519.22.831.831,0,0,1,.2.58v12.2H461.63a1.031,1.031,0,0,1-.86-.33,1.734,1.734,0,0,1-.26-1.07v-9.12a.829.829,0,0,0-.09-.45c-.06-.087-.211-.13-.45-.13h-2.1Zm6.441,0h3a4,4,0,0,1,2.21.5,1.934,1.934,0,0,1,.75,1.74V159.9a1.4,1.4,0,0,1-.21.92,1.269,1.269,0,0,1-.89.22h-2.1v-11.98a.837.837,0,0,0-.091-.45c-.06-.087-.21-.13-.45-.13h-2.22Z"/></g></g></g><g id="Group_3201" data-name="Group 3201" class="cls-28"><path id="Path_5381" data-name="Path 5381" class="cls-10" d="M484.272,136.425,436.554,172.39a30.543,30.543,0,0,1-3.631-8.79l44.242-33.347A29.8,29.8,0,0,1,484.272,136.425Z"/><path id="Path_5382" data-name="Path 5382" class="cls-10" d="M488.858,143.589l-46.823,35.316a29.942,29.942,0,0,1-3.147-3.389l47.756-36.011A28.553,28.553,0,0,1,488.858,143.589Z"/><path id="Path_5383" data-name="Path 5383" class="cls-10" d="M491.173,151.063l-43.922,32.289-2.409-1.386,45.743-33.616C490.825,149.241,491.02,150.141,491.173,151.063Z"/></g></g><g id="Group_3214" data-name="Group 3214"><g id="Group_3200-2" data-name="Group 3200-2"><g id="Group_3198-2" data-name="Group 3198-2"><ellipse id="Ellipse_318-2" data-name="Ellipse 318-2" class="cls-20" cx="369.486" cy="104.022" rx="30.44" ry="29.803" transform="translate(257.362 471.13) rotate(-88.74)"/><path id="Path_5376-2" data-name="Path 5376-2" class="cls-21" d="M396.811,104.02c0,16.817-13.341,30.447-29.8,30.447s-29.8-13.631-29.8-30.447,13.34-30.447,29.8-30.447S396.811,87.209,396.811,104.02Z"/><ellipse id="Ellipse_319-3" data-name="Ellipse 319-3" class="cls-22" cx="364.986" cy="104.022" rx="30.44" ry="29.803" transform="translate(252.961 466.631) rotate(-88.74)"/><path id="Path_5377-2" data-name="Path 5377-2" class="cls-23" d="M390.267,104.02c0,14.331-11.326,25.948-25.3,25.948s-25.3-11.617-25.3-25.948,11.325-25.947,25.3-25.947S390.267,89.69,390.267,104.02Z"/><path id="Path_5378-2" data-name="Path 5378-2" class="cls-24" d="M367.522,127.268c-13.931,0-25.223-11.617-25.223-25.948a26.274,26.274,0,0,1,6.128-16.943,26.191,26.191,0,0,0-8.753,19.643c0,14.331,11.293,25.948,25.224,25.948a24.875,24.875,0,0,0,19.1-9A24.715,24.715,0,0,1,367.522,127.268Z"/></g><g id="M-2" class="cls-30"><g class="cls-30"><path class="cls-31" d="M360.564,109.691h-2.31a1.393,1.393,0,0,1-.979-.242,1.539,1.539,0,0,1-.231-1.012V94.665a.911.911,0,0,1,.22-.638.737.737,0,0,1,.572-.242h2.728Zm.9-15.906H367.1a.74.74,0,0,1,.572.242.911.911,0,0,1,.22.638v13.42H365.6a1.132,1.132,0,0,1-.946-.362,1.916,1.916,0,0,1-.286-1.178V96.514a.915.915,0,0,0-.1-.5q-.1-.142-.5-.143h-2.31Zm7.084,0h3.3a4.409,4.409,0,0,1,2.431.55,2.129,2.129,0,0,1,.825,1.914v12.188a1.539,1.539,0,0,1-.231,1.012,1.393,1.393,0,0,1-.979.242h-2.31V96.514a.915.915,0,0,0-.1-.5q-.1-.142-.5-.143H368.55Z"/></g></g></g><g id="Group_3201-2" data-name="Group 3201-2" class="cls-28"><path id="Path_5381-2" data-name="Path 5381-2" class="cls-10" d="M387.324,84.078l-47.718,35.965a30.543,30.543,0,0,1-3.631-8.79l44.242-33.347A29.8,29.8,0,0,1,387.324,84.078Z"/><path id="Path_5382-2" data-name="Path 5382-2" class="cls-10" d="M391.91,91.242l-46.823,35.316a29.942,29.942,0,0,1-3.147-3.389L389.7,87.158A28.553,28.553,0,0,1,391.91,91.242Z"/><path id="Path_5383-2" data-name="Path 5383-2" class="cls-10" d="M394.225,98.716,350.3,131.005l-2.409-1.386L393.637,96C393.877,96.894,394.072,97.794,394.225,98.716Z"/></g></g><g class="cls-32"><g id="Mask_Group_2" data-name="Mask Group 2"><g id="Group_3204" data-name="Group 3204"><g id="Group_3200-3" data-name="Group 3200-3"><g id="Group_3198-3" data-name="Group 3198-3"><ellipse id="Ellipse_318-3" data-name="Ellipse 318-3" class="cls-20" cx="502.898" cy="196.02" rx="32.411" ry="31.732" transform="matrix(0.022, -1, 1, 0.022, 295.864, 694.485)"/><path id="Path_5376-3" data-name="Path 5376-3" class="cls-21" d="M531.992,196.018c0,17.9-14.2,32.418-31.724,32.418s-31.72-14.513-31.72-32.418,14.2-32.417,31.724-32.417S531.992,178.115,531.992,196.018Z"/><ellipse id="Ellipse_319-4" data-name="Ellipse 319-4" class="cls-22" cx="498.107" cy="196.02" rx="32.411" ry="31.732" transform="matrix(0.022, -1, 1, 0.022, 291.179, 689.695)"/><path id="Path_5377-3" data-name="Path 5377-3" class="cls-23" d="M525.024,196.018c0,15.258-12.059,27.627-26.934,27.627s-26.933-12.368-26.933-27.627,12.058-27.626,26.935-27.626S525.024,180.76,525.024,196.018Z"/><path id="Path_5378-3" data-name="Path 5378-3" class="cls-24" d="M500.807,220.771c-14.832,0-26.855-12.369-26.855-27.627a27.975,27.975,0,0,1,6.525-18.039,27.886,27.886,0,0,0-9.319,20.914c0,15.258,12.023,27.627,26.856,27.627a26.483,26.483,0,0,0,20.332-9.587A26.311,26.311,0,0,1,500.807,220.771Z"/></g><g id="M-3" class="cls-30"><g class="cls-30"><path class="cls-31" d="M492.985,204.106H490.36a1.584,1.584,0,0,1-1.113-.276,1.752,1.752,0,0,1-.262-1.149v-15.65a1.04,1.04,0,0,1,.25-.725.835.835,0,0,1,.65-.275h3.1Zm1.025-18.075h6.4a.837.837,0,0,1,.65.275,1.036,1.036,0,0,1,.25.725v15.25h-2.6a1.291,1.291,0,0,1-1.075-.412,2.176,2.176,0,0,1-.325-1.338v-11.4a1.034,1.034,0,0,0-.112-.562c-.076-.109-.263-.163-.563-.163H494.01Zm8.05,0h3.75a5.009,5.009,0,0,1,2.763.625,2.417,2.417,0,0,1,.937,2.174v13.851a1.745,1.745,0,0,1-.263,1.149,1.581,1.581,0,0,1-1.112.276H505.51V189.131a1.034,1.034,0,0,0-.112-.562q-.113-.163-.563-.163H502.06Z"/></g></g></g><g id="Group_3201-3" data-name="Group 3201-3" class="cls-28"><path id="Path_5381-3" data-name="Path 5381-3" class="cls-10" d="M521.891,174.786l-50.8,38.287a32.521,32.521,0,0,1-3.866-9.358l47.1-35.5A31.768,31.768,0,0,1,521.891,174.786Z"/><path id="Path_5382-3" data-name="Path 5382-3" class="cls-10" d="M526.774,182.413l-49.852,37.6a31.951,31.951,0,0,1-3.351-3.608l50.846-38.34A30.42,30.42,0,0,1,526.774,182.413Z"/><path id="Path_5383-3" data-name="Path 5383-3" class="cls-10" d="M529.239,190.371l-46.764,34.378-2.564-1.476,48.7-35.791A28.979,28.979,0,0,1,529.239,190.371Z"/></g></g></g></g><g id="Group_3203" data-name="Group 3203"><g id="Group_3200-4" data-name="Group 3200-4"><g id="Group_3198-4" data-name="Group 3198-4"><ellipse id="Ellipse_318-4" data-name="Ellipse 318-4" class="cls-20" cx="416.698" cy="181.774" rx="35.219" ry="34.48" transform="translate(225.802 594.373) rotate(-88.74)"/><path id="Path_5376-4" data-name="Path 5376-4" class="cls-21" d="M448.313,181.773c0,19.456-15.435,35.226-34.472,35.226s-34.469-15.77-34.469-35.226,15.433-35.226,34.473-35.226S448.313,162.318,448.313,181.773Z"/><ellipse id="Ellipse_319-5" data-name="Ellipse 319-5" class="cls-22" cx="411.492" cy="181.774" rx="35.219" ry="34.48" transform="translate(220.711 589.168) rotate(-88.74)"/><path id="Path_5377-4" data-name="Path 5377-4" class="cls-23" d="M440.743,181.773c0,16.58-13.1,30.02-29.268,30.02s-29.266-13.44-29.266-30.02,13.1-30.02,29.266-30.02S440.743,165.193,440.743,181.773Z"/><path id="Path_5378-4" data-name="Path 5378-4" class="cls-24" d="M414.427,208.669c-16.117,0-29.182-13.441-29.182-30.021a30.4,30.4,0,0,1,7.09-19.6,30.3,30.3,0,0,0-10.127,22.726c0,16.58,13.065,30.02,29.183,30.02a28.781,28.781,0,0,0,22.093-10.417A28.589,28.589,0,0,1,414.427,208.669Z"/></g><g id="M-4" class="cls-30"><g class="cls-30"><path class="cls-31" d="M404.079,191.544H401.14a1.779,1.779,0,0,1-1.246-.308,1.963,1.963,0,0,1-.294-1.288V172.42a1.158,1.158,0,0,1,.28-.812.936.936,0,0,1,.728-.308h3.471Zm1.149-20.244H412.4a.936.936,0,0,1,.728.308,1.163,1.163,0,0,1,.28.812V189.5h-2.912a1.446,1.446,0,0,1-1.205-.462,2.444,2.444,0,0,1-.363-1.5V174.771a1.16,1.16,0,0,0-.126-.629c-.084-.122-.294-.182-.63-.182h-2.94Zm9.015,0h4.2a5.6,5.6,0,0,1,3.093.7,2.706,2.706,0,0,1,1.051,2.435v15.513a1.963,1.963,0,0,1-.294,1.288,1.781,1.781,0,0,1-1.246.308h-2.94V174.771a1.16,1.16,0,0,0-.126-.629c-.084-.122-.294-.182-.63-.182h-3.109Z"/></g></g></g><g id="Group_3201-4" data-name="Group 3201-4" class="cls-28"><path id="Path_5381-4" data-name="Path 5381-4" class="cls-10" d="M437.335,158.7l-55.207,41.6a35.367,35.367,0,0,1-4.2-10.169l51.186-38.581A34.486,34.486,0,0,1,437.335,158.7Z"/><path id="Path_5382-4" data-name="Path 5382-4" class="cls-10" d="M442.643,166.988l-54.171,40.856a34.637,34.637,0,0,1-3.641-3.921l55.25-41.66A33.013,33.013,0,0,1,442.643,166.988Z"/><path id="Path_5383-4" data-name="Path 5383-4" class="cls-10" d="M445.321,175.635l-50.812,37.356-2.787-1.6L444.644,172.5C444.919,173.528,445.144,174.57,445.321,175.635Z"/></g></g><g id="Group_3219" data-name="Group 3219"><g id="Group_3200-5" data-name="Group 3200-5"><g id="Group_3198-5" data-name="Group 3198-5"><ellipse id="Ellipse_318-5" data-name="Ellipse 318-5" class="cls-20" cx="487.546" cy="370.808" rx="41.863" ry="40.986" transform="translate(106.104 850.08) rotate(-88.74)"/><path id="Path_5376-5" data-name="Path 5376-5" class="cls-21" d="M525.125,370.807c0,23.127-18.347,41.872-40.976,41.872s-40.973-18.745-40.973-41.872,18.345-41.872,40.977-41.872S525.125,347.682,525.125,370.807Z"/><ellipse id="Ellipse_319-6" data-name="Ellipse 319-6" class="cls-22" cx="481.273" cy="370.731" rx="41.861" ry="40.984" transform="translate(100.993 844.494) rotate(-88.854)"/><path id="Path_5377-5" data-name="Path 5377-5" class="cls-23" d="M516.126,370.807c0,19.709-15.577,35.684-34.79,35.684s-34.788-15.976-34.788-35.684,15.574-35.684,34.788-35.684S516.126,351.1,516.126,370.807Z"/><path id="Path_5378-5" data-name="Path 5378-5" class="cls-24" d="M484.846,402.778c-19.158,0-34.688-15.977-34.688-35.685a36.129,36.129,0,0,1,8.427-23.3,36.02,36.02,0,0,0-12.037,27.014c0,19.708,15.53,35.684,34.689,35.684A34.211,34.211,0,0,0,507.5,394.108,33.985,33.985,0,0,1,484.846,402.778Z"/></g><g id="M-5" class="cls-30"><text class="cls-33" transform="translate(467.912 381.476)">M</text></g></g><g id="Group_3201-5" data-name="Group 3201-5" class="cls-28"><path id="Path_5381-5" data-name="Path 5381-5" class="cls-10" d="M512.078,343.382l-65.623,49.454a42.047,42.047,0,0,1-4.994-12.088l60.843-45.86A41.027,41.027,0,0,1,512.078,343.382Z"/><path id="Path_5382-5" data-name="Path 5382-5" class="cls-10" d="M518.387,353.233,454,401.8a41.317,41.317,0,0,1-4.328-4.661l65.676-49.52A39.4,39.4,0,0,1,518.387,353.233Z"/><path id="Path_5383-5" data-name="Path 5383-5" class="cls-10" d="M521.57,363.512l-60.4,44.4-3.312-1.907,62.907-46.23C521.092,361,521.36,362.245,521.57,363.512Z"/></g></g></svg>