<svg id="Layer_1" data-name="Layer 1" xmlns="http://www.w3.org/2000/svg" xmlns:xlink="http://www.w3.org/1999/xlink" viewBox="0 0 846.002 609.85"><defs><style>.cls-1,.cls-13,.cls-29,.cls-39,.cls-42,.cls-43{fill:none;}.cls-2{clip-path:url(#clip-path);}.cls-3{fill:#004c91;}.cls-4{fill:#edaf86;}.cls-5{fill:#5a231f;}.cls-6{fill:#ffc39b;}.cls-11,.cls-14,.cls-7{isolation:isolate;}.cls-8{fill:#1f224e;}.cls-9{fill:#f1f2f2;}.cls-10{fill:#b3b3b3;}.cls-11,.cls-14{opacity:0.2;}.cls-12{fill:#f09242;}.cls-13{stroke:#fff;stroke-linejoin:round;stroke-width:0.95px;}.cls-13,.cls-29{stroke-linecap:round;}.cls-14,.cls-24{fill:#fff;}.cls-15{fill:#f0c362;}.cls-16{fill:#1a1818;}.cls-17{fill:#e4a400;}.cls-18{fill:#ffec30;}.cls-19{fill:#ffd400;}.cls-20{fill:#fb0;}.cls-21{fill:#f88f00;}.cls-22{fill:#f37f00;}.cls-23{opacity:0.127;}.cls-25{opacity:0.137;}.cls-26{opacity:0.231;}.cls-27{fill:#371d04;}.cls-28{fill:#562c0c;}.cls-29{stroke:#814c28;stroke-miterlimit:10;stroke-width:1.416px;stroke-dasharray:3.776;}.cls-30{fill:#793c13;}.cls-31{fill:#f27c00;}.cls-32{fill:#f37f24;}.cls-33{opacity:0.114;}.cls-34{opacity:0.204;}.cls-35{opacity:0.145;}.cls-36{fill:#63aee0;}.cls-37{fill:#98c9ed;}.cls-38{fill:#d4efff;}.cls-39,.cls-42,.cls-43{stroke:#a6a8c3;}.cls-39{stroke-width:2px;}.cls-40{fill:#e59f3f;}.cls-41{fill:#a6a8c3;}.cls-42{stroke-width:2px;}.cls-43{stroke-width:2px;}</style><clipPath id="clip-path" transform="translate(-0.998 -0.374)"><circle class="cls-1" cx="77.5" cy="505.501" r="76.5"/></clipPath></defs><g id="Group_2718" data-name="Group 2718"><g id="Group_2630" data-name="Group 2630"><g class="cls-2"><g id="Group_2629" data-name="Group 2629"><g id="Group_2628" data-name="Group 2628"><path id="Path_4670" data-name="Path 4670" class="cls-3" d="M118.187,550.224c-4.807-6-42.858-19.155-42.858-19.155s-37.254,14.557-42.862,19.155-7.706,33.664-7.706,33.664H124.8S122.993,556.219,118.187,550.224Z" transform="translate(-0.998 -0.374)"/><path id="Path_4671" data-name="Path 4671" class="cls-4" d="M87.124,538.1a9.047,9.047,0,0,1-5.313,5.839c-1.626.729-3.74,10-6.474,10-2.887,0-5.083-9.332-6.746-10.13a9,9,0,0,1-5.037-5.713,15.7,15.7,0,0,0,0-12.413c-2.871-6.7,27.084-8.061,23.57,0S87.124,538.1,87.124,538.1Z" transform="translate(-0.998 -0.374)"/><path id="Path_4672" data-name="Path 4672" class="cls-5" d="M102.229,511.407c2.194-9.845,4.844-24.342,4.844-24.342,9.075-20.3-.337-50.9-17.936-41.492-21.778-19.891-56.23,7.927-44.576,41.217,0,0,1.409,15.235,3.674,24.939,2.55,10.91,21.353,19.022,27.1,19.341S99.909,521.838,102.229,511.407Z" transform="translate(-0.998 -0.374)"/><path id="Path_4673" data-name="Path 4673" class="cls-6" d="M108.642,492.874c0,5.319-3.772,12.627-6.312,12.627s-4.6-4.314-4.6-9.632a11.417,11.417,0,0,1,4.6-9.628C104.791,484.314,108.642,486.241,108.642,492.874Z" transform="translate(-0.998 -0.374)"/><path id="Path_4674" data-name="Path 4674" class="cls-6" d="M42.785,492.874c0,5.319,3.77,12.627,6.307,12.627s4.606-4.314,4.606-9.632a11.419,11.419,0,0,0-4.606-9.628C46.631,484.314,42.785,486.241,42.785,492.874Z" transform="translate(-0.998 -0.374)"/><path id="Path_4675" data-name="Path 4675" class="cls-6" d="M75.816,450.716c-17.865,0-25.764,12.519-25.764,31.187v23.381c0,16.264,18.789,30.171,24.726,30.171s26.8-16.262,26.8-31.667V481.9C101.578,463.235,93.681,450.716,75.816,450.716Z" transform="translate(-0.998 -0.374)"/><path id="Path_4676" data-name="Path 4676" class="cls-5" d="M101.579,495.228l1.608-13.623c0-18.672-9.5-32.583-27.371-32.583s-26.682,13.911-26.682,32.583l.918,16.618a17.455,17.455,0,0,0,1.931-8.831c-.429-11.986,7.958-13.056,17.731-14.922,15.407-2.943,19.738-12.182,19.738-12.182S94.5,464,97.728,471.527c2.086,4.868,2.572,12.325,2.411,15.374S101.579,495.228,101.579,495.228Z" transform="translate(-0.998 -0.374)"/><g id="Group_2627" data-name="Group 2627"><path id="Path_4677" data-name="Path 4677" d="M60.648,481.605c-6.914,0-11.235,2.57-11.235,5.3,0,4.332,1.582,11.367,8.445,12.2,6.642.8,15.309-1.605,15.309-12.677C73.167,483.852,67.562,481.605,60.648,481.605Zm-2.3,16.245c-5.875-.71-7.227-6.733-7.227-10.441,0-2.335,3.7-4.535,9.616-4.535s10.718,1.924,10.718,4.12c0,9.483-7.415,11.543-13.1,10.856Z" transform="translate(-0.998 -0.374)"/><path id="Path_4678" data-name="Path 4678" d="M77.5,489.229a2.375,2.375,0,0,0-2.606-1.687c-1.562,0-1.961,1.85-1.961,1.85l-.826-4.875a4.21,4.21,0,0,0,1.9.981,7.549,7.549,0,0,0,2.091,0,3.075,3.075,0,0,0,1.4-.981Z" transform="translate(-0.998 -0.374)"/><path id="Path_4679" data-name="Path 4679" d="M50.377,491.876s-2.487-.177-2.487-1.452v-3.842c0-2.006,2.487-1.367,2.487-1.367Z" transform="translate(-0.998 -0.374)"/><path id="Path_4680" data-name="Path 4680" d="M76.387,486.421c0,11.072,8.666,13.48,15.308,12.677,6.864-.83,8.444-7.865,8.444-12.2,0-2.727-4.321-5.3-11.234-5.3S76.387,483.852,76.387,486.421Zm1.71.572c0-2.2,4.8-4.12,10.715-4.12s9.616,2.2,9.616,4.535c0,3.708-1.35,9.73-7.227,10.441-5.685.688-13.1-1.372-13.1-10.853Z" transform="translate(-0.998 -0.374)"/><path id="Path_4681" data-name="Path 4681" d="M99.174,491.876s2.488-.177,2.488-1.452v-3.842c0-2.006-2.488-1.367-2.488-1.367Z" transform="translate(-0.998 -0.374)"/></g></g></g></g></g></g><g id="title-block-dashboad"><g id="User" class="cls-7"><g class="cls-7"><path class="cls-8" d="M64.7,610.224a3.847,3.847,0,0,1-1.981-.5,3.4,3.4,0,0,1-1.33-1.428,4.667,4.667,0,0,1-.469-2.142v-6.174H62.45v6.258a2.755,2.755,0,0,0,.588,1.834,2.349,2.349,0,0,0,3.346,0,2.755,2.755,0,0,0,.588-1.834v-6.258H68.5v6.174a4.7,4.7,0,0,1-.462,2.128,3.412,3.412,0,0,1-1.316,1.435A3.85,3.85,0,0,1,64.7,610.224Z" transform="translate(-0.998 -0.374)"/><path class="cls-8" d="M74.168,610.224a3.7,3.7,0,0,1-2.24-.728,3.779,3.779,0,0,1-1.386-2.044L72,606.864a2.8,2.8,0,0,0,.8,1.372,1.966,1.966,0,0,0,1.386.532,2.076,2.076,0,0,0,1.281-.392,1.27,1.27,0,0,0,.525-1.078,1.338,1.338,0,0,0-.462-1.043,4.858,4.858,0,0,0-1.6-.8l-.63-.224a4.7,4.7,0,0,1-1.7-1.015,2.283,2.283,0,0,1-.679-1.729,2.514,2.514,0,0,1,.4-1.372,2.76,2.76,0,0,1,1.12-.994,3.561,3.561,0,0,1,1.631-.364,3.172,3.172,0,0,1,3.15,2.072l-1.386.588a1.692,1.692,0,0,0-.588-.868,1.789,1.789,0,0,0-1.162-.364,1.859,1.859,0,0,0-1.162.364,1.116,1.116,0,0,0-.476.924,1.059,1.059,0,0,0,.427.861,4.52,4.52,0,0,0,1.323.651l.644.224a5.074,5.074,0,0,1,1.988,1.162,2.605,2.605,0,0,1,.7,1.9,2.67,2.67,0,0,1-.5,1.645,2.985,2.985,0,0,1-1.274.987A4.128,4.128,0,0,1,74.168,610.224Z" transform="translate(-0.998 -0.374)"/><path class="cls-8" d="M80.005,599.976h6.077v1.456H81.545v2.828h4.089v1.456H81.545v2.828h4.537V610H80.005Z" transform="translate(-0.998 -0.374)"/><path class="cls-8" d="M88.713,599.976h3.515a3.434,3.434,0,0,1,1.645.392,2.959,2.959,0,0,1,1.588,2.674,2.7,2.7,0,0,1-.65,1.785,3.169,3.169,0,0,1-1.631,1.043l-.014.07,2.758,3.976V610H94.146l-2.674-3.934H90.253V610h-1.54Zm3.473,4.676a1.733,1.733,0,0,0,1.225-.462,1.52,1.52,0,0,0,.5-1.162,1.6,1.6,0,0,0-1.666-1.61H90.253v3.234Z" transform="translate(-0.998 -0.374)"/></g></g></g><g id="title-block-dashboad-2"><g id="TRC_20_token_Contract" data-name="TRC 20 token Contract" class="cls-7"><g class="cls-7"><path class="cls-8" d="M324.766,176.909h-2.814v-1.456h7.154v1.456h-2.8v8.568h-1.54Z" transform="translate(-0.998 -0.374)"/><path class="cls-8" d="M331.3,175.453h3.514a3.434,3.434,0,0,1,1.645.392,2.962,2.962,0,0,1,1.589,2.674,2.7,2.7,0,0,1-.651,1.785,3.165,3.165,0,0,1-1.631,1.043l-.014.07,2.758,3.976v.084h-1.778l-2.674-3.934h-1.218v3.934H331.3Zm3.472,4.676a1.733,1.733,0,0,0,1.225-.462,1.52,1.52,0,0,0,.5-1.162,1.6,1.6,0,0,0-1.666-1.61h-1.988v3.234Z" transform="translate(-0.998 -0.374)"/><path class="cls-8" d="M345.262,185.7a5.243,5.243,0,0,1-2.653-.686,4.975,4.975,0,0,1-1.883-1.89,5.5,5.5,0,0,1,0-5.32,4.973,4.973,0,0,1,1.883-1.889,5.234,5.234,0,0,1,2.653-.687,4.745,4.745,0,0,1,3.71,1.638l-1.078,1.05a3.528,3.528,0,0,0-1.155-.924,3.329,3.329,0,0,0-1.463-.308,3.749,3.749,0,0,0-1.862.469,3.444,3.444,0,0,0-1.331,1.33,4.257,4.257,0,0,0,0,3.962,3.444,3.444,0,0,0,1.331,1.33,3.759,3.759,0,0,0,1.862.469,3.578,3.578,0,0,0,2.87-1.414l1.1,1.064a5.1,5.1,0,0,1-1.75,1.33A5.239,5.239,0,0,1,345.262,185.7Z" transform="translate(-0.998 -0.374)"/><path class="cls-8" d="M355.173,184.049q2.842-2.828,3.5-3.556a5.655,5.655,0,0,0,.841-1.05,1.944,1.944,0,0,0,.223-.952,1.312,1.312,0,0,0-.426-.973,1.594,1.594,0,0,0-1.156-.413,1.533,1.533,0,0,0-1.085.385,2,2,0,0,0-.567.9l-1.357-.56a2.858,2.858,0,0,1,.524-.994,3.112,3.112,0,0,1,1.03-.826,3.158,3.158,0,0,1,1.484-.336,3.331,3.331,0,0,1,1.609.378,2.79,2.79,0,0,1,1.085,1.008,2.605,2.605,0,0,1,.386,1.386,4.382,4.382,0,0,1-1.527,3.038q-.615.617-1.393,1.387t-1.182,1.189l.013.042h4.2v1.372h-6.2Z" transform="translate(-0.998 -0.374)"/><path class="cls-8" d="M369.453,185.043a3.58,3.58,0,0,1-4.137,0,4.233,4.233,0,0,1-1.372-1.8,7,7,0,0,1,0-5.11,4.233,4.233,0,0,1,1.372-1.8,3.58,3.58,0,0,1,4.137,0,4.216,4.216,0,0,1,1.379,1.8,7,7,0,0,1,0,5.11A4.216,4.216,0,0,1,369.453,185.043Zm-2.072-.77a1.913,1.913,0,0,0,1.288-.469,2.922,2.922,0,0,0,.833-1.281,5.486,5.486,0,0,0,.287-1.834,5.553,5.553,0,0,0-.287-1.841,2.877,2.877,0,0,0-.833-1.281,1.932,1.932,0,0,0-1.288-.462,1.885,1.885,0,0,0-1.267.462,2.9,2.9,0,0,0-.826,1.281,5.553,5.553,0,0,0-.287,1.841,5.486,5.486,0,0,0,.287,1.834,2.947,2.947,0,0,0,.826,1.281A1.867,1.867,0,0,0,367.381,184.273Z" transform="translate(-0.998 -0.374)"/><path class="cls-8" d="M379.855,176.909h-2.814v-1.456H384.2v1.456h-2.8v8.568h-1.54Z" transform="translate(-0.998 -0.374)"/><path class="cls-8" d="M393.3,185a5.2,5.2,0,0,1-7.154-1.9,5.468,5.468,0,0,1,0-5.278,5.187,5.187,0,0,1,9.017,0,5.475,5.475,0,0,1,0,5.278A5.085,5.085,0,0,1,393.3,185Zm-4.48-1.239a3.75,3.75,0,0,0,3.682,0,3.491,3.491,0,0,0,1.316-1.344,4.19,4.19,0,0,0,0-3.906,3.491,3.491,0,0,0-1.316-1.344,3.75,3.75,0,0,0-3.682,0,3.5,3.5,0,0,0-1.316,1.344,4.19,4.19,0,0,0,0,3.906A3.5,3.5,0,0,0,388.821,183.762Z" transform="translate(-0.998 -0.374)"/><path class="cls-8" d="M398.32,175.453h1.54v4.788h.084l4.089-4.788h1.9v.084l-3.668,4.214,3.989,5.642v.084h-1.876l-3.163-4.522-1.359,1.582v2.94h-1.54Z" transform="translate(-0.998 -0.374)"/><path class="cls-8" d="M408.176,175.453h6.076v1.456h-4.536v2.828H413.8v1.456h-4.088v2.828h4.536v1.456h-6.076Z" transform="translate(-0.998 -0.374)"/><path class="cls-8" d="M416.884,175.453h1.82l4.536,7.364h.084l-.084-1.932v-5.432h1.527v10.024h-1.6l-4.76-7.742h-.084l.084,1.932v5.81h-1.526Z" transform="translate(-0.998 -0.374)"/><path class="cls-8" d="M436.414,185.7a5.239,5.239,0,0,1-2.652-.686,4.971,4.971,0,0,1-1.884-1.89,5.5,5.5,0,0,1,0-5.32,4.968,4.968,0,0,1,1.884-1.889,5.23,5.23,0,0,1,2.652-.687,4.744,4.744,0,0,1,3.71,1.638l-1.078,1.05a3.525,3.525,0,0,0-1.154-.924,3.329,3.329,0,0,0-1.463-.308,3.752,3.752,0,0,0-1.863.469,3.435,3.435,0,0,0-1.33,1.33,4.249,4.249,0,0,0,0,3.962,3.435,3.435,0,0,0,1.33,1.33,3.763,3.763,0,0,0,1.863.469,3.577,3.577,0,0,0,2.869-1.414L440.4,183.9a5.1,5.1,0,0,1-1.75,1.33A5.24,5.24,0,0,1,436.414,185.7Z" transform="translate(-0.998 -0.374)"/><path class="cls-8" d="M449.917,185a5.195,5.195,0,0,1-7.154-1.9,5.468,5.468,0,0,1,0-5.278,5.185,5.185,0,0,1,9.016,0,5.468,5.468,0,0,1,0,5.278A5.082,5.082,0,0,1,449.917,185Zm-4.48-1.239a3.75,3.75,0,0,0,3.682,0,3.5,3.5,0,0,0,1.316-1.344,4.19,4.19,0,0,0,0-3.906,3.5,3.5,0,0,0-1.316-1.344,3.75,3.75,0,0,0-3.682,0,3.5,3.5,0,0,0-1.316,1.344,4.19,4.19,0,0,0,0,3.906A3.5,3.5,0,0,0,445.437,183.762Z" transform="translate(-0.998 -0.374)"/><path class="cls-8" d="M454.936,175.453h1.82l4.536,7.364h.084l-.084-1.932v-5.432h1.526v10.024h-1.6l-4.76-7.742h-.084l.084,1.932v5.81h-1.526Z" transform="translate(-0.998 -0.374)"/><path class="cls-8" d="M467.83,176.909h-2.814v-1.456h7.154v1.456h-2.8v8.568H467.83Z" transform="translate(-0.998 -0.374)"/><path class="cls-8" d="M474.367,175.453h3.515a3.428,3.428,0,0,1,1.644.392,2.962,2.962,0,0,1,1.589,2.674,2.7,2.7,0,0,1-.65,1.785,3.169,3.169,0,0,1-1.631,1.043l-.015.07,2.759,3.976v.084H479.8l-2.674-3.934h-1.219v3.934h-1.54Zm3.473,4.676a1.729,1.729,0,0,0,1.224-.462,1.517,1.517,0,0,0,.5-1.162,1.6,1.6,0,0,0-1.666-1.61h-1.989v3.234Z" transform="translate(-0.998 -0.374)"/><path class="cls-8" d="M486.464,175.453h1.75l3.794,10.024h-1.695l-.923-2.576H485.3l-.925,2.576h-1.693Zm2.422,6.02-1.12-3.066-.378-1.148H487.3l-.378,1.148-1.12,3.066Z" transform="translate(-0.998 -0.374)"/><path class="cls-8" d="M498.63,185.7a5.24,5.24,0,0,1-2.653-.686,4.975,4.975,0,0,1-1.883-1.89,5.493,5.493,0,0,1,0-5.32,4.973,4.973,0,0,1,1.883-1.889,5.231,5.231,0,0,1,2.653-.687,4.745,4.745,0,0,1,3.71,1.638l-1.078,1.05a3.521,3.521,0,0,0-1.156-.924,3.321,3.321,0,0,0-1.462-.308,3.755,3.755,0,0,0-1.863.469,3.448,3.448,0,0,0-1.33,1.33,4.257,4.257,0,0,0,0,3.962,3.448,3.448,0,0,0,1.33,1.33,3.766,3.766,0,0,0,1.863.469,3.578,3.578,0,0,0,2.87-1.414l1.105,1.064a5.1,5.1,0,0,1-1.75,1.33A5.242,5.242,0,0,1,498.63,185.7Z" transform="translate(-0.998 -0.374)"/><path class="cls-8" d="M506.89,176.909h-2.815v-1.456h7.154v1.456h-2.8v8.568H506.89Z" transform="translate(-0.998 -0.374)"/></g></g></g><g id="Group_2711" data-name="Group 2711"><rect id="Rectangle_88" data-name="Rectangle 88" class="cls-9" x="356.594" y="9.191" width="113.541" height="147.912" rx="2.28"/><rect id="Rectangle_95" data-name="Rectangle 95" class="cls-10" x="371.428" y="38.485" width="36.844" height="3.494" rx="0.57"/><rect id="Rectangle_96" data-name="Rectangle 96" class="cls-10" x="371.428" y="45.742" width="36.844" height="3.494" rx="0.57"/><rect id="Rectangle_94" data-name="Rectangle 94" class="cls-10" x="371.428" y="60.226" width="83.953" height="3.494" rx="0.57"/><rect id="Rectangle_91" data-name="Rectangle 91" class="cls-10" x="371.428" y="67.455" width="83.953" height="3.494" rx="0.57"/><rect id="Rectangle_92" data-name="Rectangle 92" class="cls-10" x="371.428" y="74.709" width="83.953" height="3.494" rx="0.57"/><rect id="Rectangle_93" data-name="Rectangle 93" class="cls-10" x="371.428" y="81.965" width="83.953" height="3.494" rx="0.57"/><rect id="Rectangle_97" data-name="Rectangle 97" class="cls-10" x="371.428" y="89.196" width="36.844" height="3.494" rx="0.57"/><rect id="Rectangle_98" data-name="Rectangle 98" class="cls-10" x="371.428" y="96.449" width="36.844" height="3.494" rx="0.57"/><rect id="Rectangle_89" data-name="Rectangle 89" class="cls-10" x="418.511" y="89.196" width="36.844" height="3.494" rx="0.57"/><rect id="Rectangle_90" data-name="Rectangle 90" class="cls-10" x="418.511" y="96.449" width="36.844" height="3.494" rx="0.57"/><path id="Path_4758" data-name="Path 4758" class="cls-11" d="M388.2,115.474l2.2,1.962a2.686,2.686,0,0,0,1.962.645l2.929-.3a2.687,2.687,0,0,1,2.687,1.989l.645,2.9a2.686,2.686,0,0,0,1.182,1.666l2.553,1.5a2.687,2.687,0,0,1,1.075,3.225l-1.182,2.687a2.474,2.474,0,0,0,0,2.042l1.182,2.687a2.687,2.687,0,0,1-1.075,3.252l-2.553,1.478a2.686,2.686,0,0,0-1.182,1.666l-.645,2.9a2.687,2.687,0,0,1-2.687,1.989l-2.929-.269a2.689,2.689,0,0,0-1.962.618l-2.2,1.962a2.688,2.688,0,0,1-3.413,0l-2.2-1.962a2.689,2.689,0,0,0-1.962-.618l-2.929.269a2.687,2.687,0,0,1-2.687-1.989l-.645-2.9a2.686,2.686,0,0,0-1.182-1.666l-2.553-1.478a2.688,2.688,0,0,1-1.075-3.252l1.182-2.687a2.474,2.474,0,0,0,0-2.042l-1.182-2.687a2.687,2.687,0,0,1,1.075-3.225l2.553-1.5a2.686,2.686,0,0,0,1.182-1.666l.645-2.9a2.687,2.687,0,0,1,2.687-1.989l4.058.4,3.037-2.687A2.687,2.687,0,0,1,388.2,115.474Z" transform="translate(-0.998 -0.374)"/><path id="Path_4759" data-name="Path 4759" class="cls-12" d="M386.643,114.024l2.2,1.962a2.686,2.686,0,0,0,1.962.645l2.929-.3a2.687,2.687,0,0,1,2.687,1.989l.645,2.9a2.686,2.686,0,0,0,1.182,1.666l2.553,1.478a2.687,2.687,0,0,1,1.075,3.252l-1.209,2.687a2.684,2.684,0,0,0,0,2.042l1.209,2.687a2.687,2.687,0,0,1-1.075,3.252l-2.553,1.478a2.686,2.686,0,0,0-1.182,1.666l-.645,2.9a2.687,2.687,0,0,1-2.687,1.989l-2.929-.3a2.686,2.686,0,0,0-1.962.645l-2.2,1.962a2.688,2.688,0,0,1-3.413,0l-2.2-1.962a2.686,2.686,0,0,0-1.962-.645l-2.956.3a2.526,2.526,0,0,1-2.687-1.989l-.645-2.9a2.688,2.688,0,0,0-1.209-1.666l-2.553-1.478a2.687,2.687,0,0,1-1.048-3.252l1.182-2.687a2.474,2.474,0,0,0,0-2.042l-1.182-2.687a2.687,2.687,0,0,1,1.048-3.252l2.553-1.478a2.688,2.688,0,0,0,1.209-1.666l.645-2.9a2.526,2.526,0,0,1,2.687-1.989l4.085.4,3.037-2.687A2.687,2.687,0,0,1,386.643,114.024Z" transform="translate(-0.998 -0.374)"/><path id="Path_4761" data-name="Path 4761" class="cls-13" d="M377.183,132.244l4.6,4.6,10.96-10.969" transform="translate(-0.998 -0.374)"/><path id="Path_4760" data-name="Path 4760" class="cls-14" d="M401.99,135.093l-1.209-2.687a2.684,2.684,0,0,1,0-2.042l1.209-2.687a2.687,2.687,0,0,0-1.075-3.225l-2.553-1.5a2.686,2.686,0,0,1-1.182-1.666l-.645-2.9a2.687,2.687,0,0,0-2.687-1.989l-2.929.3a2.686,2.686,0,0,1-1.962-.645l-2.2-1.962a2.688,2.688,0,0,0-3.413,0l-3.037,2.687-4.085-.4a2.526,2.526,0,0,0-2.687,1.989l-.188.887,23.643,23.633.322-1.371a2.686,2.686,0,0,1,1.182-1.666l2.553-1.478A2.687,2.687,0,0,0,401.99,135.093Z" transform="translate(-0.998 -0.374)"/><path id="Path_4752" data-name="Path 4752" class="cls-14" d="M464.979,9.566H363.719a6.127,6.127,0,0,0-6.127,6.127V27.786L471.1,141.3V15.693a6.127,6.127,0,0,0-6.127-6.127Z" transform="translate(-0.998 -0.374)"/><path id="Path_4754" data-name="Path 4754" class="cls-11" d="M471.106,55.332V45.6h-2.687V41.815l-.564-.537h-2.5V38.053L454.364,27.061a14.484,14.484,0,0,0-2.687-16.742l-.672-.618h-19.08l-.7.618A14.458,14.458,0,0,0,447.94,33.484l21.983,21.983Zm-31.335-36.6a3.681,3.681,0,0,1-5.187,0,3.627,3.627,0,0,1-.056-5.13c.018-.02.037-.038.056-.057a3.668,3.668,0,0,1,5.187,5.187Z" transform="translate(-0.998 -0.374)"/><path id="Path_4755" data-name="Path 4755" class="cls-15" d="M429.64,8.652a14.458,14.458,0,0,0,16.711,23.164L468.334,53.8h6.45V47.376l-.537-.537h-3.574V44.931l-.967-.994h-2.849V40.228l-.564-.537h-2.5V36.466L452.8,25.475A14.485,14.485,0,0,0,429.637,8.733Zm8.573,8.573a3.681,3.681,0,0,1-5.187,0,3.627,3.627,0,0,1-.056-5.13c.018-.02.037-.038.056-.057a3.668,3.668,0,0,1,5.187,5.187Z" transform="translate(-0.998 -0.374)"/><path id="Path_4756" data-name="Path 4756" class="cls-11" d="M471.16,53.8h2.526L450.951,31.038l-1.263,1.29Z" transform="translate(-0.998 -0.374)"/><path id="Path_4757" data-name="Path 4757" class="cls-14" d="M470.7,46.84V44.932l-.967-.994h-2.849V40.229l-.564-.537h-2.5V36.467l-11-10.992A14.458,14.458,0,0,0,430.254,8.2l3.413,3.413a3.71,3.71,0,0,1,4.568.511,3.627,3.627,0,0,1,.484,4.542L474.81,52.752V47.381l-.537-.537Z" transform="translate(-0.998 -0.374)"/><path id="Subtraction_12" data-name="Subtraction 12" class="cls-16" d="M422.512,128.721h0c-.3-.042-.461-.077-.452-.359l.028-.058a1.638,1.638,0,0,1,.306-.489h-.022c0-.01.006-.01.026-.01l.022-.028c.017-.024.04-.049.057-.071h.025a1.544,1.544,0,0,1,.118-.149l.014-.016.012-.016.008-.01.006-.015h.032a.776.776,0,0,1,.3-.288.4.4,0,0,1,.193-.144.338.338,0,0,1,.075-.071l.018-.015.014-.014a.749.749,0,0,0,.091-.078.281.281,0,0,0,.041,0,.168.168,0,0,1,.1-.062l.01-.023h-.022c0-.006.009-.01.02-.013l.034-.011.024-.01.016-.041.2-.133.009-.008.028-.015a.121.121,0,0,0,.053-.052.712.712,0,0,0,.067-.036.553.553,0,0,1,.122-.06l.01-.026.032-.006.008-.01.018-.016h.032l.041-.01h-.018l.032-.016.02-.022.018-.006.014-.006.016-.008a.149.149,0,0,1,.045-.019l-.01-.031.03-.011a.246.246,0,0,0,.1-.061h.026a.338.338,0,0,1,.126-.078l.03-.013-.009-.019h.04l.01-.026a.221.221,0,0,1,.085-.01l.01-.016.016-.024h.016l.03-.013.016-.028.11-.042-.01-.013.016-.008a.156.156,0,0,1,.108-.044l.01-.023h.018c.01,0,.02,0,.049-.024-.016,0-.02-.008-.024-.013a.538.538,0,0,0,.055-.024h.012a.258.258,0,0,1,.1-.034,1.988,1.988,0,0,1,.447-.241l.01-.026a.276.276,0,0,0,.065-.036l.025-.017.037-.024h.032l.008-.011c.008-.017.014-.026.057-.044a.028.028,0,0,0,.014.018.218.218,0,0,1,.1-.069l.022-.008.03-.013h.012l.016-.006a.314.314,0,0,0,.1-.065h.042l.01-.015.012-.015.01-.015.057-.011v-.01l.006-.016a.1.1,0,0,0,.036.026.191.191,0,0,1,.152-.1l.01-.011.017-.019h.05a.1.1,0,0,1,.024,0,.193.193,0,0,1,.061-.053.131.131,0,0,0,.028,0l.022-.021h.025a.032.032,0,0,1,.01-.013l.008-.01a.313.313,0,0,0,.166-.078c.049-.018.1-.036.148-.055l.059-.021a.019.019,0,0,1-.01-.013h.02c.035,0,.047-.006.1-.042a.033.033,0,0,0,0-.024.222.222,0,0,1,.112-.031v-.021l.094-.033.035-.015.039-.013.063-.019h.041a.064.064,0,0,1-.01-.026.346.346,0,0,1,.132-.042c.013-.027.039-.037.085-.047a.349.349,0,0,0,.166-.086.117.117,0,0,0,.049-.011h.038a.081.081,0,0,1,.022,0h.018a.086.086,0,0,1,.014-.018l.01-.015.037-.008.006-.011.006-.011.036-.013.024-.008h.028a.617.617,0,0,1,.085-.02,1.18,1.18,0,0,1,.418-.147l.006-.01.006-.01.006-.01.014-.021c.032-.008.061-.018.093-.029l.022-.025.045-.016.03-.011a2.078,2.078,0,0,1,.2-.073v-.01l.006-.016h.065l.008-.008.008-.008.006-.008a.319.319,0,0,0,.124-.034l.01-.026h.04l-.014.037h.03l.039-.006a.082.082,0,0,0,.01-.026h-.02a.024.024,0,0,0-.012,0c.018-.021.046-.024.089-.028v-.026l.053-.018.024-.006h.012a1.316,1.316,0,0,1,.253-.076l.016-.021.012-.015a1.37,1.37,0,0,0,.306-.1l-.008-.015a3.251,3.251,0,0,1,.339-.09l.01-.026.041-.01a1.264,1.264,0,0,1,.184-.032v-.018l.03-.013a.851.851,0,0,1,.25-.081.081.081,0,0,1,.022,0l.01-.024.066-.015h.026a.745.745,0,0,1,.141-.026V123.1a.931.931,0,0,0,.156-.037h.012a.85.85,0,0,1,.217-.047l.01-.013a.062.062,0,0,0,.022-.035.384.384,0,0,1,.126-.018,1.421,1.421,0,0,1,.475-.152v.024a.064.064,0,0,0,.018-.028l.01-.023h.014a.723.723,0,0,1,.13-.023h.026a.325.325,0,0,1,.183-.06l.01-.024a.387.387,0,0,0,.059.013l.008-.01.008-.008a.282.282,0,0,0,.057-.015h.016l.032-.011a.435.435,0,0,1,.138-.028h.014V122.6l.024-.011h.027l.006-.015v-.011a.057.057,0,0,0,.026,0,.252.252,0,0,0,.071-.016.293.293,0,0,1,.077-.016.076.076,0,0,1,.03,0l.014-.02h.032l.028.016v-.01l.01-.016.116-.021h.014a.033.033,0,0,0,.014,0,.081.081,0,0,1,.022,0h.014a.033.033,0,0,0,.014,0,.081.081,0,0,1,.022,0l.006-.01a.062.062,0,0,1,.014-.018,2.79,2.79,0,0,0,.363-.1l.043-.011a1.047,1.047,0,0,1,.174-.178l.02-.018a1.331,1.331,0,0,0,.156-.144h.026a.7.7,0,0,1,.274-.178,1.7,1.7,0,0,1,.4-.246l.012-.026c.023,0,.079-.014.089-.034s0-.018-.006-.024a1.123,1.123,0,0,0,.256-.136l.028-.008.032-.01.02-.006.006-.015v-.01h.028a1.373,1.373,0,0,1,.276-.152,3.979,3.979,0,0,1,.626-.322l.01-.023.039-.019.014-.006.014-.007a1.785,1.785,0,0,1,.315-.126v-.01l.006-.014.03-.008.062-.017v-.018a.372.372,0,0,1,.137-.043l.012-.014v-.01c.075-.025.158-.057.264-.1l.028-.011.022-.01a2.523,2.523,0,0,1,.446-.16v-.02h.044a.877.877,0,0,0,.29-.1h.01a6.022,6.022,0,0,1,1.344-.249,1.353,1.353,0,0,1,.523.086c.085.068.085.068.114.079h0l-.006.009-.006.015h.026v.022c.1.135-.024.352-.1.5l-.066.089a2.189,2.189,0,0,1-.442.489l-.108.106-.028.027-.036.032-.018.016c-.031.027-.078.07-.108.1a6.291,6.291,0,0,0,.773-.065l.282-.108.069-.019a.6.6,0,0,1,.152-.031c.06,0,.087.035.087.115h0l-.01,0-.014.008h.961a5.085,5.085,0,0,1,1.746.219l.034.028c.04.031.058.045.085.045a.313.313,0,0,0,.069-.014h.028l.035-.011.024-.006h.158a.282.282,0,0,1,.014.126.517.517,0,0,0,.075-.036.349.349,0,0,1,.152-.055l.028-.023.032-.024.016.007a1.253,1.253,0,0,1,.217-.1l.022-.008.02-.006a.564.564,0,0,0,.213-.1c.079.023.124.055.132.092.024.1-.186.242-.324.338-.054.036-.09.061-.119.083a.022.022,0,0,0,0,.016.276.276,0,0,0-.126.108c.183-.1.363-.2.546-.316l.026-.015c.126-.078.268-.162.473-.28l-.627-.1c-.308-.039-.637-.078-.909-.108-.5-.057-.594-.072-.606-.076-.044-.066-.051-.125.043-.235a5.724,5.724,0,0,1,1.1-.092h.016c.108,0,.211,0,.3-.008.714-.013,1.069-.016,1.253-.018a.9.9,0,0,0,.207-.006h.261a.332.332,0,0,0,.063,0h.3a13.893,13.893,0,0,1,1.755.036h.181a2.248,2.248,0,0,0,.235-.008l-.01.024h.073c.079,0,.155,0,.234.006h.088c.053,0,.2.01.351.01a2.122,2.122,0,0,0,.221-.006l-.01.026c.014,0,.016-.008.02-.021h.058a.132.132,0,0,0,.039-.006.049.049,0,0,0,0,.024h.1c.152,0,.31.011.449.02h.066c.133.01.308.021.477.021l.108.008c.322.027.668.053,1.024.058h0l-.008.01-.006.015h.1c.058,0,.1.01.11.029l.008-.01.012-.014h.049l.077.006h.08c.078.006.151.012.259.015a.369.369,0,0,0,.168.019h.1c.089,0,.183,0,.189.047a.22.22,0,0,1,.144-.029c.1,0,.209.011.312.024h.085q.09.012.18.015l-.049.026a.24.24,0,0,0,.059-.013c.351.013,1.323.086,1.414.1h-.014l-.025.013.008.007.049,0h.032a.117.117,0,0,1,.057.019l.008-.007.017-.014c.039,0,.081.006.12.008a.034.034,0,0,1-.018.013c-.016.007-.018.008-.02.013a.054.054,0,0,1,.018,0h.026l.065-.013h.02l-.006.02h.124a.089.089,0,0,0,0,.023,1.22,1.22,0,0,1,.256-.024h.059a.254.254,0,0,0,.039,0l-.018.044-.012.029a.231.231,0,0,0-.01.028l0,.014-.006.013h-.016c-.039,0-.079.008-.116.01h-.014l-.01.015a.156.156,0,0,0-.071-.011h-.1l-.215-.011h-.012l-.006.008-.014.018.047.007c.033,0,.067.01.1.013l.01-.024h.073c.006.013.006.013.043.024a.3.3,0,0,0,.1,0c-.008.018-.06.024-.168.024-.259,0-.911-.048-1.955-.126l-.075.007-.483-.036-.6-.044-.377-.027c-2.09-.117-3.611-.184-4.929-.217-1.132,0-1.132,0-2.759.023l-.047.016h-.014c.187.017.33.037.456.056h.029c.089.013.176.024.268.036v.024a2.078,2.078,0,0,1,.361.031,1.137,1.137,0,0,1,.325-.079.126.126,0,0,1,.1.031c.025.027.028.072.008.138.067.01.138.023.209.036h.036l.059.01c.071.013.148.024.223.034a.133.133,0,0,0-.01.028.02.02,0,0,0,.017-.011h.011a.161.161,0,0,1,.031,0h.084c.039.01.087.019.148.031l.089.021h.042a10.066,10.066,0,0,1,1.181.325l-.012.029a.024.024,0,0,1,.012,0,.058.058,0,0,0,.039-.015v.023a.969.969,0,0,1,.684.536c-.006.247-.074.39-.2.426v.01l-.006.014-.237.079-.036.013-.11.036a7.6,7.6,0,0,1-1.667.17l-.081-.008a1.532,1.532,0,0,1-1.1-.376c-.219-.35-.158-.712.211-1.251h-.08l-.07.021-.44.223-.071.036-.01.026a.857.857,0,0,0-.177.1l-.03.019a.771.771,0,0,1-.193.11.257.257,0,0,1-.077.066.176.176,0,0,0-.063.055l-.126.052v.016l-.034.011-.021.007-.032.011-.008.024a.973.973,0,0,0-.249.121l-.055.006c-.039,0-.079.01-.118.013-.132-.107-.036-.243.087-.414l.012-.018h.026v-.019a2.281,2.281,0,0,1-.235.11l-.01.026h-.04a.054.054,0,0,0-.01.016.086.086,0,0,1-.039.006l-.01.026c-.05.02-.106.045-.168.074l-.047.021a1.976,1.976,0,0,1-.316.129h-.148a.167.167,0,0,1,.021-.235.152.152,0,0,1,.038-.024h-.03c-.12.037-.234.075-.343.112l-.075.026-.087.029c-.144.049-.278.092-.414.134a1.145,1.145,0,0,1-.219.021c-.1,0-.16-.019-.185-.058s0-.145.095-.272l.01-.006a.132.132,0,0,0,.051-.063c-.219.089-.452.171-.708.254l-.045.015-.055.019-.032.01-.162.057-.058.008h-.026l-.021,0a1.876,1.876,0,0,1-.393.072.189.189,0,0,1-.152-.049c-.043-.04-.041-.125.008-.251.022-.028.041-.052.057-.07.029-.034.041-.048.043-.06l-.049.021-.047.019-.029.013-.022.009-.1.042-.018.008a3.226,3.226,0,0,1-1.065.338.286.286,0,0,1-.069-.031l-.014-.008-.02-.013a.1.1,0,0,0-.032-.015l.008-.016a.054.054,0,0,1,.008-.021.066.066,0,0,1-.028,0c.079-.236.413-.439.681-.6.047-.029.083-.052.114-.073l.03-.018H439.7a5.541,5.541,0,0,0-.562.049,3.747,3.747,0,0,0-.347.282h-.028l-.01.024h-.026l-.087.086a.823.823,0,0,0-.232.145l-.02.017-.012.01a1.083,1.083,0,0,1-.193.129,2.181,2.181,0,0,1-.546.377,2.133,2.133,0,0,1-.485.317l-.01.024a.113.113,0,0,1-.026,0,.327.327,0,0,1-.145.1l-.028.032a.333.333,0,0,0-.061.027l-.018.01-.032.015-.039.019a2.308,2.308,0,0,1-.4.253,1.283,1.283,0,0,0-.325.21c-.794.426-1.4.748-2.028,1.033a.718.718,0,0,1-.083.042l-.028.013-.032.018c-.03.015-.057.029-.085.045-.355.159-.6.264-.765.337l-.03.013-.093.04c-.071.031-.124.055-.168.076h-.012l-.047.01-.037.006a7.664,7.664,0,0,1-1.2.531l-.02.008-.018.006c-.045.016-.077.029-.1.039l-.034.013v.011l-.006.014a1.044,1.044,0,0,0-.162.05c-.055.019-.116.04-.174.058l-.01.023-.181.071-.063.024-.059.023-.063.024-.059.023-.062.024c-.907.355-1.844.721-2.747,1.049l-.01.026a28.249,28.249,0,0,1-4.657,1.283A5.111,5.111,0,0,1,422.512,128.721Zm.564-1.353-.079.078c-.292.282-.655.632-.641.968a1.2,1.2,0,0,0,.46.076,5.892,5.892,0,0,0,1.144-.167l.063-.013c.036-.006.069-.013.1-.021l.071-.015c.676-.161,1.366-.358,2.049-.584a4.561,4.561,0,0,0,.85-.291c1.3-.456,1.3-.456,1.357-.486.574-.219,1.016-.388,1.351-.518l.359-.136c.371-.144.56-.216.631-.24l.01-.026h.026l.024-.008h.012l.091-.032h.014l.024-.009a3.463,3.463,0,0,0,.368-.164.068.068,0,0,0,.024.008l.014-.015.01-.011.217-.087.215-.086c.035-.018.23-.1.389-.168l.089-.038c.193-.082.373-.158.392-.171a.646.646,0,0,0,.073-.028l.026-.01a.347.347,0,0,1,.055-.016l.006-.02.065-.027.016-.006.039-.018a1.15,1.15,0,0,1,.213-.076.151.151,0,0,1,.018-.026h.014l.049-.013c.246-.124.544-.265.911-.431a.278.278,0,0,0,.057-.021.275.275,0,0,1,.095-.04l.008-.023a1.476,1.476,0,0,0,.256-.116l.018-.01a1.574,1.574,0,0,1,.327-.147l-.01-.008a.08.08,0,0,1,.036-.014l.028-.008.008-.024.012-.006a.161.161,0,0,0,.03-.021l.032-.016.022-.011a1.1,1.1,0,0,1,.28-.12l.01-.026a.888.888,0,0,0,.128-.062c.047-.024.1-.053.17-.084l.006-.015v-.013a1.081,1.081,0,0,0,.272-.146l.01-.006a1.7,1.7,0,0,1,.3-.162,1.4,1.4,0,0,1,.335-.206l.01-.024h.04a.958.958,0,0,1,.327-.2,1.353,1.353,0,0,1,.406-.27.161.161,0,0,1,.037-.032l.012-.009.014-.01a.155.155,0,0,0,.063-.053h.016l.02-.026h.026a2.116,2.116,0,0,1,.367-.256.9.9,0,0,1,.292-.22l.016-.01a1.053,1.053,0,0,0,.3-.23h.026a1.294,1.294,0,0,1,.191-.147h-.03c-.043,0-.126.01-.526.057l-.2.024c-.654.1-1.389.222-2.183.359a.3.3,0,0,1-.052.134c0,.015,0,.018.011.021a.1.1,0,0,1-.065.037.1.1,0,0,1-.039.065l-.018.016c-.239.078-.477.154-.716.23a.4.4,0,0,0-.093.019,2.627,2.627,0,0,1-.5.068c-.2,0-.3-.062-.3-.191-.511.134-1.018.276-1.58.434l-.284.079-.185.052c-.315.1-.749.24-1.2.388-.4.133-.659.215-.692.223l-.01.026a28.879,28.879,0,0,0-4.366,1.878l-1.012.563a.443.443,0,0,0-.037.039,3.58,3.58,0,0,0-.635.387h-.04l-.008.008-.008.008-.008.01L424,126.7l-.11.073a5.016,5.016,0,0,0-.785.592Zm23.024-5.823h0c-.091.006-.1.015-.125.058l-.011.017-.018.028c-.241.424-.307.649-.1.949a1.262,1.262,0,0,0,.27.175,3.52,3.52,0,0,0,.963.123,6.393,6.393,0,0,0,1.343-.159c.074-.022.129-.042.172-.058l.019-.007.02-.008a.829.829,0,0,1,.083-.031c.008-.019.016-.039.024-.062a.035.035,0,0,1-.016-.008.078.078,0,0,0,.006-.037.127.127,0,0,1,0-.039H448.7c-.032-.218-.416-.372-.67-.474l-.016-.007-.114-.047c-.619-.173-1.234-.3-1.807-.413Zm-11.511.685h0c-.006.013-.012.026-.016.037.014,0,.016-.007.023-.024h.052a.469.469,0,0,0,.252-.071c.373-.071.744-.144,1.12-.219.048-.014.089-.023.122-.031h.014l.039-.008.032-.006a.736.736,0,0,0,.093-.021.043.043,0,0,0,0,.016h.04l.012-.035a3.891,3.891,0,0,0,.4-.07h.013a3.472,3.472,0,0,1,.617-.086h.067l.022-.024c.466-.068,1.018-.144,1.586-.2.024-.01.047-.019.071-.031l.043-.037a3.346,3.346,0,0,0,.959-1.1c-.01-.108-.158-.172-.428-.183l.008-.023h-.016a.014.014,0,0,0-.015.016h-.024l.006-.013v-.009h-.041l-.012.016a5.8,5.8,0,0,0-1.177.194,14.153,14.153,0,0,0-1.341.5,21.65,21.65,0,0,0-1.95,1.023l-.034.037a1.906,1.906,0,0,0-.511.351Zm6.314-.644h0a5.834,5.834,0,0,0-.678.031l-.126.066a3.465,3.465,0,0,0-.809.511,8.591,8.591,0,0,0,.932-.342c.223-.091.452-.185.681-.265Zm.527-.008h-.381a.1.1,0,0,1,.039.087c-.006.095-.16.2-.3.295l-.012.009c-.11.074-.213.143-.235.2h.019a.029.029,0,0,0,.013,0,1.77,1.77,0,0,0,.4-.084H441c.041-.015.083-.026.12-.036h.02c.184-.072.429-.164.68-.238l.01-.026h.011a2,2,0,0,0,.4-.121l.061-.021.084-.029c-.269-.025-.582-.037-.952-.037Zm.7.52v.01l-.006.015a4.157,4.157,0,0,0,.412-.108l.108-.031a5.446,5.446,0,0,0,.633-.22l-.049-.015a1.787,1.787,0,0,0-.491-.1H442.7c.05.072-.177.217-.327.312a.756.756,0,0,0-.146.1l-.041.007a.124.124,0,0,0-.028.028Z" transform="translate(-0.998 -0.374)"/></g><g id="Group_2815" data-name="Group 2815"><g id="Group_2665" data-name="Group 2665"><g id="Group_2663" data-name="Group 2663"><g id="Group_2640" data-name="Group 2640"><g id="Group_2637" data-name="Group 2637"><ellipse id="Ellipse_293" data-name="Ellipse 293" class="cls-17" cx="403.446" cy="484.932" rx="30.778" ry="30.134" transform="translate(-91.24 877.24) rotate(-88.74)"/><path id="Path_4704" data-name="Path 4704" class="cls-18" d="M431.075,484.931c0,17-13.489,30.786-30.127,30.786s-30.123-13.783-30.123-30.786,13.488-30.786,30.127-30.786S431.075,467.928,431.075,484.931Z" transform="translate(-0.998 -0.374)"/><ellipse id="Ellipse_294" data-name="Ellipse 294" class="cls-19" cx="398.896" cy="484.932" rx="30.778" ry="30.134" transform="translate(-95.69 872.691) rotate(-88.74)"/><path id="Path_4705" data-name="Path 4705" class="cls-20" d="M424.458,484.931c0,14.49-11.452,26.236-25.579,26.236S373.3,499.421,373.3,484.931,384.753,458.7,398.879,458.7,424.458,470.441,424.458,484.931Z" transform="translate(-0.998 -0.374)"/><path id="Path_4706" data-name="Path 4706" class="cls-21" d="M402.268,508.436a26.229,26.229,0,0,1-19.861-43.368A26.23,26.23,0,1,0,419.4,502.061,26.124,26.124,0,0,1,402.268,508.436Z" transform="translate(-0.998 -0.374)"/></g><g id="Group_2661" data-name="Group 2661"><g id="Path_4734" data-name="Path 4734"><path class="cls-22" d="M404.745,497.544H391.878v-3h12.867c2.241,0,3.45-2.653,3.45-5.15a5.871,5.871,0,0,0-.931-3.374,2.891,2.891,0,0,0-2.519-1.276H391.878v-3h12.867a5.929,5.929,0,0,1,4.965,2.539,8.874,8.874,0,0,1,1.485,5.111C411.2,493.345,408.935,497.544,404.745,497.544Z" transform="translate(-0.998 -0.374)"/></g><g id="Path_4735" data-name="Path 4735"><path class="cls-22" d="M396.945,496.043h-3v-25h8.909a6.48,6.48,0,0,1,6.543,6.679,6.878,6.878,0,0,1-1.94,4.852,7.792,7.792,0,0,1-5.789,2.2v-3a4.963,4.963,0,0,0,3.645-1.3,3.889,3.889,0,0,0,1.084-2.752,3.467,3.467,0,0,0-3.543-3.679h-5.909Z" transform="translate(-0.998 -0.374)"/></g><g id="Line_22" data-name="Line 22"><rect class="cls-22" x="392.947" y="468.336" width="3" height="3.831"/></g><g id="Line_23" data-name="Line 23"><rect class="cls-22" x="397.178" y="468.336" width="3" height="3.831"/></g><g id="Line_24" data-name="Line 24"><rect class="cls-22" x="392.947" y="495.67" width="3" height="3.83"/></g><g id="Line_25" data-name="Line 25"><rect class="cls-22" x="397.178" y="495.67" width="3" height="3.83"/></g></g></g><g id="Group_2662" data-name="Group 2662" class="cls-23"><path id="Path_4708" data-name="Path 4708" class="cls-24" d="M421.573,464.863l-48.248,36.36a30.886,30.886,0,0,1-3.671-8.887l44.734-33.718A30.138,30.138,0,0,1,421.573,464.863Z" transform="translate(-0.998 -0.374)"/><path id="Path_4709" data-name="Path 4709" class="cls-24" d="M426.21,472.11l-47.343,35.706a30.348,30.348,0,0,1-3.182-3.427l48.286-36.408A28.879,28.879,0,0,1,426.21,472.11Z" transform="translate(-0.998 -0.374)"/><path id="Path_4710" data-name="Path 4710" class="cls-24" d="M428.551,479.667l-44.41,32.647-2.435-1.4,46.251-33.989C428.2,477.825,428.4,478.735,428.551,479.667Z" transform="translate(-0.998 -0.374)"/></g></g><g id="Group_2664" data-name="Group 2664"><g id="Group_2640-2" data-name="Group 2640-2"><g id="Group_2637-2" data-name="Group 2637-2"><ellipse id="Ellipse_293-2" data-name="Ellipse 293-2" class="cls-17" cx="440.535" cy="491.718" rx="24.131" ry="23.626" transform="translate(-61.751 920.957) rotate(-88.74)"/><path id="Path_4704-2" data-name="Path 4704-2" class="cls-18" d="M462.2,491.717a23.625,23.625,0,1,1-23.619-24.136A23.882,23.882,0,0,1,462.2,491.717Z" transform="translate(-0.998 -0.374)"/><ellipse id="Ellipse_294-2" data-name="Ellipse 294-2" class="cls-19" cx="436.968" cy="491.718" rx="24.131" ry="23.626" transform="translate(-65.239 917.39) rotate(-88.74)"/><path id="Path_4705-2" data-name="Path 4705-2" class="cls-20" d="M457.009,491.717a20.059,20.059,0,1,1-20.054-20.569A20.316,20.316,0,0,1,457.009,491.717Z" transform="translate(-0.998 -0.374)"/><path id="Path_4706-2" data-name="Path 4706-2" class="cls-21" d="M439.612,510.146a20.563,20.563,0,0,1-15.571-34,20.564,20.564,0,1,0,29,29A20.482,20.482,0,0,1,439.612,510.146Z" transform="translate(-0.998 -0.374)"/></g><g id="Group_2661-2" data-name="Group 2661-2"><g id="Path_4734-2" data-name="Path 4734-2"><path class="cls-22" d="M441.553,501.426H431.465v-2h10.088c1.871,0,2.881-2.171,2.881-4.214a4.783,4.783,0,0,0-.762-2.746,2.463,2.463,0,0,0-2.119-1.074H431.465v-2h10.088a4.421,4.421,0,0,1,3.749,1.916,6.778,6.778,0,0,1,1.132,3.9C446.434,498.225,444.723,501.426,441.553,501.426Z" transform="translate(-0.998 -0.374)"/></g><g id="Path_4735-2" data-name="Path 4735-2"><path class="cls-22" d="M435.262,500.43h-2V481h6.808a4.908,4.908,0,0,1,4.954,5.06,5.213,5.213,0,0,1-1.471,3.681,5.93,5.93,0,0,1-4.413,1.669v-2a4.06,4.06,0,0,0,2.984-1.068,3.228,3.228,0,0,0,.9-2.282A2.887,2.887,0,0,0,440.07,483h-4.808Z" transform="translate(-0.998 -0.374)"/></g><g id="Line_22-2" data-name="Line 22-2"><rect class="cls-22" x="432.264" y="478.626" width="2" height="3.003"/></g><g id="Line_23-2" data-name="Line 23-2"><rect class="cls-22" x="435.582" y="478.626" width="2" height="3.003"/></g><g id="Line_24-2" data-name="Line 24-2"><rect class="cls-22" x="432.264" y="500.056" width="2" height="3.003"/></g><g id="Line_25-2" data-name="Line 25-2"><rect class="cls-22" x="435.582" y="500.056" width="2" height="3.003"/></g></g></g><g id="Group_2662-2" data-name="Group 2662-2" class="cls-25"><path id="Path_4708-2" data-name="Path 4708-2" class="cls-24" d="M454.748,475.987l-37.826,28.506a24.225,24.225,0,0,1-2.878-6.968l35.071-26.435A23.646,23.646,0,0,1,454.748,475.987Z" transform="translate(-0.998 -0.374)"/><path id="Path_4709-2" data-name="Path 4709-2" class="cls-24" d="M458.383,481.666l-37.117,27.993a23.668,23.668,0,0,1-2.5-2.687l37.857-28.543A22.634,22.634,0,0,1,458.383,481.666Z" transform="translate(-0.998 -0.374)"/><path id="Path_4710-2" data-name="Path 4710-2" class="cls-24" d="M460.218,487.59,425.4,513.19l-1.909-1.1,36.261-26.647Q460.037,486.5,460.218,487.59Z" transform="translate(-0.998 -0.374)"/></g></g><g id="Group_2666" data-name="Group 2666"><g id="Group_2640-3" data-name="Group 2640-3"><g id="Group_2637-3" data-name="Group 2637-3"><ellipse id="Ellipse_293-3" data-name="Ellipse 293-3" class="cls-17" cx="438.534" cy="442.755" rx="18.372" ry="17.987" transform="translate(-14.756 871.07) rotate(-88.74)"/><path id="Path_4704-3" data-name="Path 4704-3" class="cls-18" d="M455.027,442.755a17.988,17.988,0,1,1-17.983-18.377A18.183,18.183,0,0,1,455.027,442.755Z" transform="translate(-0.998 -0.374)"/><ellipse id="Ellipse_294-3" data-name="Ellipse 294-3" class="cls-19" cx="435.818" cy="442.755" rx="18.372" ry="17.987" transform="translate(-17.413 868.355) rotate(-88.74)"/><path id="Path_4705-3" data-name="Path 4705-3" class="cls-20" d="M451.077,442.754a15.273,15.273,0,1,1-15.268-15.661A15.469,15.469,0,0,1,451.077,442.754Z" transform="translate(-0.998 -0.374)"/><path id="Path_4706-3" data-name="Path 4706-3" class="cls-21" d="M437.062,456.786c-8.261,0-14.961-7-14.963-15.652a16.092,16.092,0,0,1,3.636-10.235,16.169,16.169,0,0,0-1.561,22.082,14.5,14.5,0,0,0,21.1,1.634,15.365,15.365,0,0,0,1.561-1.634A14.523,14.523,0,0,1,437.062,456.786Z" transform="translate(-0.998 -0.374)"/></g><g id="Group_2661-3" data-name="Group 2661-3"><g id="Path_4734-3" data-name="Path 4734-3"><path class="cls-22" d="M439.309,450.388H431.63v-2h7.679c1.27,0,1.955-1.53,1.955-2.969a3.461,3.461,0,0,0-.536-1.954,1.629,1.629,0,0,0-1.419-.717h-7.681v-2h7.681a3.639,3.639,0,0,1,3.049,1.56,5.4,5.4,0,0,1,.906,3.111C443.264,447.827,441.878,450.388,439.309,450.388Z" transform="translate(-0.998 -0.374)"/></g><g id="Path_4735-3" data-name="Path 4735-3"><path class="cls-22" d="M434.759,449.388h-2v-15.03h5.422a3.97,3.97,0,0,1,4.01,4.09A4.205,4.205,0,0,1,441,441.417a4.757,4.757,0,0,1-3.53,1.341v-2a2.869,2.869,0,0,0,2.1-.741,2.219,2.219,0,0,0,.616-1.569,1.969,1.969,0,0,0-2.01-2.09h-3.422Z" transform="translate(-0.998 -0.374)"/></g><g id="Line_22-3" data-name="Line 22-3"><rect class="cls-22" x="431.761" y="432.698" width="2" height="2.287"/></g><g id="Line_23-3" data-name="Line 23-3"><rect class="cls-22" x="434.287" y="432.698" width="2" height="2.287"/></g><g id="Line_24-3" data-name="Line 24-3"><rect class="cls-22" x="431.761" y="449.014" width="2" height="2.286"/></g><g id="Line_25-3" data-name="Line 25-3"><rect class="cls-22" x="434.287" y="449.014" width="2" height="2.286"/></g></g></g><g id="Group_2662-3" data-name="Group 2662-3" class="cls-26"><path id="Path_4708-3" data-name="Path 4708-3" class="cls-24" d="M449.354,430.778l-28.8,21.7a18.443,18.443,0,0,1-2.192-5.3l26.7-20.127A17.988,17.988,0,0,1,449.354,430.778Z" transform="translate(-0.998 -0.374)"/><path id="Path_4709-3" data-name="Path 4709-3" class="cls-24" d="M452.123,435.1l-28.26,21.313a18.111,18.111,0,0,1-1.9-2.045l28.823-21.732A17.25,17.25,0,0,1,452.123,435.1Z" transform="translate(-0.998 -0.374)"/><path id="Path_4710-3" data-name="Path 4710-3" class="cls-24" d="M453.52,439.612,427.011,459.1l-1.454-.837,27.608-20.289C453.31,438.512,453.428,439.056,453.52,439.612Z" transform="translate(-0.998 -0.374)"/></g></g></g><g id="Group_2657" data-name="Group 2657"><path id="Rectangle_85" data-name="Rectangle 85" class="cls-27" d="M369.079,488.867H462.5A11.329,11.329,0,0,1,473.832,500.2h0v64.471A11.328,11.328,0,0,1,462.5,576H369.078a11.328,11.328,0,0,1-11.328-11.328h0V500.2A11.329,11.329,0,0,1,369.079,488.867Z" transform="translate(-0.998 -0.374)"/><path id="Rectangle_86" data-name="Rectangle 86" class="cls-28" d="M369.079,494.875H462.5A11.329,11.329,0,0,1,473.833,506.2h0v64.471A11.329,11.329,0,0,1,462.5,582H369.078a11.328,11.328,0,0,1-11.328-11.328h0V506.2A11.329,11.329,0,0,1,369.079,494.875Z" transform="translate(-0.998 -0.374)"/><rect id="Rectangle_87" data-name="Rectangle 87" class="cls-29" x="363.433" y="499.49" width="102.721" height="77.147" rx="10.032"/><path id="Path_4748" data-name="Path 4748" class="cls-27" d="M480.341,545.029s-3.177,5.8-7.1,5.8H440.122a7.1,7.1,0,0,1-7.1-7.1V528.522a12.224,12.224,0,0,1,2.757-7.107h37.463a7.1,7.1,0,0,1,7.1,7.1v16.514Z" transform="translate(-0.998 -0.374)"/><path id="Path_4749" data-name="Path 4749" class="cls-30" d="M481.75,540.781a7.1,7.1,0,0,1-7.092,7.108H441.53a7.1,7.1,0,0,1-7.1-7.1V525.581a7.1,7.1,0,0,1,7.092-7.108h33.13a7.1,7.1,0,0,1,7.1,7.1v.008Z" transform="translate(-0.998 -0.374)"/><path id="Path_4750" data-name="Path 4750" class="cls-31" d="M454.881,533.492a8.825,8.825,0,1,1-8.825-8.825A8.825,8.825,0,0,1,454.881,533.492Z" transform="translate(-0.998 -0.374)"/></g></g><g id="title-block-dashboad-3"><g id="Multisig" class="cls-7"><g class="cls-7"><path class="cls-8" d="M386.884,599.976h2.072l2.926,7.63h.084l2.94-7.63h2.072V610h-1.512v-5.67l.084-1.778h-.084L392.54,610h-1.218l-2.926-7.448h-.084l.084,1.778V610h-1.512Z" transform="translate(-0.998 -0.374)"/><path class="cls-8" d="M403.516,610.224a3.847,3.847,0,0,1-1.981-.5,3.4,3.4,0,0,1-1.33-1.428,4.667,4.667,0,0,1-.469-2.142v-6.174h1.526v6.258a2.755,2.755,0,0,0,.588,1.834,2.349,2.349,0,0,0,3.346,0,2.755,2.755,0,0,0,.588-1.834v-6.258h1.526v6.174a4.7,4.7,0,0,1-.462,2.128,3.412,3.412,0,0,1-1.316,1.435A3.85,3.85,0,0,1,403.516,610.224Z" transform="translate(-0.998 -0.374)"/><path class="cls-8" d="M410.067,599.976h1.54v8.568h4.312V610h-5.852Z" transform="translate(-0.998 -0.374)"/><path class="cls-8" d="M419.182,601.432h-2.814v-1.456h7.154v1.456h-2.8V610h-1.54Z" transform="translate(-0.998 -0.374)"/><path class="cls-8" d="M425.719,599.976h1.541V610h-1.541Z" transform="translate(-0.998 -0.374)"/><path class="cls-8" d="M433.125,610.224a3.7,3.7,0,0,1-2.239-.728,3.779,3.779,0,0,1-1.386-2.044l1.455-.588a2.81,2.81,0,0,0,.8,1.372,1.964,1.964,0,0,0,1.386.532,2.073,2.073,0,0,0,1.28-.392,1.268,1.268,0,0,0,.525-1.078,1.338,1.338,0,0,0-.462-1.043,4.841,4.841,0,0,0-1.6-.8l-.63-.224a4.7,4.7,0,0,1-1.7-1.015,2.283,2.283,0,0,1-.68-1.729,2.523,2.523,0,0,1,.4-1.372,2.773,2.773,0,0,1,1.12-.994,3.567,3.567,0,0,1,1.631-.364,3.209,3.209,0,0,1,2.086.637,3.241,3.241,0,0,1,1.065,1.435l-1.387.588a1.686,1.686,0,0,0-.588-.868,1.787,1.787,0,0,0-1.162-.364,1.863,1.863,0,0,0-1.162.364,1.118,1.118,0,0,0-.475.924,1.061,1.061,0,0,0,.426.861,4.528,4.528,0,0,0,1.324.651l.643.224a5.074,5.074,0,0,1,1.988,1.162,2.6,2.6,0,0,1,.7,1.9,2.664,2.664,0,0,1-.5,1.645,2.988,2.988,0,0,1-1.273.987A4.13,4.13,0,0,1,433.125,610.224Z" transform="translate(-0.998 -0.374)"/><path class="cls-8" d="M438.963,599.976H440.5V610h-1.541Z" transform="translate(-0.998 -0.374)"/><path class="cls-8" d="M448.063,610.224a5.223,5.223,0,0,1-2.631-.686,5.241,5.241,0,0,1,0-9.1,5.213,5.213,0,0,1,2.631-.686,5.423,5.423,0,0,1,2.115.406,4.65,4.65,0,0,1,1.637,1.134l-1.063,1.064a3.43,3.43,0,0,0-2.689-1.148,3.75,3.75,0,0,0-1.834.469,3.5,3.5,0,0,0-1.358,1.337,3.86,3.86,0,0,0-.5,1.974,3.8,3.8,0,0,0,.512,1.981,3.571,3.571,0,0,0,1.357,1.33,3.746,3.746,0,0,0,1.842.469,3.486,3.486,0,0,0,2.576-.994,2.507,2.507,0,0,0,.538-.784,3.816,3.816,0,0,0,.3-1.05H448.05v-1.358h4.872a4.785,4.785,0,0,1,.084.812,5.47,5.47,0,0,1-.3,1.813,4.163,4.163,0,0,1-.932,1.519,4.472,4.472,0,0,1-1.609,1.113A5.484,5.484,0,0,1,448.063,610.224Z" transform="translate(-0.998 -0.374)"/></g></g></g><g id="title-block-dashboad-4"><g id="TRX_wallet" data-name="TRX wallet" class="cls-7"><g class="cls-7"><path class="cls-8" d="M3.812,177.06H1V175.6H8.152v1.456h-2.8v8.568H3.812Z" transform="translate(-0.998 -0.374)"/><path class="cls-8" d="M10.35,175.6h3.514a3.434,3.434,0,0,1,1.645.392A2.962,2.962,0,0,1,17.1,178.67a2.7,2.7,0,0,1-.651,1.785,3.165,3.165,0,0,1-1.631,1.043l-.014.07,2.758,3.976v.084H15.782l-2.674-3.934H11.89v3.934H10.35Zm3.472,4.676a1.733,1.733,0,0,0,1.225-.462,1.52,1.52,0,0,0,.5-1.162,1.6,1.6,0,0,0-1.666-1.61H11.89v3.234Z" transform="translate(-0.998 -0.374)"/><path class="cls-8" d="M22.054,180.42,18.932,175.6h1.89l2.225,3.6h.084l2.241-3.6h1.876l-3.123,4.816,3.347,5.208H25.6l-2.465-3.906h-.084l-2.464,3.906H18.708Z" transform="translate(-0.998 -0.374)"/><path class="cls-8" d="M32.623,175.6h1.708l1.6,6.51.168.867h.084l.21-.867,2.016-6.51h1.54l1.932,6.51.21.854h.084l.168-.854,1.6-6.51h1.694l-2.646,10.024H41.359l-1.918-6.65-.224-.938h-.084l-.238.938-2,6.65H35.311Z" transform="translate(-0.998 -0.374)"/><path class="cls-8" d="M49.941,175.6h1.75l3.794,10.024H53.791l-.924-2.576H48.779l-.924,2.576H46.161Zm2.422,6.02-1.12-3.066-.378-1.148h-.084l-.378,1.148-1.12,3.066Z" transform="translate(-0.998 -0.374)"/><path class="cls-8" d="M57.529,175.6h1.54v8.568h4.312v1.456H57.529Z" transform="translate(-0.998 -0.374)"/><path class="cls-8" d="M65.649,175.6h1.54v8.568H71.5v1.456H65.649Z" transform="translate(-0.998 -0.374)"/><path class="cls-8" d="M73.769,175.6h6.076v1.456H75.309v2.828H79.4v1.456H75.309v2.828h4.536v1.456H73.769Z" transform="translate(-0.998 -0.374)"/><path class="cls-8" d="M84.661,177.06H81.847V175.6H89v1.456H86.2v8.568h-1.54Z" transform="translate(-0.998 -0.374)"/></g></g></g><g id="Group_2811" data-name="Group 2811"><g id="Group_2678" data-name="Group 2678"><g id="Group_2677" data-name="Group 2677"><g id="Group_2674" data-name="Group 2674"><g id="Group_2663-2" data-name="Group 2663-2"><g id="Group_2640-4" data-name="Group 2640-4"><g id="Group_2637-4" data-name="Group 2637-4"><ellipse id="Ellipse_293-4" data-name="Ellipse 293-4" class="cls-17" cx="42.896" cy="60.797" rx="28.544" ry="27.946" transform="translate(-19.827 101.971) rotate(-88.74)"/><path id="Path_4704-4" data-name="Path 4704-4" class="cls-18" d="M68.519,60.8c0,15.769-12.509,28.55-27.939,28.55S12.64,76.565,12.64,60.8s12.508-28.55,27.94-28.55S68.519,45.028,68.519,60.8Z" transform="translate(-0.998 -0.374)"/><ellipse id="Ellipse_294-4" data-name="Ellipse 294-4" class="cls-19" cx="38.676" cy="60.797" rx="28.544" ry="27.946" transform="translate(-23.954 97.752) rotate(-88.74)"/><path id="Path_4705-4" data-name="Path 4705-4" class="cls-20" d="M62.383,60.8c0,13.438-10.621,24.331-23.721,24.331S14.942,74.234,14.942,60.8s10.619-24.331,23.72-24.331S62.383,47.358,62.383,60.8Z" transform="translate(-0.998 -0.374)"/><path id="Path_4706-4" data-name="Path 4706-4" class="cls-21" d="M41.8,82.6A24.324,24.324,0,0,1,23.385,42.377,24.325,24.325,0,1,0,57.692,76.683,24.225,24.225,0,0,1,41.8,82.6Z" transform="translate(-0.998 -0.374)"/></g></g></g><path id="Path_4770" data-name="Path 4770" class="cls-32" d="M51.923,54.468l-4-2.829a.84.84,0,0,0-.277-.127L28.514,46.825a.813.813,0,0,0-.972,1.032.06.06,0,0,0,.009.038l9.666,27.063h0a.816.816,0,0,0,1.43.162L52.123,55.6A.814.814,0,0,0,51.923,54.468ZM50,55.109,42.17,58.761l5.235-5.488Zm-10.58,4.7L30.258,48.933l15.836,3.882Zm-.69,1.151-1.218,11.03-7.74-21.66Zm1.253.224,9.3-4.334-10.5,15.21Z" transform="translate(-0.998 -0.374)"/><g id="Group_2673" data-name="Group 2673" class="cls-33"><path id="Path_4708-4" data-name="Path 4708-4" class="cls-24" d="M59.707,42.189,14.964,75.909a28.626,28.626,0,0,1-3.4-8.242L53.049,36.4A27.957,27.957,0,0,1,59.707,42.189Z" transform="translate(-0.998 -0.374)"/><path id="Path_4709-4" data-name="Path 4709-4" class="cls-24" d="M64.007,48.907,20.1,82.02a28.079,28.079,0,0,1-2.951-3.178L61.928,45.078A26.776,26.776,0,0,1,64.007,48.907Z" transform="translate(-0.998 -0.374)"/><path id="Path_4710-4" data-name="Path 4710-4" class="cls-24" d="M66.179,55.914,24.994,86.193l-2.259-1.3L65.625,53.37A25.463,25.463,0,0,1,66.179,55.914Z" transform="translate(-0.998 -0.374)"/></g></g><g id="Group_2675" data-name="Group 2675"><g id="Group_2663-3" data-name="Group 2663-3"><g id="Group_2640-5" data-name="Group 2640-5"><g id="Group_2637-5" data-name="Group 2637-5"><ellipse id="Ellipse_293-5" data-name="Ellipse 293-5" class="cls-17" cx="78.897" cy="63.307" rx="23.916" ry="23.416" transform="translate(12.872 140.419) rotate(-88.74)"/><path id="Path_4704-5" data-name="Path 4704-5" class="cls-18" d="M100.366,63.306A23.415,23.415,0,1,1,76.957,39.385,23.669,23.669,0,0,1,100.366,63.306Z" transform="translate(-0.998 -0.374)"/><ellipse id="Ellipse_294-5" data-name="Ellipse 294-5" class="cls-19" cx="75.362" cy="63.307" rx="23.916" ry="23.416" transform="translate(9.415 136.884) rotate(-88.74)"/><path id="Path_4705-5" data-name="Path 4705-5" class="cls-20" d="M95.224,63.306A19.881,19.881,0,1,1,75.349,42.92,20.135,20.135,0,0,1,95.224,63.306Z" transform="translate(-0.998 -0.374)"/><path id="Path_4706-5" data-name="Path 4706-5" class="cls-21" d="M77.982,81.571a20.381,20.381,0,0,1-15.433-33.7,20.381,20.381,0,1,0,28.745,28.75A20.3,20.3,0,0,1,77.982,81.571Z" transform="translate(-0.998 -0.374)"/></g></g></g><path id="Path_4770-2" data-name="Path 4770-2" class="cls-32" d="M86.465,58l-3.353-2.37a.708.708,0,0,0-.232-.106L66.847,51.6a.684.684,0,0,0-.827.5.674.674,0,0,0,.013.362.049.049,0,0,0,.008.032l8.1,22.675h0a.684.684,0,0,0,1.2.136l11.292-16.36A.682.682,0,0,0,86.465,58Zm-1.609.537L78.293,61.6,82.679,57Zm-8.87,3.937-7.677-9.112,13.268,3.25Zm-.578.964-1.02,9.242L67.9,54.536Zm1.05.187L84.248,60l-8.8,12.744Z" transform="translate(-0.998 -0.374)"/><g id="Group_2673-2" data-name="Group 2673-2" class="cls-34"><path id="Path_4708-5" data-name="Path 4708-5" class="cls-24" d="M92.983,47.715,55.493,75.968a24,24,0,0,1-2.853-6.906L87.4,42.862A23.44,23.44,0,0,1,92.983,47.715Z" transform="translate(-0.998 -0.374)"/><path id="Path_4709-5" data-name="Path 4709-5" class="cls-24" d="M96.587,53.344,59.8,81.088a23.6,23.6,0,0,1-2.473-2.663l37.52-28.292A22.441,22.441,0,0,1,96.587,53.344Z" transform="translate(-0.998 -0.374)"/><path id="Path_4710-5" data-name="Path 4710-5" class="cls-24" d="M98.405,59.216,63.9,84.584,62,83.5,97.941,57.084A21.381,21.381,0,0,1,98.405,59.216Z" transform="translate(-0.998 -0.374)"/></g></g></g><g id="Group_2676" data-name="Group 2676"><g id="Group_2663-4" data-name="Group 2663-4"><g id="Group_2640-6" data-name="Group 2640-6"><g id="Group_2637-6" data-name="Group 2637-6"><ellipse id="Ellipse_293-6" data-name="Ellipse 293-6" class="cls-17" cx="73.08" cy="18.562" rx="18.184" ry="17.803" transform="translate(51.918 90.842) rotate(-88.74)"/><path id="Path_4704-6" data-name="Path 4704-6" class="cls-18" d="M89.4,18.562A17.8,17.8,0,1,1,71.609.374,18,18,0,0,1,89.4,18.562Z" transform="translate(-0.998 -0.374)"/><ellipse id="Ellipse_294-6" data-name="Ellipse 294-6" class="cls-19" cx="70.392" cy="18.562" rx="18.184" ry="17.803" transform="translate(49.289 88.154) rotate(-88.74)"/><path id="Path_4705-6" data-name="Path 4705-6" class="cls-20" d="M85.494,18.562a15.116,15.116,0,1,1-15.112-15.5A15.309,15.309,0,0,1,85.494,18.562Z" transform="translate(-0.998 -0.374)"/><path id="Path_4706-6" data-name="Path 4706-6" class="cls-21" d="M72.384,32.449A15.5,15.5,0,0,1,60.65,6.828,15.5,15.5,0,1,0,82.507,28.683,15.431,15.431,0,0,1,72.384,32.449Z" transform="translate(-0.998 -0.374)"/></g></g></g><path id="Path_4770-3" data-name="Path 4770-3" class="cls-32" d="M78.834,14.531l-2.549-1.8a.536.536,0,0,0-.177-.081L63.918,9.66a.52.52,0,0,0-.629.381h0a.514.514,0,0,0,.01.275.036.036,0,0,0,.006.024l6.158,17.24h0a.52.52,0,0,0,.911.1l8.587-12.43A.519.519,0,0,0,78.834,14.531Zm-1.223.408-4.99,2.326,3.335-3.5Zm-6.744,2.993L65.03,11l10.088,2.471Zm-.439.733-.776,7.027-4.931-13.8Zm.8.142,5.923-2.761-6.688,9.69Z" transform="translate(-0.998 -0.374)"/><g id="Group_2673-3" data-name="Group 2673-3" class="cls-35"><path id="Path_4708-6" data-name="Path 4708-6" class="cls-24" d="M83.789,6.708l-28.5,21.481a18.256,18.256,0,0,1-2.169-5.25L79.548,3.019A17.82,17.82,0,0,1,83.789,6.708Z" transform="translate(-0.998 -0.374)"/><path id="Path_4709-6" data-name="Path 4709-6" class="cls-24" d="M86.529,10.987l-27.973,21.1a17.913,17.913,0,0,1-1.88-2.024L85.206,8.549A17.086,17.086,0,0,1,86.529,10.987Z" transform="translate(-0.998 -0.374)"/><path id="Path_4710-6" data-name="Path 4710-6" class="cls-24" d="M87.912,15.454,61.675,34.742l-1.439-.828L87.561,13.833C87.7,14.364,87.821,14.9,87.912,15.454Z" transform="translate(-0.998 -0.374)"/></g></g></g><g id="Group_2679" data-name="Group 2679"><path id="Rectangle_85-2" data-name="Rectangle 85-2" class="cls-27" d="M12.329,64.867h93.424A11.329,11.329,0,0,1,117.082,76.2h0v64.471A11.328,11.328,0,0,1,105.754,152H12.328A11.328,11.328,0,0,1,1,140.667H1V76.2A11.329,11.329,0,0,1,12.329,64.867Z" transform="translate(-0.998 -0.374)"/><path id="Rectangle_86-2" data-name="Rectangle 86-2" class="cls-28" d="M12.329,70.875h93.425A11.329,11.329,0,0,1,117.083,82.2h0v64.471A11.329,11.329,0,0,1,105.754,158H12.328A11.328,11.328,0,0,1,1,146.676H1V82.2A11.329,11.329,0,0,1,12.329,70.875Z" transform="translate(-0.998 -0.374)"/><rect id="Rectangle_87-2" data-name="Rectangle 87-2" class="cls-29" x="6.683" y="75.49" width="102.721" height="77.147" rx="10.032"/><path id="Path_4748-2" data-name="Path 4748-2" class="cls-27" d="M123.591,121.029s-3.177,5.8-7.1,5.8H83.372a7.1,7.1,0,0,1-7.1-7.1V104.522a12.224,12.224,0,0,1,2.757-7.107h37.463a7.1,7.1,0,0,1,7.1,7.1v16.514Z" transform="translate(-0.998 -0.374)"/><path id="Path_4749-2" data-name="Path 4749-2" class="cls-30" d="M125,116.781a7.1,7.1,0,0,1-7.092,7.108H84.78a7.1,7.1,0,0,1-7.1-7.1V101.581a7.1,7.1,0,0,1,7.092-7.108H117.9a7.1,7.1,0,0,1,7.1,7.1v.008Z" transform="translate(-0.998 -0.374)"/><path id="Path_4750-2" data-name="Path 4750-2" class="cls-31" d="M98.131,109.492a8.825,8.825,0,1,1-8.825-8.825A8.825,8.825,0,0,1,98.131,109.492Z" transform="translate(-0.998 -0.374)"/></g></g><g id="title-block-dashboad-5"><g id="Signers" class="cls-7"><g class="cls-7"><path class="cls-8" d="M775.046,159.7a3.7,3.7,0,0,1-2.239-.728,3.78,3.78,0,0,1-1.387-2.044l1.456-.588a2.8,2.8,0,0,0,.8,1.372,1.967,1.967,0,0,0,1.387.532,2.075,2.075,0,0,0,1.28-.392,1.27,1.27,0,0,0,.525-1.078,1.338,1.338,0,0,0-.462-1.043,4.881,4.881,0,0,0-1.6-.805l-.631-.224a4.7,4.7,0,0,1-1.7-1.015,2.283,2.283,0,0,1-.679-1.729,2.523,2.523,0,0,1,.4-1.372,2.764,2.764,0,0,1,1.119-.994,3.571,3.571,0,0,1,1.632-.364,3.21,3.21,0,0,1,2.086.637A3.244,3.244,0,0,1,778.1,151.3l-1.386.588a1.692,1.692,0,0,0-.588-.868,1.789,1.789,0,0,0-1.162-.364,1.859,1.859,0,0,0-1.162.364,1.116,1.116,0,0,0-.476.924,1.061,1.061,0,0,0,.427.861,4.53,4.53,0,0,0,1.323.652l.644.223a5.082,5.082,0,0,1,1.988,1.162,2.605,2.605,0,0,1,.7,1.9,2.67,2.67,0,0,1-.5,1.645,2.991,2.991,0,0,1-1.274.987A4.125,4.125,0,0,1,775.046,159.7Z" transform="translate(-0.998 -0.374)"/><path class="cls-8" d="M780.884,149.453h1.54v10.024h-1.54Z" transform="translate(-0.998 -0.374)"/><path class="cls-8" d="M789.984,159.7a5.227,5.227,0,0,1-2.632-.686,5.239,5.239,0,0,1,0-9.1,5.217,5.217,0,0,1,2.632-.687,5.415,5.415,0,0,1,2.114.406,4.654,4.654,0,0,1,1.638,1.134l-1.064,1.064a3.427,3.427,0,0,0-2.688-1.148,3.744,3.744,0,0,0-1.834.469,3.5,3.5,0,0,0-1.358,1.337,3.86,3.86,0,0,0-.5,1.974,3.806,3.806,0,0,0,.511,1.981,3.573,3.573,0,0,0,1.358,1.33,3.745,3.745,0,0,0,1.841.469,3.484,3.484,0,0,0,2.576-.994,2.493,2.493,0,0,0,.539-.784,3.886,3.886,0,0,0,.3-1.05h-3.443v-1.358h4.871a4.785,4.785,0,0,1,.084.812,5.444,5.444,0,0,1-.3,1.813,4.163,4.163,0,0,1-.932,1.519,4.472,4.472,0,0,1-1.609,1.113A5.475,5.475,0,0,1,789.984,159.7Z" transform="translate(-0.998 -0.374)"/><path class="cls-8" d="M797.4,149.453h1.821l4.536,7.364h.084l-.084-1.932v-5.432h1.525v10.024h-1.6l-4.759-7.742h-.084l.084,1.932v5.81H797.4Z" transform="translate(-0.998 -0.374)"/><path class="cls-8" d="M808.254,149.453h6.076v1.456h-4.537v2.828h4.089v1.456h-4.089v2.828h4.537v1.456h-6.076Z" transform="translate(-0.998 -0.374)"/><path class="cls-8" d="M816.961,149.453h3.515a3.434,3.434,0,0,1,1.645.392,2.959,2.959,0,0,1,1.588,2.674,2.7,2.7,0,0,1-.65,1.785,3.165,3.165,0,0,1-1.631,1.043l-.014.07,2.758,3.976v.084h-1.778l-2.674-3.934H818.5v3.934h-1.541Zm3.473,4.676a1.729,1.729,0,0,0,1.224-.462,1.517,1.517,0,0,0,.5-1.162,1.6,1.6,0,0,0-1.666-1.61H818.5v3.234Z" transform="translate(-0.998 -0.374)"/><path class="cls-8" d="M829.113,159.7a3.7,3.7,0,0,1-2.24-.728,3.784,3.784,0,0,1-1.386-2.044l1.456-.588a2.808,2.808,0,0,0,.8,1.372,1.966,1.966,0,0,0,1.386.532,2.074,2.074,0,0,0,1.281-.392,1.271,1.271,0,0,0,.526-1.078,1.339,1.339,0,0,0-.463-1.043,4.867,4.867,0,0,0-1.6-.805l-.629-.224a4.686,4.686,0,0,1-1.7-1.015,2.283,2.283,0,0,1-.68-1.729,2.514,2.514,0,0,1,.4-1.372,2.763,2.763,0,0,1,1.121-.994,3.558,3.558,0,0,1,1.631-.364,3.216,3.216,0,0,1,2.086.637,3.252,3.252,0,0,1,1.064,1.435l-1.387.588a1.686,1.686,0,0,0-.588-.868,1.785,1.785,0,0,0-1.162-.364,1.863,1.863,0,0,0-1.162.364,1.118,1.118,0,0,0-.475.924,1.057,1.057,0,0,0,.426.861,4.551,4.551,0,0,0,1.324.652l.643.223a5.06,5.06,0,0,1,1.988,1.162,2.6,2.6,0,0,1,.7,1.9,2.67,2.67,0,0,1-.5,1.645,2.988,2.988,0,0,1-1.275.987A4.125,4.125,0,0,1,829.113,159.7Z" transform="translate(-0.998 -0.374)"/></g></g></g><g id="title-block-dashboad-6"><g id="Signers-2" class="cls-7"><g class="cls-7"><path class="cls-8" d="M775.046,318.7a3.688,3.688,0,0,1-2.239-.728,3.777,3.777,0,0,1-1.387-2.043l1.456-.588a2.807,2.807,0,0,0,.8,1.371,1.966,1.966,0,0,0,1.387.531,2.08,2.08,0,0,0,1.28-.39,1.275,1.275,0,0,0,.525-1.079,1.34,1.34,0,0,0-.462-1.043,4.864,4.864,0,0,0-1.6-.8l-.631-.225a4.7,4.7,0,0,1-1.7-1.015,2.283,2.283,0,0,1-.679-1.729,2.522,2.522,0,0,1,.4-1.371,2.764,2.764,0,0,1,1.119-.994,3.559,3.559,0,0,1,1.632-.365,3.21,3.21,0,0,1,2.086.636A3.257,3.257,0,0,1,778.1,310.3l-1.386.588a1.692,1.692,0,0,0-.588-.868,1.789,1.789,0,0,0-1.162-.365,1.859,1.859,0,0,0-1.162.365,1.116,1.116,0,0,0-.476.924,1.064,1.064,0,0,0,.427.862,4.509,4.509,0,0,0,1.323.65l.644.225a5.058,5.058,0,0,1,1.988,1.162,2.6,2.6,0,0,1,.7,1.9,2.679,2.679,0,0,1-.5,1.647,3,3,0,0,1-1.274.986A4.106,4.106,0,0,1,775.046,318.7Z" transform="translate(-0.998 -0.374)"/><path class="cls-8" d="M780.884,308.453h1.54v10.024h-1.54Z" transform="translate(-0.998 -0.374)"/><path class="cls-8" d="M789.984,318.7a5.226,5.226,0,0,1-2.632-.685,5.241,5.241,0,0,1,0-9.1,5.207,5.207,0,0,1,2.632-.687,5.415,5.415,0,0,1,2.114.406,4.631,4.631,0,0,1,1.638,1.135l-1.064,1.064a3.424,3.424,0,0,0-2.688-1.148,3.754,3.754,0,0,0-1.834.468,3.493,3.493,0,0,0-1.358,1.336,3.869,3.869,0,0,0-.5,1.975,3.8,3.8,0,0,0,.511,1.98,3.559,3.559,0,0,0,1.358,1.33,3.735,3.735,0,0,0,1.841.469,3.487,3.487,0,0,0,2.576-.992,2.509,2.509,0,0,0,.539-.785,3.879,3.879,0,0,0,.3-1.049h-3.443v-1.359h4.871a4.785,4.785,0,0,1,.084.812,5.448,5.448,0,0,1-.3,1.813,4.163,4.163,0,0,1-.932,1.519,4.472,4.472,0,0,1-1.609,1.113A5.494,5.494,0,0,1,789.984,318.7Z" transform="translate(-0.998 -0.374)"/><path class="cls-8" d="M797.4,308.453h1.821l4.536,7.363h.084l-.084-1.931v-5.432h1.525v10.024h-1.6l-4.759-7.743h-.084l.084,1.934v5.809H797.4Z" transform="translate(-0.998 -0.374)"/><path class="cls-8" d="M808.254,308.453h6.076v1.455h-4.537v2.828h4.089v1.457h-4.089v2.828h4.537v1.456h-6.076Z" transform="translate(-0.998 -0.374)"/><path class="cls-8" d="M816.961,308.453h3.515a3.435,3.435,0,0,1,1.645.393,2.959,2.959,0,0,1,1.588,2.674,2.709,2.709,0,0,1-.65,1.785,3.171,3.171,0,0,1-1.631,1.043l-.014.07,2.758,3.975v.084h-1.778l-2.674-3.934H818.5v3.934h-1.541Zm3.473,4.676a1.733,1.733,0,0,0,1.224-.461,1.519,1.519,0,0,0,.5-1.162,1.6,1.6,0,0,0-1.666-1.611H818.5v3.234Z" transform="translate(-0.998 -0.374)"/><path class="cls-8" d="M829.113,318.7a3.7,3.7,0,0,1-2.24-.728,3.781,3.781,0,0,1-1.386-2.043l1.456-.588a2.814,2.814,0,0,0,.8,1.371,1.965,1.965,0,0,0,1.386.531,2.079,2.079,0,0,0,1.281-.39,1.275,1.275,0,0,0,.526-1.079,1.341,1.341,0,0,0-.463-1.043,4.85,4.85,0,0,0-1.6-.8l-.629-.225a4.686,4.686,0,0,1-1.7-1.015,2.283,2.283,0,0,1-.68-1.729,2.513,2.513,0,0,1,.4-1.371,2.763,2.763,0,0,1,1.121-.994,3.546,3.546,0,0,1,1.631-.365,3.216,3.216,0,0,1,2.086.636,3.265,3.265,0,0,1,1.064,1.436l-1.387.588a1.686,1.686,0,0,0-.588-.868,1.785,1.785,0,0,0-1.162-.365,1.863,1.863,0,0,0-1.162.365,1.118,1.118,0,0,0-.475.924,1.06,1.06,0,0,0,.426.862,4.53,4.53,0,0,0,1.324.65l.643.225a5.036,5.036,0,0,1,1.988,1.162,2.593,2.593,0,0,1,.7,1.9,2.678,2.678,0,0,1-.5,1.647,2.993,2.993,0,0,1-1.275.986A4.106,4.106,0,0,1,829.113,318.7Z" transform="translate(-0.998 -0.374)"/></g></g></g><g id="title-block-dashboad-7"><g id="Signers-3" class="cls-7"><g class="cls-7"><path class="cls-8" d="M775.046,477.7a3.688,3.688,0,0,1-2.239-.728,3.777,3.777,0,0,1-1.387-2.043l1.456-.588a2.807,2.807,0,0,0,.8,1.371,1.966,1.966,0,0,0,1.387.531,2.08,2.08,0,0,0,1.28-.39,1.275,1.275,0,0,0,.525-1.079,1.34,1.34,0,0,0-.462-1.043,4.864,4.864,0,0,0-1.6-.8l-.631-.225a4.7,4.7,0,0,1-1.7-1.015,2.283,2.283,0,0,1-.679-1.729,2.522,2.522,0,0,1,.4-1.371,2.764,2.764,0,0,1,1.119-.994,3.559,3.559,0,0,1,1.632-.365,3.21,3.21,0,0,1,2.086.636A3.257,3.257,0,0,1,778.1,469.3l-1.386.588a1.692,1.692,0,0,0-.588-.868,1.789,1.789,0,0,0-1.162-.365,1.859,1.859,0,0,0-1.162.365,1.116,1.116,0,0,0-.476.924,1.064,1.064,0,0,0,.427.862,4.509,4.509,0,0,0,1.323.65l.644.225a5.058,5.058,0,0,1,1.988,1.162,2.6,2.6,0,0,1,.7,1.9,2.679,2.679,0,0,1-.5,1.647,3,3,0,0,1-1.274.986A4.106,4.106,0,0,1,775.046,477.7Z" transform="translate(-0.998 -0.374)"/><path class="cls-8" d="M780.884,467.453h1.54v10.024h-1.54Z" transform="translate(-0.998 -0.374)"/><path class="cls-8" d="M789.984,477.7a5.226,5.226,0,0,1-2.632-.685,5.241,5.241,0,0,1,0-9.1,5.207,5.207,0,0,1,2.632-.687,5.415,5.415,0,0,1,2.114.406,4.631,4.631,0,0,1,1.638,1.135l-1.064,1.064a3.424,3.424,0,0,0-2.688-1.148,3.754,3.754,0,0,0-1.834.468,3.493,3.493,0,0,0-1.358,1.336,3.869,3.869,0,0,0-.5,1.975,3.8,3.8,0,0,0,.511,1.98,3.559,3.559,0,0,0,1.358,1.33,3.735,3.735,0,0,0,1.841.469,3.487,3.487,0,0,0,2.576-.992,2.509,2.509,0,0,0,.539-.785,3.879,3.879,0,0,0,.3-1.049h-3.443v-1.359h4.871a4.785,4.785,0,0,1,.084.812,5.448,5.448,0,0,1-.3,1.813,4.163,4.163,0,0,1-.932,1.519,4.472,4.472,0,0,1-1.609,1.113A5.494,5.494,0,0,1,789.984,477.7Z" transform="translate(-0.998 -0.374)"/><path class="cls-8" d="M797.4,467.453h1.821l4.536,7.363h.084l-.084-1.931v-5.432h1.525v10.024h-1.6l-4.759-7.743h-.084l.084,1.934v5.809H797.4Z" transform="translate(-0.998 -0.374)"/><path class="cls-8" d="M808.254,467.453h6.076v1.455h-4.537v2.828h4.089v1.457h-4.089v2.828h4.537v1.456h-6.076Z" transform="translate(-0.998 -0.374)"/><path class="cls-8" d="M816.961,467.453h3.515a3.435,3.435,0,0,1,1.645.393,2.959,2.959,0,0,1,1.588,2.674,2.709,2.709,0,0,1-.65,1.785,3.171,3.171,0,0,1-1.631,1.043l-.014.07,2.758,3.975v.084h-1.778l-2.674-3.934H818.5v3.934h-1.541Zm3.473,4.676a1.733,1.733,0,0,0,1.224-.461,1.519,1.519,0,0,0,.5-1.162,1.6,1.6,0,0,0-1.666-1.611H818.5v3.234Z" transform="translate(-0.998 -0.374)"/><path class="cls-8" d="M829.113,477.7a3.7,3.7,0,0,1-2.24-.728,3.781,3.781,0,0,1-1.386-2.043l1.456-.588a2.814,2.814,0,0,0,.8,1.371,1.965,1.965,0,0,0,1.386.531,2.079,2.079,0,0,0,1.281-.39,1.275,1.275,0,0,0,.526-1.079,1.341,1.341,0,0,0-.463-1.043,4.85,4.85,0,0,0-1.6-.8l-.629-.225a4.686,4.686,0,0,1-1.7-1.015,2.283,2.283,0,0,1-.68-1.729,2.513,2.513,0,0,1,.4-1.371,2.763,2.763,0,0,1,1.121-.994,3.546,3.546,0,0,1,1.631-.365,3.216,3.216,0,0,1,2.086.636,3.265,3.265,0,0,1,1.064,1.436l-1.387.588a1.686,1.686,0,0,0-.588-.868,1.785,1.785,0,0,0-1.162-.365,1.863,1.863,0,0,0-1.162.365,1.118,1.118,0,0,0-.475.924,1.06,1.06,0,0,0,.426.862,4.53,4.53,0,0,0,1.324.65l.643.225a5.036,5.036,0,0,1,1.988,1.162,2.593,2.593,0,0,1,.7,1.9,2.678,2.678,0,0,1-.5,1.647,2.993,2.993,0,0,1-1.275.986A4.106,4.106,0,0,1,829.113,477.7Z" transform="translate(-0.998 -0.374)"/></g></g></g><g id="Group_2807" data-name="Group 2807"><rect id="Rectangle_408" data-name="Rectangle 408" class="cls-36" x="759.105" y="126.918" width="84.549" height="1.395"/><rect id="Rectangle_409" data-name="Rectangle 409" class="cls-36" x="758.116" y="128.312" width="86.528" height="1.395"/><rect id="Rectangle_410" data-name="Rectangle 410" class="cls-36" x="756.757" y="129.708" width="89.245" height="1.395"/><rect id="Rectangle_411" data-name="Rectangle 411" class="cls-37" x="763.227" y="73.585" width="76.425" height="53.332"/><path id="Path_4997" data-name="Path 4997" class="cls-37" d="M846.78,75.735H757l45.706-26.258Z" transform="translate(-0.998 -0.374)"/><path id="Path_4998" data-name="Path 4998" class="cls-38" d="M772.446,72.23l58.888-.149-28.7-17.963Z" transform="translate(-0.998 -0.374)"/><rect id="Rectangle_412" data-name="Rectangle 412" class="cls-36" x="758.658" y="75.116" width="84.964" height="1.751"/><g id="Group_2782" data-name="Group 2782"><rect id="Rectangle_413" data-name="Rectangle 413" class="cls-36" x="769.515" y="75.603" width="9.549" height="3.38"/><rect id="Rectangle_414" data-name="Rectangle 414" class="cls-36" x="771.658" y="78.983" width="5.264" height="48.935"/></g><rect id="Rectangle_415" data-name="Rectangle 415" class="cls-36" x="786.258" y="75.111" width="9.549" height="3.38"/><rect id="Rectangle_416" data-name="Rectangle 416" class="cls-36" x="788.312" y="77.984" width="5.264" height="48.935"/><g id="Group_2783" data-name="Group 2783"><rect id="Rectangle_417" data-name="Rectangle 417" class="cls-36" x="807.05" y="75.603" width="9.549" height="3.38"/><rect id="Rectangle_418" data-name="Rectangle 418" class="cls-36" x="809.193" y="77.983" width="5.264" height="48.935"/></g><g id="Group_2784" data-name="Group 2784"><rect id="Rectangle_419" data-name="Rectangle 419" class="cls-36" x="822.717" y="75.603" width="9.549" height="3.38"/><rect id="Rectangle_420" data-name="Rectangle 420" class="cls-36" x="824.86" y="77.983" width="5.264" height="48.935"/></g></g><g id="Group_2808" data-name="Group 2808"><rect id="Rectangle_408-2" data-name="Rectangle 408-2" class="cls-36" x="759.105" y="285.918" width="84.549" height="1.395"/><rect id="Rectangle_409-2" data-name="Rectangle 409-2" class="cls-36" x="758.116" y="287.312" width="86.528" height="1.395"/><rect id="Rectangle_410-2" data-name="Rectangle 410-2" class="cls-36" x="756.757" y="288.708" width="89.245" height="1.395"/><rect id="Rectangle_411-2" data-name="Rectangle 411-2" class="cls-37" x="763.227" y="232.585" width="76.425" height="53.332"/><path id="Path_4997-2" data-name="Path 4997-2" class="cls-37" d="M846.78,234.735H757l45.706-26.258Z" transform="translate(-0.998 -0.374)"/><path id="Path_4998-2" data-name="Path 4998-2" class="cls-38" d="M772.446,231.23l58.888-.149-28.7-17.963Z" transform="translate(-0.998 -0.374)"/><rect id="Rectangle_412-2" data-name="Rectangle 412-2" class="cls-36" x="758.658" y="234.116" width="84.964" height="1.751"/><g id="Group_2782-2" data-name="Group 2782-2"><rect id="Rectangle_413-2" data-name="Rectangle 413-2" class="cls-36" x="769.515" y="234.603" width="9.549" height="3.38"/><rect id="Rectangle_414-2" data-name="Rectangle 414-2" class="cls-36" x="771.658" y="237.983" width="5.264" height="48.935"/></g><rect id="Rectangle_415-2" data-name="Rectangle 415-2" class="cls-36" x="786.258" y="234.111" width="9.549" height="3.38"/><rect id="Rectangle_416-2" data-name="Rectangle 416-2" class="cls-36" x="788.312" y="236.984" width="5.264" height="48.935"/><g id="Group_2783-2" data-name="Group 2783-2"><rect id="Rectangle_417-2" data-name="Rectangle 417-2" class="cls-36" x="807.05" y="234.603" width="9.549" height="3.38"/><rect id="Rectangle_418-2" data-name="Rectangle 418-2" class="cls-36" x="809.193" y="236.983" width="5.264" height="48.935"/></g><g id="Group_2784-2" data-name="Group 2784-2"><rect id="Rectangle_419-2" data-name="Rectangle 419-2" class="cls-36" x="822.717" y="234.603" width="9.549" height="3.38"/><rect id="Rectangle_420-2" data-name="Rectangle 420-2" class="cls-36" x="824.86" y="236.983" width="5.264" height="48.935"/></g></g><g id="Group_2809" data-name="Group 2809"><rect id="Rectangle_408-3" data-name="Rectangle 408-3" class="cls-36" x="759.105" y="444.918" width="84.549" height="1.395"/><rect id="Rectangle_409-3" data-name="Rectangle 409-3" class="cls-36" x="758.116" y="446.312" width="86.528" height="1.395"/><rect id="Rectangle_410-3" data-name="Rectangle 410-3" class="cls-36" x="756.757" y="447.708" width="89.245" height="1.395"/><rect id="Rectangle_411-3" data-name="Rectangle 411-3" class="cls-37" x="763.227" y="391.585" width="76.425" height="53.332"/><path id="Path_4997-3" data-name="Path 4997-3" class="cls-37" d="M846.78,393.735H757l45.706-26.258Z" transform="translate(-0.998 -0.374)"/><path id="Path_4998-3" data-name="Path 4998-3" class="cls-38" d="M772.446,390.23l58.888-.149-28.7-17.963Z" transform="translate(-0.998 -0.374)"/><rect id="Rectangle_412-3" data-name="Rectangle 412-3" class="cls-36" x="758.658" y="393.116" width="84.964" height="1.751"/><g id="Group_2782-3" data-name="Group 2782-3"><rect id="Rectangle_413-3" data-name="Rectangle 413-3" class="cls-36" x="769.515" y="393.603" width="9.549" height="3.38"/><rect id="Rectangle_414-3" data-name="Rectangle 414-3" class="cls-36" x="771.658" y="396.983" width="5.264" height="48.935"/></g><rect id="Rectangle_415-3" data-name="Rectangle 415-3" class="cls-36" x="786.258" y="393.111" width="9.549" height="3.38"/><rect id="Rectangle_416-3" data-name="Rectangle 416-3" class="cls-36" x="788.312" y="395.984" width="5.264" height="48.935"/><g id="Group_2783-3" data-name="Group 2783-3"><rect id="Rectangle_417-3" data-name="Rectangle 417-3" class="cls-36" x="807.05" y="393.603" width="9.549" height="3.38"/><rect id="Rectangle_418-3" data-name="Rectangle 418-3" class="cls-36" x="809.193" y="395.983" width="5.264" height="48.935"/></g><g id="Group_2784-3" data-name="Group 2784-3"><rect id="Rectangle_419-3" data-name="Rectangle 419-3" class="cls-36" x="822.717" y="393.603" width="9.549" height="3.38"/><rect id="Rectangle_420-3" data-name="Rectangle 420-3" class="cls-36" x="824.86" y="395.983" width="5.264" height="48.935"/></g></g><g id="Group_2833" data-name="Group 2833"><g id="Group_2717" data-name="Group 2717"><g id="Group_2668" data-name="Group 2668"><line id="Line_26" data-name="Line 26" class="cls-39" x1="61.502" y1="409.401" x2="61.742" y2="233.378"/><path id="Polygon_4" data-name="Polygon 4" class="cls-40" d="M62.74,222.752l5.5,11h-11Z" transform="translate(-0.998 -0.374)"/><circle id="Ellipse_295" data-name="Ellipse 295" class="cls-41" cx="61.742" cy="409.878" r="3.5"/></g><g id="Group_2682" data-name="Group 2682"><g id="menu-medium"><g id="Amount_mBTC" data-name="Amount mBTC" class="cls-7"><g class="cls-7"><path class="cls-8" d="M35.784,352.191v-2l11.456-4.336v1.937L44.3,348.848v4.672l2.944,1.056v1.936Zm6.88-2.767-3.5,1.28-1.311.432v.1l1.311.432,3.5,1.279Z" transform="translate(-0.998 -0.374)"/><path class="cls-8" d="M39.08,344.977v-1.633H40.2v-.1a2.83,2.83,0,0,1-.992-1.04,2.914,2.914,0,0,1-.384-1.472,2.769,2.769,0,0,1,.416-1.528,2.39,2.39,0,0,1,1.1-.937,3.349,3.349,0,0,1-1.1-1.126,3.147,3.147,0,0,1-.416-1.641,2.618,2.618,0,0,1,.857-2.128,3.5,3.5,0,0,1,2.327-.72H47.24v1.711H42.3q-1.887,0-1.888,1.6a1.738,1.738,0,0,0,.7,1.432,2.766,2.766,0,0,0,1.76.551H47.24v1.713H42.3q-1.887,0-1.888,1.648a1.68,1.68,0,0,0,.712,1.392,2.834,2.834,0,0,0,1.769.544H47.24v1.729Z" transform="translate(-0.998 -0.374)"/><path class="cls-8" d="M46.929,324.648a4.274,4.274,0,0,1,.567,2.2,4.317,4.317,0,0,1-.567,2.209,4,4,0,0,1-1.561,1.519,4.753,4.753,0,0,1-4.416,0,3.987,3.987,0,0,1-1.559-1.519,4.308,4.308,0,0,1-.569-2.209,4.241,4.241,0,0,1,.576-2.192,4.051,4.051,0,0,1,1.568-1.519,4.713,4.713,0,0,1,4.4,0A4.013,4.013,0,0,1,46.929,324.648Zm-1.353,3.472a2.507,2.507,0,0,0,.336-1.272,2.468,2.468,0,0,0-.336-1.264,2.507,2.507,0,0,0-.96-.928,3.2,3.2,0,0,0-2.912,0,2.514,2.514,0,0,0-.96.928,2.478,2.478,0,0,0-.336,1.264,2.494,2.494,0,0,0,1.3,2.209,3.2,3.2,0,0,0,2.912,0A2.487,2.487,0,0,0,45.576,328.12Z" transform="translate(-0.998 -0.374)"/><path class="cls-8" d="M47.5,318.128a2.823,2.823,0,0,1-.888,2.247,3.627,3.627,0,0,1-2.471.777H39.08v-1.728H43.9a2.161,2.161,0,0,0,1.5-.465,1.6,1.6,0,0,0,.512-1.247,1.975,1.975,0,0,0-.336-1.136,2.175,2.175,0,0,0-.9-.76,2.823,2.823,0,0,0-1.217-.264H39.08V313.84h8.16v1.615h-1.1v.1a2.7,2.7,0,0,1,.975,1.055A3.13,3.13,0,0,1,47.5,318.128Z" transform="translate(-0.998 -0.374)"/><path class="cls-8" d="M39.08,311.809v-1.633H40.2v-.1a2.637,2.637,0,0,1-.992-1.056,3.121,3.121,0,0,1-.384-1.52,2.824,2.824,0,0,1,.872-2.239,3.489,3.489,0,0,1,2.392-.768H47.24v1.711H42.312a1.928,1.928,0,0,0-1.432.48A1.79,1.79,0,0,0,40.408,308a1.82,1.82,0,0,0,.336,1.08,2.244,2.244,0,0,0,.9.736,2.811,2.811,0,0,0,1.215.264H47.24v1.729Z" transform="translate(-0.998 -0.374)"/><path class="cls-8" d="M47.368,299.584A3.014,3.014,0,0,1,47.2,300.6a2.052,2.052,0,0,1-.471.775,2.445,2.445,0,0,1-1.857.688H40.584v1.424h-1.5v-1.424h-2.3v-1.728h2.3v-2h1.5v2H44.5a1.373,1.373,0,0,0,.944-.255,1.061,1.061,0,0,0,.3-.832,1.531,1.531,0,0,0-.071-.5,2.385,2.385,0,0,0-.233-.463h1.68A3.188,3.188,0,0,1,47.368,299.584Z" transform="translate(-0.998 -0.374)"/><path class="cls-8" d="M39.08,292.929V291.3H40.2V291.2a2.838,2.838,0,0,1-.992-1.04,2.92,2.92,0,0,1-.384-1.473,2.765,2.765,0,0,1,.416-1.527,2.388,2.388,0,0,1,1.1-.936,3.346,3.346,0,0,1-1.1-1.128,3.143,3.143,0,0,1-.416-1.64,2.62,2.62,0,0,1,.857-2.128,3.5,3.5,0,0,1,2.327-.721H47.24v1.712H42.3q-1.887,0-1.888,1.6a1.74,1.74,0,0,0,.7,1.433,2.766,2.766,0,0,0,1.76.551H47.24v1.713H42.3q-1.887,0-1.888,1.648a1.681,1.681,0,0,0,.712,1.392,2.834,2.834,0,0,0,1.769.544H47.24v1.728Z" transform="translate(-0.998 -0.374)"/><path class="cls-8" d="M35.784,278.353v-4.289a3.672,3.672,0,0,1,.4-1.695,3.174,3.174,0,0,1,1.095-1.241,2.758,2.758,0,0,1,1.544-.456,2.6,2.6,0,0,1,1.481.425,2.757,2.757,0,0,1,.967,1.128h.081A2.885,2.885,0,0,1,42.36,270.8a2.7,2.7,0,0,1,1.664-.528,2.935,2.935,0,0,1,1.672.488,3.312,3.312,0,0,1,1.136,1.312,4.005,4.005,0,0,1,.408,1.8v4.48Zm4.817-4.208a1.715,1.715,0,0,0-.489-1.281,1.56,1.56,0,0,0-1.128-.48,1.525,1.525,0,0,0-1.112.472,1.66,1.66,0,0,0-.472,1.225v2.511h3.2Zm5.007-.272a1.805,1.805,0,0,0-.5-1.336,1.688,1.688,0,0,0-2.423.015,1.886,1.886,0,0,0-.513,1.385v2.655h3.44Z" transform="translate(-0.998 -0.374)"/><path class="cls-8" d="M37.448,266.161v3.216H35.784V261.2h1.664v3.2H47.24v1.76Z" transform="translate(-0.998 -0.374)"/><path class="cls-8" d="M47.5,254.577a5.986,5.986,0,0,1-.784,3.032,5.694,5.694,0,0,1-2.16,2.152,6.291,6.291,0,0,1-6.079,0,5.7,5.7,0,0,1-2.161-2.152,6,6,0,0,1-.784-3.032,5.424,5.424,0,0,1,1.872-4.241l1.2,1.233a4,4,0,0,0-1.057,1.32,3.8,3.8,0,0,0-.352,1.672,4.279,4.279,0,0,0,.537,2.127,3.914,3.914,0,0,0,1.519,1.52,4.849,4.849,0,0,0,4.528,0,3.91,3.91,0,0,0,1.52-1.52,4.289,4.289,0,0,0,.536-2.127,4.085,4.085,0,0,0-1.616-3.28l1.217-1.264a5.822,5.822,0,0,1,1.519,2A5.993,5.993,0,0,1,47.5,254.577Z" transform="translate(-0.998 -0.374)"/></g></g></g><g id="menu-medium-2"><g id="_Address_BTC" data-name=" Address BTC" class="cls-7"><g class="cls-7"><path class="cls-8" d="M84.641,348.624v2.832h2.815v1.472H84.641v2.832H83.168v-2.832H80.353v-1.472h2.815v-2.832Z" transform="translate(-0.998 -0.374)"/><path class="cls-8" d="M76.784,339.344v-2l11.456-4.336v1.936L85.3,336v4.672l2.944,1.057v1.935Zm6.88-2.768-3.5,1.28-1.311.432v.1l1.311.431,3.5,1.28Z" transform="translate(-0.998 -0.374)"/><path class="cls-8" d="M88.5,328.272a3.731,3.731,0,0,1-.552,2,3.825,3.825,0,0,1-1.544,1.409,4.827,4.827,0,0,1-2.24.511,4.772,4.772,0,0,1-2.231-.511,3.9,3.9,0,0,1-1.545-1.409,3.694,3.694,0,0,1-.56-2,3.151,3.151,0,0,1,.392-1.584,2.824,2.824,0,0,1,.969-1.04v-.1l-1.137.1H76.784v-1.711H88.24v1.616H87.152v.1a2.879,2.879,0,0,1,.952,1.04A3.151,3.151,0,0,1,88.5,328.272Zm-1.928.953a2.293,2.293,0,0,0,0-2.416,2.534,2.534,0,0,0-.967-.913,3.194,3.194,0,0,0-2.88,0,2.54,2.54,0,0,0-.969.913,2.293,2.293,0,0,0,0,2.416,2.537,2.537,0,0,0,.969.912,3.194,3.194,0,0,0,2.88,0A2.532,2.532,0,0,0,86.568,329.225Z" transform="translate(-0.998 -0.374)"/><path class="cls-8" d="M88.5,318.5a3.738,3.738,0,0,1-.552,2A3.83,3.83,0,0,1,86.4,321.9a4.8,4.8,0,0,1-2.24.512,4.749,4.749,0,0,1-2.231-.512,3.905,3.905,0,0,1-1.545-1.408,3.7,3.7,0,0,1-.56-2,3.146,3.146,0,0,1,.392-1.584,2.816,2.816,0,0,1,.969-1.04v-.1l-1.137.1H76.784V314.16H88.24v1.616H87.152v.1a2.871,2.871,0,0,1,.952,1.04A3.146,3.146,0,0,1,88.5,318.5Zm-1.928.952a2.293,2.293,0,0,0,0-2.416,2.539,2.539,0,0,0-.967-.912,3.186,3.186,0,0,0-2.88,0,2.545,2.545,0,0,0-.969.912,2.293,2.293,0,0,0,0,2.416,2.53,2.53,0,0,0,.969.912,3.186,3.186,0,0,0,2.88,0A2.524,2.524,0,0,0,86.568,319.448Z" transform="translate(-0.998 -0.374)"/><path class="cls-8" d="M80.08,312.129V310.5h1.2v-.1a2.29,2.29,0,0,1-1.032-.935,2.7,2.7,0,0,1-.408-1.433,2.863,2.863,0,0,1,.16-.992h1.792a3.16,3.16,0,0,0-.288,1.265,1.883,1.883,0,0,0,.7,1.5,2.575,2.575,0,0,0,1.712.591h4.32v1.729Z" transform="translate(-0.998 -0.374)"/><path class="cls-8" d="M88.5,302.464a4.133,4.133,0,0,1-.559,2.136,3.959,3.959,0,0,1-1.544,1.488,4.554,4.554,0,0,1-2.217.536,4.625,4.625,0,0,1-2.168-.52,4.089,4.089,0,0,1-1.592-1.448,3.809,3.809,0,0,1-.592-2.1,4.074,4.074,0,0,1,.536-2.128,3.536,3.536,0,0,1,1.48-1.368,4.743,4.743,0,0,1,2.144-.472,3.979,3.979,0,0,1,.544.032v6.3a2.616,2.616,0,0,0,1.8-.832,2.61,2.61,0,0,0,.273-3.024,2.7,2.7,0,0,0-.953-.9l.688-1.424a4.26,4.26,0,0,1,1.584,1.488A4.126,4.126,0,0,1,88.5,302.464Zm-5.264-2.16a2.124,2.124,0,0,0-.9.288,2.087,2.087,0,0,0-.744.744,2.3,2.3,0,0,0-.3,1.208,2.143,2.143,0,0,0,.528,1.464,2.709,2.709,0,0,0,1.408.824Z" transform="translate(-0.998 -0.374)"/><path class="cls-8" d="M88.5,293.937a4.033,4.033,0,0,1-.607,2.3,3.271,3.271,0,0,1-1.584,1.272l-.673-1.552a2.219,2.219,0,0,0,1-.816,2.153,2.153,0,0,0,.345-1.2,2.427,2.427,0,0,0-.248-1.152.8.8,0,0,0-.745-.464.82.82,0,0,0-.712.392,3.83,3.83,0,0,0-.456,1.224l-.224.976a3.505,3.505,0,0,1-.848,1.616,2.026,2.026,0,0,1-1.536.64,1.974,1.974,0,0,1-1.248-.424,2.746,2.746,0,0,1-.84-1.136,4.033,4.033,0,0,1-.3-1.56,4.281,4.281,0,0,1,.448-2.008,2.67,2.67,0,0,1,1.312-1.24l.672,1.488a1.788,1.788,0,0,0-.976,1.744,1.884,1.884,0,0,0,.256,1.016.746.746,0,0,0,.64.408q.72,0,1.04-1.248l.288-1.184a3.909,3.909,0,0,1,.912-1.816,2.028,2.028,0,0,1,1.5-.616,2.185,2.185,0,0,1,1.352.44,2.828,2.828,0,0,1,.9,1.208A4.354,4.354,0,0,1,88.5,293.937Z" transform="translate(-0.998 -0.374)"/><path class="cls-8" d="M88.5,286.113a4.033,4.033,0,0,1-.607,2.3,3.271,3.271,0,0,1-1.584,1.272l-.673-1.552a2.214,2.214,0,0,0,1-.817,2.15,2.15,0,0,0,.345-1.2,2.431,2.431,0,0,0-.248-1.153.8.8,0,0,0-.745-.463.818.818,0,0,0-.712.392,3.82,3.82,0,0,0-.456,1.224l-.224.976a3.51,3.51,0,0,1-.848,1.616,2.03,2.03,0,0,1-1.536.64,1.974,1.974,0,0,1-1.248-.424,2.746,2.746,0,0,1-.84-1.136,4.033,4.033,0,0,1-.3-1.56,4.281,4.281,0,0,1,.448-2.008,2.67,2.67,0,0,1,1.312-1.24l.672,1.488a1.785,1.785,0,0,0-.976,1.743,1.886,1.886,0,0,0,.256,1.017.746.746,0,0,0,.64.408q.72,0,1.04-1.248L83.5,285.2a3.9,3.9,0,0,1,.912-1.816,2.028,2.028,0,0,1,1.5-.616,2.19,2.19,0,0,1,1.352.439,2.838,2.838,0,0,1,.9,1.209A4.354,4.354,0,0,1,88.5,286.113Z" transform="translate(-0.998 -0.374)"/><path class="cls-8" d="M76.784,277.249v-4.288a3.676,3.676,0,0,1,.4-1.7,3.164,3.164,0,0,1,1.095-1.24,2.758,2.758,0,0,1,1.544-.456,2.594,2.594,0,0,1,1.481.424,2.77,2.77,0,0,1,.967,1.128h.081A2.883,2.883,0,0,1,83.36,269.7a2.7,2.7,0,0,1,1.664-.528,2.935,2.935,0,0,1,1.672.488,3.3,3.3,0,0,1,1.136,1.312,4,4,0,0,1,.408,1.8v4.48Zm4.817-4.208a1.713,1.713,0,0,0-.489-1.28,1.56,1.56,0,0,0-1.128-.48,1.522,1.522,0,0,0-1.112.472,1.66,1.66,0,0,0-.472,1.224v2.512h3.2Zm5.007-.272a1.805,1.805,0,0,0-.5-1.336,1.689,1.689,0,0,0-2.423.016,1.885,1.885,0,0,0-.513,1.384v2.656h3.44Z" transform="translate(-0.998 -0.374)"/><path class="cls-8" d="M78.448,265.057v3.216H76.784V260.1h1.664v3.2H88.24v1.76Z" transform="translate(-0.998 -0.374)"/><path class="cls-8" d="M88.5,253.473a5.984,5.984,0,0,1-.784,3.032,5.687,5.687,0,0,1-2.16,2.152,6.284,6.284,0,0,1-6.079,0,5.69,5.69,0,0,1-2.161-2.152,5.994,5.994,0,0,1-.784-3.032,5.423,5.423,0,0,1,1.872-4.24l1.2,1.232a4.017,4.017,0,0,0-1.057,1.32,3.808,3.808,0,0,0-.352,1.672,4.283,4.283,0,0,0,.537,2.128,3.921,3.921,0,0,0,1.519,1.52,4.857,4.857,0,0,0,4.528,0,3.917,3.917,0,0,0,1.52-1.52,4.293,4.293,0,0,0,.536-2.128,4.087,4.087,0,0,0-1.616-3.28l1.217-1.264a5.841,5.841,0,0,1,1.519,2A6,6,0,0,1,88.5,253.473Z" transform="translate(-0.998 -0.374)"/></g></g></g></g></g><g id="Group_2830" data-name="Group 2830"><circle id="Ellipse_296" data-name="Ellipse 296" class="cls-40" cx="61.992" cy="377.401" r="8.5"/><g id="line-content"><g id="_1" data-name=" 1" class="cls-7"><g class="cls-7"><path class="cls-24" d="M60.71,377.768l1.032,1.439-.78.528-1.68-2.339v-.648H67.49v1.02Z" transform="translate(-0.998 -0.374)"/></g></g></g></g></g><g id="Group_2716" data-name="Group 2716"><g id="Group_2672" data-name="Group 2672"><line id="Line_26-2" data-name="Line 26-2" class="cls-39" x1="179.63" y1="95.603" x2="293.63" y2="95.603"/><path id="Polygon_4-2" data-name="Polygon 4-2" class="cls-40" d="M302.128,95.977l-11,5.5v-11Z" transform="translate(-0.998 -0.374)"/><circle id="Ellipse_295-2" data-name="Ellipse 295-2" class="cls-41" cx="176.63" cy="95.603" r="3.5"/></g><g id="menu-medium-3"><g id="mBTC" class="cls-7"><g class="cls-7"><path class="cls-8" d="M227.136,77.317h1.632v1.12h.1a2.822,2.822,0,0,1,1.04-.992,2.914,2.914,0,0,1,1.472-.384,2.771,2.771,0,0,1,1.528.416,2.383,2.383,0,0,1,.936,1.1,3.337,3.337,0,0,1,1.128-1.1,3.14,3.14,0,0,1,1.64-.416,2.623,2.623,0,0,1,2.128.856,3.5,3.5,0,0,1,.72,2.328v5.232h-1.712V80.533q0-1.887-1.6-1.888a1.734,1.734,0,0,0-1.432.7,2.766,2.766,0,0,0-.552,1.76v4.368h-1.712V80.533q0-1.887-1.648-1.888a1.677,1.677,0,0,0-1.392.712,2.825,2.825,0,0,0-.544,1.768v4.352h-1.728Z" transform="translate(-0.998 -0.374)"/><path class="cls-8" d="M241.712,74.021H246a3.687,3.687,0,0,1,1.7.4,3.174,3.174,0,0,1,1.24,1.1,2.758,2.758,0,0,1,.456,1.544,2.6,2.6,0,0,1-.424,1.481,2.777,2.777,0,0,1-1.128.967v.08a2.884,2.884,0,0,1,1.424,1.008,2.7,2.7,0,0,1,.528,1.664,2.935,2.935,0,0,1-.488,1.672,3.314,3.314,0,0,1-1.312,1.136,4,4,0,0,1-1.8.408h-4.48Zm4.208,4.816a1.716,1.716,0,0,0,1.28-.488,1.56,1.56,0,0,0,.48-1.128,1.522,1.522,0,0,0-.472-1.112,1.656,1.656,0,0,0-1.224-.472h-2.512v3.2Zm.272,5.008a1.805,1.805,0,0,0,1.336-.5,1.691,1.691,0,0,0-.016-2.424,1.889,1.889,0,0,0-1.384-.512h-2.656v3.44Z" transform="translate(-0.998 -0.374)"/><path class="cls-8" d="M253.9,75.685h-3.215V74.021h8.175v1.664h-3.2v9.792H253.9Z" transform="translate(-0.998 -0.374)"/><path class="cls-8" d="M265.488,85.733a5.984,5.984,0,0,1-3.032-.784,5.687,5.687,0,0,1-2.152-2.16,6.286,6.286,0,0,1,0-6.08,5.694,5.694,0,0,1,2.152-2.16,5.994,5.994,0,0,1,3.032-.784,5.423,5.423,0,0,1,4.24,1.872l-1.232,1.2a4.027,4.027,0,0,0-1.32-1.056,3.794,3.794,0,0,0-1.672-.352,4.293,4.293,0,0,0-2.128.536,3.93,3.93,0,0,0-1.52,1.52,4.857,4.857,0,0,0,0,4.528,3.923,3.923,0,0,0,1.52,1.52,4.293,4.293,0,0,0,2.128.536,4.088,4.088,0,0,0,3.28-1.616l1.264,1.216a5.831,5.831,0,0,1-2,1.52A6,6,0,0,1,265.488,85.733Z" transform="translate(-0.998 -0.374)"/></g></g></g></g><g id="Group_2831" data-name="Group 2831"><circle id="Ellipse_296-2" data-name="Ellipse 296-2" class="cls-40" cx="202.865" cy="95.126" r="8.5"/><g id="line-content-2"><g id="_2" data-name=" 2" class="cls-7"><g class="cls-7"><path class="cls-24" d="M201.9,98.98q2.352-2.364,3.012-3.084a6.6,6.6,0,0,0,.828-1.032,1.764,1.764,0,0,0,.216-.9,1.366,1.366,0,0,0-.18-.672,1.349,1.349,0,0,0-.534-.522,1.707,1.707,0,0,0-.846-.2,1.449,1.449,0,0,0-1.044.378,1.787,1.787,0,0,0-.516.822l-.924-.372a2.461,2.461,0,0,1,.42-.8,2.637,2.637,0,0,1,.84-.708,2.525,2.525,0,0,1,1.248-.294,2.7,2.7,0,0,1,1.338.324,2.385,2.385,0,0,1,.906.864,2.223,2.223,0,0,1,.324,1.164,3.837,3.837,0,0,1-1.32,2.6l-2.46,2.472h3.876V100H201.9Z" transform="translate(-0.998 -0.374)"/></g></g></g></g><g id="Group_2814" data-name="Group 2814"><g id="Group_2813" data-name="Group 2813"><g id="Group_2672-2" data-name="Group 2672-2"><line id="Line_26-3" data-name="Line 26-3" class="cls-42" x1="546.794" y1="132.791" x2="682.604" y2="187.662"/><path id="Polygon_4-3" data-name="Polygon 4-3" class="cls-40" d="M691.791,191.344l-12.259.979,4.121-10.2Z" transform="translate(-0.998 -0.374)"/><circle id="Ellipse_295-3" data-name="Ellipse 295-3" class="cls-41" cx="546.687" cy="132.544" r="3.5"/></g></g><g id="menu-medium-4"><g id="Validated" class="cls-7"><g class="cls-7"><path class="cls-8" d="M614.082,128.718l1.779.719-.449,8.032-.114,1.351.089.036.885-1.04,5.361-6.047,1.78.718-8.164,9.057-1.69-.684Z" transform="translate(-0.998 -0.374)"/><path class="cls-8" d="M621.8,144.467a3.459,3.459,0,0,1-1.324-.906,2.58,2.58,0,0,1-.631-1.3,2.65,2.65,0,0,1,.177-1.465,2.434,2.434,0,0,1,.963-1.191,2.873,2.873,0,0,1,1.481-.418,4.315,4.315,0,0,1,1.711.337,5.769,5.769,0,0,1,1.158.615,4.383,4.383,0,0,1,.751.64l.162-.4a1.591,1.591,0,0,0-.058-1.395,2.224,2.224,0,0,0-1.2-1.01,2.616,2.616,0,0,0-1.2-.184,2.363,2.363,0,0,0-1.115.369l-.756-1.289a3.526,3.526,0,0,1,1.735-.558,4.37,4.37,0,0,1,1.929.331,3.933,3.933,0,0,1,2.2,1.83,3.12,3.12,0,0,1-.017,2.625l-1.913,4.731L624.3,145.2l.377-.933-.089-.037a2.723,2.723,0,0,1-1.274.46A3.033,3.033,0,0,1,621.8,144.467Zm.81-1.193a2.251,2.251,0,0,0,2.278-.321,2.283,2.283,0,0,0,.7-.942,3.538,3.538,0,0,0-.686-.657,4.137,4.137,0,0,0-.916-.507,2.259,2.259,0,0,0-1.521-.183,1.317,1.317,0,0,0-.834.8,1.184,1.184,0,0,0,.048,1.037A1.711,1.711,0,0,0,622.609,143.274Z" transform="translate(-0.998 -0.374)"/><path class="cls-8" d="M631.913,135.922l1.6.647-4.291,10.621-1.6-.647Z" transform="translate(-0.998 -0.374)"/><path class="cls-8" d="M634.283,140.434l1.6.647-3.058,7.565-1.6-.647Zm2.145-.8a1.168,1.168,0,0,1-1.539-1.511,1.1,1.1,0,0,1,.624-.627,1.178,1.178,0,0,1,1.528.617,1.1,1.1,0,0,1,.014.885A1.124,1.124,0,0,1,636.428,139.635Z" transform="translate(-0.998 -0.374)"/><path class="cls-8" d="M637.881,150.964a3.732,3.732,0,0,1-1.649-1.261,3.827,3.827,0,0,1-.726-1.958,4.815,4.815,0,0,1,.364-2.269,4.746,4.746,0,0,1,1.311-1.877,3.9,3.9,0,0,1,1.884-.906,3.689,3.689,0,0,1,2.064.231,3.14,3.14,0,0,1,1.322.956,2.823,2.823,0,0,1,.6,1.287l.088.036.338-1.089,1.222-3.025,1.587.64L642,152.351l-1.5-.606.407-1.008-.088-.035a2.885,2.885,0,0,1-1.321.492A3.134,3.134,0,0,1,637.881,150.964Zm-.161-2.145a2.275,2.275,0,0,0,.991.772,2.3,2.3,0,0,0,1.249.135,2.557,2.557,0,0,0,1.208-.557,3.189,3.189,0,0,0,1.079-2.67,2.55,2.55,0,0,0-.482-1.24,2.3,2.3,0,0,0-2.241-.9,2.546,2.546,0,0,0-1.209.557,3.189,3.189,0,0,0-1.079,2.67A2.532,2.532,0,0,0,637.72,148.819Z" transform="translate(-0.998 -0.374)"/><path class="cls-8" d="M646.084,154.278a3.445,3.445,0,0,1-1.324-.906,2.572,2.572,0,0,1-.631-1.3,2.651,2.651,0,0,1,.177-1.465,2.426,2.426,0,0,1,.964-1.189,2.858,2.858,0,0,1,1.48-.419,4.312,4.312,0,0,1,1.711.337,5.872,5.872,0,0,1,1.158.614,4.428,4.428,0,0,1,.751.641l.162-.4a1.589,1.589,0,0,0-.057-1.394,2.23,2.23,0,0,0-1.2-1.01,2.6,2.6,0,0,0-1.2-.183,2.353,2.353,0,0,0-1.115.369l-.756-1.289a3.517,3.517,0,0,1,1.735-.559,4.381,4.381,0,0,1,1.929.33,3.941,3.941,0,0,1,2.2,1.83,3.122,3.122,0,0,1-.017,2.626l-1.912,4.732-1.557-.63.377-.934-.089-.036a2.741,2.741,0,0,1-1.273.461A3.052,3.052,0,0,1,646.084,154.278Zm.811-1.191a2.256,2.256,0,0,0,1.2.149,2.228,2.228,0,0,0,1.078-.47,2.3,2.3,0,0,0,.7-.944,3.523,3.523,0,0,0-.685-.655,4.17,4.17,0,0,0-.917-.508,2.259,2.259,0,0,0-1.521-.183,1.313,1.313,0,0,0-.834.8,1.186,1.186,0,0,0,.048,1.038A1.72,1.72,0,0,0,646.9,153.087Z" transform="translate(-0.998 -0.374)"/><path class="cls-8" d="M654.959,157.727a3.007,3.007,0,0,1-.88-.538,2.053,2.053,0,0,1-.542-.727,2.443,2.443,0,0,1,.058-1.98l1.606-3.975-1.32-.533.563-1.395,1.321.533.862-2.135,1.6.647-.863,2.136,1.855.749-.564,1.394-1.854-.749-1.469,3.634a1.373,1.373,0,0,0-.116.972,1.058,1.058,0,0,0,.658.593,1.541,1.541,0,0,0,.486.121,2.567,2.567,0,0,0,.517-.042l-.629,1.557A3.21,3.21,0,0,1,654.959,157.727Z" transform="translate(-0.998 -0.374)"/><path class="cls-8" d="M660.785,160.218a4.142,4.142,0,0,1-1.77-1.319,3.955,3.955,0,0,1-.8-1.989,4.57,4.57,0,0,1,.334-2.257,4.623,4.623,0,0,1,1.295-1.814,4.094,4.094,0,0,1,1.938-.934,3.822,3.822,0,0,1,2.165.237,4.079,4.079,0,0,1,1.773,1.3,3.537,3.537,0,0,1,.714,1.884,4.739,4.739,0,0,1-.367,2.164,3.938,3.938,0,0,1-.233.493l-5.845-2.362a2.625,2.625,0,0,0,.1,1.981,2.465,2.465,0,0,0,1.322,1.215,2.434,2.434,0,0,0,1.38.17,2.706,2.706,0,0,0,1.188-.546l1.063,1.169a4.244,4.244,0,0,1-1.974.912A4.117,4.117,0,0,1,660.785,160.218Zm3.975-4.071a2.121,2.121,0,0,0-.342-1.908,2.3,2.3,0,0,0-1.01-.727,2.131,2.131,0,0,0-1.554-.058,2.705,2.705,0,0,0-1.292,1Z" transform="translate(-0.998 -0.374)"/><path class="cls-8" d="M669.168,163.6a3.722,3.722,0,0,1-1.648-1.26,3.831,3.831,0,0,1-.727-1.958,4.823,4.823,0,0,1,.364-2.27,4.767,4.767,0,0,1,1.311-1.877,3.9,3.9,0,0,1,1.885-.905,3.7,3.7,0,0,1,2.063.23,3.142,3.142,0,0,1,1.322.957,2.823,2.823,0,0,1,.6,1.287l.088.036.338-1.089,1.222-3.026,1.587.641-4.292,10.621-1.5-.605.407-1.008-.088-.035a2.867,2.867,0,0,1-1.321.492A3.146,3.146,0,0,1,669.168,163.6Zm-.161-2.143a2.3,2.3,0,0,0,2.24.905,2.532,2.532,0,0,0,1.208-.556,3.189,3.189,0,0,0,1.079-2.67,2.543,2.543,0,0,0-.483-1.241,2.294,2.294,0,0,0-2.239-.9,2.524,2.524,0,0,0-1.209.557,3.185,3.185,0,0,0-1.08,2.67A2.533,2.533,0,0,0,669.007,161.461Z" transform="translate(-0.998 -0.374)"/></g></g></g></g><g id="Group_2834" data-name="Group 2834"><circle id="Ellipse_296-3" data-name="Ellipse 296-3" class="cls-40" cx="571.562" cy="142.234" r="8.504"/><g id="line-content-3"><g id="_3" data-name=" 3" class="cls-7"><g class="cls-7"><path class="cls-24" d="M571.227,147.155a2.822,2.822,0,0,1-.877-.627,2.733,2.733,0,0,1-.618-1.018,2.7,2.7,0,0,1-.105-1.315l1,.026a2.078,2.078,0,0,0,.158,1.253,1.646,1.646,0,0,0,.836.793,1.909,1.909,0,0,0,.86.166,1.6,1.6,0,0,0,.8-.249,1.39,1.39,0,0,0,.533-.623,1.332,1.332,0,0,0,.1-.8,1.6,1.6,0,0,0-.358-.758,1.987,1.987,0,0,0-.726-.54l-.647-.288.385-.866.582.258a1.637,1.637,0,0,0,1.162.1,1.256,1.256,0,0,0,.815-.735,1.127,1.127,0,0,0-.019-1.02,1.652,1.652,0,0,0-.835-.753,1.4,1.4,0,0,0-1.026-.1,1.838,1.838,0,0,0-.787.518l-.694-.743a2.608,2.608,0,0,1,1.237-.731,2.388,2.388,0,0,1,1.666.17,2.862,2.862,0,0,1,1.067.791,2.232,2.232,0,0,1,.5,1.1,2.1,2.1,0,0,1-.168,1.187,1.785,1.785,0,0,1-.735.856,2.334,2.334,0,0,1-1.018.308l-.02.044a2.373,2.373,0,0,1,.607,1.118,1.976,1.976,0,0,1-.139,1.285,2.37,2.37,0,0,1-.863,1.036,2.529,2.529,0,0,1-1.275.417A2.984,2.984,0,0,1,571.227,147.155Z" transform="translate(-0.998 -0.374)"/></g></g></g></g><g id="Group_2712" data-name="Group 2712"><g id="Group_2681" data-name="Group 2681"><line id="Line_26-4" data-name="Line 26-4" class="cls-43" x1="688.305" y1="392.904" x2="570.779" y2="475.273"/><path id="Polygon_4-4" data-name="Polygon 4-4" class="cls-40" d="M562.767,481.961l5.852-10.819,6.314,9.009Z" transform="translate(-0.998 -0.374)"/><circle id="Ellipse_295-4" data-name="Ellipse 295-4" class="cls-41" cx="689.124" cy="392.33" r="3.5"/></g><g id="menu-medium-5"><g id="Sign" class="cls-7"><g class="cls-7"><path class="cls-8" d="M604.63,431.581a4.222,4.222,0,0,1-2.574.788,4.311,4.311,0,0,1-2.638-1l.978-1.5a3.2,3.2,0,0,0,1.646.76,2.241,2.241,0,0,0,1.646-.411A2.37,2.37,0,0,0,604.63,429a1.452,1.452,0,0,0-.216-1.354,1.528,1.528,0,0,0-1.116-.672,5.556,5.556,0,0,0-2.022.294l-.737.2a5.382,5.382,0,0,1-2.258.165,2.609,2.609,0,0,1-1.769-1.172,2.883,2.883,0,0,1-.528-1.546,3.166,3.166,0,0,1,.4-1.665,4.092,4.092,0,0,1,1.287-1.411,3.668,3.668,0,0,1,2.371-.773,3.717,3.717,0,0,1,1.938.646l-.912,1.46a1.928,1.928,0,0,0-1.12-.427,2.036,2.036,0,0,0-1.326.422,2.11,2.11,0,0,0-.848,1.1,1.275,1.275,0,0,0,.159,1.177,1.209,1.209,0,0,0,.965.526,5.117,5.117,0,0,0,1.666-.258l.75-.213a5.794,5.794,0,0,1,2.622-.217,2.976,2.976,0,0,1,1.9,1.323,3.047,3.047,0,0,1,.614,1.866,3.411,3.411,0,0,1-.545,1.759A4.682,4.682,0,0,1,604.63,431.581Z" transform="translate(-0.998 -0.374)"/><path class="cls-8" d="M604.974,419.177a1.169,1.169,0,0,1-2.105.469,1.1,1.1,0,0,1-.186-.867,1.177,1.177,0,0,1,1.349-.946,1.094,1.094,0,0,1,.75.472A1.122,1.122,0,0,1,604.974,419.177Zm-.5,2.233,1.415-.992,4.683,6.684-1.415.991Z" transform="translate(-0.998 -0.374)"/><path class="cls-8" d="M617.412,426.845a4.249,4.249,0,0,1-2.415.861,3.338,3.338,0,0,1-2.022-.585l.923-1.469a2.255,2.255,0,0,0,1.295.383,2.6,2.6,0,0,0,2.406-2.019,2.65,2.65,0,0,0-.57-1.926l-.449-.643-.078.055a2.755,2.755,0,0,1-.346,1.377,3.4,3.4,0,0,1-1.065,1.155,3.611,3.611,0,0,1-1.869.665,3.78,3.78,0,0,1-2-.426,4.973,4.973,0,0,1-2.545-3.629,3.889,3.889,0,0,1,.277-2.031,3.591,3.591,0,0,1,1.258-1.537,3.377,3.377,0,0,1,1.449-.6,2.806,2.806,0,0,1,1.422.149l.078-.056-.588-.839,1.351-.945,4.435,6.328a4.628,4.628,0,0,1,.871,2.135,3.39,3.39,0,0,1-.36,1.982A4.513,4.513,0,0,1,617.412,426.845Zm-4.141-3.831a2.406,2.406,0,0,0,1.169-.438,2.308,2.308,0,0,0,.986-2.205,2.95,2.95,0,0,0-.554-1.36,3.035,3.035,0,0,0-1.1-1.005,2.281,2.281,0,0,0-1.243-.253,2.386,2.386,0,0,0-1.162.433,2.418,2.418,0,0,0-.81.949,2.258,2.258,0,0,0-.192,1.26,3.363,3.363,0,0,0,1.661,2.371A2.247,2.247,0,0,0,613.271,423.014Z" transform="translate(-0.998 -0.374)"/><path class="cls-8" d="M615.576,413.631l1.337-.937.644.917.078-.054a2.634,2.634,0,0,1,.295-1.419,3.131,3.131,0,0,1,1.024-1.187,2.831,2.831,0,0,1,2.336-.572,3.5,3.5,0,0,1,2,1.519l2.957,4.219-1.4.983-2.828-4.037a1.928,1.928,0,0,0-1.216-.9,1.791,1.791,0,0,0-1.346.365,1.822,1.822,0,0,0-.691.9,2.249,2.249,0,0,0-.088,1.156,2.789,2.789,0,0,0,.481,1.147l2.517,3.591-1.416.992Z" transform="translate(-0.998 -0.374)"/></g></g></g></g><g id="Group_2835" data-name="Group 2835"><circle id="Ellipse_296-4" data-name="Ellipse 296-4" class="cls-40" cx="664.237" cy="409.516" r="8.499"/><g id="line-content-4"><g id="_4" data-name=" 4" class="cls-7"><g class="cls-7"><path class="cls-24" d="M667.025,411.372l-3.262,2.2-.429-.636.01-6.853.915-.617,3.065,4.547.875-.59.537.8-.875.59.986,1.462-.835.563Zm-.537-.8-2.233-3.312-.04.027-.025,4.835Z" transform="translate(-0.998 -0.374)"/></g></g></g></g><g id="Group_2723" data-name="Group 2723"><g id="Group_2681-2" data-name="Group 2681-2"><line id="Line_26-5" data-name="Line 26-5" class="cls-39" x1="296.452" y1="533.303" x2="183.952" y2="533.303"/><path id="Polygon_4-5" data-name="Polygon 4-5" class="cls-40" d="M173.95,533.677l11-5.5v11Z" transform="translate(-0.998 -0.374)"/><circle id="Ellipse_295-5" data-name="Ellipse 295-5" class="cls-41" cx="297.452" cy="533.303" r="3.5"/></g><g id="menu-medium-6"><g id="BTC" class="cls-7"><g class="cls-7"><path class="cls-8" d="M209.26,507.6h4.288a3.675,3.675,0,0,1,1.7.4,3.174,3.174,0,0,1,1.24,1.1,2.756,2.756,0,0,1,.456,1.544,2.6,2.6,0,0,1-.424,1.48,2.779,2.779,0,0,1-1.128.968v.08a2.883,2.883,0,0,1,1.424,1.008,2.7,2.7,0,0,1,.528,1.664,2.937,2.937,0,0,1-.488,1.672,3.317,3.317,0,0,1-1.312,1.135,3.992,3.992,0,0,1-1.8.409h-4.48Zm4.208,4.816a1.716,1.716,0,0,0,1.28-.488,1.56,1.56,0,0,0,.48-1.128,1.522,1.522,0,0,0-.472-1.112,1.656,1.656,0,0,0-1.224-.472H211.02v3.2Zm.272,5.008a1.807,1.807,0,0,0,1.336-.5,1.691,1.691,0,0,0-.016-2.424,1.885,1.885,0,0,0-1.384-.513H211.02v3.441Z" transform="translate(-0.998 -0.374)"/><path class="cls-8" d="M221.452,509.263h-3.216V507.6h8.176v1.664h-3.2v9.792h-1.76Z" transform="translate(-0.998 -0.374)"/><path class="cls-8" d="M233.036,519.311a5.981,5.981,0,0,1-3.033-.785,5.684,5.684,0,0,1-2.151-2.16,6.284,6.284,0,0,1,0-6.079,5.684,5.684,0,0,1,2.151-2.16,5.99,5.99,0,0,1,3.033-.784,5.423,5.423,0,0,1,4.24,1.872l-1.233,1.2a4.017,4.017,0,0,0-1.319-1.057,3.808,3.808,0,0,0-1.672-.351,4.29,4.29,0,0,0-2.128.536,3.921,3.921,0,0,0-1.52,1.519,4.859,4.859,0,0,0,0,4.529,3.914,3.914,0,0,0,1.52,1.519,4.28,4.28,0,0,0,2.128.536,4.088,4.088,0,0,0,3.28-1.616l1.264,1.217a5.856,5.856,0,0,1-2,1.52A6,6,0,0,1,233.036,519.311Z" transform="translate(-0.998 -0.374)"/></g></g></g></g><g id="Group_2838" data-name="Group 2838"><circle id="Ellipse_296-5" data-name="Ellipse 296-5" class="cls-40" cx="270.866" cy="533.65" r="8.5"/><g id="line-content-5"><g id="_5" data-name=" 5" class="cls-7"><g class="cls-7"><path class="cls-24" d="M271.652,538.717a2.828,2.828,0,0,1-1.14-.246,2.785,2.785,0,0,1-1-.744,2.9,2.9,0,0,1-.612-1.231l.9-.359a2.348,2.348,0,0,0,.672,1.17,1.647,1.647,0,0,0,1.152.437,1.814,1.814,0,0,0,1.314-.492,1.7,1.7,0,0,0,.51-1.283,1.8,1.8,0,0,0-2.616-1.6,1.69,1.69,0,0,0-.624.546l-1.032-.456.528-4.14h4.248v.972h-3.408l-.324,2.484.048.012a2.333,2.333,0,0,1,1.56-.54,2.613,2.613,0,0,1,2.28,1.32,2.862,2.862,0,0,1-.006,2.79,2.687,2.687,0,0,1-1.008,1A2.867,2.867,0,0,1,271.652,538.717Z" transform="translate(-0.998 -0.374)"/></g></g></g></g></svg>