<svg xmlns="http://www.w3.org/2000/svg" xmlns:xlink="http://www.w3.org/1999/xlink" width="141" height="132" viewBox="0 0 141 132"><defs><style>.a{fill:#4c2709;}.b{fill:#371d04;}.c{fill:#562c0c;}.d{fill:#814c28;}.e{fill:#f27c23;}.f{fill:#e4a400;}.g{fill:#ffec30;}.h{fill:#ffd400;}.i{fill:#fb0;}.j{fill:#f88f00;}.k{fill:none;stroke:#f37f00;stroke-miterlimit:10;stroke-width:3px;}.l{opacity:0.231;}.l,.p{isolation:isolate;}.m,.p{fill:#fff;}.n{fill:#1ba709;}.o{fill:#1aa721;}.q{filter:url(#a);}</style><filter id="a" x="28.155" y="75.684" width="54.274" height="51.304" filterUnits="userSpaceOnUse"><feOffset dx="-4" input="SourceAlpha"/><feGaussianBlur result="b"/><feFlood flood-color="#4b2608" flood-opacity="0.8"/><feComposite operator="in" in2="b"/><feComposite in="SourceGraphic"/></filter></defs><g transform="translate(-898 -329.025)"><g transform="translate(898 348.615)"><g transform="translate(0 0)"><g transform="translate(0)"><rect class="a" width="125.312" height="100.946" rx="6.536"/><rect class="b" width="115.342" height="6.566" rx="3.283" transform="translate(5.35 1.321)"/><path class="c" d="M413.86,275.946,305.523,265.03a4.154,4.154,0,0,0-4.541,4.346v91.405a5.293,5.293,0,0,0,4.541,5.262L413.86,376.958a4.153,4.153,0,0,0,4.54-4.346v-91.4A5.292,5.292,0,0,0,413.86,275.946Z" transform="translate(-300.982 -264.57)"/><g transform="translate(0.307 3.383)"><path class="d" d="M312.4,269.649a.384.384,0,0,1-.386.344h-.039l-3.872-.39a.385.385,0,0,1,.085-.764l3.865.39A.381.381,0,0,1,312.4,269.649Zm8.516.856a.384.384,0,0,1-.386.344h-.039l-3.872-.39a.385.385,0,0,1,.085-.764l3.864.39A.385.385,0,0,1,320.916,270.505Zm8.516.856a.384.384,0,0,1-.386.344h-.039l-3.872-.39a.38.38,0,0,1-.339-.42.373.373,0,0,1,.424-.336l3.864.39A.374.374,0,0,1,329.431,271.362Zm8.516.864a.384.384,0,0,1-.386.336h-.039l-3.872-.39a.38.38,0,0,1-.339-.42.375.375,0,0,1,.417-.336l3.872.39A.381.381,0,0,1,337.947,272.225Zm8.516.856a.39.39,0,0,1-.386.344.085.085,0,0,1-.039-.008l-3.872-.39a.373.373,0,0,1-.339-.413.38.38,0,0,1,.417-.344l3.872.39A.381.381,0,0,1,346.463,273.081Zm8.516.856a.384.384,0,0,1-.386.344h-.039l-3.872-.39a.385.385,0,0,1-.339-.42.38.38,0,0,1,.417-.344l3.872.39A.381.381,0,0,1,354.979,273.937Zm8.516.856a.384.384,0,0,1-.386.344h-.039l-3.872-.39a.38.38,0,0,1-.339-.42.386.386,0,0,1,.416-.344l3.872.39A.385.385,0,0,1,363.494,274.793Zm8.516.856a.384.384,0,0,1-.386.344h-.039l-3.872-.39a.38.38,0,0,1-.339-.42.371.371,0,0,1,.417-.336l3.872.39A.374.374,0,0,1,372.01,275.649Zm8.516.864a.39.39,0,0,1-.386.344.335.335,0,0,0-.039-.008l-3.872-.39a.376.376,0,0,1-.339-.42.371.371,0,0,1,.417-.336l3.872.39A.381.381,0,0,1,380.526,276.513Zm8.516.856a.39.39,0,0,1-.386.344.084.084,0,0,1-.039-.008l-3.872-.39a.373.373,0,0,1-.339-.413.379.379,0,0,1,.424-.344l3.865.39A.381.381,0,0,1,389.041,277.369Zm8.516.856a.384.384,0,0,1-.386.344h-.039l-3.872-.39a.384.384,0,0,1,.077-.764l3.872.39A.381.381,0,0,1,397.557,278.225Zm8.516.856a.384.384,0,0,1-.386.344h-.039l-3.872-.39a.38.38,0,0,1-.339-.42.386.386,0,0,1,.416-.344l3.872.39A.385.385,0,0,1,406.073,279.081Zm8.184.825-.085.374-3.88-.39a.38.38,0,0,1-.339-.42.375.375,0,0,1,.416-.336l3.872.39Zm4.875,5.258v.971a.385.385,0,0,1-.386.382.38.38,0,0,1-.386-.382v-.971a5.02,5.02,0,0,0-.71-2.553.385.385,0,1,1,.663-.39A5.8,5.8,0,0,1,419.132,285.165Zm0,5.595v3.86a.39.39,0,0,1-.386.382.385.385,0,0,1-.386-.382v-3.86a.385.385,0,0,1,.386-.382A.39.39,0,0,1,419.132,290.759Zm0,8.484V303.1a.385.385,0,0,1-.386.382.38.38,0,0,1-.386-.382v-3.852a.38.38,0,0,1,.386-.382A.385.385,0,0,1,419.132,299.243Zm0,8.484v3.852a.385.385,0,0,1-.386.382.38.38,0,0,1-.386-.382v-3.852a.38.38,0,0,1,.386-.382A.385.385,0,0,1,419.132,307.727Zm0,8.476v3.86a.39.39,0,0,1-.386.382.385.385,0,0,1-.386-.382V316.2a.385.385,0,0,1,.386-.382A.39.39,0,0,1,419.132,316.2Zm0,8.484v3.852a.385.385,0,0,1-.386.382.38.38,0,0,1-.386-.382v-3.852a.38.38,0,0,1,.386-.382A.385.385,0,0,1,419.132,324.686Zm0,8.484v3.852a.385.385,0,0,1-.386.382.38.38,0,0,1-.386-.382V333.17a.38.38,0,0,1,.386-.382A.385.385,0,0,1,419.132,333.17Zm0,8.476v3.86a.39.39,0,0,1-.386.382.385.385,0,0,1-.386-.382v-3.86a.385.385,0,0,1,.386-.382A.39.39,0,0,1,419.132,341.646Zm0,8.484v3.86a.39.39,0,0,1-.386.382.385.385,0,0,1-.386-.382v-3.86a.38.38,0,0,1,.386-.382A.385.385,0,0,1,419.132,350.13Zm0,8.484v3.852a.385.385,0,0,1-.386.382.38.38,0,0,1-.386-.382v-3.852a.38.38,0,0,1,.386-.382A.385.385,0,0,1,419.132,358.614Zm-113.3,5.258a.285.285,0,0,1-.093.161,4.354,4.354,0,0,1-.254-.619c.015,0,.023.008.039.008A.389.389,0,0,1,305.828,363.872Zm8.516.841a.39.39,0,0,1-.386.344.085.085,0,0,1-.039-.008l-3.872-.39a.38.38,0,0,1,.077-.757l3.872.39A.381.381,0,0,1,314.344,364.713Zm8.516.856a.384.384,0,0,1-.386.344h-.039l-3.872-.39a.385.385,0,0,1-.339-.42.376.376,0,0,1,.417-.344l3.872.39A.381.381,0,0,1,322.86,365.569Zm8.516.856a.384.384,0,0,1-.386.344h-.039l-3.872-.39a.381.381,0,0,1-.339-.42.386.386,0,0,1,.416-.344l3.872.39A.385.385,0,0,1,331.375,366.425Zm8.516.856a.384.384,0,0,1-.386.344h-.039l-3.872-.39a.38.38,0,0,1-.339-.42.375.375,0,0,1,.416-.336l3.872.39A.374.374,0,0,1,339.891,367.281Zm8.516.864a.384.384,0,0,1-.386.336h-.039l-3.872-.39a.38.38,0,0,1-.339-.42.371.371,0,0,1,.417-.336l3.872.39A.381.381,0,0,1,348.407,368.144Zm8.516.856a.39.39,0,0,1-.386.344.084.084,0,0,1-.039-.008l-3.872-.39a.38.38,0,0,1,.077-.757l3.872.39A.381.381,0,0,1,356.922,369Zm8.516.856a.384.384,0,0,1-.386.344h-.039l-3.872-.39a.385.385,0,0,1-.339-.42.372.372,0,0,1,.417-.344l3.872.39A.381.381,0,0,1,365.438,369.856Zm8.516.856a.384.384,0,0,1-.386.344h-.039l-3.872-.39a.384.384,0,0,1,.077-.764l3.872.39A.385.385,0,0,1,373.954,370.712Zm45.178-3.623v3.332a4.552,4.552,0,0,1-.031.566.384.384,0,0,1-.386.344.084.084,0,0,1-.039-.008.373.373,0,0,1-.339-.413c.015-.161.023-.329.023-.489V367.09a.385.385,0,0,1,.386-.382A.39.39,0,0,1,419.132,367.09Zm-36.662,4.479a.384.384,0,0,1-.386.344h-.039l-3.872-.39a.381.381,0,0,1-.339-.42.371.371,0,0,1,.417-.336l3.872.39A.374.374,0,0,1,382.47,371.568Zm8.516.864a.39.39,0,0,1-.386.344.338.338,0,0,0-.039-.008l-3.872-.39a.376.376,0,0,1-.339-.42.371.371,0,0,1,.417-.336l3.872.39A.381.381,0,0,1,390.985,372.432Zm8.516.856a.39.39,0,0,1-.386.344.084.084,0,0,1-.039-.008l-3.872-.39a.38.38,0,0,1,.077-.757l3.872.39A.381.381,0,0,1,399.5,373.288Zm8.516.856a.384.384,0,0,1-.386.344h-.039l-3.872-.39a.385.385,0,0,1-.339-.42.376.376,0,0,1,.417-.344l3.872.39A.381.381,0,0,1,408.017,374.144Zm8.246.726a4.446,4.446,0,0,1-1.62.3c-.162,0-.316-.008-.478-.023l-1.928-.191a.384.384,0,0,1,.077-.764l1.928.2a3.762,3.762,0,0,0,1.736-.229.383.383,0,1,1,.285.711Z" transform="translate(-305.481 -268.837)"/></g><path class="e" d="M316.177,344.335a5.385,5.385,0,1,0,5.385-5.385A5.385,5.385,0,0,0,316.177,344.335Z" transform="translate(-221.269 -285.11)"/></g></g><g transform="translate(32.155 56.094)"><g transform="translate(0 0)"><g transform="translate(0)"><ellipse class="f" cx="25.123" cy="24.597" rx="25.123" ry="24.597" transform="matrix(0.022, -1, 1, 0.022, 3.715, 50.235)"/><path class="g" d="M314.391,287.5c0,13.883-11.013,25.135-24.6,25.135s-24.6-11.252-24.6-25.135,11.012-25.135,24.6-25.135S314.391,273.617,314.391,287.5Z" transform="translate(-262.968 -261.847)"/><g class="q" transform="matrix(1, 0, 0, 1, -32.16, -75.68)"><ellipse class="h" cx="25.123" cy="24.597" rx="25.123" ry="24.597" transform="matrix(0.02, -1, 1, 0.02, 32.16, 125.92)"/></g><path class="i" d="M309.731,288.86c0,11.831-9.35,21.42-20.884,21.42s-20.882-9.59-20.882-21.42,9.349-21.42,20.882-21.42S309.731,277.03,309.731,288.86Z" transform="translate(-263.71 -263.209)"/><path class="j" d="M290.965,309.959c-11.505,0-20.832-9.59-20.832-21.421a21.681,21.681,0,0,1,5.061-13.986,21.618,21.618,0,0,0-7.229,16.215c0,11.831,9.327,21.42,20.833,21.42a20.548,20.548,0,0,0,15.771-7.433A20.416,20.416,0,0,1,290.965,309.959Z" transform="translate(-263.71 -265.116)"/></g><g transform="translate(19.073 12.408)"><path class="k" d="M308.421,166.718h10.505c5.1,0,5.666-10.449,0-10.449H308.421" transform="translate(-308.074 -144.402)"/><path class="k" d="M311.339,166.874V147.685h6.049c5.445,0,5.852,8.758-.968,8.758" transform="translate(-308.08 -144.558)"/><line class="k" y1="3.128" transform="translate(3.259)"/><line class="k" y1="3.128" transform="translate(6.714)"/><line class="k" y1="3.127" transform="translate(3.259 22.317)"/><line class="k" y1="3.127" transform="translate(6.714 22.317)"/></g></g><g class="l" transform="translate(1.275 4.172)"><path class="m" d="M306.283,272.457l-39.392,29.686a25.223,25.223,0,0,1-3-7.256l36.523-27.529A24.616,24.616,0,0,1,306.283,272.457Z" transform="translate(-263.894 -267.359)"/><path class="m" d="M311.874,281.171l-38.653,29.152a24.749,24.749,0,0,1-2.6-2.8L310.047,277.8A23.58,23.58,0,0,1,311.874,281.171Z" transform="translate(-265.699 -270.158)"/><path class="m" d="M317.057,290.017,280.8,316.672l-1.988-1.145,37.762-27.751C316.77,288.513,316.931,289.257,317.057,290.017Z" transform="translate(-268.97 -272.835)"/></g></g></g><g transform="translate(991.504 329.025)"><g transform="translate(0 0)"><g transform="translate(0 0)"><rect class="n" width="47.304" height="47.304" rx="3" transform="translate(0.193 0) rotate(0.234)"/><path class="o" d="M151.191,127.975s-6.448,14.575-20.765,19.081c0,0,7.929-4.531,7.382-19.745Z" transform="translate(-121.459 -81.855)"/><circle class="p" cx="15.051" cy="15.051" r="15.051" transform="translate(8.601 8.601)"/><path class="o" d="M140.792,130.178h-.021a1.158,1.158,0,0,1-.9-.452l-6.653-8.67a1.153,1.153,0,1,1,1.829-1.4l5.772,7.521,9.611-11.659a1.154,1.154,0,0,1,1.781,1.467L141.68,129.758A1.153,1.153,0,0,1,140.792,130.178Z" transform="translate(-118.117 -97.823)"/></g></g></g></g></svg>