<svg xmlns="http://www.w3.org/2000/svg" xmlns:xlink="http://www.w3.org/1999/xlink" width="141" height="132" viewBox="0 0 141 132"><defs><style>.a{fill:#4c2709;}.b{fill:#371d04;}.c{fill:#562c0c;}.d{fill:#814c28;}.e{fill:#f27c23;}.f{fill:#e4a400;}.g{fill:#ffec30;}.h{fill:#ffd400;}.i{fill:#fb0;}.j{fill:#f88f00;}.k{fill:#f37f24;font-size:17px;font-family:AlienAndroid, Alien Android;letter-spacing:0.05em;}.l{opacity:0.127;}.l,.p{isolation:isolate;}.m,.p{fill:#fff;}.n{fill:#1ba709;}.o{fill:#1aa721;}.q{filter:url(#a);}</style><filter id="a" x="28.554" y="78.444" width="52.949" height="49.951" filterUnits="userSpaceOnUse"><feOffset dx="-4" input="SourceAlpha"/><feGaussianBlur result="b"/><feFlood flood-color="#4c2709" flood-opacity="0.8"/><feComposite operator="in" in2="b"/><feComposite in="SourceGraphic"/></filter></defs><g transform="translate(-898 -329.025)"><g transform="translate(898 348.615)"><g transform="translate(0 0)"><g transform="translate(0)"><rect class="a" width="125.312" height="100.946" rx="6.536"/><rect class="b" width="115.342" height="6.566" rx="3.283" transform="translate(5.35 1.321)"/><path class="c" d="M413.86,275.946,305.523,265.03a4.154,4.154,0,0,0-4.541,4.346v91.405a5.293,5.293,0,0,0,4.541,5.262L413.86,376.958a4.153,4.153,0,0,0,4.54-4.346v-91.4A5.292,5.292,0,0,0,413.86,275.946Z" transform="translate(-300.982 -264.57)"/><g transform="translate(0.307 3.383)"><path class="d" d="M312.4,269.649a.384.384,0,0,1-.386.344h-.039l-3.872-.39a.385.385,0,0,1,.085-.764l3.865.39A.381.381,0,0,1,312.4,269.649Zm8.516.856a.384.384,0,0,1-.386.344h-.039l-3.872-.39a.385.385,0,0,1,.085-.764l3.864.39A.385.385,0,0,1,320.916,270.505Zm8.516.856a.384.384,0,0,1-.386.344h-.039l-3.872-.39a.38.38,0,0,1-.339-.42.373.373,0,0,1,.424-.336l3.864.39A.374.374,0,0,1,329.431,271.362Zm8.516.864a.384.384,0,0,1-.386.336h-.039l-3.872-.39a.38.38,0,0,1-.339-.42.375.375,0,0,1,.417-.336l3.872.39A.381.381,0,0,1,337.947,272.225Zm8.516.856a.39.39,0,0,1-.386.344.085.085,0,0,1-.039-.008l-3.872-.39a.373.373,0,0,1-.339-.413.38.38,0,0,1,.417-.344l3.872.39A.381.381,0,0,1,346.463,273.081Zm8.516.856a.384.384,0,0,1-.386.344h-.039l-3.872-.39a.385.385,0,0,1-.339-.42.38.38,0,0,1,.417-.344l3.872.39A.381.381,0,0,1,354.979,273.937Zm8.516.856a.384.384,0,0,1-.386.344h-.039l-3.872-.39a.38.38,0,0,1-.339-.42.386.386,0,0,1,.416-.344l3.872.39A.385.385,0,0,1,363.494,274.793Zm8.516.856a.384.384,0,0,1-.386.344h-.039l-3.872-.39a.38.38,0,0,1-.339-.42.371.371,0,0,1,.417-.336l3.872.39A.374.374,0,0,1,372.01,275.649Zm8.516.864a.39.39,0,0,1-.386.344.335.335,0,0,0-.039-.008l-3.872-.39a.376.376,0,0,1-.339-.42.371.371,0,0,1,.417-.336l3.872.39A.381.381,0,0,1,380.526,276.513Zm8.516.856a.39.39,0,0,1-.386.344.084.084,0,0,1-.039-.008l-3.872-.39a.373.373,0,0,1-.339-.413.379.379,0,0,1,.424-.344l3.865.39A.381.381,0,0,1,389.041,277.369Zm8.516.856a.384.384,0,0,1-.386.344h-.039l-3.872-.39a.384.384,0,0,1,.077-.764l3.872.39A.381.381,0,0,1,397.557,278.225Zm8.516.856a.384.384,0,0,1-.386.344h-.039l-3.872-.39a.38.38,0,0,1-.339-.42.386.386,0,0,1,.416-.344l3.872.39A.385.385,0,0,1,406.073,279.081Zm8.184.825-.085.374-3.88-.39a.38.38,0,0,1-.339-.42.375.375,0,0,1,.416-.336l3.872.39Zm4.875,5.258v.971a.385.385,0,0,1-.386.382.38.38,0,0,1-.386-.382v-.971a5.02,5.02,0,0,0-.71-2.553.385.385,0,1,1,.663-.39A5.8,5.8,0,0,1,419.132,285.165Zm0,5.595v3.86a.39.39,0,0,1-.386.382.385.385,0,0,1-.386-.382v-3.86a.385.385,0,0,1,.386-.382A.39.39,0,0,1,419.132,290.759Zm0,8.484V303.1a.385.385,0,0,1-.386.382.38.38,0,0,1-.386-.382v-3.852a.38.38,0,0,1,.386-.382A.385.385,0,0,1,419.132,299.243Zm0,8.484v3.852a.385.385,0,0,1-.386.382.38.38,0,0,1-.386-.382v-3.852a.38.38,0,0,1,.386-.382A.385.385,0,0,1,419.132,307.727Zm0,8.476v3.86a.39.39,0,0,1-.386.382.385.385,0,0,1-.386-.382V316.2a.385.385,0,0,1,.386-.382A.39.39,0,0,1,419.132,316.2Zm0,8.484v3.852a.385.385,0,0,1-.386.382.38.38,0,0,1-.386-.382v-3.852a.38.38,0,0,1,.386-.382A.385.385,0,0,1,419.132,324.686Zm0,8.484v3.852a.385.385,0,0,1-.386.382.38.38,0,0,1-.386-.382V333.17a.38.38,0,0,1,.386-.382A.385.385,0,0,1,419.132,333.17Zm0,8.476v3.86a.39.39,0,0,1-.386.382.385.385,0,0,1-.386-.382v-3.86a.385.385,0,0,1,.386-.382A.39.39,0,0,1,419.132,341.646Zm0,8.484v3.86a.39.39,0,0,1-.386.382.385.385,0,0,1-.386-.382v-3.86a.38.38,0,0,1,.386-.382A.385.385,0,0,1,419.132,350.13Zm0,8.484v3.852a.385.385,0,0,1-.386.382.38.38,0,0,1-.386-.382v-3.852a.38.38,0,0,1,.386-.382A.385.385,0,0,1,419.132,358.614Zm-113.3,5.258a.285.285,0,0,1-.093.161,4.354,4.354,0,0,1-.254-.619c.015,0,.023.008.039.008A.389.389,0,0,1,305.828,363.872Zm8.516.841a.39.39,0,0,1-.386.344.085.085,0,0,1-.039-.008l-3.872-.39a.38.38,0,0,1,.077-.757l3.872.39A.381.381,0,0,1,314.344,364.713Zm8.516.856a.384.384,0,0,1-.386.344h-.039l-3.872-.39a.385.385,0,0,1-.339-.42.376.376,0,0,1,.417-.344l3.872.39A.381.381,0,0,1,322.86,365.569Zm8.516.856a.384.384,0,0,1-.386.344h-.039l-3.872-.39a.381.381,0,0,1-.339-.42.386.386,0,0,1,.416-.344l3.872.39A.385.385,0,0,1,331.375,366.425Zm8.516.856a.384.384,0,0,1-.386.344h-.039l-3.872-.39a.38.38,0,0,1-.339-.42.375.375,0,0,1,.416-.336l3.872.39A.374.374,0,0,1,339.891,367.281Zm8.516.864a.384.384,0,0,1-.386.336h-.039l-3.872-.39a.38.38,0,0,1-.339-.42.371.371,0,0,1,.417-.336l3.872.39A.381.381,0,0,1,348.407,368.144Zm8.516.856a.39.39,0,0,1-.386.344.084.084,0,0,1-.039-.008l-3.872-.39a.38.38,0,0,1,.077-.757l3.872.39A.381.381,0,0,1,356.922,369Zm8.516.856a.384.384,0,0,1-.386.344h-.039l-3.872-.39a.385.385,0,0,1-.339-.42.372.372,0,0,1,.417-.344l3.872.39A.381.381,0,0,1,365.438,369.856Zm8.516.856a.384.384,0,0,1-.386.344h-.039l-3.872-.39a.384.384,0,0,1,.077-.764l3.872.39A.385.385,0,0,1,373.954,370.712Zm45.178-3.623v3.332a4.552,4.552,0,0,1-.031.566.384.384,0,0,1-.386.344.084.084,0,0,1-.039-.008.373.373,0,0,1-.339-.413c.015-.161.023-.329.023-.489V367.09a.385.385,0,0,1,.386-.382A.39.39,0,0,1,419.132,367.09Zm-36.662,4.479a.384.384,0,0,1-.386.344h-.039l-3.872-.39a.381.381,0,0,1-.339-.42.371.371,0,0,1,.417-.336l3.872.39A.374.374,0,0,1,382.47,371.568Zm8.516.864a.39.39,0,0,1-.386.344.338.338,0,0,0-.039-.008l-3.872-.39a.376.376,0,0,1-.339-.42.371.371,0,0,1,.417-.336l3.872.39A.381.381,0,0,1,390.985,372.432Zm8.516.856a.39.39,0,0,1-.386.344.084.084,0,0,1-.039-.008l-3.872-.39a.38.38,0,0,1,.077-.757l3.872.39A.381.381,0,0,1,399.5,373.288Zm8.516.856a.384.384,0,0,1-.386.344h-.039l-3.872-.39a.385.385,0,0,1-.339-.42.376.376,0,0,1,.417-.344l3.872.39A.381.381,0,0,1,408.017,374.144Zm8.246.726a4.446,4.446,0,0,1-1.62.3c-.162,0-.316-.008-.478-.023l-1.928-.191a.384.384,0,0,1,.077-.764l1.928.2a3.762,3.762,0,0,0,1.736-.229.383.383,0,1,1,.285.711Z" transform="translate(-305.481 -268.837)"/></g><path class="e" d="M316.177,344.335a5.385,5.385,0,1,0,5.385-5.385A5.385,5.385,0,0,0,316.177,344.335Z" transform="translate(-221.269 -285.11)"/></g></g><g transform="translate(32.554 58.854)"><g transform="translate(0 0)"><g transform="translate(0)"><ellipse class="f" cx="24.461" cy="23.949" rx="24.461" ry="23.949" transform="matrix(0.022, -1, 1, 0.022, 3.617, 48.91)"/><path class="g" d="M313.093,286.836c0,13.517-10.723,24.472-23.948,24.472S265.2,300.353,265.2,286.836s10.722-24.472,23.949-24.472S313.093,273.32,313.093,286.836Z" transform="translate(-263.027 -261.861)"/><g class="q" transform="matrix(1, 0, 0, 1, -32.55, -78.44)"><ellipse class="h" cx="24.461" cy="23.949" rx="24.461" ry="23.949" transform="matrix(0.02, -1, 1, 0.02, 32.55, 127.35)"/></g><path class="i" d="M308.63,288.3A20.339,20.339,0,1,1,288.3,267.44,20.6,20.6,0,0,1,308.63,288.3Z" transform="translate(-263.823 -263.32)"/><path class="j" d="M290.348,309.026c-11.2,0-20.273-9.337-20.273-20.856A21.116,21.116,0,0,1,275,274.552a21.052,21.052,0,0,0-7.035,15.788c0,11.519,9.076,20.855,20.274,20.855a19.994,19.994,0,0,0,15.348-7.237A19.863,19.863,0,0,1,290.348,309.026Z" transform="translate(-263.823 -265.365)"/></g><text class="k" transform="translate(16.044 30.262)"><tspan x="0" y="0">M</tspan></text></g><g class="l" transform="translate(1.17 3.982)"><path class="m" d="M305.166,272.323l-38.353,28.9a24.556,24.556,0,0,1-2.918-7.065l35.56-26.8A23.964,23.964,0,0,1,305.166,272.323Z" transform="translate(-263.894 -267.359)"/><path class="m" d="M310.787,281.082l-37.634,28.383a24.113,24.113,0,0,1-2.53-2.724L309.007,277.8A22.971,22.971,0,0,1,310.787,281.082Z" transform="translate(-265.828 -270.36)"/><path class="m" d="M316.048,289.958l-35.3,25.952L278.81,314.8l36.766-27.019C315.769,288.494,315.926,289.218,316.048,289.958Z" transform="translate(-269.23 -273.229)"/></g></g></g><g transform="translate(991.504 329.025)"><g transform="translate(0 0)"><g transform="translate(0 0)"><rect class="n" width="47.304" height="47.304" rx="3" transform="translate(0.193 0) rotate(0.234)"/><path class="o" d="M151.191,127.975s-6.448,14.575-20.765,19.081c0,0,7.929-4.531,7.382-19.745Z" transform="translate(-121.459 -81.855)"/><circle class="p" cx="15.051" cy="15.051" r="15.051" transform="translate(8.601 8.601)"/><path class="o" d="M140.792,130.178h-.021a1.158,1.158,0,0,1-.9-.452l-6.653-8.67a1.153,1.153,0,1,1,1.829-1.4l5.772,7.521,9.611-11.659a1.154,1.154,0,0,1,1.781,1.467L141.68,129.758A1.153,1.153,0,0,1,140.792,130.178Z" transform="translate(-118.117 -97.823)"/></g></g></g></g></svg>