<svg id="Layer_1" data-name="Layer 1" xmlns="http://www.w3.org/2000/svg" xmlns:xlink="http://www.w3.org/1999/xlink" viewBox="0 0 585.001 439.999"><defs><style>.cls-1{fill:none;}.cls-2{fill:#aaaaed;}.cls-3{fill:#dde7fe;}.cls-4{fill:#f2f6ff;}.cls-5{fill:#e6e6e6;}.cls-6{fill:#dde7ff;}.cls-7{fill:#6c6c7c;opacity:0.15;}.cls-14,.cls-18,.cls-31,.cls-7{isolation:isolate;}.cls-8{fill:#1ba709;}.cls-11,.cls-12,.cls-9{fill:#1aa721;}.cls-10{fill:#fff;}.cls-11,.cls-12{stroke:#1aa721;}.cls-11{stroke-width:3px;}.cls-12{stroke-width:2px;}.cls-13{fill:#562c0c;}.cls-14,.cls-15{fill:#371d04;}.cls-14{opacity:0.3;}.cls-16{fill:#814c28;}.cls-17{fill:#793c13;}.cls-18{opacity:0.2;}.cls-19{fill:#f27c23;}.cls-20{fill:#e4a400;}.cls-21{fill:#ffec30;}.cls-22{fill:#ffd400;}.cls-23{fill:#fb0;}.cls-24{fill:#f88f00;}.cls-25{fill:#f37f00;}.cls-26{opacity:0.231;}.cls-27{clip-path:url(#clip-path);}.cls-28{opacity:0.127;}.cls-29{fill:#4c2709;}.cls-30{clip-path:url(#clip-path-2);}.cls-32{fill:#f37f24;}</style><clipPath id="clip-path"><polygon class="cls-1" points="111.533 225.428 193.191 229.428 199.667 156.135 115.159 151.361 111.533 198.028 111.533 225.428"/></clipPath><clipPath id="clip-path-2"><polygon class="cls-1" points="465.67 225.377 534.859 218.1 534.859 170.616 477.015 170.616 464.023 191.633 465.67 225.377"/></clipPath></defs><g id="Group_3063" data-name="Group 3063"><circle id="Ellipse_9" data-name="Ellipse 9" class="cls-2" cx="44" cy="104" r="5"/><circle id="Ellipse_231" data-name="Ellipse 231" class="cls-2" cx="5" cy="104" r="5"/><circle id="Ellipse_120" data-name="Ellipse 120" class="cls-2" cx="44" cy="154" r="5"/><circle id="Ellipse_239" data-name="Ellipse 239" class="cls-2" cx="5" cy="154" r="5"/><circle id="Ellipse_205" data-name="Ellipse 205" class="cls-2" cx="44" cy="204" r="5"/><circle id="Ellipse_241" data-name="Ellipse 241" class="cls-2" cx="5" cy="204" r="5"/><circle id="Ellipse_65" data-name="Ellipse 65" class="cls-2" cx="200" cy="104" r="5"/><circle id="Ellipse_124" data-name="Ellipse 124" class="cls-2" cx="200" cy="154" r="5"/><circle id="Ellipse_213" data-name="Ellipse 213" class="cls-2" cx="200" cy="204" r="5"/><circle id="Ellipse_37" data-name="Ellipse 37" class="cls-2" cx="122" cy="104" r="5"/><circle id="Ellipse_121" data-name="Ellipse 121" class="cls-2" cx="122" cy="154" r="5"/><circle id="Ellipse_207" data-name="Ellipse 207" class="cls-2" cx="122" cy="204" r="5"/><circle id="Ellipse_66" data-name="Ellipse 66" class="cls-2" cx="278" cy="104" r="5"/><circle id="Ellipse_125" data-name="Ellipse 125" class="cls-2" cx="278" cy="154" r="5"/><circle id="Ellipse_217" data-name="Ellipse 217" class="cls-2" cx="278" cy="204" r="5"/><circle id="Ellipse_23" data-name="Ellipse 23" class="cls-2" cx="83" cy="104" r="5"/><circle id="Ellipse_122" data-name="Ellipse 122" class="cls-2" cx="83" cy="154" r="5"/><circle id="Ellipse_206" data-name="Ellipse 206" class="cls-2" cx="83" cy="204" r="5"/><circle id="Ellipse_67" data-name="Ellipse 67" class="cls-2" cx="239" cy="104" r="5"/><circle id="Ellipse_126" data-name="Ellipse 126" class="cls-2" cx="239" cy="154" r="5"/><circle id="Ellipse_215" data-name="Ellipse 215" class="cls-2" cx="239" cy="204" r="5"/><circle id="Ellipse_38" data-name="Ellipse 38" class="cls-2" cx="161" cy="104" r="5"/><circle id="Ellipse_123" data-name="Ellipse 123" class="cls-2" cx="161" cy="154" r="5"/><circle id="Ellipse_211" data-name="Ellipse 211" class="cls-2" cx="161" cy="204" r="5"/><circle id="Ellipse_68" data-name="Ellipse 68" class="cls-2" cx="317" cy="104" r="5"/><circle id="Ellipse_134" data-name="Ellipse 134" class="cls-2" cx="317" cy="154" r="5"/><circle id="Ellipse_219" data-name="Ellipse 219" class="cls-2" cx="317" cy="204" r="5"/><circle id="Ellipse_15" data-name="Ellipse 15" class="cls-2" cx="44" cy="5" r="5"/><circle id="Ellipse_232" data-name="Ellipse 232" class="cls-2" cx="5" cy="5" r="5"/><circle id="Ellipse_43" data-name="Ellipse 43" class="cls-2" cx="200" cy="5" r="5"/><circle id="Ellipse_27" data-name="Ellipse 27" class="cls-2" cx="122" cy="5" r="5"/><circle id="Ellipse_51" data-name="Ellipse 51" class="cls-2" cx="278" cy="5" r="5"/><circle id="Ellipse_19" data-name="Ellipse 19" class="cls-2" cx="83" cy="5" r="5"/><circle id="Ellipse_44" data-name="Ellipse 44" class="cls-2" cx="239" cy="5" r="5"/><circle id="Ellipse_28" data-name="Ellipse 28" class="cls-2" cx="161" cy="5" r="5"/><circle id="Ellipse_59" data-name="Ellipse 59" class="cls-2" cx="317" cy="5" r="5"/><circle id="Ellipse_12" data-name="Ellipse 12" class="cls-2" cx="44" cy="55" r="5"/><circle id="Ellipse_233" data-name="Ellipse 233" class="cls-2" cx="5" cy="55" r="5"/><circle id="Ellipse_45" data-name="Ellipse 45" class="cls-2" cx="200" cy="55" r="5"/><circle id="Ellipse_33" data-name="Ellipse 33" class="cls-2" cx="122" cy="55" r="5"/><circle id="Ellipse_52" data-name="Ellipse 52" class="cls-2" cx="278" cy="55" r="5"/><circle id="Ellipse_21" data-name="Ellipse 21" class="cls-2" cx="83" cy="55" r="5"/><circle id="Ellipse_46" data-name="Ellipse 46" class="cls-2" cx="239" cy="55" r="5"/><circle id="Ellipse_34" data-name="Ellipse 34" class="cls-2" cx="161" cy="55" r="5"/><circle id="Ellipse_60" data-name="Ellipse 60" class="cls-2" cx="317" cy="55" r="5"/><circle id="Ellipse_10" data-name="Ellipse 10" class="cls-2" cx="44" cy="129" r="5"/><circle id="Ellipse_235" data-name="Ellipse 235" class="cls-2" cx="5" cy="129" r="5"/><circle id="Ellipse_127" data-name="Ellipse 127" class="cls-2" cx="44" cy="179" r="5"/><circle id="Ellipse_240" data-name="Ellipse 240" class="cls-2" cx="5" cy="179" r="5"/><circle id="Ellipse_208" data-name="Ellipse 208" class="cls-2" cx="44" cy="229" r="5"/><circle id="Ellipse_242" data-name="Ellipse 242" class="cls-2" cx="5" cy="229" r="5"/><circle id="Ellipse_69" data-name="Ellipse 69" class="cls-2" cx="200" cy="129" r="5"/><circle id="Ellipse_128" data-name="Ellipse 128" class="cls-2" cx="200" cy="179" r="5"/><circle id="Ellipse_214" data-name="Ellipse 214" class="cls-2" cx="200" cy="229" r="5"/><circle id="Ellipse_39" data-name="Ellipse 39" class="cls-2" cx="122" cy="129" r="5"/><circle id="Ellipse_129" data-name="Ellipse 129" class="cls-2" cx="122" cy="179" r="5"/><circle id="Ellipse_209" data-name="Ellipse 209" class="cls-2" cx="122" cy="229" r="5"/><circle id="Ellipse_70" data-name="Ellipse 70" class="cls-2" cx="278" cy="129" r="5"/><circle id="Ellipse_130" data-name="Ellipse 130" class="cls-2" cx="278" cy="179" r="5"/><circle id="Ellipse_218" data-name="Ellipse 218" class="cls-2" cx="278" cy="229" r="5"/><circle id="Ellipse_24" data-name="Ellipse 24" class="cls-2" cx="83" cy="129" r="5"/><circle id="Ellipse_131" data-name="Ellipse 131" class="cls-2" cx="83" cy="179" r="5"/><circle id="Ellipse_210" data-name="Ellipse 210" class="cls-2" cx="83" cy="229" r="5"/><circle id="Ellipse_71" data-name="Ellipse 71" class="cls-2" cx="239" cy="129" r="5"/><circle id="Ellipse_132" data-name="Ellipse 132" class="cls-2" cx="239" cy="179" r="5"/><circle id="Ellipse_216" data-name="Ellipse 216" class="cls-2" cx="239" cy="229" r="5"/><circle id="Ellipse_40" data-name="Ellipse 40" class="cls-2" cx="161" cy="129" r="5"/><circle id="Ellipse_133" data-name="Ellipse 133" class="cls-2" cx="161" cy="179" r="5"/><circle id="Ellipse_212" data-name="Ellipse 212" class="cls-2" cx="161" cy="229" r="5"/><circle id="Ellipse_72" data-name="Ellipse 72" class="cls-2" cx="317" cy="129" r="5"/><circle id="Ellipse_135" data-name="Ellipse 135" class="cls-2" cx="317" cy="179" r="5"/><circle id="Ellipse_220" data-name="Ellipse 220" class="cls-2" cx="317" cy="229" r="5"/><circle id="Ellipse_16" data-name="Ellipse 16" class="cls-2" cx="44" cy="30" r="5"/><circle id="Ellipse_236" data-name="Ellipse 236" class="cls-2" cx="5" cy="30" r="5"/><circle id="Ellipse_48" data-name="Ellipse 48" class="cls-2" cx="200" cy="30" r="5"/><circle id="Ellipse_31" data-name="Ellipse 31" class="cls-2" cx="122" cy="30" r="5"/><circle id="Ellipse_54" data-name="Ellipse 54" class="cls-2" cx="278" cy="30" r="5"/><circle id="Ellipse_20" data-name="Ellipse 20" class="cls-2" cx="83" cy="30" r="5"/><circle id="Ellipse_49" data-name="Ellipse 49" class="cls-2" cx="239" cy="30" r="5"/><circle id="Ellipse_32" data-name="Ellipse 32" class="cls-2" cx="161" cy="30" r="5"/><circle id="Ellipse_62" data-name="Ellipse 62" class="cls-2" cx="317" cy="30" r="5"/><circle id="Ellipse_11" data-name="Ellipse 11" class="cls-2" cx="44" cy="80" r="5"/><circle id="Ellipse_237" data-name="Ellipse 237" class="cls-2" cx="5" cy="80" r="5"/><circle id="Ellipse_56" data-name="Ellipse 56" class="cls-2" cx="200" cy="80" r="5"/><circle id="Ellipse_35" data-name="Ellipse 35" class="cls-2" cx="122" cy="80" r="5"/><circle id="Ellipse_57" data-name="Ellipse 57" class="cls-2" cx="278" cy="80" r="5"/><circle id="Ellipse_22" data-name="Ellipse 22" class="cls-2" cx="83" cy="80" r="5"/><circle id="Ellipse_58" data-name="Ellipse 58" class="cls-2" cx="239" cy="80" r="5"/><circle id="Ellipse_36" data-name="Ellipse 36" class="cls-2" cx="161" cy="80" r="5"/><circle id="Ellipse_63" data-name="Ellipse 63" class="cls-2" cx="317" cy="80" r="5"/></g><g id="Background_Complete" data-name="Background Complete"><g id="Group_3154" data-name="Group 3154"><g id="Group_3150" data-name="Group 3150"><path id="Path_5332" data-name="Path 5332" class="cls-3" d="M513.984,352.94V217.883H402.175V100.341H386.408V167.71h-43V149.078H266l-.028-65.938h-53.01V197.81h-51.6V83.139H68.184V197.81H22.314V352.94Z"/><g id="Group_3149" data-name="Group 3149"><g id="Group_3121" data-name="Group 3121"><g id="Group_3105" data-name="Group 3105"><rect id="Rectangle_749" data-name="Rectangle 749" class="cls-4" x="89.686" width="114.675" height="352.94"/></g><g id="Group_3106" data-name="Group 3106"><rect id="Rectangle_750" data-name="Rectangle 750" class="cls-3" x="89.686" y="22.935" width="114.675" height="2.867"/></g><g id="Group_3107" data-name="Group 3107"><rect id="Rectangle_751" data-name="Rectangle 751" class="cls-3" x="89.686" y="45.87" width="114.675" height="2.867"/></g><g id="Group_3108" data-name="Group 3108"><rect id="Rectangle_752" data-name="Rectangle 752" class="cls-3" x="89.686" y="68.805" width="114.675" height="2.867"/></g><g id="Group_3109" data-name="Group 3109"><rect id="Rectangle_753" data-name="Rectangle 753" class="cls-3" x="89.686" y="91.74" width="114.675" height="2.867"/></g><g id="Group_3110" data-name="Group 3110"><rect id="Rectangle_754" data-name="Rectangle 754" class="cls-3" x="89.686" y="114.675" width="114.675" height="2.867"/></g><g id="Group_3111" data-name="Group 3111"><rect id="Rectangle_755" data-name="Rectangle 755" class="cls-3" x="89.686" y="137.61" width="114.675" height="2.867"/></g><g id="Group_3112" data-name="Group 3112"><rect id="Rectangle_756" data-name="Rectangle 756" class="cls-3" x="89.686" y="160.545" width="114.675" height="2.867"/></g><g id="Group_3113" data-name="Group 3113"><rect id="Rectangle_757" data-name="Rectangle 757" class="cls-5" x="89.686" y="183.48" width="114.675" height="2.867"/></g><g id="Group_3114" data-name="Group 3114"><rect id="Rectangle_758" data-name="Rectangle 758" class="cls-5" x="89.686" y="206.415" width="114.675" height="2.867"/></g><g id="Group_3115" data-name="Group 3115"><rect id="Rectangle_759" data-name="Rectangle 759" class="cls-5" x="89.686" y="229.35" width="114.675" height="2.867"/></g><g id="Group_3116" data-name="Group 3116"><rect id="Rectangle_760" data-name="Rectangle 760" class="cls-5" x="89.686" y="252.286" width="114.675" height="2.867"/></g><g id="Group_3117" data-name="Group 3117"><rect id="Rectangle_761" data-name="Rectangle 761" class="cls-5" x="89.686" y="275.221" width="114.675" height="2.867"/></g><g id="Group_3118" data-name="Group 3118"><rect id="Rectangle_762" data-name="Rectangle 762" class="cls-5" x="89.686" y="298.156" width="114.675" height="2.867"/></g><g id="Group_3119" data-name="Group 3119"><rect id="Rectangle_763" data-name="Rectangle 763" class="cls-5" x="89.686" y="321.091" width="114.675" height="2.867"/></g><g id="Group_3120" data-name="Group 3120"><rect id="Rectangle_764" data-name="Rectangle 764" class="cls-5" x="89.686" y="344.026" width="114.675" height="2.867"/></g></g><g id="Group_3134" data-name="Group 3134"><g id="Group_3123" data-name="Group 3123"><g id="Group_3122" data-name="Group 3122"><rect id="Rectangle_765" data-name="Rectangle 765" class="cls-5" x="253.098" y="197.815" width="114.675" height="2.867"/></g></g><g id="Group_3124" data-name="Group 3124"><rect id="Rectangle_766" data-name="Rectangle 766" class="cls-4" x="253.098" y="106.075" width="114.675" height="246.865"/></g><g id="Group_3125" data-name="Group 3125"><rect id="Rectangle_767" data-name="Rectangle 767" class="cls-3" x="253.098" y="129.01" width="114.675" height="2.867"/></g><g id="Group_3126" data-name="Group 3126"><rect id="Rectangle_768" data-name="Rectangle 768" class="cls-3" x="253.098" y="151.945" width="114.675" height="2.867"/></g><g id="Group_3127" data-name="Group 3127"><rect id="Rectangle_769" data-name="Rectangle 769" class="cls-3" x="253.098" y="174.88" width="114.675" height="2.867"/></g><g id="Group_3128" data-name="Group 3128"><rect id="Rectangle_770" data-name="Rectangle 770" class="cls-3" x="253.098" y="220.75" width="114.675" height="2.867"/></g><g id="Group_3129" data-name="Group 3129"><rect id="Rectangle_771" data-name="Rectangle 771" class="cls-3" x="253.098" y="243.685" width="114.675" height="2.867"/></g><g id="Group_3130" data-name="Group 3130"><rect id="Rectangle_772" data-name="Rectangle 772" class="cls-3" x="253.098" y="266.62" width="114.675" height="2.867"/></g><g id="Group_3131" data-name="Group 3131"><rect id="Rectangle_773" data-name="Rectangle 773" class="cls-3" x="253.098" y="289.555" width="114.675" height="2.867"/></g><g id="Group_3132" data-name="Group 3132"><rect id="Rectangle_774" data-name="Rectangle 774" class="cls-3" x="253.098" y="312.49" width="114.675" height="2.867"/></g><g id="Group_3133" data-name="Group 3133"><rect id="Rectangle_775" data-name="Rectangle 775" class="cls-3" x="253.098" y="335.425" width="114.675" height="2.867"/></g></g><g id="Group_3148" data-name="Group 3148"><g id="Group_3135" data-name="Group 3135"><rect id="Rectangle_776" data-name="Rectangle 776" class="cls-4" x="417.944" y="63.071" width="114.675" height="289.868"/></g><g id="Group_3136" data-name="Group 3136"><rect id="Rectangle_777" data-name="Rectangle 777" class="cls-6" x="417.944" y="86.006" width="114.675" height="2.867"/></g><g id="Group_3137" data-name="Group 3137"><rect id="Rectangle_778" data-name="Rectangle 778" class="cls-6" x="417.944" y="108.941" width="114.675" height="2.867"/></g><g id="Group_3138" data-name="Group 3138"><rect id="Rectangle_779" data-name="Rectangle 779" class="cls-6" x="417.944" y="131.876" width="114.675" height="2.867"/></g><g id="Group_3139" data-name="Group 3139"><rect id="Rectangle_780" data-name="Rectangle 780" class="cls-6" x="417.944" y="154.811" width="114.675" height="2.867"/></g><g id="Group_3140" data-name="Group 3140"><rect id="Rectangle_781" data-name="Rectangle 781" class="cls-6" x="417.944" y="177.746" width="114.675" height="2.867"/></g><g id="Group_3141" data-name="Group 3141"><rect id="Rectangle_782" data-name="Rectangle 782" class="cls-5" x="417.944" y="200.681" width="114.675" height="2.867"/></g><g id="Group_3142" data-name="Group 3142"><rect id="Rectangle_783" data-name="Rectangle 783" class="cls-5" x="417.944" y="223.616" width="114.675" height="2.867"/></g><g id="Group_3143" data-name="Group 3143"><rect id="Rectangle_784" data-name="Rectangle 784" class="cls-5" x="417.944" y="246.551" width="114.675" height="2.867"/></g><g id="Group_3144" data-name="Group 3144"><rect id="Rectangle_785" data-name="Rectangle 785" class="cls-5" x="417.944" y="269.486" width="114.675" height="2.867"/></g><g id="Group_3145" data-name="Group 3145"><rect id="Rectangle_786" data-name="Rectangle 786" class="cls-5" x="417.944" y="292.421" width="114.675" height="2.867"/></g><g id="Group_3146" data-name="Group 3146"><rect id="Rectangle_787" data-name="Rectangle 787" class="cls-5" x="417.944" y="315.357" width="114.675" height="2.867"/></g><g id="Group_3147" data-name="Group 3147"><rect id="Rectangle_788" data-name="Rectangle 788" class="cls-5" x="417.944" y="338.292" width="114.675" height="2.867"/></g></g></g></g></g></g><g id="Shadow"><ellipse id="_Path_" data-name=" Path " class="cls-7" cx="293.697" cy="423.768" rx="277.929" ry="16.231"/></g><g id="Speech_bubbles" data-name="Speech bubbles"><g id="Group_3171" data-name="Group 3171"><g id="Group_3169" data-name="Group 3169"><rect id="Rectangle_794" data-name="Rectangle 794" class="cls-8" x="229.287" y="152.121" width="47.304" height="47.304" rx="3" transform="translate(76.134 427.993) rotate(-89.766)"/><path id="Path_5371" data-name="Path 5371" class="cls-9" d="M258.923,198.145s-6.448,14.575-20.765,19.081c0,0,7.929-4.531,7.382-19.745Z"/><circle id="Ellipse_317" data-name="Ellipse 317" class="cls-10" cx="252.843" cy="175.677" r="15.051"/><path id="Path_5372" data-name="Path 5372" class="cls-9" d="M251.866,184.38h-.021a1.16,1.16,0,0,1-.9-.452l-6.653-8.67a1.153,1.153,0,1,1,1.761-1.488.98.98,0,0,1,.068.088l5.772,7.521L261.5,169.72a1.154,1.154,0,0,1,1.781,1.467L252.754,183.96A1.156,1.156,0,0,1,251.866,184.38Z"/></g></g></g><g id="Wallet_1" data-name="Wallet 1"><g id="Group_3162" data-name="Group 3162"><g id="Group_3155" data-name="Group 3155"><path id="Path_5344" data-name="Path 5344" class="cls-11" d="M154.94,195.286a.717.717,0,0,1-.724-.708.693.693,0,0,1,.024-.192c.009-.03.831-3.171,2.6-8.324a.717.717,0,1,1,1.372.418c0,.016-.01.031-.016.046-1.75,5.1-2.562,8.191-2.57,8.221A.717.717,0,0,1,154.94,195.286Zm6.088-17.706a.729.729,0,0,1-.265-.05.719.719,0,0,1-.4-.933c1.058-2.652,2.187-5.334,3.357-7.971a.717.717,0,0,1,1.31.582c-1.163,2.62-2.285,5.285-3.336,7.921A.717.717,0,0,1,161.028,177.58Zm7.627-17.046a.716.716,0,0,1-.642-1.035c1.28-2.57,2.626-5.147,4-7.663a.717.717,0,0,1,1.257.689c-1.367,2.5-2.706,5.06-3.976,7.612a.718.718,0,0,1-.639.4Zm9.023-16.334a.716.716,0,0,1-.611-1.091c1.509-2.47,3.079-4.918,4.664-7.276a.717.717,0,0,1,1.19.8c-1.574,2.341-3.132,4.771-4.631,7.223a.714.714,0,0,1-.611.344Zm10.468-15.437a.718.718,0,0,1-.572-1.148c1.743-2.315,3.546-4.6,5.363-6.777a.717.717,0,0,1,1.147.86.647.647,0,0,1-.047.057c-1.8,2.163-3.589,4.425-5.318,6.721a.713.713,0,0,1-.572.287Zm216.286-4.146a.718.718,0,0,1-.572-.284c-1.722-2.261-3.541-4.49-5.407-6.622a.717.717,0,1,1,1.079-.945c1.888,2.159,3.727,4.412,5.469,6.7a.717.717,0,0,1-.569,1.151ZM200.14,114.492a.718.718,0,0,1-.522-1.208c1.988-2.11,4.039-4.171,6.1-6.125a.716.716,0,0,1,.986,1.039h0c-2.038,1.937-4.071,3.978-6.039,6.069A.723.723,0,0,1,200.14,114.492Zm191.951-3.826a.712.712,0,0,1-.5-.2c-2.034-1.982-4.161-3.919-6.326-5.76a.716.716,0,0,1,.929-1.091c2.187,1.859,4.34,3.819,6.4,5.824a.717.717,0,0,1-.5,1.23Zm-178.369-8.92a.717.717,0,0,1-.457-1.27c2.229-1.838,4.528-3.617,6.836-5.287a.717.717,0,0,1,.84,1.163h0c-2.282,1.651-4.557,3.412-6.763,5.231A.723.723,0,0,1,213.722,101.746Zm164.114-3.054a.716.716,0,0,1-.419-.136c-2.3-1.66-4.687-3.265-7.1-4.769a.717.717,0,0,1,.758-1.217c2.437,1.522,4.851,3.145,7.176,4.824a.717.717,0,0,1-.42,1.3ZM228.863,90.933a.717.717,0,0,1-.376-1.329c2.463-1.5,5-2.934,7.524-4.249a.717.717,0,1,1,.661,1.273h0c-2.5,1.3-5,2.711-7.437,4.2a.715.715,0,0,1-.372.1Zm133.129-2.015a.708.708,0,0,1-.331-.082c-2.509-1.309-5.1-2.554-7.706-3.7a.717.717,0,0,1,.578-1.312c2.633,1.161,5.255,2.421,7.792,3.744a.718.718,0,0,1-.333,1.353ZM245.416,82.463a.716.716,0,0,1-.277-1.378c2.65-1.109,5.371-2.133,8.085-3.045a.717.717,0,0,1,.456,1.359c-2.681.9-5.368,1.912-7.987,3.007a.711.711,0,0,1-.277.053Zm99.505-.972a.751.751,0,0,1-.239-.042c-2.656-.945-5.4-1.822-8.145-2.61a.717.717,0,0,1,.394-1.378h0c2.778.8,5.547,1.683,8.231,2.636a.717.717,0,0,1-.241,1.393Zm-81.852-4.842a.717.717,0,0,1-.171-1.413c2.765-.678,5.609-1.27,8.453-1.76a.716.716,0,1,1,.244,1.412c-2.811.484-5.622,1.069-8.355,1.742a.818.818,0,0,1-.171.015ZM327,76.44a.68.68,0,0,1-.149-.016c-2.761-.586-5.593-1.1-8.417-1.538a.717.717,0,1,1,.218-1.418c2.851.439,5.711.96,8.5,1.554a.717.717,0,0,1-.149,1.418Zm-18.414-2.749h-.065c-2.811-.249-5.686-.429-8.543-.533a.716.716,0,0,1-.689-.742h0a.73.73,0,0,1,.741-.689c2.883.1,5.783.285,8.619.538a.717.717,0,0,1-.063,1.431ZM281.4,73.6a.717.717,0,0,1-.063-1.431c2.825-.259,5.727-.43,8.622-.509A.717.717,0,0,1,290,73.089c-2.865.077-5.735.247-8.532.5Z"/><path id="Path_5345" data-name="Path 5345" class="cls-12" d="M407.3,128.352a1.1,1.1,0,0,1-.128-.007l-10.019-1.081a1.2,1.2,0,0,1-1.07-1.317v-.008a1.188,1.188,0,0,1,1.295-1.072l.032,0,8.9.956,1.548-8.6a1.205,1.205,0,0,1,2.375.412l0,.014-1.748,9.7A1.2,1.2,0,0,1,407.3,128.352Z"/></g><rect id="Rectangle_789" data-name="Rectangle 789" class="cls-13" y="212.959" width="232.933" height="189.389" rx="6.536"/><rect id="Rectangle_790" data-name="Rectangle 790" class="cls-14" y="212.959" width="232.933" height="189.389" rx="6.536"/><path id="Path_5346" data-name="Path 5346" class="cls-15" d="M224.317,221.533a6.118,6.118,0,0,1-6.106,6.121H16.081a6.114,6.114,0,0,1,0-12.227h202.13A6.111,6.111,0,0,1,224.317,221.533Z"/><path id="Path_5355" data-name="Path 5355" class="cls-13" d="M209.789,234.282,8.439,213.816C3.779,213.343,0,216.991,0,221.965V393.341c0,4.974,3.779,9.39,8.439,9.865l201.35,20.461c4.66.474,8.439-3.175,8.439-8.149V244.147C218.224,239.167,214.446,234.755,209.789,234.282Z"/><g id="Group_3160" data-name="Group 3160"><path id="Path_5356" data-name="Path 5356" class="cls-16" d="M12.785,220,5.6,219.268a.713.713,0,0,0-.787.631v.014a.72.72,0,0,0,.631.788l7.2.731h.072A.718.718,0,0,0,12.79,220ZM28.61,221.6l-7.182-.731a.721.721,0,0,0-.158,1.433l7.2.731h.072a.718.718,0,0,0,.072-1.433Zm15.825,1.62-7.182-.731a.7.7,0,0,0-.785.6l0,.028a.713.713,0,0,0,.627.788h0l7.2.731h.066a.716.716,0,0,0,.717-.645.7.7,0,0,0-.623-.769l-.021,0Zm15.827,1.6-7.2-.731a.7.7,0,0,0-.773.619v.012a.713.713,0,0,0,.627.788h0l7.2.731h.072a.711.711,0,0,0,.072-1.419Zm15.825,1.6-7.2-.731a.708.708,0,0,0-.773.636v.009a.7.7,0,0,0,.619.773h.012l7.2.731a.163.163,0,0,0,.072.014.728.728,0,0,0,.717-.645.713.713,0,0,0-.635-.783h-.012Zm15.825,1.605-7.2-.731a.708.708,0,0,0-.773.636v.009a.72.72,0,0,0,.631.788l7.2.731h.072a.718.718,0,0,0,.072-1.433Zm15.825,1.6-7.2-.731a.72.72,0,0,0-.147,1.433h0l7.2.731h.072a.718.718,0,0,0,.072-1.433Zm15.825,1.62-7.2-.731a.691.691,0,0,0-.771.6l0,.03a.713.713,0,0,0,.627.788h0l7.2.731h.072a.716.716,0,0,0,.717-.645.7.7,0,0,0-.624-.768l-.022,0Zm15.825,1.6-7.2-.731a.691.691,0,0,0-.771.6l0,.03a.7.7,0,0,0,.6.785l.028,0,7.2.731a.61.61,0,0,1,.072.014.728.728,0,0,0,.717-.645.713.713,0,0,0-.637-.782h-.01Zm15.825,1.605-7.182-.731a.706.706,0,0,0-.785.619l0,.026a.7.7,0,0,0,.619.773h.012l7.2.731a.163.163,0,0,0,.072.014.728.728,0,0,0,.717-.645.713.713,0,0,0-.637-.782h-.013Zm15.825,1.6-7.2-.731a.72.72,0,1,0-.143,1.433l7.2.731h.072a.718.718,0,0,0,.072-1.433Zm15.825,1.6-7.2-.731a.72.72,0,0,0-.147,1.433h0l7.2.731h.072a.718.718,0,0,0,.072-1.433Zm15.825,1.62-7.2-.731a.7.7,0,0,0-.773.619v.012a.713.713,0,0,0,.627.788h0l7.21.731.158-.7Zm7.569,5.06a.724.724,0,0,0-.989-.258.736.736,0,0,0-.244.989,9.481,9.481,0,0,1,1.319,4.788v1.82a.71.71,0,0,0,.694.726h.026a.718.718,0,0,0,.717-.717v-1.82a10.96,10.96,0,0,0-1.523-5.522Zm.8,15.295a.719.719,0,0,0-.717.717v7.239a.718.718,0,0,0,.717.717.728.728,0,0,0,.717-.717v-7.239a.728.728,0,0,0-.711-.711Zm0,15.911a.71.71,0,0,0-.717.7v7.239a.71.71,0,0,0,.7.717h.014a.719.719,0,0,0,.717-.717v-7.225a.718.718,0,0,0-.711-.711Zm0,15.911a.71.71,0,0,0-.717.7v7.245a.71.71,0,0,0,.7.717h.014a.719.719,0,0,0,.717-.717V292.2a.719.719,0,0,0-.711-.717Zm0,15.9a.719.719,0,0,0-.717.717v7.239a.718.718,0,0,0,.717.717.728.728,0,0,0,.717-.717V308.1a.728.728,0,0,0-.711-.714Zm0,15.911a.71.71,0,0,0-.717.7v7.239a.71.71,0,0,0,.7.717h.014a.719.719,0,0,0,.717-.717v-7.225a.719.719,0,0,0-.711-.714Zm0,15.911a.71.71,0,0,0-.717.7v7.239a.71.71,0,0,0,.7.717h.014a.719.719,0,0,0,.717-.717v-7.225a.719.719,0,0,0-.711-.714Zm0,15.9a.719.719,0,0,0-.717.717v7.239a.718.718,0,0,0,.717.717.728.728,0,0,0,.717-.717v-7.239a.728.728,0,0,0-.711-.717Zm0,15.911a.71.71,0,0,0-.717.7v7.253a.718.718,0,0,0,.717.717.728.728,0,0,0,.717-.717v-7.241a.719.719,0,0,0-.711-.715Zm0,15.911a.71.71,0,0,0-.717.7v7.239a.71.71,0,0,0,.7.717h.014a.719.719,0,0,0,.717-.717V387.64a.718.718,0,0,0-.711-.713ZM.644,396.657c-.029,0-.043-.014-.072-.014a8.237,8.237,0,0,0,.473,1.161.538.538,0,0,0,.172-.3A.73.73,0,0,0,.644,396.657ZM16.4,398.291l-7.2-.731a.713.713,0,0,0-.136,1.419l7.2.731a.163.163,0,0,0,.072.014.728.728,0,0,0,.717-.645.713.713,0,0,0-.632-.786l-.022,0ZM32.223,399.9l-7.2-.731a.7.7,0,0,0-.772.62l0,.025a.72.72,0,0,0,.631.788l7.2.731h.072a.718.718,0,0,0,.072-1.433Zm15.825,1.6-7.2-.731A.72.72,0,0,0,40.7,402.2h0l7.2.731h.072a.718.718,0,0,0,.072-1.433Zm15.825,1.62-7.2-.731a.7.7,0,0,0-.773.619v.012a.713.713,0,0,0,.627.788h0l7.2.731H63.8a.716.716,0,0,0,.717-.645.7.7,0,0,0-.62-.772l-.026,0ZM79.7,404.726,72.5,404a.691.691,0,0,0-.771.6l0,.03a.713.713,0,0,0,.627.788h0l7.2.731h.072a.711.711,0,0,0,.072-1.419Zm15.825,1.605-7.2-.731a.713.713,0,1,0-.143,1.419h0l7.2.731a.163.163,0,0,0,.072.014.728.728,0,0,0,.717-.645.715.715,0,0,0-.632-.786h-.014Zm15.825,1.6-7.2-.731a.692.692,0,0,0-.77.6l0,.041a.72.72,0,0,0,.631.788l7.2.731h.072a.718.718,0,0,0,.072-1.434Zm15.825,1.605-7.2-.731a.72.72,0,0,0-.143,1.433l7.2.731h.072a.718.718,0,0,0,.072-1.433Zm83.889-6.721a.718.718,0,0,0-.717.717v6.25c0,.3-.014.616-.043.917a.7.7,0,0,0,.619.773h.012a.163.163,0,0,0,.072.014.716.716,0,0,0,.717-.645,8.553,8.553,0,0,0,.057-1.061v-6.25A.728.728,0,0,0,211.062,402.82ZM143,411.163l-7.2-.731a.691.691,0,0,0-.771.6l0,.03a.713.713,0,0,0,.627.788h0l7.2.731h.072a.716.716,0,0,0,.717-.645.7.7,0,0,0-.62-.771l-.029,0Zm15.825,1.6-7.2-.731a.691.691,0,0,0-.771.6l0,.03a.7.7,0,0,0,.6.785l.028,0,7.2.731a.61.61,0,0,1,.072.014.728.728,0,0,0,.717-.645.713.713,0,0,0-.631-.786l-.018,0Zm15.825,1.605-7.2-.731a.713.713,0,0,0-.143,1.419l7.2.731a.163.163,0,0,0,.072.014.728.728,0,0,0,.717-.645.713.713,0,0,0-.632-.785l-.017,0Zm15.825,1.605-7.2-.731a.7.7,0,0,0-.772.62l0,.025a.72.72,0,0,0,.631.788l7.2.731h.072a.718.718,0,0,0,.072-1.433Zm16.37,1.218a.712.712,0,0,0-.924-.4l-.008,0a6.928,6.928,0,0,1-3.225.43l-3.584-.373a.72.72,0,0,0-.143,1.433l3.584.358c.3.029.588.043.889.043a8.2,8.2,0,0,0,3.01-.559.724.724,0,0,0,.4-.93Z"/></g><g id="Group_3161" data-name="Group 3161"><path id="Path_5357" data-name="Path 5357" class="cls-17" d="M230.76,298.989l-71.845-7.3a3.629,3.629,0,0,0-3.981,3.239,3.513,3.513,0,0,0-.019.37v24.417a3.626,3.626,0,0,0,3.266,3.605l72.419,7.361a3.629,3.629,0,0,0,3.406-1.627l6.379-9.772a3.629,3.629,0,0,0,.241-3.533l-6.952-14.7A3.631,3.631,0,0,0,230.76,298.989Z"/><path id="Path_5358" data-name="Path 5358" class="cls-18" d="M230.76,298.989l-71.845-7.3a3.629,3.629,0,0,0-3.981,3.239,3.513,3.513,0,0,0-.019.37v24.417a3.626,3.626,0,0,0,3.266,3.605l72.419,7.361a3.629,3.629,0,0,0,3.406-1.627l6.379-9.772a3.629,3.629,0,0,0,.241-3.533l-6.952-14.7A3.631,3.631,0,0,0,230.76,298.989Z"/><path id="Path_5359" data-name="Path 5359" class="cls-19" d="M230.719,314.579c0,4.385-3.237,7.938-7.23,7.938s-7.23-3.553-7.23-7.938,3.237-7.94,7.23-7.94S230.719,310.194,230.719,314.579Z"/></g></g></g><g id="Group_3197" data-name="Group 3197"><g id="Group_2640" data-name="Group 2640"><g id="Group_2637" data-name="Group 2637"><ellipse id="Ellipse_293" data-name="Ellipse 293" class="cls-20" cx="135.908" cy="147.407" rx="29.005" ry="28.397" transform="translate(-14.452 280.039) rotate(-88.74)"/><path id="Path_4704" data-name="Path 4704" class="cls-21" d="M161.945,147.405c0,16.023-12.711,29.011-28.39,29.011s-28.387-12.986-28.387-29.011,12.711-29.011,28.391-29.011S161.945,131.383,161.945,147.405Z"/><ellipse id="Ellipse_294-2" data-name="Ellipse 294-2" class="cls-22" cx="131.62" cy="147.407" rx="29.005" ry="28.397" transform="translate(-18.646 275.753) rotate(-88.74)"/><path id="Path_4705" data-name="Path 4705" class="cls-23" d="M155.71,147.406c0,13.655-10.792,24.724-24.1,24.724s-24.1-11.069-24.1-24.724,10.791-24.724,24.1-24.724S155.71,133.751,155.71,147.406Z"/><path id="Path_4706" data-name="Path 4706" class="cls-24" d="M134.8,169.557a24.717,24.717,0,0,1-18.716-40.868,24.718,24.718,0,1,0,34.861,34.861A24.623,24.623,0,0,1,134.8,169.557Z"/></g><g id="Group_2661" data-name="Group 2661"><g id="Path_4734" data-name="Path 4734"><path class="cls-25" d="M137.133,159.378H125.008v-3h12.125c2.055,0,3.165-2.455,3.165-4.766a5.541,5.541,0,0,0-.861-3.13,2.647,2.647,0,0,0-2.3-1.165H125.008v-3h12.125a5.674,5.674,0,0,1,4.75,2.429,8.458,8.458,0,0,1,1.415,4.866C143.3,155.377,141.137,159.378,137.133,159.378Z"/></g><g id="Path_4735" data-name="Path 4735"><path class="cls-25" d="M129.869,157.878h-3V134.229h8.482a6.191,6.191,0,0,1,6.253,6.38,6.561,6.561,0,0,1-1.854,4.633,7.421,7.421,0,0,1-5.517,2.1v-3a4.592,4.592,0,0,0,3.374-1.195,3.586,3.586,0,0,0,1-2.534,3.185,3.185,0,0,0-3.253-3.38h-5.482Z"/></g><g id="Line_22" data-name="Line 22"><rect class="cls-25" x="126.869" y="132.12" width="3" height="3.609"/></g><g id="Line_23" data-name="Line 23"><rect class="cls-25" x="130.856" y="132.12" width="3" height="3.609"/></g><g id="Line_24" data-name="Line 24"><rect class="cls-25" x="126.869" y="157.879" width="3" height="3.609"/></g><g id="Line_25" data-name="Line 25"><rect class="cls-25" x="130.856" y="157.879" width="3" height="3.609"/></g></g></g><g id="Group_2662" data-name="Group 2662" class="cls-26"><path id="Path_4708" data-name="Path 4708" class="cls-10" d="M152.991,128.5l-45.467,34.264a29.122,29.122,0,0,1-3.46-8.375l42.155-31.774A28.406,28.406,0,0,1,152.991,128.5Z"/><path id="Path_4709" data-name="Path 4709" class="cls-10" d="M157.361,135.324l-44.614,33.648a28.463,28.463,0,0,1-3-3.229l45.5-34.312A27.267,27.267,0,0,1,157.361,135.324Z"/><path id="Path_4710" data-name="Path 4710" class="cls-10" d="M159.566,142.446l-41.855,30.765-2.3-1.321L159,139.86A25.151,25.151,0,0,1,159.566,142.446Z"/></g></g><g class="cls-27"><g id="Mask_Group_1" data-name="Mask Group 1"><g id="Group_3195" data-name="Group 3195"><g id="Group_2640-2" data-name="Group 2640-2"><g id="Group_2637-2" data-name="Group 2637-2"><ellipse id="Ellipse_293-2" data-name="Ellipse 293-2" class="cls-20" cx="156.728" cy="193.529" rx="39.347" ry="38.522" transform="translate(-40.201 345.963) rotate(-88.74)"/><path id="Path_4704-2" data-name="Path 4704-2" class="cls-21" d="M192.049,193.527c0,21.737-17.244,39.355-38.513,39.355s-38.51-17.618-38.51-39.355,17.243-39.355,38.514-39.355S192.049,171.792,192.049,193.527Z"/><ellipse id="Ellipse_294-3" data-name="Ellipse 294-3" class="cls-22" cx="150.911" cy="193.529" rx="39.347" ry="38.522" transform="translate(-45.89 340.148) rotate(-88.74)"/><path id="Path_4705-2" data-name="Path 4705-2" class="cls-23" d="M183.591,193.527c0,18.524-14.64,33.539-32.7,33.539s-32.7-15.015-32.7-33.539,14.638-33.539,32.7-33.539S183.591,175,183.591,193.527Z"/><path id="Path_4706-2" data-name="Path 4706-2" class="cls-24" d="M154.39,223.577c-18.106,0-32.783-15.016-32.783-33.54a33.843,33.843,0,0,1,7.965-21.9,33.773,33.773,0,0,0-11.377,25.39c0,18.524,14.677,33.539,32.784,33.539a32.4,32.4,0,0,0,24.82-11.638A32.219,32.219,0,0,1,154.39,223.577Z"/></g><g id="Group_2661-2" data-name="Group 2661-2"><g id="Path_4734-2" data-name="Path 4734-2"><path class="cls-25" d="M159.214,212.556H140.223v-5h18.991c3.121,0,4.806-3.769,4.806-7.314a8.507,8.507,0,0,0-1.321-4.814,4,4,0,0,0-3.485-1.762H140.223v-5h18.991a9.032,9.032,0,0,1,7.562,3.867,13.391,13.391,0,0,1,2.244,7.709C169.02,206.211,165.583,212.556,159.214,212.556Z"/></g><g id="Path_4735-2" data-name="Path 4735-2"><path class="cls-25" d="M147.987,210.055h-5V172.866h13.435c6.459,0,9.945,5.227,9.945,10.145a10.431,10.431,0,0,1-2.948,7.361,11.766,11.766,0,0,1-8.747,3.327v-5a7.052,7.052,0,0,0,5.177-1.826,5.463,5.463,0,0,0,1.518-3.862,4.846,4.846,0,0,0-4.945-5.145h-8.435Z"/></g><g id="Line_22-2" data-name="Line 22-2"><rect class="cls-25" x="142.987" y="169.713" width="5" height="5.654"/></g><g id="Line_23-2" data-name="Line 23-2"><rect class="cls-25" x="149.231" y="169.713" width="5" height="5.654"/></g><g id="Line_24-2" data-name="Line 24-2"><rect class="cls-25" x="142.987" y="210.056" width="5" height="5.653"/></g><g id="Line_25-2" data-name="Line 25-2"><rect class="cls-25" x="149.231" y="210.056" width="5" height="5.653"/></g></g></g><g id="Group_2662-2" data-name="Group 2662-2" class="cls-28"><path id="Path_4708-2" data-name="Path 4708-2" class="cls-10" d="M179.9,167.878l-61.678,46.481A39.489,39.489,0,0,1,113.531,203l57.186-43.1A38.535,38.535,0,0,1,179.9,167.878Z"/><path id="Path_4709-2" data-name="Path 4709-2" class="cls-10" d="M185.83,177.137l-60.522,45.645a38.676,38.676,0,0,1-4.068-4.381l61.728-46.543A36.911,36.911,0,0,1,185.83,177.137Z"/><path id="Path_4710-2" data-name="Path 4710-2" class="cls-10" d="M188.827,186.8,132.05,228.534l-3.113-1.792,59.126-43.451C188.373,184.444,188.627,185.608,188.827,186.8Z"/></g></g></g></g><g id="Group_3196" data-name="Group 3196"><g id="Group_2640-3" data-name="Group 2640-3"><g id="Group_2637-3" data-name="Group 2637-3"><ellipse id="Ellipse_293-3" data-name="Ellipse 293-3" class="cls-20" cx="186.116" cy="125.905" rx="29.502" ry="28.884" transform="translate(56.147 309.207) rotate(-88.74)"/><path id="Path_4704-3" data-name="Path 4704-3" class="cls-21" d="M212.6,125.9c0,16.3-12.929,29.508-28.877,29.508S154.849,142.2,154.849,125.9,167.777,96.4,183.727,96.4,212.6,109.606,212.6,125.9Z"/><ellipse id="Ellipse_294-4" data-name="Ellipse 294-4" class="cls-22" cx="181.755" cy="125.905" rx="29.502" ry="28.884" transform="translate(51.882 304.847) rotate(-88.74)"/><path id="Path_4705-3" data-name="Path 4705-3" class="cls-23" d="M206.259,125.9c0,13.889-10.977,25.147-24.517,25.147s-24.516-11.258-24.516-25.147,10.976-25.147,24.516-25.147S206.259,112.017,206.259,125.9Z"/><path id="Path_4706-3" data-name="Path 4706-3" class="cls-24" d="M184.988,148.435a25.141,25.141,0,0,1-19.037-41.568,25.142,25.142,0,1,0,35.458,35.458A25.039,25.039,0,0,1,184.988,148.435Z"/></g><g id="Group_2661-3" data-name="Group 2661-3"><g id="Path_4734-3" data-name="Path 4734-3"><path class="cls-25" d="M187.362,138.056H175.029v-3h12.333c2.107,0,3.245-2.511,3.245-4.873a5.656,5.656,0,0,0-.881-3.2,2.714,2.714,0,0,0-2.364-1.2H175.029v-3h12.333a5.745,5.745,0,0,1,4.81,2.46,8.57,8.57,0,0,1,1.435,4.935C193.607,134,191.418,138.056,187.362,138.056Z"/></g><g id="Path_4735-3" data-name="Path 4735-3"><path class="cls-25" d="M179.947,136.555h-3V112.527h8.6a6.272,6.272,0,0,1,6.335,6.464,6.656,6.656,0,0,1-1.879,4.7,7.526,7.526,0,0,1-5.593,2.123v-3a4.7,4.7,0,0,0,3.45-1.223,3.67,3.67,0,0,0,1.022-2.595,3.265,3.265,0,0,0-3.335-3.464h-5.6Z"/></g><g id="Line_22-3" data-name="Line 22-3"><rect class="cls-25" x="176.948" y="110.356" width="3" height="3.672"/></g><g id="Line_23-3" data-name="Line 23-3"><rect class="cls-25" x="181.003" y="110.356" width="3" height="3.672"/></g><g id="Line_24-3" data-name="Line 24-3"><rect class="cls-25" x="176.948" y="136.556" width="3" height="3.671"/></g><g id="Line_25-3" data-name="Line 25-3"><rect class="cls-25" x="181.003" y="136.556" width="3" height="3.671"/></g></g></g><g id="Group_2662-3" data-name="Group 2662-3" class="cls-26"><path id="Path_4708-3" data-name="Path 4708-3" class="cls-10" d="M203.491,106.673l-46.246,34.855a29.607,29.607,0,0,1-3.519-8.518L196.6,100.691A28.911,28.911,0,0,1,203.491,106.673Z"/><path id="Path_4709-3" data-name="Path 4709-3" class="cls-10" d="M207.936,113.616,162.557,147.84a29.08,29.08,0,0,1-3.05-3.285l46.283-34.9A27.737,27.737,0,0,1,207.936,113.616Z"/><path id="Path_4710-3" data-name="Path 4710-3" class="cls-10" d="M210.18,120.859l-42.568,31.293-2.334-1.344,44.332-32.579C209.843,119.093,210.032,119.966,210.18,120.859Z"/></g></g><g id="Group_3218" data-name="Group 3218"><g id="Group_2640-4" data-name="Group 2640-4"><g id="Group_2637-4" data-name="Group 2637-4"><ellipse id="Ellipse_293-4" data-name="Ellipse 293-4" class="cls-20" cx="109.497" cy="378.022" rx="42.67" ry="41.776" transform="translate(-270.842 479.177) rotate(-88.74)"/><path id="Path_4704-4" data-name="Path 4704-4" class="cls-21" d="M147.8,378.021c0,23.573-18.7,42.68-41.766,42.68s-41.763-19.108-41.763-42.68,18.7-42.68,41.767-42.68S147.8,354.449,147.8,378.021Z"/><ellipse id="Ellipse_294-5" data-name="Ellipse 294-5" class="cls-22" cx="103.103" cy="377.939" rx="42.669" ry="41.774" transform="translate(-276.822 473.465) rotate(-88.854)"/><path id="Path_4705-4" data-name="Path 4705-4" class="cls-23" d="M138.627,378.021c0,20.088-15.877,36.372-35.461,36.372S67.708,398.11,67.708,378.021s15.874-36.372,35.458-36.372S138.627,357.933,138.627,378.021Z"/><path id="Path_4706-4" data-name="Path 4706-4" class="cls-24" d="M106.762,410.608c-19.536,0-35.373-16.285-35.373-36.373a36.818,36.818,0,0,1,8.594-23.749A36.705,36.705,0,0,0,67.708,378.02c0,20.089,15.837,36.372,35.374,36.372a34.894,34.894,0,0,0,26.78-12.621A34.663,34.663,0,0,1,106.762,410.608Z"/></g><g id="Group_2661-4" data-name="Group 2661-4"><g id="Path_4734-4" data-name="Path 4734-4"><path class="cls-25" d="M111.3,395.927H93.46v-5H111.3c2.833,0,4.363-3.461,4.363-6.718a7.854,7.854,0,0,0-1.213-4.435,3.618,3.618,0,0,0-3.15-1.59H93.46v-5H111.3a8.631,8.631,0,0,1,7.227,3.7,12.734,12.734,0,0,1,2.136,7.329C120.661,389.89,117.379,395.927,111.3,395.927Z"/></g><g id="Path_4735-4" data-name="Path 4735-4"><path class="cls-25" d="M100.905,393.428h-5V358.344h12.771c6.166,0,9.492,4.987,9.492,9.68a9.949,9.949,0,0,1-2.811,7.021,11.2,11.2,0,0,1-8.325,3.171v-5a6.471,6.471,0,0,0,4.754-1.67,4.978,4.978,0,0,0,1.382-3.522,4.405,4.405,0,0,0-4.492-4.68h-7.771Z"/></g><g id="Line_22-4" data-name="Line 22-4"><rect class="cls-25" x="95.905" y="355.534" width="5" height="5.311"/></g><g id="Line_23-4" data-name="Line 23-4"><rect class="cls-25" x="101.771" y="355.534" width="5" height="5.311"/></g><g id="Line_24-4" data-name="Line 24-4"><rect class="cls-25" x="95.905" y="393.428" width="5" height="5.311"/></g><g id="Line_25-4" data-name="Line 25-4"><rect class="cls-25" x="101.771" y="393.428" width="5" height="5.311"/></g></g></g><g id="Group_2662-4" data-name="Group 2662-4" class="cls-26"><path id="Path_4708-4" data-name="Path 4708-4" class="cls-10" d="M134.628,350.205,67.74,400.613a42.838,42.838,0,0,1-5.09-12.321l62.016-46.744A41.8,41.8,0,0,1,134.628,350.205Z"/><path id="Path_4709-4" data-name="Path 4709-4" class="cls-10" d="M141.058,360.248l-65.634,49.5A42.017,42.017,0,0,1,71.012,405l66.942-50.475A40.017,40.017,0,0,1,141.058,360.248Z"/><path id="Path_4710-4" data-name="Path 4710-4" class="cls-10" d="M144.3,370.724,82.734,415.985l-3.376-1.942,64.12-47.121C143.815,368.17,144.088,369.433,144.3,370.724Z"/></g></g><g id="Wallet_2" data-name="Wallet 2"><g id="Group_3168" data-name="Group 3168"><rect id="Rectangle_791" data-name="Rectangle 791" class="cls-29" x="352.067" y="212.96" width="232.933" height="189.389" rx="6.536"/><rect id="Rectangle_793" data-name="Rectangle 793" class="cls-15" x="360.677" y="215.422" width="214.354" height="12.236" rx="4.268"/><path id="Path_5360" data-name="Path 5360" class="cls-13" d="M375.215,234.283l201.347-20.465c4.66-.473,8.439,3.175,8.439,8.149V393.342c0,4.974-3.779,9.39-8.439,9.865L375.215,423.668c-4.66.474-8.439-3.175-8.439-8.149V244.148C366.776,239.168,370.555,234.756,375.215,234.283Z"/><g id="Group_3163" data-name="Group 3163"><path id="Path_5362" data-name="Path 5362" class="cls-16" d="M571.57,220.789a.716.716,0,0,0,.717.645h.072l7.2-.731a.72.72,0,0,0,.631-.788.712.712,0,0,0-.774-.646H579.4L572.22,220a.713.713,0,0,0-.652.769Zm-15.826,1.605a.716.716,0,0,0,.717.645h.072l7.2-.731a.721.721,0,0,0-.158-1.433l-7.182.731a.721.721,0,0,0-.649.786ZM539.919,224a.716.716,0,0,0,.717.645h.072l7.2-.731a.711.711,0,0,0,.631-.784v0a.7.7,0,0,0-.76-.634l-.028,0-7.181.731a.7.7,0,0,0-.653.744l0,.031Zm-15.825,1.62a.714.714,0,0,0,.717.631h.072l7.2-.731a.711.711,0,0,0,.631-.784v0a.7.7,0,0,0-.762-.632h-.012l-7.2.731a.712.712,0,0,0-.646.774v.014Zm-15.825,1.609a.728.728,0,0,0,.717.645.163.163,0,0,0,.072-.014l7.2-.731a.7.7,0,0,0,.632-.762v-.012a.708.708,0,0,0-.765-.646h-.009l-7.2.731a.713.713,0,0,0-.647.773Zm-15.825,1.6a.716.716,0,0,0,.717.645h.072l7.2-.731a.72.72,0,0,0,.631-.788.708.708,0,0,0-.765-.646h-.009l-7.2.731a.713.713,0,0,0-.647.773Zm-15.825,1.6a.716.716,0,0,0,.717.645h.072l7.2-.731a.711.711,0,0,0,.631-.784v0a.719.719,0,0,0-.774-.645l-7.2.731a.72.72,0,0,0-.646.789v0Zm-15.825,1.605a.716.716,0,0,0,.717.645h.072l7.2-.731a.711.711,0,0,0,.631-.784v0a.691.691,0,0,0-.744-.634l-.03,0-7.2.731a.7.7,0,0,0-.649.748l0,.029Zm-15.825,1.62a.728.728,0,0,0,.717.645.61.61,0,0,1,.072-.014l7.2-.731a.7.7,0,0,0,.634-.76l0-.028a.691.691,0,0,0-.744-.634l-.03,0-7.2.731a.713.713,0,0,0-.648.773l0,.018Zm-15.825,1.609a.728.728,0,0,0,.717.645.163.163,0,0,0,.072-.014l7.2-.731a.7.7,0,0,0,.632-.762v-.012a.708.708,0,0,0-.762-.648l-.026,0-7.182.731a.713.713,0,0,0-.652.769Zm-15.825,1.605a.716.716,0,0,0,.717.645h.072l7.2-.731a.72.72,0,0,0-.143-1.433l-7.2.731a.714.714,0,0,0-.649.772l0,.016Zm-15.825,1.6a.716.716,0,0,0,.717.645h.072l7.2-.731a.711.711,0,0,0,.631-.784v0a.719.719,0,0,0-.774-.645l-7.2.731a.721.721,0,0,0-.647.788Zm-15.21,1.551.158.7,7.21-.731a.711.711,0,0,0,.631-.784v0a.7.7,0,0,0-.762-.632h-.012l-7.2.731Zm-9.059,9.862v1.82a.719.719,0,0,0,.717.717.71.71,0,0,0,.717-.7V249.89a9.478,9.478,0,0,1,1.319-4.788.736.736,0,0,0-.244-.989.724.724,0,0,0-.989.258,10.962,10.962,0,0,0-1.52,5.517Zm0,10.493v7.239a.728.728,0,0,0,.717.717.718.718,0,0,0,.717-.717v-7.239a.718.718,0,0,0-.717-.717.729.729,0,0,0-.717.714Zm0,15.911v7.225a.719.719,0,0,0,.717.717.71.71,0,0,0,.717-.7v-7.239a.71.71,0,0,0-.7-.717h-.014a.718.718,0,0,0-.717.715Zm0,15.911v7.223a.719.719,0,0,0,.717.717.71.71,0,0,0,.717-.7V292.2a.71.71,0,0,0-.7-.717h-.014a.719.719,0,0,0-.717.717Zm0,15.9v7.239a.728.728,0,0,0,.717.717.718.718,0,0,0,.717-.717v-7.239a.718.718,0,0,0-.717-.717.728.728,0,0,0-.717.712Zm0,15.911v7.225a.719.719,0,0,0,.717.717.71.71,0,0,0,.717-.7v-7.239a.71.71,0,0,0-.7-.717h-.014a.719.719,0,0,0-.717.712Zm0,15.911v7.225a.719.719,0,0,0,.717.717.71.71,0,0,0,.717-.7v-7.239a.71.71,0,0,0-.7-.717h-.014a.719.719,0,0,0-.717.712Zm0,15.9v7.239a.728.728,0,0,0,.717.717.718.718,0,0,0,.717-.717v-7.239a.718.718,0,0,0-.717-.717.729.729,0,0,0-.717.709Zm0,15.911v7.239a.728.728,0,0,0,.717.717.718.718,0,0,0,.717-.717v-7.249a.71.71,0,0,0-.7-.717h-.014a.719.719,0,0,0-.717.717Zm0,15.911v7.225a.719.719,0,0,0,.717.717.71.71,0,0,0,.717-.7v-7.239a.71.71,0,0,0-.7-.717h-.014a.719.719,0,0,0-.717.709Zm210.558,9.862a.538.538,0,0,0,.172.3,8.189,8.189,0,0,0,.473-1.161c-.029,0-.043.014-.072.014a.73.73,0,0,0-.573.839Zm-15.825,1.577a.728.728,0,0,0,.717.645.163.163,0,0,0,.072-.014l7.2-.731a.713.713,0,0,0-.143-1.419l-7.2.731a.714.714,0,0,0-.647.774v.014Zm-15.825,1.6a.716.716,0,0,0,.717.645h.072l7.2-.731a.72.72,0,0,0,.631-.788.7.7,0,0,0-.749-.647l-.025,0-7.2.731a.714.714,0,0,0-.647.774v.014ZM536.308,402.3a.716.716,0,0,0,.717.645h.072l7.2-.731a.711.711,0,0,0,.631-.784v0a.719.719,0,0,0-.774-.645l-7.2.731a.721.721,0,0,0-.646.781ZM520.483,403.9a.716.716,0,0,0,.717.645h.072l7.2-.731a.711.711,0,0,0,.631-.784v0a.7.7,0,0,0-.762-.632h-.012l-7.2.731a.7.7,0,0,0-.649.748l0,.019Zm-15.825,1.62a.714.714,0,0,0,.717.631h.072l7.2-.731a.711.711,0,0,0,.631-.784v0a.691.691,0,0,0-.744-.634l-.03,0-7.2.731a.714.714,0,0,0-.648.773v.015Zm-15.825,1.606a.728.728,0,0,0,.717.645.163.163,0,0,0,.072-.014l7.2-.731a.713.713,0,1,0-.143-1.419l-7.2.731a.714.714,0,0,0-.648.773v.015Zm-15.826,1.6a.716.716,0,0,0,.717.645h.072l7.2-.731a.72.72,0,0,0,.631-.788.692.692,0,0,0-.733-.649l-.041,0-7.2.731a.713.713,0,0,0-.647.773Zm-15.825,1.6a.716.716,0,0,0,.717.645h.072l7.2-.731a.72.72,0,0,0-.143-1.433l-7.2.731A.721.721,0,0,0,457.182,410.328Zm-83.957-6.794v6.25a8.553,8.553,0,0,0,.057,1.061.716.716,0,0,0,.717.645.163.163,0,0,0,.072-.014.7.7,0,0,0,.632-.762V410.7c-.029-.3-.043-.616-.043-.917v-6.25a.718.718,0,0,0-.717-.717.727.727,0,0,0-.717.72Zm68.131,8.4a.716.716,0,0,0,.717.645h.072l7.2-.731a.711.711,0,0,0,.631-.784v0a.691.691,0,0,0-.744-.634l-.03,0-7.2.731a.7.7,0,0,0-.649.748l0,.03Zm-15.825,1.62a.728.728,0,0,0,.717.645.61.61,0,0,1,.072-.014l7.2-.731a.7.7,0,0,0,.634-.76l0-.028a.691.691,0,0,0-.744-.634l-.03,0-7.2.731a.713.713,0,0,0-.648.772l0,.02Zm-15.825,1.605a.728.728,0,0,0,.717.645.163.163,0,0,0,.072-.014l7.2-.731a.713.713,0,1,0-.143-1.419l-7.2.731a.713.713,0,0,0-.648.773l0,.019Zm-15.825,1.605a.716.716,0,0,0,.717.645h.072l7.2-.731a.72.72,0,0,0,.631-.788.7.7,0,0,0-.749-.647l-.025,0-7.2.731a.713.713,0,0,0-.648.772l0,.021Zm-15.324,1.364a8.2,8.2,0,0,0,3.01.559c.3,0,.588-.014.889-.043l3.584-.358a.72.72,0,1,0-.143-1.433h0l-3.584.373a6.928,6.928,0,0,1-3.225-.43.713.713,0,0,0-.929.392l0,.008A.724.724,0,0,0,378.557,418.128Z"/></g><path id="Path_5363" data-name="Path 5363" class="cls-19" d="M408.625,324a10.034,10.034,0,1,1-10.035-10.034A10.034,10.034,0,0,1,408.625,324Z"/></g></g><g class="cls-30"><g id="Mask_Group_2" data-name="Mask Group 2"><g id="Group_3204" data-name="Group 3204"><g id="Group_3200" data-name="Group 3200"><g id="Group_3198" data-name="Group 3198"><ellipse id="Ellipse_318" data-name="Ellipse 318" class="cls-20" cx="502.898" cy="203.242" rx="32.411" ry="31.732" transform="translate(288.644 701.548) rotate(-88.74)"/><path id="Path_5376" data-name="Path 5376" class="cls-21" d="M531.992,203.24c0,17.9-14.2,32.418-31.724,32.418s-31.72-14.513-31.72-32.418,14.2-32.417,31.724-32.417S531.992,185.337,531.992,203.24Z"/><ellipse id="Ellipse_319-2" data-name="Ellipse 319-2" class="cls-22" cx="498.107" cy="203.242" rx="32.411" ry="31.732" transform="translate(283.958 696.758) rotate(-88.74)"/><path id="Path_5377" data-name="Path 5377" class="cls-23" d="M525.024,203.24c0,15.258-12.059,27.627-26.934,27.627S471.157,218.5,471.157,203.24s12.058-27.626,26.935-27.626S525.024,187.982,525.024,203.24Z"/><path id="Path_5378" data-name="Path 5378" class="cls-24" d="M500.807,227.993c-14.832,0-26.855-12.369-26.855-27.627a27.975,27.975,0,0,1,6.525-18.039,27.886,27.886,0,0,0-9.319,20.914c0,15.258,12.023,27.627,26.856,27.627a26.483,26.483,0,0,0,20.332-9.587A26.311,26.311,0,0,1,500.807,227.993Z"/></g><g id="M" class="cls-31"><g class="cls-31"><path class="cls-32" d="M492.678,213.328h-2.94a1.78,1.78,0,0,1-1.246-.307,1.965,1.965,0,0,1-.294-1.289V194.2a1.156,1.156,0,0,1,.28-.811.937.937,0,0,1,.728-.309h3.472Zm1.148-20.244h7.168a.938.938,0,0,1,.728.309,1.16,1.16,0,0,1,.28.811v17.08H499.09a1.441,1.441,0,0,1-1.2-.462,2.433,2.433,0,0,1-.364-1.5V196.556a1.161,1.161,0,0,0-.126-.63q-.126-.181-.63-.182h-2.94Zm9.016,0h4.2a5.6,5.6,0,0,1,3.094.7,2.71,2.71,0,0,1,1.05,2.436v15.512a1.965,1.965,0,0,1-.294,1.289,1.782,1.782,0,0,1-1.246.307h-2.94V196.556a1.161,1.161,0,0,0-.126-.63q-.126-.181-.63-.182h-3.108Z"/></g></g></g><g id="Group_3201" data-name="Group 3201" class="cls-28"><path id="Path_5381" data-name="Path 5381" class="cls-10" d="M521.891,182.008l-50.8,38.287a32.521,32.521,0,0,1-3.866-9.358l47.1-35.5A31.768,31.768,0,0,1,521.891,182.008Z"/><path id="Path_5382" data-name="Path 5382" class="cls-10" d="M526.774,189.635l-49.852,37.6a31.951,31.951,0,0,1-3.351-3.608l50.846-38.34A30.42,30.42,0,0,1,526.774,189.635Z"/><path id="Path_5383" data-name="Path 5383" class="cls-10" d="M529.239,197.593l-46.764,34.378-2.564-1.476,48.7-35.791A28.979,28.979,0,0,1,529.239,197.593Z"/></g></g></g></g><g id="Group_3202" data-name="Group 3202"><g id="Group_3200-2" data-name="Group 3200-2"><g id="Group_3198-2" data-name="Group 3198-2"><ellipse id="Ellipse_318-2" data-name="Ellipse 318-2" class="cls-20" cx="435.984" cy="172.828" rx="39.347" ry="38.522" transform="translate(253.609 604.906) rotate(-88.74)"/><path id="Path_5376-2" data-name="Path 5376-2" class="cls-21" d="M471.305,172.826c0,21.737-17.244,39.355-38.513,39.355s-38.51-17.618-38.51-39.355,17.243-39.355,38.514-39.355S471.305,151.091,471.305,172.826Z"/><ellipse id="Ellipse_319-3" data-name="Ellipse 319-3" class="cls-22" cx="430.167" cy="172.828" rx="39.347" ry="38.522" transform="translate(247.92 599.09) rotate(-88.74)"/><path id="Path_5377-2" data-name="Path 5377-2" class="cls-23" d="M462.847,172.826c0,18.524-14.64,33.539-32.7,33.539s-32.7-15.015-32.7-33.539,14.638-33.539,32.7-33.539S462.847,154.3,462.847,172.826Z"/><path id="Path_5378-2" data-name="Path 5378-2" class="cls-24" d="M433.447,202.876c-18.006,0-32.6-15.016-32.6-33.54a33.958,33.958,0,0,1,7.921-21.9,33.856,33.856,0,0,0-11.314,25.39c0,18.524,14.6,33.539,32.6,33.539a32.152,32.152,0,0,0,24.683-11.638A31.944,31.944,0,0,1,433.447,202.876Z"/></g><g id="M-2" class="cls-31"><g class="cls-31"><path class="cls-32" d="M423.445,184.6h-3.57a2.155,2.155,0,0,1-1.513-.374,2.383,2.383,0,0,1-.357-1.565V161.375a1.409,1.409,0,0,1,.34-.986,1.139,1.139,0,0,1,.884-.374h4.216Zm1.394-24.582h8.7a1.142,1.142,0,0,1,.884.374,1.413,1.413,0,0,1,.34.986v20.739h-3.536a1.75,1.75,0,0,1-1.462-.56,2.958,2.958,0,0,1-.442-1.82v-15.5a1.4,1.4,0,0,0-.153-.765c-.1-.148-.357-.221-.765-.221h-3.57Zm10.948,0h5.1a6.819,6.819,0,0,1,3.757.849,3.293,3.293,0,0,1,1.275,2.958v18.836a2.383,2.383,0,0,1-.357,1.565,2.157,2.157,0,0,1-1.513.374h-3.57V164.231a1.4,1.4,0,0,0-.153-.765c-.1-.148-.357-.221-.765-.221h-3.774Z"/></g></g></g><g id="Group_3201-2" data-name="Group 3201-2" class="cls-28"><path id="Path_5381-2" data-name="Path 5381-2" class="cls-10" d="M459.042,147.049,397.364,193.53a39.489,39.489,0,0,1-4.693-11.361l57.186-43.1A38.535,38.535,0,0,1,459.042,147.049Z"/><path id="Path_5382-2" data-name="Path 5382-2" class="cls-10" d="M464.97,156.308l-60.522,45.645a38.676,38.676,0,0,1-4.068-4.381l61.728-46.543A36.911,36.911,0,0,1,464.97,156.308Z"/><path id="Path_5383-2" data-name="Path 5383-2" class="cls-10" d="M467.967,165.969,411.19,207.705l-3.113-1.792L467.2,162.462C467.513,163.615,467.767,164.779,467.967,165.969Z"/></g></g><g id="Group_3219" data-name="Group 3219"><g id="Group_3200-3" data-name="Group 3200-3"><g id="Group_3198-3" data-name="Group 3198-3"><ellipse id="Ellipse_318-3" data-name="Ellipse 318-3" class="cls-20" cx="485.337" cy="374.182" rx="45.593" ry="44.638" transform="translate(100.571 851.171) rotate(-88.74)"/><path id="Path_5376-3" data-name="Path 5376-3" class="cls-21" d="M526.265,374.179c0,25.188-19.981,45.6-44.627,45.6s-44.628-20.416-44.628-45.6,19.98-45.6,44.628-45.6S526.265,348.993,526.265,374.179Z"/><ellipse id="Ellipse_319-4" data-name="Ellipse 319-4" class="cls-22" cx="478.506" cy="374.09" rx="45.591" ry="44.636" transform="translate(94.923 845.019) rotate(-88.854)"/><path id="Path_5377-3" data-name="Path 5377-3" class="cls-23" d="M516.463,374.176c0,21.465-16.964,38.864-37.89,38.864s-37.887-17.4-37.887-38.864,16.962-38.863,37.887-38.863S516.463,352.715,516.463,374.176Z"/><path id="Path_5378-3" data-name="Path 5378-3" class="cls-24" d="M482.4,409c-20.865,0-37.778-17.4-37.778-38.865a39.349,39.349,0,0,1,9.178-25.376,39.23,39.23,0,0,0-13.11,29.42c0,21.465,16.914,38.863,37.78,38.863a37.257,37.257,0,0,0,28.6-13.486A37.017,37.017,0,0,1,482.4,409Z"/></g><g id="M-3" class="cls-31"><g class="cls-31"><path class="cls-32" d="M470.181,387.215H466.4a2.28,2.28,0,0,1-1.6-.4,2.516,2.516,0,0,1-.378-1.655V362.627a1.494,1.494,0,0,1,.36-1.044,1.2,1.2,0,0,1,.936-.4h4.464Zm1.476-26.028h9.216a1.208,1.208,0,0,1,.936.4,1.494,1.494,0,0,1,.36,1.044v21.96h-3.744a1.853,1.853,0,0,1-1.548-.594,3.126,3.126,0,0,1-.468-1.927V365.65a1.49,1.49,0,0,0-.162-.809q-.162-.234-.81-.234h-3.78Zm11.592,0h5.4a7.2,7.2,0,0,1,3.978.9,3.485,3.485,0,0,1,1.35,3.132v19.944a2.516,2.516,0,0,1-.378,1.655,2.282,2.282,0,0,1-1.6.4h-3.78V365.65a1.49,1.49,0,0,0-.162-.809q-.162-.234-.81-.234h-4Z"/></g></g></g><g id="Group_3201-3" data-name="Group 3201-3" class="cls-28"><path id="Path_5381-3" data-name="Path 5381-3" class="cls-10" d="M512.053,344.31l-71.47,53.86a45.78,45.78,0,0,1-5.439-13.165l66.264-49.946A44.65,44.65,0,0,1,512.053,344.31Z"/><path id="Path_5382-3" data-name="Path 5382-3" class="cls-10" d="M518.925,355.04,448.8,407.931a44.831,44.831,0,0,1-4.714-5.076l71.527-53.933A42.819,42.819,0,0,1,518.925,355.04Z"/><path id="Path_5383-3" data-name="Path 5383-3" class="cls-10" d="M522.389,366.234l-65.782,48.359L453,412.516l68.512-50.349A41.414,41.414,0,0,1,522.389,366.234Z"/></g></g><g id="Group_3203" data-name="Group 3203"><g id="Group_3200-4" data-name="Group 3200-4"><g id="Group_3198-4" data-name="Group 3198-4"><ellipse id="Ellipse_318-4" data-name="Ellipse 318-4" class="cls-20" cx="337.151" cy="74.625" rx="35.219" ry="34.48" transform="translate(255.128 410.053) rotate(-88.74)"/><path id="Path_5376-4" data-name="Path 5376-4" class="cls-21" d="M368.766,74.624c0,19.456-15.434,35.226-34.472,35.226s-34.469-15.77-34.469-35.226S315.258,39.4,334.3,39.4,368.766,55.169,368.766,74.624Z"/><ellipse id="Ellipse_319-5" data-name="Ellipse 319-5" class="cls-22" cx="331.945" cy="74.625" rx="35.219" ry="34.48" transform="translate(250.036 404.848) rotate(-88.74)"/><path id="Path_5377-4" data-name="Path 5377-4" class="cls-23" d="M361.2,74.624c0,16.58-13.1,30.02-29.268,30.02s-29.266-13.44-29.266-30.02,13.1-30.02,29.266-30.02S361.2,58.044,361.2,74.624Z"/><path id="Path_5378-4" data-name="Path 5378-4" class="cls-24" d="M334.88,101.52c-16.117,0-29.182-13.441-29.182-30.021a30.4,30.4,0,0,1,7.09-19.6,30.3,30.3,0,0,0-10.127,22.726c0,16.58,13.065,30.02,29.183,30.02a28.781,28.781,0,0,0,22.093-10.417A28.589,28.589,0,0,1,334.88,101.52Z"/></g><g id="M-4" class="cls-31"><g class="cls-31"><path class="cls-32" d="M325.457,85.4H322.1a2.037,2.037,0,0,1-1.424-.351,2.247,2.247,0,0,1-.336-1.473V63.539a1.324,1.324,0,0,1,.32-.928,1.073,1.073,0,0,1,.832-.352h3.968Zm1.312-23.136h8.192a1.074,1.074,0,0,1,.832.352,1.328,1.328,0,0,1,.32.928v19.52h-3.328a1.648,1.648,0,0,1-1.376-.528,2.778,2.778,0,0,1-.416-1.712V66.227a1.325,1.325,0,0,0-.144-.72c-.1-.138-.336-.208-.72-.208h-3.36Zm10.3,0h4.8a6.406,6.406,0,0,1,3.536.8,3.1,3.1,0,0,1,1.2,2.784V83.571a2.247,2.247,0,0,1-.336,1.473,2.037,2.037,0,0,1-1.424.351h-3.36V66.227a1.325,1.325,0,0,0-.144-.72c-.1-.138-.336-.208-.72-.208h-3.552Z"/></g></g></g><g id="Group_3201-4" data-name="Group 3201-4" class="cls-28"><path id="Path_5381-4" data-name="Path 5381-4" class="cls-10" d="M357.788,51.547l-55.207,41.6a35.367,35.367,0,0,1-4.2-10.169L349.567,44.4A34.486,34.486,0,0,1,357.788,51.547Z"/><path id="Path_5382-4" data-name="Path 5382-4" class="cls-10" d="M363.1,59.839,308.925,100.7a34.637,34.637,0,0,1-3.641-3.921l55.25-41.66A33.013,33.013,0,0,1,363.1,59.839Z"/><path id="Path_5383-4" data-name="Path 5383-4" class="cls-10" d="M365.774,68.486l-50.812,37.356-2.787-1.6L365.1,65.351C365.372,66.379,365.6,67.421,365.774,68.486Z"/></g></g></svg>