<svg xmlns="http://www.w3.org/2000/svg" xmlns:xlink="http://www.w3.org/1999/xlink" width="846" height="568" viewBox="0 0 846 568"><defs><style>.a{fill:#60afba;}.b{clip-path:url(#a);}.c{fill:#004c91;}.d{fill:#edaf86;}.e{fill:#5a231f;}.f{fill:#ffc39b;}.g{fill:#e4a400;}.h{fill:#ffec30;}.i{fill:#ffd400;}.j{fill:#fb0;}.k{fill:#f88f00;}.ab,.am,.l,.o,.t{fill:none;}.l,.o{stroke:#f37f00;}.ae,.l,.o,.t{stroke-miterlimit:10;}.l{stroke-width:3px;}.m{opacity:0.127;}.ag,.ah,.m,.p,.q{isolation:isolate;}.ac,.aq,.n{fill:#fff;}.am,.o{stroke-width:2px;}.p{opacity:0.137;}.q{opacity:0.231;}.r{fill:#371d04;}.s{fill:#562c0c;}.t{stroke:#814c28;stroke-width:1.416px;stroke-dasharray:3.776;}.ab,.t{stroke-linecap:round;}.u{fill:#793c13;}.v{fill:#f27c00;}.ap,.w{fill:#1f224e;font-family:GoogleSans-Medium, Google Sans;font-weight:500;}.w{font-size:14px;letter-spacing:0.05em;}.x{fill:#f1f2f2;}.y{fill:#b3b3b3;}.ac,.z{opacity:0.2;}.aa{fill:#f09242;}.ab{stroke:#fff;stroke-linejoin:round;stroke-width:0.95px;}.ad{fill:#f0c362;}.ae{fill:#1a1818;stroke:rgba(0,0,0,0);}.af{fill:#f37f24;}.ag{opacity:0.114;}.ah{opacity:0.204;}.ai{opacity:0.145;}.aj{fill:#98c9ed;}.ak{fill:#63aee0;}.al{fill:#d4efff;}.am{stroke:#a6a8c3;}.an{fill:#e59f3f;}.ao{fill:#a6a8c3;}.ap{font-size:16px;}.aq{font-size:12px;font-family:GoogleSans-Regular, Google Sans;}</style><clipPath id="a"><path class="a" d="M380.482,154.076a76.5,76.5,0,1,1-76.5-76.5A76.5,76.5,0,0,1,380.482,154.076Z" transform="translate(-227.482 -77.575)"/></clipPath></defs><g transform="translate(-820 -2716)"><g transform="translate(592.518 2643.425)"><g transform="translate(227.482 77.575)"><g class="b"><g transform="translate(23.762 9.904)"><path class="c" d="M339.171,175.183c-4.807-6-42.858-19.155-42.858-19.155s-37.254,14.557-42.862,19.155-7.706,33.664-7.706,33.664H345.781S343.977,181.178,339.171,175.183Z" transform="translate(-245.746 -63.863)"/><path class="d" d="M299.178,165.584a9.047,9.047,0,0,1-5.313,5.839c-1.626.729-3.74,10-6.474,10-2.887,0-5.083-9.332-6.746-10.13a9,9,0,0,1-5.037-5.713,15.7,15.7,0,0,0,0-12.413c-2.871-6.7,27.084-8.061,23.57,0S299.178,165.584,299.178,165.584Z" transform="translate(-236.816 -66.393)"/><path class="e" d="M319.175,157.691c2.194-9.845,4.844-24.342,4.844-24.342,9.075-20.3-.337-50.9-17.936-41.492-21.778-19.891-56.23,7.927-44.576,41.217,0,0,1.409,15.235,3.674,24.939,2.55,10.91,21.353,19.022,27.095,19.341S316.855,168.122,319.175,157.691Z" transform="translate(-241.708 -85.188)"/><path class="f" d="M312.744,128.369c0,5.319-3.772,12.627-6.312,12.627s-4.6-4.314-4.6-9.632a11.418,11.418,0,0,1,4.6-9.628C308.893,119.809,312.744,121.736,312.744,128.369Z" transform="translate(-228.864 -74.399)"/><path class="f" d="M259.6,128.369c0,5.319,3.77,12.627,6.307,12.627s4.606-4.314,4.606-9.632a11.42,11.42,0,0,0-4.606-9.628C263.446,119.809,259.6,121.736,259.6,128.369Z" transform="translate(-241.577 -74.399)"/><path class="f" d="M290.949,94.267c-17.865,0-25.764,12.519-25.764,31.187v23.381c0,16.264,18.789,30.171,24.726,30.171s26.8-16.262,26.8-31.667V125.454C316.711,106.786,308.814,94.267,290.949,94.267Z" transform="translate(-239.895 -82.455)"/><path class="e" d="M316.924,139.171l1.608-13.623c0-18.672-9.505-32.583-27.371-32.583s-26.682,13.911-26.682,32.583l.918,16.618a17.459,17.459,0,0,0,1.931-8.831c-.429-11.986,7.958-13.056,17.731-14.922,15.407-2.943,19.738-12.182,19.738-12.182s5.048,1.711,8.276,9.239c2.086,4.868,2.572,12.325,2.411,15.374S316.924,139.171,316.924,139.171Z" transform="translate(-240.107 -82.847)"/><g transform="translate(23.128 42.701)"><path d="M275.929,118.009c-6.914,0-11.235,2.57-11.235,5.3,0,4.332,1.582,11.367,8.445,12.2,6.642.8,15.309-1.605,15.309-12.677C288.448,120.256,282.843,118.009,275.929,118.009Zm-2.3,16.245c-5.875-.71-7.227-6.733-7.227-10.441,0-2.335,3.7-4.535,9.616-4.535s10.718,1.924,10.718,4.12C286.74,132.881,279.321,134.941,273.633,134.254Z" transform="translate(-263.171 -118.009)"/><path d="M287.53,124.959a2.376,2.376,0,0,0-2.606-1.687c-1.562,0-1.961,1.85-1.961,1.85l-.826-4.875a4.2,4.2,0,0,0,1.9.981,7.549,7.549,0,0,0,2.091,0,3.075,3.075,0,0,0,1.4-.981Z" transform="translate(-257.92 -117.335)"/><path d="M266.01,127.467s-2.487-.177-2.487-1.452v-3.842c0-2.006,2.487-1.367,2.487-1.367Z" transform="translate(-263.523 -117.196)"/><path d="M285.427,122.825c0,11.072,8.666,13.48,15.308,12.677,6.864-.83,8.444-7.865,8.444-12.2,0-2.727-4.321-5.3-11.234-5.3S285.427,120.256,285.427,122.825Zm1.71.572c0-2.2,4.8-4.12,10.715-4.12s9.616,2.2,9.616,4.535c0,3.708-1.35,9.73-7.227,10.441C294.556,134.941,287.137,132.881,287.137,123.4Z" transform="translate(-256.93 -118.009)"/><path d="M302.942,127.467s2.488-.177,2.488-1.452v-3.842c0-2.006-2.488-1.367-2.488-1.367Z" transform="translate(-251.658 -117.196)"/></g></g></g></g></g><g transform="translate(310 -182.296)"><g transform="translate(943.342 2898.296)"><g transform="translate(0 29.512)"><g transform="translate(0 0)"><ellipse class="g" cx="30.771" cy="30.127" rx="30.771" ry="30.127" transform="matrix(0.022, -1, 1, 0.022, 4.55, 61.528)"/><path class="h" d="M325.45,293.15c0,17-13.489,30.786-30.127,30.786S265.2,310.153,265.2,293.15s13.488-30.786,30.127-30.786S325.45,276.147,325.45,293.15Z" transform="translate(-262.467 -261.731)"/><ellipse class="i" cx="30.771" cy="30.127" rx="30.771" ry="30.127" transform="matrix(0.022, -1, 1, 0.022, 0, 61.528)"/><path class="j" d="M319.12,293.676c0,14.49-11.452,26.236-25.579,26.236s-25.577-11.746-25.577-26.236,11.451-26.236,25.577-26.236S319.12,279.186,319.12,293.676Z" transform="translate(-262.754 -262.257)"/><path class="k" d="M296.93,317.919a26.229,26.229,0,0,1-19.861-43.368,26.23,26.23,0,1,0,36.994,36.993A26.125,26.125,0,0,1,296.93,317.919Z" transform="translate(-262.754 -262.995)"/><g transform="translate(23.361 15.198)"><path class="l" d="M308.421,169.068h12.867c6.251,0,6.94-12.8,0-12.8H308.421" transform="translate(-307.996 -141.734)"/><path class="l" d="M312.072,171.188v-23.5h7.409c6.669,0,7.168,10.727-1.186,10.727" transform="translate(-308.08 -143.855)"/><line class="l" y1="3.831" transform="translate(3.992)"/><line class="l" y1="3.831" transform="translate(8.223)"/><line class="l" y1="3.83" transform="translate(3.992 27.334)"/><line class="l" y1="3.83" transform="translate(8.223 27.334)"/></g></g><g class="m" transform="translate(1.562 5.11)"><path class="n" d="M315.813,273.6l-48.248,36.36a30.891,30.891,0,0,1-3.671-8.887l44.734-33.718A30.149,30.149,0,0,1,315.813,273.6Z" transform="translate(-263.894 -267.359)"/><path class="n" d="M321.148,281.929l-47.343,35.706a30.33,30.33,0,0,1-3.182-3.427L318.909,277.8A28.893,28.893,0,0,1,321.148,281.929Z" transform="translate(-264.592 -268.441)"/><path class="n" d="M325.655,290.521l-44.41,32.647-2.435-1.4,46.251-33.989C325.3,288.679,325.5,289.589,325.655,290.521Z" transform="translate(-266.758 -269.476)"/></g></g><g transform="translate(44.725 43.085)"><g transform="translate(0 0)"><ellipse class="g" cx="24.125" cy="23.62" rx="24.125" ry="23.62" transform="matrix(0.022, -1, 1, 0.022, 3.567, 48.238)"/><path class="h" d="M312.435,286.5a23.625,23.625,0,1,1-23.619-24.136A23.882,23.882,0,0,1,312.435,286.5Z" transform="translate(-263.056 -261.868)"/><ellipse class="i" cx="24.125" cy="23.62" rx="24.125" ry="23.62" transform="matrix(0.022, -1, 1, 0.022, 0, 48.238)"/><path class="j" d="M308.071,288.009a20.059,20.059,0,1,1-20.054-20.569A20.316,20.316,0,0,1,308.071,288.009Z" transform="translate(-263.879 -263.377)"/><path class="k" d="M290.674,308.552a20.563,20.563,0,0,1-15.571-34,20.564,20.564,0,1,0,29,29A20.482,20.482,0,0,1,290.674,308.552Z" transform="translate(-263.879 -265.491)"/><g transform="translate(18.315 11.915)"><path class="o" d="M308.421,166.3h10.088c4.9,0,5.441-10.034,0-10.034H308.421" transform="translate(-308.088 -144.874)"/><path class="o" d="M311.21,166.112V147.685h5.808c5.229,0,5.62,8.41-.93,8.41" transform="translate(-308.08 -144.682)"/><line class="o" y1="3.003" transform="translate(3.13)"/><line class="o" y1="3.003" transform="translate(6.447)"/><line class="o" y1="3.003" transform="translate(3.13 21.43)"/><line class="o" y1="3.003" transform="translate(6.447 21.43)"/></g></g><g class="p" transform="translate(1.225 4.006)"><path class="n" d="M304.6,272.255l-37.826,28.506a24.219,24.219,0,0,1-2.878-6.968l35.071-26.435A23.634,23.634,0,0,1,304.6,272.255Z" transform="translate(-263.894 -267.359)"/><path class="n" d="M310.235,281.037,273.118,309.03a23.773,23.773,0,0,1-2.495-2.687L308.48,277.8A22.647,22.647,0,0,1,310.235,281.037Z" transform="translate(-265.894 -270.462)"/><path class="n" d="M315.537,289.928l-34.817,25.6-1.909-1.1,36.261-26.647C315.261,288.484,315.416,289.2,315.537,289.928Z" transform="translate(-269.361 -273.429)"/></g></g><g transform="translate(49.339)"><g transform="translate(0)"><g transform="translate(0)"><ellipse class="g" cx="18.368" cy="17.983" rx="18.368" ry="17.983" transform="matrix(0.022, -1, 1, 0.022, 2.716, 36.727)"/><path class="h" d="M301.163,280.741a17.988,17.988,0,1,1-17.983-18.377A18.183,18.183,0,0,1,301.163,280.741Z" transform="translate(-263.567 -261.986)"/><ellipse class="i" cx="18.368" cy="17.983" rx="18.368" ry="17.983" transform="matrix(0.022, -1, 1, 0.022, 0, 36.727)"/><path class="j" d="M298.5,283.1a15.273,15.273,0,1,1-15.268-15.661A15.468,15.468,0,0,1,298.5,283.1Z" transform="translate(-264.854 -264.346)"/><path class="k" d="M285.255,300.439A15.656,15.656,0,0,1,273.4,274.552a15.657,15.657,0,1,0,22.082,22.082A15.6,15.6,0,0,1,285.255,300.439Z" transform="translate(-264.854 -267.653)"/></g><g transform="translate(13.945 9.072)"><path class="o" d="M308.421,163.909H316.1c3.732,0,4.143-7.64,0-7.64h-7.681" transform="translate(-308.167 -147.593)"/><path class="o" d="M310.463,161.715v-14.03h4.422c3.981,0,4.279,6.4-.708,6.4" transform="translate(-308.08 -145.399)"/><line class="o" y1="2.287" transform="translate(2.383)"/><line class="o" y1="2.287" transform="translate(4.908)"/><line class="o" y1="2.286" transform="translate(2.383 16.316)"/><line class="o" y1="2.286" transform="translate(4.908 16.316)"/></g></g><g class="q" transform="translate(0.932 3.05)"><path class="n" d="M294.885,271.087l-28.8,21.7a18.441,18.441,0,0,1-2.192-5.3l26.7-20.127A18,18,0,0,1,294.885,271.087Z" transform="translate(-263.894 -267.359)"/><path class="n" d="M300.783,280.264l-28.26,21.313a18.1,18.1,0,0,1-1.9-2.045L299.446,277.8A17.242,17.242,0,0,1,300.783,280.264Z" transform="translate(-267.023 -272.212)"/><path class="n" d="M306.773,289.415,280.264,308.9l-1.454-.837,27.608-20.289C306.563,288.315,306.681,288.859,306.773,289.415Z" transform="translate(-271.616 -276.853)"/></g></g></g><g transform="translate(933 2963.163)"><path class="r" d="M11.329,0h93.424a11.329,11.329,0,0,1,11.329,11.329V75.8a11.328,11.328,0,0,1-11.328,11.328H11.328A11.328,11.328,0,0,1,0,75.8V11.329A11.329,11.329,0,0,1,11.329,0Z"/><path class="s" d="M11.329,0h93.425a11.329,11.329,0,0,1,11.329,11.329V75.8a11.329,11.329,0,0,1-11.329,11.329H11.328A11.328,11.328,0,0,1,0,75.8V11.329A11.329,11.329,0,0,1,11.329,0Z" transform="translate(0 6.008)"/><rect class="t" width="102.721" height="77.147" rx="10.032" transform="translate(6.681 10.997)"/><path class="r" d="M382.742,371.085s-3.177,5.8-7.1,5.8H342.523a7.1,7.1,0,0,1-7.1-7.107v-15.2a12.222,12.222,0,0,1,2.757-7.107h37.463a7.1,7.1,0,0,1,7.1,7.107Z" transform="translate(-260.151 -314.923)"/><path class="u" d="M384.513,366.081a7.1,7.1,0,0,1-7.1,7.108H344.293a7.1,7.1,0,0,1-7.1-7.108v-15.2a7.1,7.1,0,0,1,7.1-7.108h33.122a7.1,7.1,0,0,1,7.1,7.108Z" transform="translate(-260.513 -314.167)"/><path class="v" d="M357.8,359.993a8.825,8.825,0,1,1-8.825-8.825A8.826,8.826,0,0,1,357.8,359.993Z" transform="translate(-260.669 -315.368)"/></g></g><g transform="translate(879 2889)"><text class="w" transform="translate(0 13)"><tspan x="0" y="0">USER</tspan></text></g><g transform="translate(1271 2889)"><text class="w" transform="translate(0 13)"><tspan x="0" y="0">MULTISIG</tspan></text></g><g transform="translate(1214 3267)"><text class="w" transform="translate(95 13)"><tspan x="-95.004" y="0">TRC 20 TOKEN CONTRACT</tspan></text></g><g transform="translate(853 3267)"><text class="w" transform="translate(44 13)"><tspan x="-44.366" y="0">TRX WALLET</tspan></text></g><g transform="translate(184 243.956)"><rect class="x" width="113.541" height="147.912" rx="2.28" transform="translate(1066 2860.132)"/><rect class="y" width="36.844" height="3.494" rx="0.57" transform="translate(1080.834 2889.426)"/><rect class="y" width="36.844" height="3.494" rx="0.57" transform="translate(1080.834 2896.683)"/><rect class="y" width="83.953" height="3.494" rx="0.57" transform="translate(1080.834 2911.167)"/><rect class="y" width="83.953" height="3.494" rx="0.57" transform="translate(1080.834 2918.396)"/><rect class="y" width="83.953" height="3.494" rx="0.57" transform="translate(1080.834 2925.65)"/><rect class="y" width="83.953" height="3.494" rx="0.57" transform="translate(1080.834 2932.906)"/><rect class="y" width="36.844" height="3.494" rx="0.57" transform="translate(1080.834 2940.137)"/><rect class="y" width="36.844" height="3.494" rx="0.57" transform="translate(1080.834 2947.39)"/><rect class="y" width="36.844" height="3.494" rx="0.57" transform="translate(1127.917 2940.137)"/><rect class="y" width="36.844" height="3.494" rx="0.57" transform="translate(1127.917 2947.39)"/><path class="z" d="M143.406,150.375l2.2,1.962a2.688,2.688,0,0,0,1.962.645l2.929-.3a2.687,2.687,0,0,1,2.687,1.989l.645,2.9a2.688,2.688,0,0,0,1.182,1.666l2.553,1.5a2.687,2.687,0,0,1,1.075,3.225l-1.182,2.687a2.472,2.472,0,0,0,0,2.042l1.182,2.687a2.687,2.687,0,0,1-1.075,3.252l-2.553,1.478a2.688,2.688,0,0,0-1.182,1.666l-.645,2.9a2.687,2.687,0,0,1-2.687,1.989l-2.929-.269a2.687,2.687,0,0,0-1.962.618l-2.2,1.962a2.687,2.687,0,0,1-3.413,0l-2.2-1.962a2.687,2.687,0,0,0-1.962-.618l-2.929.269a2.687,2.687,0,0,1-2.687-1.989l-.645-2.9a2.687,2.687,0,0,0-1.182-1.666l-2.553-1.478a2.687,2.687,0,0,1-1.075-3.252l1.182-2.687a2.472,2.472,0,0,0,0-2.042l-1.182-2.687a2.687,2.687,0,0,1,1.075-3.225l2.553-1.5a2.687,2.687,0,0,0,1.182-1.666l.645-2.9a2.687,2.687,0,0,1,2.687-1.989l4.058.4,3.037-2.687A2.687,2.687,0,0,1,143.406,150.375Z" transform="translate(953.204 2815.666)"/><path class="aa" d="M142.846,149.836l2.2,1.962a2.687,2.687,0,0,0,1.962.645l2.929-.3a2.687,2.687,0,0,1,2.687,1.989l.645,2.9a2.687,2.687,0,0,0,1.182,1.666l2.553,1.478a2.687,2.687,0,0,1,1.075,3.252l-1.209,2.687a2.687,2.687,0,0,0,0,2.042l1.209,2.687a2.687,2.687,0,0,1-1.075,3.252l-2.553,1.478a2.687,2.687,0,0,0-1.182,1.666l-.645,2.9a2.687,2.687,0,0,1-2.687,1.989l-2.929-.3a2.687,2.687,0,0,0-1.962.645l-2.2,1.962a2.687,2.687,0,0,1-3.413,0l-2.2-1.962a2.688,2.688,0,0,0-1.962-.645l-2.956.3a2.526,2.526,0,0,1-2.687-1.989l-.645-2.9a2.687,2.687,0,0,0-1.209-1.666l-2.553-1.478a2.687,2.687,0,0,1-1.048-3.252l1.182-2.687a2.472,2.472,0,0,0,0-2.042l-1.182-2.687a2.687,2.687,0,0,1,1.048-3.252l2.553-1.478a2.688,2.688,0,0,0,1.209-1.666l.645-2.9a2.526,2.526,0,0,1,2.687-1.989l4.085.4,3.037-2.687A2.687,2.687,0,0,1,142.846,149.836Z" transform="translate(952.205 2814.755)"/><path class="ab" d="M127.48,160.239l4.6,4.6L143.04,153.87" transform="translate(958.111 2822.572)"/><path class="ac" d="M154.7,170.879l-1.209-2.687a2.687,2.687,0,0,1,0-2.042l1.209-2.687a2.687,2.687,0,0,0-1.075-3.225l-2.553-1.5a2.688,2.688,0,0,1-1.182-1.666l-.645-2.9a2.687,2.687,0,0,0-2.687-1.989l-2.929.3a2.687,2.687,0,0,1-1.962-.645l-2.2-1.962a2.687,2.687,0,0,0-3.413,0l-3.037,2.687-4.085-.4a2.526,2.526,0,0,0-2.687,1.989l-.188.887L149.7,178.672l.322-1.371a2.688,2.688,0,0,1,1.182-1.666l2.553-1.478A2.687,2.687,0,0,0,154.7,170.879Z" transform="translate(955.698 2814.781)"/><path class="ac" d="M227.577,110.59H126.317a6.127,6.127,0,0,0-6.127,6.127V128.81L233.7,242.324V116.717a6.127,6.127,0,0,0-6.127-6.127Z" transform="translate(945.81 2749.543)"/><path class="z" d="M190.159,156.271v-9.728h-2.687v-3.789l-.564-.537h-2.5v-3.225L173.417,128a14.485,14.485,0,0,0-2.687-16.742l-.672-.618h-19.08l-.7.618a14.458,14.458,0,0,0,16.715,23.165l21.983,21.983Zm-31.335-36.6a3.682,3.682,0,0,1-5.187,0,3.628,3.628,0,0,1,0-5.187,3.667,3.667,0,1,1,5.187,5.187Z" transform="translate(989.355 2749.628)"/><path class="ad" d="M149.689,112.836A14.458,14.458,0,0,0,166.4,136l21.983,21.983h6.45v-6.423l-.537-.537h-3.574v-1.908l-.967-.994h-2.849v-3.709l-.564-.537h-2.5V140.65l-10.991-10.991a14.485,14.485,0,0,0-23.165-16.742Zm8.573,8.573a3.682,3.682,0,0,1-5.187,0,3.628,3.628,0,0,1,0-5.187,3.667,3.667,0,0,1,5.187,5.187Z" transform="translate(988.359 2746.383)"/><path class="z" d="M175.932,141.342h2.526L155.723,118.58l-1.263,1.29Z" transform="translate(1003.636 2763.025)"/><path class="ac" d="M187.675,151.059v-1.908l-.967-.994h-2.849v-3.709l-.564-.537h-2.5v-3.225L169.8,129.694a14.458,14.458,0,0,0-22.574-17.28l3.413,3.413a3.709,3.709,0,0,1,4.568.511,3.628,3.628,0,0,1,.484,4.542l36.091,36.091V151.6l-.537-.537Z" transform="translate(991.436 2746.348)"/><path class="ae" d="M.452,8.853h0c-.3-.042-.461-.077-.452-.359l.028-.058a1.647,1.647,0,0,1,.306-.489H.312c0-.01.006-.01.026-.01l.022-.028C.377,7.885.4,7.86.417,7.838H.442a1.5,1.5,0,0,1,.118-.149l.014-.016.012-.016a.035.035,0,0,0,.008-.01L.6,7.632H.632a.774.774,0,0,1,.3-.288A.4.4,0,0,1,1.125,7.2.331.331,0,0,1,1.2,7.129l.018-.015L1.232,7.1a.733.733,0,0,0,.091-.078.328.328,0,0,0,.041,0,.173.173,0,0,1,.1-.062l.01-.023H1.452c0-.006.009-.01.02-.013l.034-.011.024-.01.016-.041.2-.133.009-.008.028-.015a.12.12,0,0,0,.053-.052c.024-.011.045-.023.067-.036a.515.515,0,0,1,.122-.06l.01-.026.032-.006.008-.01L2.093,6.5l.014,0,.018,0,.041-.01-.008,0-.01,0,.032-.016L2.2,6.452l.018-.006.014-.006.016-.008a.157.157,0,0,1,.045-.019l-.01-.031.03-.011a.234.234,0,0,0,.1-.061h.026a.338.338,0,0,1,.126-.078l.03-.013L2.586,6.2h.026l.014,0,.01-.026a.227.227,0,0,1,.085-.01l.01-.016.016-.024.016,0,.03-.013.016-.028.11-.042-.01-.013.016-.008a.157.157,0,0,1,.108-.044l.01-.023.018,0c.01,0,.02,0,.049-.024-.016-.005-.02-.008-.024-.013a.429.429,0,0,0,.055-.024l.012,0a.254.254,0,0,1,.1-.034A1.98,1.98,0,0,1,3.7,5.617l.01-.026a.274.274,0,0,0,.065-.036L3.8,5.538l.037-.024.032,0,.008-.011c.008-.017.014-.026.057-.044a.029.029,0,0,0,.014.018.226.226,0,0,1,.1-.069L4.07,5.4l.03-.013.012,0,.016-.006a.321.321,0,0,0,.1-.065l.026,0,.016,0,.01-.015.012-.015a.064.064,0,0,1,.01-.015l.057-.011,0-.01.006-.016a.113.113,0,0,0,.036.026.191.191,0,0,1,.152-.1l.01-.011L4.58,5.13l.026,0a.12.12,0,0,0,.024,0,.119.119,0,0,1,.024,0,.2.2,0,0,1,.061-.053.117.117,0,0,0,.028,0l.022-.021H4.79a.036.036,0,0,1,.01-.013.034.034,0,0,0,.008-.01.315.315,0,0,0,.166-.078c.049-.018.1-.036.148-.055l.059-.021a.019.019,0,0,1-.01-.013l.02,0c.035,0,.047-.006.1-.042A.037.037,0,0,0,5.294,4.8a.218.218,0,0,1,.112-.031.02.02,0,0,0,0-.011v-.01L5.5,4.715,5.535,4.7l.039-.013.063-.019h.041a.061.061,0,0,1-.01-.026A.347.347,0,0,1,5.8,4.6c.013-.027.039-.037.085-.047a.349.349,0,0,0,.166-.086A.123.123,0,0,0,6.1,4.456l.022,0,.016,0a.081.081,0,0,1,.022,0h.018a.079.079,0,0,1,.014-.018l.01-.015.037-.008.006-.011.006-.011.036-.013.024-.008.014,0,.014,0a.6.6,0,0,1,.085-.02,1.159,1.159,0,0,1,.418-.147l.006-.01.006-.01.006-.01.014-.021c.032-.008.061-.018.093-.029L6.989,4.1l.045-.016.03-.011A2.019,2.019,0,0,1,7.269,4l0-.01.006-.016h.065l.008-.008.008-.008.006-.008a.314.314,0,0,0,.124-.034l.01-.026h.04l-.014.037.01,0,.02,0,.039-.006a.088.088,0,0,0,.01-.026l-.02,0a.033.033,0,0,0-.012,0c.018-.021.046-.024.089-.028l0-.026.053-.018.024-.006.012,0A1.285,1.285,0,0,1,8,3.741l.016-.021.012-.015a1.376,1.376,0,0,0,.306-.1l-.008-.015A3.148,3.148,0,0,1,8.665,3.5l.01-.026.041-.01A1.239,1.239,0,0,1,8.9,3.432V3.424a.017.017,0,0,1,0-.01l.03-.013a.83.83,0,0,1,.25-.081.09.09,0,0,1,.022,0l.01-.024.066-.015.015,0,.011,0a.785.785,0,0,1,.141-.026.021.021,0,0,1,0-.01l0-.013a.887.887,0,0,0,.156-.037l.012,0a.867.867,0,0,1,.217-.047l.01-.013A.064.064,0,0,0,9.862,3.1a.409.409,0,0,1,.126-.018,1.429,1.429,0,0,1,.475-.152l0,.013v.011a.063.063,0,0,0,.018-.028l.01-.023.014,0a.718.718,0,0,1,.13-.023h.012a.036.036,0,0,0,.014,0,.329.329,0,0,1,.183-.06l.01-.024a.379.379,0,0,0,.059.013l.008-.01.008-.008a.319.319,0,0,0,.057-.015l.016,0,.032-.011a.432.432,0,0,1,.138-.028h.014l0-.006.024-.011.027,0,.006-.015,0-.011a.06.06,0,0,0,.026,0,.241.241,0,0,0,.071-.016.274.274,0,0,1,.077-.016.079.079,0,0,1,.03,0l.014-.02.016,0,.016,0,.028.016,0-.01.01-.016.116-.021.014,0a.04.04,0,0,0,.014,0,.081.081,0,0,1,.022,0l.014,0a.04.04,0,0,0,.014,0,.081.081,0,0,1,.022,0l.006-.01a.068.068,0,0,1,.014-.018c.115-.022.261-.064.363-.1l.043-.011a1.021,1.021,0,0,1,.174-.178l.02-.018a1.446,1.446,0,0,0,.156-.144h.026a.717.717,0,0,1,.274-.178,1.688,1.688,0,0,1,.4-.246l.012-.026c.023,0,.079-.014.089-.034s0-.018-.006-.024a1.11,1.11,0,0,0,.256-.136l.028-.008.032-.01.02-.006.006-.015,0-.01h.028a1.342,1.342,0,0,1,.276-.152A4,4,0,0,1,14.59.965L14.6.942l.039-.019.014-.006.014-.007a1.8,1.8,0,0,1,.315-.126l0-.01a.081.081,0,0,0,.006-.014l.03-.008L15.08.735l0-.01,0-.008a.38.38,0,0,1,.137-.043A.1.1,0,0,0,15.229.66l0-.01c.075-.025.158-.057.264-.1l.028-.011.022-.01a2.523,2.523,0,0,1,.446-.16V.349h0l.012,0,.014,0,.018,0a.87.87,0,0,0,.29-.1h0l.01,0A6,6,0,0,1,17.677,0,1.364,1.364,0,0,1,18.2.086c.085.068.085.068.114.079h0l-.006.009-.006.015h.026l0,.013,0,.009c.095.135-.024.352-.1.5L18.162.8a2.17,2.17,0,0,1-.442.489c-.032.032-.071.07-.108.106l-.028.027-.036.032-.018.016c-.031.027-.078.07-.108.1.15,0,.15,0,.773-.065l.282-.108.069-.019a.626.626,0,0,1,.152-.031c.06,0,.087.035.087.115h0l-.01.005a.048.048,0,0,1-.014.008c.1,0,.2,0,.292,0s.2,0,.3,0c.122,0,.245,0,.369,0a5.077,5.077,0,0,1,1.746.219l.034.028c.04.031.058.045.085.045a.291.291,0,0,0,.069-.014l.016,0,.012,0a.307.307,0,0,0,.035-.011l.024-.006.014,0,.073,0,.071,0a.276.276,0,0,1,.014.126.5.5,0,0,0,.075-.036.346.346,0,0,1,.152-.055l.028-.023.032-.024.016.007a1.247,1.247,0,0,1,.217-.1l.022-.008.02-.006a.574.574,0,0,0,.213-.1c.079.023.124.055.132.092.024.1-.186.242-.324.338-.054.036-.09.061-.119.083a.023.023,0,0,0,0,.016.276.276,0,0,0-.126.108c.183-.1.363-.2.546-.316l.026-.015c.126-.078.268-.162.473-.28l-.627-.1c-.308-.039-.637-.078-.909-.108-.5-.057-.594-.072-.606-.076-.044-.066-.051-.125.043-.235A5.751,5.751,0,0,1,22.3.932h.016c.108,0,.211,0,.3-.008C23.33.911,23.685.908,23.869.906A.949.949,0,0,0,24.076.9c.093,0,.154,0,.2,0l.061,0A.379.379,0,0,0,24.4.9h.3a14.005,14.005,0,0,1,1.755.036h.081l.1,0c.081,0,.16,0,.235-.008l-.01.024h.073c.079,0,.155,0,.234.006l.088,0c.053,0,.195.01.351.01.107,0,.167,0,.221-.006l-.01.026c.014,0,.016-.008.02-.021l.02,0,.012,0h.026a.138.138,0,0,0,.039-.006.05.05,0,0,0,0,.024l.028,0h.073c.152,0,.31.011.449.02l.038,0,.028,0c.133.01.308.021.477.021l.108.008c.322.027.668.053,1.024.058h0l-.008.01-.006.015.022,0c.021,0,.047,0,.075,0,.058,0,.095.01.11.029l.008-.01.012-.014.049,0,.077.006.018,0,.045,0h.017c.078.006.151.012.259.015a.371.371,0,0,0,.168.019h.1c.089,0,.183,0,.189.047a.223.223,0,0,1,.144-.029,3.035,3.035,0,0,1,.312.024l.018,0,.016,0,.051,0a1.627,1.627,0,0,0,.18.015l-.049.026c.02,0,.04-.008.059-.013.351.013,1.323.086,1.414.1l-.014,0-.025.013.008.007.049-.005h.011l.021,0a.111.111,0,0,1,.057.019l.008-.007.017-.014c.039,0,.081.006.12.008a.034.034,0,0,1-.018.013c-.016.007-.018.008-.02.013a.044.044,0,0,1,.018,0l.026,0,.065-.013.02,0-.006.02.009,0,.046,0,.037,0,.032,0a.09.09,0,0,0,0,.023,1.217,1.217,0,0,1,.256-.024h.018l.041,0a.305.305,0,0,0,.039,0l-.018.044-.012.029a.219.219,0,0,0-.01.028L34.21,1.5l-.006.013-.016,0c-.039,0-.079.008-.116.01l-.014,0-.01.015a.161.161,0,0,0-.071-.011c-.02,0-.039,0-.057,0l-.022,0-.012,0a.031.031,0,0,0-.014,0l-.215-.011-.012,0-.006.008-.014.018.047.007c.033,0,.067.01.1.013l.01-.024h.073c.006.013.006.013.043.024s.067,0,.1,0c-.008.018-.06.024-.168.024-.259,0-.911-.048-1.955-.126L31.8,1.467l-.483-.036-.6-.044L30.34,1.36c-2.09-.117-3.611-.184-4.929-.217-1.132,0-1.132,0-2.759.023-.016.006-.032.011-.047.016l-.014,0c.187.017.33.037.456.056l.029,0c.089.013.176.024.268.036l0,.015a.02.02,0,0,0,0,.009,2.072,2.072,0,0,1,.361.031,1.161,1.161,0,0,1,.325-.079.124.124,0,0,1,.095.031c.025.027.028.072.008.138.067.01.138.023.209.036l.02,0,.016,0,.059.01c.071.013.148.024.223.034a.14.14,0,0,0-.01.028.02.02,0,0,0,.017-.011h.011a.131.131,0,0,1,.031,0l.024,0,.016,0,.018,0,.026,0c.039.01.087.019.148.031l.089.021.024,0,.018,0a9.972,9.972,0,0,1,1.181.325l-.012.029a.031.031,0,0,1,.012,0,.06.06,0,0,0,.039-.015l0,.012,0,.011a.97.97,0,0,1,.684.536c-.006.247-.074.39-.2.426l0,.01-.006.014-.237.079-.036.013-.11.036a7.637,7.637,0,0,1-1.667.17l-.081-.008a1.531,1.531,0,0,1-1.1-.376c-.219-.35-.158-.712.211-1.251l-.03,0-.012,0-.014,0-.024,0L23.6,1.6l-.44.223-.071.036c-.006.015-.008.019-.01.026a.863.863,0,0,0-.177.1l-.03.019a.788.788,0,0,1-.193.11.257.257,0,0,1-.077.066.175.175,0,0,0-.063.055l-.126.052v.016l-.034.011-.021.007-.032.011-.008.024a.947.947,0,0,0-.249.121l-.055.006c-.039,0-.079.01-.118.013-.132-.107-.036-.243.087-.414l.012-.018h.026V2.059c0-.008,0-.011,0-.014a2.213,2.213,0,0,1-.235.11c-.006.015-.008.019-.01.026h-.04a.05.05,0,0,0-.01.016.092.092,0,0,1-.039.006l-.01.026q-.075.03-.168.074l-.047.021a1.923,1.923,0,0,1-.316.129c-.072,0-.11,0-.148,0a.167.167,0,0,1,.059-.259l-.01,0-.02,0q-.18.056-.343.112l-.075.026-.087.029c-.144.049-.278.092-.414.134a1.136,1.136,0,0,1-.219.021c-.1,0-.16-.019-.185-.058s0-.145.095-.272l.01-.006a.127.127,0,0,0,.051-.063c-.219.089-.452.171-.708.254l-.045.015-.055.019-.032.01-.162.057L18.8,2.48l-.012,0-.014,0-.021.005a1.877,1.877,0,0,1-.393.072.191.191,0,0,1-.152-.049c-.043-.04-.041-.125.008-.251.022-.028.041-.052.057-.07.029-.034.041-.048.043-.06l-.049.021-.047.019-.029.013-.022.009-.1.042-.018.008a3.221,3.221,0,0,1-1.065.338.274.274,0,0,1-.069-.031l-.014-.008-.02-.013a.113.113,0,0,0-.032-.015l.008-.016a.066.066,0,0,1,.008-.021.058.058,0,0,1-.028,0c.079-.236.413-.439.681-.6.047-.029.083-.052.114-.073l.03-.018-.022,0c-.121,0-.385.025-.562.049a3.835,3.835,0,0,0-.347.282h-.028l-.01.024h-.026l-.087.086a.834.834,0,0,0-.232.145l-.02.017-.012.01a1.089,1.089,0,0,1-.193.129,2.189,2.189,0,0,1-.546.377,2.117,2.117,0,0,1-.485.317l-.01.024a.1.1,0,0,1-.026,0,.33.33,0,0,1-.145.1l-.028.032a.3.3,0,0,0-.061.027l-.018.01-.032.015-.039.019a2.342,2.342,0,0,1-.4.253,1.257,1.257,0,0,0-.325.21c-.794.426-1.4.748-2.028,1.033a.815.815,0,0,1-.083.042l-.028.013-.032.018c-.03.015-.057.029-.085.045-.355.159-.6.264-.765.337l-.03.013-.093.04c-.071.031-.124.055-.168.076l-.012,0-.047.01-.037.006A7.634,7.634,0,0,1,9.4,6.072l-.02.008-.018.006c-.045.016-.077.029-.1.039l-.034.013,0,.011-.006.014a1,1,0,0,0-.162.05c-.055.019-.116.04-.174.058l-.01.023-.181.071-.063.024-.059.023-.063.024-.059.023-.062.024c-.907.355-1.844.721-2.747,1.049l-.01.026A28.277,28.277,0,0,1,.975,8.841C.811,8.853.811,8.853.452,8.853ZM1.016,7.5l-.079.078c-.292.282-.655.632-.641.968a1.21,1.21,0,0,0,.46.076A5.839,5.839,0,0,0,1.9,8.455l.063-.013c.036-.006.069-.013.1-.021l.071-.015c.676-.161,1.366-.358,2.049-.584a4.583,4.583,0,0,0,.85-.291c1.3-.456,1.3-.456,1.357-.486.574-.219,1.016-.388,1.351-.518L8.1,6.391c.371-.144.56-.216.631-.24l.01-.026a.024.024,0,0,1,.012,0l.014,0,.024-.008.012,0,.091-.032.014,0,.024-.009A3.559,3.559,0,0,0,9.3,5.912a.07.07,0,0,0,.024.008.094.094,0,0,0,.014-.015l.01-.011.217-.087.215-.086c.035-.018.23-.1.389-.168l.089-.038c.193-.082.373-.158.392-.171a.582.582,0,0,0,.073-.028l.026-.01a.366.366,0,0,1,.055-.016l.006-.02.065-.027.016-.006.039-.018a1.124,1.124,0,0,1,.213-.076.2.2,0,0,1,.018-.026l.014,0,.049-.013c.246-.124.544-.265.911-.431a.281.281,0,0,0,.057-.021.267.267,0,0,1,.095-.04l.008-.023a1.5,1.5,0,0,0,.256-.116l.018-.01a1.57,1.57,0,0,1,.327-.147l-.01-.008a.078.078,0,0,1,.036-.014l.028-.008.008-.024.012-.006A.265.265,0,0,0,13,4.235l.032-.016.022-.011a1.093,1.093,0,0,1,.28-.12l.01-.026A.9.9,0,0,0,13.472,4c.047-.024.1-.053.17-.084l.006-.015,0-.013a1.077,1.077,0,0,0,.272-.146l.01-.006a1.655,1.655,0,0,1,.3-.162,1.4,1.4,0,0,1,.335-.206l.01-.024h.04a.954.954,0,0,1,.327-.2,1.348,1.348,0,0,1,.406-.27.15.15,0,0,1,.037-.032l.012-.009.014-.01a.152.152,0,0,0,.063-.053l.016,0,.02-.026h.026a2.073,2.073,0,0,1,.367-.256.9.9,0,0,1,.292-.22l.016-.01a1.067,1.067,0,0,0,.3-.23h.026a1.334,1.334,0,0,1,.191-.147.172.172,0,0,0-.03,0c-.043,0-.126.01-.526.057l-.2.024c-.654.1-1.389.222-2.183.359a.289.289,0,0,1-.052.134c0,.015,0,.018.011.021a.1.1,0,0,1-.065.037.105.105,0,0,1-.039.065.148.148,0,0,0-.018.016c-.239.078-.477.154-.716.23-.03,0-.061.011-.093.019a2.632,2.632,0,0,1-.5.068c-.2,0-.3-.062-.3-.191-.511.134-1.018.276-1.58.434l-.284.079-.185.052c-.315.1-.749.24-1.2.388-.4.133-.659.215-.692.223l-.01.026A28.883,28.883,0,0,0,3.7,5.8l-1.012.563c-.014.013-.026.026-.037.039a3.572,3.572,0,0,0-.635.387h-.04a.031.031,0,0,0-.008.008.038.038,0,0,1-.008.008.035.035,0,0,1-.008.01l-.012.013-.11.073a4.985,4.985,0,0,0-.785.592ZM24.04,1.677h0c-.091.006-.1.015-.125.058l-.011.017-.018.028c-.241.424-.307.649-.1.949a1.255,1.255,0,0,0,.27.175,3.506,3.506,0,0,0,.963.123,6.4,6.4,0,0,0,1.343-.159c.074-.022.129-.042.172-.058l.019-.007.02-.008a.741.741,0,0,1,.083-.031c.008-.019.016-.039.024-.062a.032.032,0,0,1-.016-.008.091.091,0,0,0,.006-.037.148.148,0,0,1,0-.039h-.028c-.032-.218-.416-.372-.67-.474l-.016-.007-.114-.047c-.619-.173-1.234-.3-1.807-.413Zm-11.511.685h0c-.006.013-.012.026-.016.037.014,0,.016-.007.023-.024l.022,0,.03,0a.473.473,0,0,0,.252-.071c.373-.071.744-.144,1.12-.219.048-.014.089-.023.122-.031l.014,0,.039-.008.032-.006a.752.752,0,0,0,.093-.021.054.054,0,0,0,0,.016h.04L14.312,2a3.95,3.95,0,0,0,.4-.07l.013,0a3.444,3.444,0,0,1,.617-.086c.022,0,.045,0,.067,0l.022-.024c.466-.068,1.018-.144,1.586-.2.024-.01.047-.019.071-.031l.043-.037a3.355,3.355,0,0,0,.959-1.1c-.01-.108-.158-.172-.428-.183l.008-.023-.016,0c-.015,0-.015.013-.015.016l-.024,0,.006-.013,0-.009-.016,0-.025,0-.012.016A5.829,5.829,0,0,0,16.391.45c-.475.145-.945.333-1.341.5A21.776,21.776,0,0,0,13.1,1.973l-.034.037a1.9,1.9,0,0,0-.511.351Zm6.314-.644v0c-.284,0-.284,0-.678.031l-.126.066a3.44,3.44,0,0,0-.809.511,8.737,8.737,0,0,0,.932-.342c.223-.091.452-.185.681-.265Zm.527-.008c-.126,0-.254,0-.381,0a.1.1,0,0,1,.039.087c-.006.095-.16.2-.3.295l-.012.009c-.11.074-.213.143-.235.2H18.5a.033.033,0,0,0,.013,0,1.757,1.757,0,0,0,.4-.084l.011,0,.012,0c.041-.015.083-.026.12-.036l.02,0c.184-.072.429-.164.68-.238l.01-.026v0l.011,0a2.017,2.017,0,0,0,.4-.121l.061-.021.084-.029C20.053,1.721,19.74,1.709,19.37,1.709Zm.7.52,0,.01-.006.015a4,4,0,0,0,.412-.108l.108-.031a5.507,5.507,0,0,0,.633-.22l-.049-.015a1.817,1.817,0,0,0-.491-.1h-.036c.05.072-.177.217-.327.312a.757.757,0,0,0-.146.1l-.041.007a.135.135,0,0,0-.028.028Z" transform="translate(1130.468 2970.435)"/></g><g transform="translate(-641.891 251)"><g transform="translate(1486 2843.523)"><g transform="translate(0 31.659)"><g transform="translate(0 0)"><g transform="translate(0)"><g transform="translate(0)"><ellipse class="g" cx="28.537" cy="27.939" rx="28.537" ry="27.939" transform="matrix(0.022, -1, 1, 0.022, 4.22, 57.06)"/><path class="h" d="M321.075,290.914c0,15.769-12.509,28.55-27.939,28.55s-27.94-12.781-27.94-28.55,12.508-28.55,27.94-28.55S321.075,275.146,321.075,290.914Z" transform="translate(-262.665 -261.777)"/><ellipse class="i" cx="28.537" cy="27.939" rx="28.537" ry="27.939" transform="matrix(0.022, -1, 1, 0.022, 0, 57.06)"/><path class="j" d="M315.406,291.771c0,13.438-10.621,24.331-23.721,24.331s-23.72-10.893-23.72-24.331,10.619-24.331,23.72-24.331S315.406,278.333,315.406,291.771Z" transform="translate(-263.132 -262.634)"/><path class="k" d="M294.827,314.77a24.324,24.324,0,0,1-18.419-40.218,24.325,24.325,0,1,0,34.307,34.306A24.229,24.229,0,0,1,294.827,314.77Z" transform="translate(-263.132 -263.834)"/></g></g><path class="af" d="M82.8,49.653l-4-2.829a.834.834,0,0,0-.277-.127L59.391,42.01a.817.817,0,0,0-.987.6.806.806,0,0,0,.015.432c0,.012,0,.026.009.038l9.666,27.063s0,0,0,0v0h0a.816.816,0,0,0,1.43.162L83,50.783A.814.814,0,0,0,82.8,49.653Zm-1.92.641-7.833,3.652,5.235-5.488ZM70.3,54.993,61.135,44.118,76.971,48Zm-.69,1.151-1.218,11.03-7.74-21.66Zm1.253.224,9.3-4.334-10.5,15.21Z" transform="translate(-40.986 -26.844)"/><g class="ag" transform="translate(1.449 4.739)"><path class="n" d="M312.043,273.15,267.3,306.87a28.65,28.65,0,0,1-3.4-8.242l41.485-31.269A27.958,27.958,0,0,1,312.043,273.15Z" transform="translate(-263.894 -267.359)"/><path class="n" d="M317.479,281.629l-43.905,33.113a28.127,28.127,0,0,1-2.951-3.178L315.4,277.8A26.8,26.8,0,0,1,317.479,281.629Z" transform="translate(-265.03 -269.12)"/><path class="n" d="M322.254,290.321,281.069,320.6l-2.259-1.3L321.7,287.777C321.928,288.613,322.111,289.458,322.254,290.321Z" transform="translate(-267.633 -270.805)"/></g></g><g transform="translate(41.317 7.234)"><g transform="translate(0 0)"><g transform="translate(0)"><g transform="translate(0)"><ellipse class="g" cx="23.91" cy="23.41" rx="23.91" ry="23.41" transform="matrix(0.022, -1, 1, 0.022, 3.535, 47.809)"/><path class="h" d="M312.015,286.285a23.415,23.415,0,1,1-23.409-23.921A23.669,23.669,0,0,1,312.015,286.285Z" transform="translate(-263.075 -261.872)"/><ellipse class="i" cx="23.91" cy="23.41" rx="23.91" ry="23.41" transform="matrix(0.022, -1, 1, 0.022, 0, 47.809)"/><path class="j" d="M307.714,287.826a19.881,19.881,0,1,1-19.875-20.386A20.135,20.135,0,0,1,307.714,287.826Z" transform="translate(-263.916 -263.413)"/><path class="k" d="M290.472,308.25a20.381,20.381,0,0,1-15.433-33.7A20.381,20.381,0,1,0,303.784,303.3,20.3,20.3,0,0,1,290.472,308.25Z" transform="translate(-263.916 -265.572)"/></g></g></g><path class="af" d="M78.845,48.41l-3.353-2.37a.7.7,0,0,0-.232-.106L59.227,42.006a.684.684,0,0,0-.827.5.675.675,0,0,0,.013.362c0,.01,0,.021.008.032l8.1,22.675s0,0,0,0v0h0a.684.684,0,0,0,1.2.136l11.292-16.36A.682.682,0,0,0,78.845,48.41Zm-1.609.537-6.563,3.06,4.386-4.6Zm-8.87,3.937-7.677-9.112,13.268,3.25Zm-.578.964-1.02,9.242L60.283,44.942Zm1.05.187,7.79-3.631-8.8,12.744Z" transform="translate(-43.806 -29.299)"/><g class="ah" transform="translate(1.214 3.97)"><path class="n" d="M304.237,272.211l-37.49,28.253a24.006,24.006,0,0,1-2.853-6.906l34.759-26.2A23.428,23.428,0,0,1,304.237,272.211Z" transform="translate(-263.894 -267.359)"/><path class="n" d="M309.883,281.008,273.1,308.752a23.568,23.568,0,0,1-2.473-2.663l37.52-28.292A22.449,22.449,0,0,1,309.883,281.008Z" transform="translate(-265.936 -270.527)"/><path class="n" d="M315.21,289.909,280.7,315.277l-1.892-1.089,35.938-26.411C314.937,288.478,315.09,289.185,315.21,289.909Z" transform="translate(-269.445 -273.556)"/></g></g></g><g transform="translate(42.084 0)"><g transform="translate(0)"><g transform="translate(0 0)"><ellipse class="g" cx="18.18" cy="17.799" rx="18.18" ry="17.799" transform="matrix(0.022, -1, 1, 0.022, 2.688, 36.35)"/><path class="h" d="M300.794,280.552A17.8,17.8,0,1,1,283,262.364,18,18,0,0,1,300.794,280.552Z" transform="translate(-263.584 -261.99)"/><ellipse class="i" cx="18.18" cy="17.799" rx="18.18" ry="17.799" transform="matrix(0.022, -1, 1, 0.022, 0, 36.35)"/><path class="j" d="M298.187,282.94a15.116,15.116,0,1,1-15.112-15.5A15.309,15.309,0,0,1,298.187,282.94Z" transform="translate(-264.886 -264.378)"/><path class="k" d="M285.077,300.173a15.5,15.5,0,0,1-11.734-25.621A15.5,15.5,0,1,0,295.2,296.407,15.435,15.435,0,0,1,285.077,300.173Z" transform="translate(-264.886 -267.724)"/></g></g><path class="af" d="M73.94,46.871l-2.549-1.8a.531.531,0,0,0-.177-.081L59.024,42a.52.52,0,0,0-.629.381.513.513,0,0,0,.01.275c0,.008,0,.016.006.024l6.158,17.24v0h0a.52.52,0,0,0,.911.1L74.067,47.59A.519.519,0,0,0,73.94,46.871Zm-1.223.408-4.99,2.326,3.335-3.5Zm-6.744,2.993-5.837-6.928,10.088,2.471Zm-.439.733-.776,7.027-4.931-13.8Zm.8.142,5.923-2.761-6.688,9.69Z" transform="translate(-47.299 -32.34)"/><g class="ai" transform="translate(0.923 3.019)"><path class="n" d="M294.567,271.048l-28.5,21.481a18.252,18.252,0,0,1-2.169-5.25l26.428-19.92A17.811,17.811,0,0,1,294.567,271.048Z" transform="translate(-263.894 -267.359)"/><path class="n" d="M300.473,280.238,272.5,301.333a17.916,17.916,0,0,1-1.88-2.024L299.15,277.8A17.072,17.072,0,0,1,300.473,280.238Z" transform="translate(-267.06 -272.27)"/><path class="n" d="M306.486,289.4l-26.237,19.288-1.439-.828,27.325-20.081C306.278,288.31,306.395,288.848,306.486,289.4Z" transform="translate(-271.69 -276.965)"/></g></g></g><g transform="translate(1476.891 2908.39)"><path class="r" d="M11.329,0h93.424a11.329,11.329,0,0,1,11.329,11.329V75.8a11.328,11.328,0,0,1-11.328,11.328H11.328A11.328,11.328,0,0,1,0,75.8V11.329A11.329,11.329,0,0,1,11.329,0Z"/><path class="s" d="M11.329,0h93.425a11.329,11.329,0,0,1,11.329,11.329V75.8a11.329,11.329,0,0,1-11.329,11.329H11.328A11.328,11.328,0,0,1,0,75.8V11.329A11.329,11.329,0,0,1,11.329,0Z" transform="translate(0 6.008)"/><rect class="t" width="102.721" height="77.147" rx="10.032" transform="translate(6.681 10.997)"/><path class="r" d="M382.742,371.085s-3.177,5.8-7.1,5.8H342.523a7.1,7.1,0,0,1-7.1-7.107v-15.2a12.222,12.222,0,0,1,2.757-7.107h37.463a7.1,7.1,0,0,1,7.1,7.107Z" transform="translate(-260.151 -314.923)"/><path class="u" d="M384.513,366.081a7.1,7.1,0,0,1-7.1,7.108H344.293a7.1,7.1,0,0,1-7.1-7.108v-15.2a7.1,7.1,0,0,1,7.1-7.108h33.122a7.1,7.1,0,0,1,7.1,7.108Z" transform="translate(-260.513 -314.167)"/><path class="v" d="M357.8,359.993a8.825,8.825,0,1,1-8.825-8.825A8.826,8.826,0,0,1,357.8,359.993Z" transform="translate(-260.669 -315.368)"/></g></g><g transform="translate(1578 2881)"><text class="w" transform="translate(0 13)"><tspan x="0" y="0">CUSTODIAN</tspan></text></g><g transform="translate(1578 3031)"><text class="w" transform="translate(0 13)"><tspan x="0" y="0">CUSTODIAN</tspan></text></g><g transform="translate(1578 3181)"><text class="w" transform="translate(0 13)"><tspan x="0" y="0">CUSTODIAN</tspan></text></g><g transform="translate(-1039.512 -6362.56)"><path class="n" d="M2660.985,9159.015l-38.648,12.38v14.09h1.5v37.605h-2.281v3.436h-4.075v3.742h88.343V9225.8h-4.49V9222.8h-1.855v-36.832h2.464v-5.356h4.134v-4.092h-4.743v-5.863Z" transform="translate(-1.239 -2.173)"/><g transform="translate(2615.512 9155.56)"><g transform="translate(0 0)"><g transform="translate(4.46 23.782)"><rect class="aj" width="10.98" height="41.157" transform="translate(2.379 2.745)"/><rect class="ak" width="15.737" height="5.49"/><rect class="ak" width="15.737" height="5.49" transform="translate(0 41.157)"/><g transform="translate(4.189 8.632)"><rect class="al" width="2.562" height="29.383" rx="1.281"/><rect class="al" width="2.562" height="29.383" rx="1.281" transform="translate(4.797)"/></g></g><g transform="translate(26.238 23.782)"><rect class="aj" width="10.98" height="41.157" transform="translate(2.379 2.745)"/><rect class="ak" width="15.737" height="5.49"/><rect class="ak" width="15.737" height="5.49" transform="translate(0 41.157)"/><g transform="translate(4.189 8.632)"><rect class="al" width="2.562" height="29.383" rx="1.281"/><rect class="al" width="2.562" height="29.383" rx="1.281" transform="translate(4.797)"/></g></g><g transform="translate(48.024 23.782)"><rect class="aj" width="10.98" height="41.157" transform="translate(2.379 2.745)"/><rect class="ak" width="15.737" height="5.49"/><rect class="ak" width="15.737" height="5.49" transform="translate(0 41.157)"/><g transform="translate(4.189 8.632)"><rect class="al" width="2.562" height="29.383" rx="1.281"/><rect class="al" width="2.562" height="29.383" rx="1.281" transform="translate(4.797)"/></g></g><g transform="translate(69.803 23.782)"><rect class="aj" width="10.98" height="41.157" transform="translate(2.379 2.745)"/><rect class="ak" width="15.737" height="5.49"/><rect class="ak" width="15.737" height="5.49" transform="translate(0 41.157)"/><g transform="translate(4.189 8.632)"><rect class="al" width="2.562" height="29.383" rx="1.281"/><rect class="al" width="2.562" height="29.383" rx="1.281" transform="translate(4.797)"/></g></g><rect class="aj" width="90" height="5.141" transform="translate(0 18.352)"/><rect class="al" width="90" height="1.642" transform="translate(0 18.347)"/><rect class="al" width="90" height="5.141" transform="translate(0 67.859)"/><rect class="aj" width="90" height="1.642" transform="translate(0 67.859)"/><path class="aj" d="M668.934,365.892h-81.08v-5.512a.089.089,0,0,1,.062-.085l40.452-12.644a.087.087,0,0,1,.053,0l40.452,12.644a.089.089,0,0,1,.062.085Z" transform="translate(-583.394 -347.647)"/><path class="al" d="M679.288,368.212H628v-3.531l25.642-8.022,25.642,8.022Z" transform="translate(-608.646 -353.315)"/></g></g></g><g transform="translate(-1039.512 -6212.56)"><path class="n" d="M2660.985,9159.015l-38.648,12.38v14.09h1.5v37.605h-2.281v3.436h-4.075v3.742h88.343V9225.8h-4.49V9222.8h-1.855v-36.832h2.464v-5.356h4.134v-4.092h-4.743v-5.863Z" transform="translate(-1.239 -2.173)"/><g transform="translate(2615.512 9155.56)"><g transform="translate(0 0)"><g transform="translate(4.46 23.782)"><rect class="aj" width="10.98" height="41.157" transform="translate(2.379 2.745)"/><rect class="ak" width="15.737" height="5.49"/><rect class="ak" width="15.737" height="5.49" transform="translate(0 41.157)"/><g transform="translate(4.189 8.632)"><rect class="al" width="2.562" height="29.383" rx="1.281"/><rect class="al" width="2.562" height="29.383" rx="1.281" transform="translate(4.797)"/></g></g><g transform="translate(26.238 23.782)"><rect class="aj" width="10.98" height="41.157" transform="translate(2.379 2.745)"/><rect class="ak" width="15.737" height="5.49"/><rect class="ak" width="15.737" height="5.49" transform="translate(0 41.157)"/><g transform="translate(4.189 8.632)"><rect class="al" width="2.562" height="29.383" rx="1.281"/><rect class="al" width="2.562" height="29.383" rx="1.281" transform="translate(4.797)"/></g></g><g transform="translate(48.024 23.782)"><rect class="aj" width="10.98" height="41.157" transform="translate(2.379 2.745)"/><rect class="ak" width="15.737" height="5.49"/><rect class="ak" width="15.737" height="5.49" transform="translate(0 41.157)"/><g transform="translate(4.189 8.632)"><rect class="al" width="2.562" height="29.383" rx="1.281"/><rect class="al" width="2.562" height="29.383" rx="1.281" transform="translate(4.797)"/></g></g><g transform="translate(69.803 23.782)"><rect class="aj" width="10.98" height="41.157" transform="translate(2.379 2.745)"/><rect class="ak" width="15.737" height="5.49"/><rect class="ak" width="15.737" height="5.49" transform="translate(0 41.157)"/><g transform="translate(4.189 8.632)"><rect class="al" width="2.562" height="29.383" rx="1.281"/><rect class="al" width="2.562" height="29.383" rx="1.281" transform="translate(4.797)"/></g></g><rect class="aj" width="90" height="5.141" transform="translate(0 18.352)"/><rect class="al" width="90" height="1.642" transform="translate(0 18.347)"/><rect class="al" width="90" height="5.141" transform="translate(0 67.859)"/><rect class="aj" width="90" height="1.642" transform="translate(0 67.859)"/><path class="aj" d="M668.934,365.892h-81.08v-5.512a.089.089,0,0,1,.062-.085l40.452-12.644a.087.087,0,0,1,.053,0l40.452,12.644a.089.089,0,0,1,.062.085Z" transform="translate(-583.394 -347.647)"/><path class="al" d="M679.288,368.212H628v-3.531l25.642-8.022,25.642,8.022Z" transform="translate(-608.646 -353.315)"/></g></g></g><g transform="translate(-1039.512 -6062.56)"><path class="n" d="M2660.985,9159.015l-38.648,12.38v14.09h1.5v37.605h-2.281v3.436h-4.075v3.742h88.343V9225.8h-4.49V9222.8h-1.855v-36.832h2.464v-5.356h4.134v-4.092h-4.743v-5.863Z" transform="translate(-1.239 -2.173)"/><g transform="translate(2615.512 9155.56)"><g transform="translate(0 0)"><g transform="translate(4.46 23.782)"><rect class="aj" width="10.98" height="41.157" transform="translate(2.379 2.745)"/><rect class="ak" width="15.737" height="5.49"/><rect class="ak" width="15.737" height="5.49" transform="translate(0 41.157)"/><g transform="translate(4.189 8.632)"><rect class="al" width="2.562" height="29.383" rx="1.281"/><rect class="al" width="2.562" height="29.383" rx="1.281" transform="translate(4.797)"/></g></g><g transform="translate(26.238 23.782)"><rect class="aj" width="10.98" height="41.157" transform="translate(2.379 2.745)"/><rect class="ak" width="15.737" height="5.49"/><rect class="ak" width="15.737" height="5.49" transform="translate(0 41.157)"/><g transform="translate(4.189 8.632)"><rect class="al" width="2.562" height="29.383" rx="1.281"/><rect class="al" width="2.562" height="29.383" rx="1.281" transform="translate(4.797)"/></g></g><g transform="translate(48.024 23.782)"><rect class="aj" width="10.98" height="41.157" transform="translate(2.379 2.745)"/><rect class="ak" width="15.737" height="5.49"/><rect class="ak" width="15.737" height="5.49" transform="translate(0 41.157)"/><g transform="translate(4.189 8.632)"><rect class="al" width="2.562" height="29.383" rx="1.281"/><rect class="al" width="2.562" height="29.383" rx="1.281" transform="translate(4.797)"/></g></g><g transform="translate(69.803 23.782)"><rect class="aj" width="10.98" height="41.157" transform="translate(2.379 2.745)"/><rect class="ak" width="15.737" height="5.49"/><rect class="ak" width="15.737" height="5.49" transform="translate(0 41.157)"/><g transform="translate(4.189 8.632)"><rect class="al" width="2.562" height="29.383" rx="1.281"/><rect class="al" width="2.562" height="29.383" rx="1.281" transform="translate(4.797)"/></g></g><rect class="aj" width="90" height="5.141" transform="translate(0 18.352)"/><rect class="al" width="90" height="1.642" transform="translate(0 18.347)"/><rect class="al" width="90" height="5.141" transform="translate(0 67.859)"/><rect class="aj" width="90" height="1.642" transform="translate(0 67.859)"/><path class="aj" d="M668.934,365.892h-81.08v-5.512a.089.089,0,0,1,.062-.085l40.452-12.644a.087.087,0,0,1,.053,0l40.452,12.644a.089.089,0,0,1,.062.085Z" transform="translate(-583.394 -347.647)"/><path class="al" d="M679.288,368.212H628v-3.531l25.642-8.022,25.642,8.022Z" transform="translate(-608.646 -353.315)"/></g></g></g><g transform="translate(0 107)"><g transform="translate(476 -219)"><g transform="translate(-7 8)"><line class="am" x2="190" transform="translate(520.5 2907.5)"/><path class="an" d="M5.5,0,11,11H0Z" transform="translate(721.5 2902) rotate(90)"/><circle class="ao" cx="3.5" cy="3.5" r="3.5" transform="translate(514 2904)"/></g><g transform="translate(20)"><g transform="translate(551 2885)"><text class="ap" transform="translate(0 15)"><tspan x="0" y="0">Amount BTC</tspan></text></g><g transform="translate(551 2926)"><text class="ap" transform="translate(0 15)"><tspan x="0" y="0">+ Address TRX</tspan></text></g></g></g><g transform="translate(-140)"><circle class="an" cx="8.5" cy="8.5" r="8.5" transform="translate(1143 2688)"/><g transform="translate(1149 2689)"><text class="aq" transform="translate(0 12)"><tspan x="0" y="0">1</tspan></text></g></g></g><g transform="translate(0 107)"><g transform="translate(-2 -255)"><g transform="translate(1175 3342) rotate(180)"><line class="am" x2="134.5" transform="translate(4.5 5.5)"/><path class="an" d="M5.5,0,11,11H0Z" transform="translate(150) rotate(90)"/><circle class="ao" cx="3.5" cy="3.5" r="3.5" transform="translate(0 2)"/></g><g transform="translate(1064 3306)"><text class="ap" transform="translate(0 15)"><tspan x="0" y="0">mBTC</tspan></text></g></g><g transform="translate(-8 385)"><circle class="an" cx="8.5" cy="8.5" r="8.5" transform="translate(1143 2688)"/><g transform="translate(1148 2689)"><text class="aq" transform="translate(0 12)"><tspan x="0" y="0">4</tspan></text></g></g></g><g transform="translate(11 107)"><g transform="translate(4210.375 1707.822) rotate(90)"><g transform="translate(1831 6244) rotate(180)"><line class="am" y1="0.375" x2="139.483" transform="translate(576.839 2907.125)"/><path class="an" d="M5.5,0,11,11H0Z" transform="translate(724.548 2902) rotate(90)"/><circle class="ao" cx="3.5" cy="3.5" r="3.5" transform="translate(573.548 2904.232)"/></g><g transform="translate(1117.531 3303.375)"><text class="ap" transform="translate(0 15)"><tspan x="0" y="0">Amount mBTC</tspan></text></g></g><g transform="translate(3570 1785) rotate(90)"><circle class="an" cx="8.5" cy="8.5" r="8.5" transform="translate(1143 2688)"/><g transform="translate(1148 2689)"><text class="aq" transform="translate(0 12)"><tspan x="0" y="0">5</tspan></text></g></g></g><g transform="translate(0 107)"><g transform="matrix(0.875, -0.485, 0.485, 0.875, -1057.23, 883.463)"><g transform="translate(2135.559 6019.574) rotate(180)"><g transform="translate(906.879 2910)"><line class="am" x2="108.797" transform="translate(3.703 5.501)"/><path class="an" d="M5.5,0,11,11H0Z" transform="translate(120) rotate(90)"/><circle class="ao" cx="3.5" cy="3.5" r="3.5" transform="translate(0 1.812)"/></g></g><g transform="translate(1146.744 3074.482)"><text class="ap" transform="translate(0 15)"><tspan x="0" y="0">Sign</tspan></text></g></g><g transform="translate(-964 1423.911) rotate(-34)"><circle class="an" cx="8.5" cy="8.5" r="8.5" transform="translate(1143 2688)"/><g transform="translate(1149 2689)"><text class="aq" transform="translate(0 12)"><tspan x="0" y="0">3</tspan></text></g></g></g><g transform="translate(0 107)"><g transform="translate(1517.313 -320.828) rotate(20)"><g transform="translate(938 2910)"><line class="am" x2="106" transform="translate(6.5 5.5)"/><path class="an" d="M5.5,0,11,11H0Z" transform="translate(120) rotate(90)"/><circle class="ao" cx="3.5" cy="3.5" r="3.5" transform="translate(0 2)"/></g><g transform="translate(982.261 2888.928)"><text class="ap" transform="translate(0 15)"><tspan x="0" y="0" xml:space="preserve"> BTC</tspan></text></g></g><g transform="matrix(0.94, 0.342, -0.342, 0.94, 1266.701, -179.217)"><circle class="an" cx="8.5" cy="8.5" r="8.5" transform="translate(1143.506 2688.236)"/><g transform="translate(1148.245 2688.639)"><text class="aq" transform="translate(0 12)"><tspan x="0" y="0">2</tspan></text></g></g></g></g></svg>