<svg xmlns="http://www.w3.org/2000/svg" width="25" height="25" viewBox="0 0 25 25"><defs><style>.a{fill:#6e7090;}.b{fill:#fff;}</style></defs><g transform="translate(-1417 -4972)"><g transform="translate(-84 -89)"><circle class="a" cx="12.5" cy="12.5" r="12.5" transform="translate(1501 5061)"/></g><g transform="translate(1332.2 4929)"><path class="b" d="M7.8,0a6.084,6.084,0,0,0-6,6.165c0,3.4,6,8.835,6,8.835s6-5.429,6-8.834A6.084,6.084,0,0,0,7.8,0Zm.015,9.914a4.04,4.04,0,0,1-3.984-4.1A4.04,4.04,0,0,1,7.815,1.725,4.039,4.039,0,0,1,11.8,5.819,4.041,4.041,0,0,1,7.815,9.914Z" transform="translate(90 48)"/></g></g></svg>