<svg xmlns="http://www.w3.org/2000/svg" width="80" height="80" viewBox="0 0 80 80"><defs><style>.a{opacity:0.7;}.b{fill:#6e7090;}</style></defs><g class="a" transform="translate(70 -1988.938)"><g transform="translate(-70 2009.554)"><path class="b" d="M11.218,161.65l7.515,3.761v8.41a1.562,1.562,0,0,0,1.561,1.563H36.842a1.562,1.562,0,0,0,1.561-1.563V153.94a9.711,9.711,0,0,0-8.335-9.755c-.124-.023-6.033-.464-8.89-3.322L16.9,136.584a6.2,6.2,0,0,0-4.415-1.832v-12.5a6.244,6.244,0,1,0-12.489,0v21.228A20.319,20.319,0,0,0,11.218,161.65Zm-8.1-39.4a3.122,3.122,0,1,1,6.244,0v13.34a6.253,6.253,0,0,0-1.293,9.833l7.994,8a1.562,1.562,0,0,0,2.208-2.21l-7.994-8a3.127,3.127,0,0,1,1.166-5.157h0a3.116,3.116,0,0,1,3.247.739l4.275,4.279c2.911,2.912,7.155,3.732,10.746,4.217l.018,0a6.558,6.558,0,0,1,5.546,6.647v18.318H21.855v-7.814a1.563,1.563,0,0,0-.863-1.4l-8.378-4.193a17.1,17.1,0,0,1-9.492-15.375Z" transform="translate(0 -116)"/><circle class="b" cx="1.5" cy="1.5" r="1.5" transform="translate(70.038 40.428)"/><path class="b" d="M298.158,116a6.255,6.255,0,0,0-6.244,6.251v12.5a6.2,6.2,0,0,0-4.415,1.831l-4.274,4.278c-2.492,2.492-6.533,2.908-8.891,3.323A9.711,9.711,0,0,0,266,153.94v19.881a1.562,1.562,0,0,0,1.561,1.563h16.548a1.562,1.562,0,0,0,1.561-1.563v-8.41l5.109-2.557a1.562,1.562,0,0,0-1.4-2.8l-5.973,2.989a1.564,1.564,0,0,0-.863,1.4v7.814H269.122V153.94a6.558,6.558,0,0,1,5.546-6.648l.018,0c3.647-.493,7.838-1.308,10.746-4.218l4.274-4.279a3.117,3.117,0,0,1,3.247-.739h0a3.127,3.127,0,0,1,1.166,5.157l-7.994,8a1.562,1.562,0,1,0,2.208,2.21l7.994-8a6.254,6.254,0,0,0-1.293-9.833v-13.34a3.122,3.122,0,1,1,6.244,0v21.228a17.251,17.251,0,0,1-2.085,8.209,1.561,1.561,0,1,0,2.743,1.493,20.388,20.388,0,0,0,2.464-9.7V122.251A6.255,6.255,0,0,0,298.158,116Z" transform="translate(-224.403 -116)"/></g><g transform="translate(-53.426 1988.938)"><path class="b" d="M23.426,46.852A23.426,23.426,0,0,1,6.861,6.861a23.426,23.426,0,0,1,33.13,33.13,23.272,23.272,0,0,1-16.565,6.861Zm0-43.924a20.5,20.5,0,1,0,20.5,20.5A20.521,20.521,0,0,0,23.426,2.928Z" transform="translate(0 0)"/><path class="b" d="M166.848,125.177a5.85,5.85,0,0,0-1.671-9.82v-1.893a1.464,1.464,0,1,0-2.928,0v1.464h-2.928v-1.464a1.464,1.464,0,1,0-2.928,0v1.464h-2.928a1.464,1.464,0,0,0,0,2.928h1.464V132.5h-1.464a1.464,1.464,0,0,0,0,2.928h2.928v1.464a1.464,1.464,0,1,0,2.928,0v-1.464h2.928v1.464a1.464,1.464,0,1,0,2.928,0V135a5.85,5.85,0,0,0,1.671-9.82Zm-8.992-7.321h5.124a2.928,2.928,0,0,1,0,5.857h-5.124Zm5.124,14.641h-5.124v-5.857h5.124a2.928,2.928,0,0,1,0,5.857Z" transform="translate(-138.091 -101.751)"/></g></g></svg>