<svg xmlns="http://www.w3.org/2000/svg" width="35" height="35" viewBox="0 0 35 35"><defs><style>.a{fill:#e24c4b;}.b{fill:#d1403f;}.c{fill:#fff;}</style></defs><ellipse class="a" cx="17.5" cy="17.5" rx="17.5" ry="17.5" transform="translate(0 0)"/><path class="b" d="M80.609,63.3A17.36,17.36,0,0,1,63.3,80.611,17.033,17.033,0,0,1,49.777,74.12,17.078,17.078,0,0,0,60.6,77.906,17.36,17.36,0,0,0,77.9,60.6a17.078,17.078,0,0,0-3.786-10.818A17.032,17.032,0,0,1,80.609,63.3Z" transform="translate(-45.609 -45.611)"/><path class="c" d="M135.256,135.256a1.869,1.869,0,0,1-2.62,0l-6.073-6.073-6.073,6.073a1.853,1.853,0,0,1-2.62-2.62l6.073-6.073-6.073-6.073a1.853,1.853,0,0,1,2.62-2.62l6.073,6.073,6.073-6.073a1.853,1.853,0,0,1,2.62,2.62l-6.073,6.073,6.073,6.073A1.869,1.869,0,0,1,135.256,135.256Z" transform="translate(-109.063 -109.063)"/></svg>