<svg xmlns="http://www.w3.org/2000/svg" width="50" height="50" viewBox="0 0 50 50"><defs><style>.a{fill:#ebedff;}.b{fill:#363971;}</style></defs><g transform="translate(-376 -494)"><circle class="a" cx="25" cy="25" r="25" transform="translate(376 494)"/><g transform="translate(387 461)"><path class="b" d="M246.569,386a.569.569,0,1,0,.569.569A.569.569,0,0,0,246.569,386Z" transform="translate(-232.069 -320.55)"/><path class="b" d="M26.569,46.878a13.963,13.963,0,0,0-5.1-.878,13.963,13.963,0,0,0-5.1.878,5.023,5.023,0,0,0-1.864,1.2,5.023,5.023,0,0,0-1.864-1.2A13.962,13.962,0,0,0,7.533,46a13.963,13.963,0,0,0-5.1.878C.863,47.515,0,48.421,0,49.429V63.143c0,1.008.863,1.913,2.431,2.55a13.669,13.669,0,0,0,4.706.873v0C7.137,68.526,10.3,70,14.5,70s7.363-1.474,7.363-3.429v0a13.669,13.669,0,0,0,4.706-.873C28.137,65.056,29,64.151,29,63.143V49.429C29,48.421,28.137,47.515,26.569,46.878Zm1.3,12.836c0,.488-.659,1.059-1.721,1.49a12.7,12.7,0,0,1-4.283.79v-2.28s0,0,0,0a13.667,13.667,0,0,0,4.706-.873,6.151,6.151,0,0,0,1.3-.7v1.578ZM13.934,52.857c0,.488-.659,1.059-1.721,1.49a13.012,13.012,0,0,1-4.679.8,13.012,13.012,0,0,1-4.679-.8c-1.062-.431-1.721-1-1.721-1.49V51.279a6.15,6.15,0,0,0,1.3.7,13.963,13.963,0,0,0,5.1.878,13.963,13.963,0,0,0,5.1-.878,6.15,6.15,0,0,0,1.3-.7Zm-11.5,2.55a13.963,13.963,0,0,0,5.1.878,13.963,13.963,0,0,0,5.1-.878,6.15,6.15,0,0,0,1.3-.7V56.3a13.665,13.665,0,0,0-4.007.7A4.872,4.872,0,0,0,7.52,58.571a13,13,0,0,1-4.666-.8c-1.062-.431-1.721-1-1.721-1.49V54.708A6.15,6.15,0,0,0,2.431,55.407Zm-1.3,2.729a6.15,6.15,0,0,0,1.3.7,13.67,13.67,0,0,0,4.706.873s0,0,0,0v2.28a12.7,12.7,0,0,1-4.283-.79c-1.062-.431-1.721-1-1.721-1.49Zm7.2,1.3c.42-.986,2.843-2,6.171-2s5.751,1.019,6.17,2a.712.712,0,0,1,.06.282c0,.5-.614,1.06-1.642,1.493A12.231,12.231,0,0,1,14.5,62a12.231,12.231,0,0,1-4.588-.793c-1.028-.432-1.642-.99-1.642-1.493A.711.711,0,0,1,8.329,59.434Zm19.538-3.148c0,.488-.659,1.059-1.721,1.49a13,13,0,0,1-4.666.8,4.872,4.872,0,0,0-2.407-1.579,13.663,13.663,0,0,0-4.007-.7V54.708a6.15,6.15,0,0,0,1.3.7,13.963,13.963,0,0,0,5.1.878,13.963,13.963,0,0,0,5.1-.878,6.15,6.15,0,0,0,1.3-.7Zm0-3.429c0,.488-.659,1.059-1.721,1.49a13.012,13.012,0,0,1-4.679.8,13.012,13.012,0,0,1-4.679-.8c-1.062-.431-1.721-1-1.721-1.49V51.279a6.15,6.15,0,0,0,1.3.7,13.963,13.963,0,0,0,5.1.878,13.963,13.963,0,0,0,5.1-.878,6.15,6.15,0,0,0,1.3-.7Zm-11.08-4.919a13.012,13.012,0,0,1,4.679-.8,13.012,13.012,0,0,1,4.679.8c1.062.431,1.721,1,1.721,1.49s-.659,1.059-1.721,1.49a13.012,13.012,0,0,1-4.679.8,13.012,13.012,0,0,1-4.679-.8c-1.062-.431-1.721-1-1.721-1.49S15.726,48.37,16.787,47.938Zm-13.934,0a13.012,13.012,0,0,1,4.679-.8,13.012,13.012,0,0,1,4.679.8c1.062.431,1.721,1,1.721,1.49s-.659,1.059-1.721,1.49a13.012,13.012,0,0,1-4.679.8,13.012,13.012,0,0,1-4.679-.8c-1.062-.431-1.721-1-1.721-1.49S1.792,48.37,2.854,47.938Zm0,16.695c-1.062-.431-1.721-1-1.721-1.49V61.565a6.15,6.15,0,0,0,1.3.7,13.669,13.669,0,0,0,4.706.873v2.285A12.7,12.7,0,0,1,2.854,64.633Zm16.234,3.431a12.231,12.231,0,0,1-4.588.793,12.231,12.231,0,0,1-4.588-.793c-1.028-.432-1.642-.99-1.642-1.493V65.027a4.984,4.984,0,0,0,.427.279,9.858,9.858,0,0,0,3.461,1.1.571.571,0,0,0,.165-1.131c-2.632-.39-4.053-1.388-4.053-2.13v-1.55a10.981,10.981,0,0,0,6.23,1.55,10.982,10.982,0,0,0,6.23-1.55v1.55c0,.742-1.42,1.74-4.053,2.13a.571.571,0,1,0,.165,1.131,9.858,9.858,0,0,0,3.461-1.1,4.993,4.993,0,0,0,.427-.279v1.545C20.73,67.074,20.117,67.632,19.088,68.064Zm7.058-3.431a12.7,12.7,0,0,1-4.283.79V63.138a13.669,13.669,0,0,0,4.706-.873,6.151,6.151,0,0,0,1.3-.7v1.578C27.867,63.631,27.208,64.2,26.146,64.633Z"/></g></g></svg>