<svg xmlns="http://www.w3.org/2000/svg" width="25" height="25" viewBox="0 0 25 25"><defs><style>.a{fill:#6e7090;}.b{fill:#f2f6ff;}</style></defs><g transform="translate(-1417 -4972)"><g transform="translate(-84 -89)"><circle class="a" cx="12.5" cy="12.5" r="12.5" transform="translate(1501 5061)"/></g><g transform="translate(1423 4978)"><path class="b" d="M326.936,103.343h.626l-.3-.7Z" transform="translate(-318 -99.835)"/><path class="b" d="M207.374,3.531,205.933,2.1V1.263A1.266,1.266,0,0,0,204.666,0h-4.533a1.266,1.266,0,0,0-1.267,1.263V4.873a4.054,4.054,0,0,1,2.615,2.571h3.186a1.266,1.266,0,0,0,1.267-1.263v-.63l1.441-1.436a.412.412,0,0,0,0-.585ZM204.3,5.464a.415.415,0,0,1-.544-.219l-.378-.887h-1.362l-.417.9a.415.415,0,0,1-.753-.347l1.52-3.274a.417.417,0,0,1,.749-.007l.01.019.91,2.134,0,0,.485,1.136A.413.413,0,0,1,204.3,5.464Z" transform="translate(-193.496)"/><path class="b" d="M106.837,289.989h-1.081a.1.1,0,0,0-.1.1v1.938a.1.1,0,0,0,.1.1h1.081a.1.1,0,0,0,.1-.1v-1.938A.1.1,0,0,0,106.837,289.989Z" transform="translate(-102.773 -282.071)"/><path class="b" d="M4.258,199.99H.415A.414.414,0,0,0,0,200.4v6.215a.414.414,0,0,0,.415.413H3.006l1.441,1.436a.416.416,0,0,0,.587,0l1.441-1.436h.581a.414.414,0,0,0,.415-.413v-3.428a3.211,3.211,0,0,0-3.213-3.2Zm1.009,5.732a.416.416,0,0,1-.587,0l-.333-.332a.93.93,0,0,1-.259.037H3.008a.925.925,0,0,1-.926-.922v-1.938a.925.925,0,0,1,.926-.923H4.089a.926.926,0,0,1,.926.923V204.5a.914.914,0,0,1-.059.323l.311.31a.412.412,0,0,1,0,.585Z" transform="translate(0 -194.59)"/></g></g></svg>