<svg xmlns="http://www.w3.org/2000/svg" width="103" height="80" viewBox="0 0 103 80"><defs><style>.a{opacity:0.7;}.b{fill:#6e7090;}</style></defs><g class="a" transform="translate(0 -58.245)"><g transform="translate(5.602 83.074)"><rect class="b" width="11.896" height="6.069"/></g><g transform="translate(5.602 107.346)"><rect class="b" width="11.896" height="6.069"/></g><g transform="translate(0 95.21)"><rect class="b" width="17.498" height="6.069"/></g><g transform="translate(23.567 58.245)"><g transform="translate(0 0)"><path class="b" d="M156.206,58.245a40,40,0,1,0,39.717,40A39.9,39.9,0,0,0,156.206,58.245Zm0,73.932A33.933,33.933,0,1,1,189.9,98.245,33.851,33.851,0,0,1,156.206,132.177Z" transform="translate(-116.489 -58.245)"/></g></g><g transform="translate(59.055 80.15)"><g transform="translate(0 0)"><path class="b" d="M300,186.16v-19.6H293.93v22.811l15.64,10.658,3.418-5.015Z" transform="translate(-293.93 -166.557)"/></g></g></g></svg>