<svg xmlns="http://www.w3.org/2000/svg" width="79" height="80" viewBox="0 0 79 80"><defs><style>.a{opacity:0.7;}.b{fill:#6e7090;}</style></defs><g class="a" transform="translate(0.001 -0.002)"><path class="b" d="M202.193,199.195a6.785,6.785,0,0,0-10.078-9.06l-2.268,2.268a2.137,2.137,0,0,1-3.023-3.022l3.837-3.837a2.324,2.324,0,0,0-3.286-3.286l-1.06,1.06-1.011-1.011a2.324,2.324,0,0,0-3.287,3.287l1.039,1.038a6.786,6.786,0,0,0,10.078,9.06l2.268-2.268a2.137,2.137,0,0,1,3.023,3.022l-4.45,4.45a2.324,2.324,0,1,0,3.286,3.286l1.673-1.673,1.011,1.011a2.324,2.324,0,1,0,3.287-3.286Zm0,0" transform="translate(-153.13 -153.218)"/><path class="b" d="M78.047,3.217A2.318,2.318,0,0,0,75.8.966L44.246,0a2.312,2.312,0,0,0-1.715.687L3.579,40.154a12.534,12.534,0,0,0,0,17.542L22,76.357a12.181,12.181,0,0,0,17.38,0L78.33,36.892A2.321,2.321,0,0,0,79,35.19ZM36.088,73.091a7.561,7.561,0,0,1-10.8,0L6.869,54.43a7.866,7.866,0,0,1,0-11.01L45.113,4.674l28.372.867.857,28.793Zm0,0"/></g></svg>