<svg xmlns="http://www.w3.org/2000/svg" width="25" height="25" viewBox="0 0 25 25"><defs><style>.a{fill:#6e7090;}.b{fill:#fff;}</style></defs><g transform="translate(-1501 -5061)"><circle class="a" cx="12.5" cy="12.5" r="12.5" transform="translate(1501 5061)"/><g transform="translate(1506 4992)"><g transform="translate(10.007 76.804)"><g transform="translate(0 0)"><path class="b" d="M357.064,101.721l-4.853,4.7,4.853,4.7a1.325,1.325,0,0,0,.141-.587v-8.219A1.325,1.325,0,0,0,357.064,101.721Z" transform="translate(-352.211 -101.721)"/></g></g><g transform="translate(0.804 76)"><g transform="translate(0 0)"><path class="b" d="M38.553,76H26.282a1.22,1.22,0,0,0-.561.141l5.771,6.171a1.246,1.246,0,0,0,1.85,0l5.771-6.171A1.22,1.22,0,0,0,38.553,76Z" transform="translate(-25.721 -76)"/></g></g><g transform="translate(0 76.804)"><g transform="translate(0 0)"><path class="b" d="M.141,101.721a1.325,1.325,0,0,0-.141.587v8.219a1.325,1.325,0,0,0,.141.587l4.853-4.7Z" transform="translate(0 -101.721)"/></g></g><g transform="translate(0.804 82.038)"><g transform="translate(0 0)"><path class="b" d="M34.6,277.211l-.639.687a2.077,2.077,0,0,1-3.084,0l-.639-.687-4.515,4.821a1.22,1.22,0,0,0,.561.141H38.553a1.22,1.22,0,0,0,.561-.141Z" transform="translate(-25.721 -277.211)"/></g></g></g></g></svg>