<svg xmlns="http://www.w3.org/2000/svg" width="24.999" height="25" viewBox="0 0 24.999 25"><defs><style>.a{fill:#6e7090;}</style></defs><path class="a" d="M-224.5-3481a12.418,12.418,0,0,1-8.839-3.661A12.418,12.418,0,0,1-237-3493.5a12.417,12.417,0,0,1,3.661-8.838A12.418,12.418,0,0,1-224.5-3506a12.417,12.417,0,0,1,8.838,3.661A12.417,12.417,0,0,1-212-3493.5a12.419,12.419,0,0,1-3.661,8.839A12.417,12.417,0,0,1-224.5-3481Zm2.918-14.643h0v6.867c0,.18,0,.218-.118.337l-1.212,1.186v.254h5.882v-.254l-1.168-1.156a.354.354,0,0,1-.134-.337v-8.506a.356.356,0,0,1,.133-.338l1.2-1.156V-3499h-4.146l-2.955,7.433-3.362-7.433h-4.347v.254l1.4,1.7a.6.6,0,0,1,.19.494v6.684a.772.772,0,0,1-.2.663l-1.575,1.929v.25h4.466v-.254l-1.575-1.925a.789.789,0,0,1-.217-.663v-5.781l3.92,8.626h.455Z" transform="translate(237 3506)"/></svg>