<svg xmlns="http://www.w3.org/2000/svg" width="50" height="50" viewBox="0 0 50 50"><defs><style>.a{fill:#fff3e2;}.b{fill:#e59f3f;}</style></defs><g transform="translate(-658 -384)"><g transform="translate(282 -110)"><circle class="a" cx="25" cy="25" r="25" transform="translate(376 494)"/></g><g transform="translate(671 397)"><path class="b" d="M12,0A12,12,0,1,1,0,12,12,12,0,0,1,12,0Zm0,22.286A10.286,10.286,0,1,0,1.714,12,10.286,10.286,0,0,0,12,22.286Z"/><g transform="translate(11.056 4.252)"><g transform="translate(0)"><path class="b" d="M86.2,85.333a.869.869,0,0,1,.869.869v6.084h6.084a.869.869,0,1,1,0,1.738H86.2a.869.869,0,0,1-.869-.869V86.2A.869.869,0,0,1,86.2,85.333Z" transform="translate(-85.333 -85.333)"/></g></g></g></g></svg>