<svg xmlns="http://www.w3.org/2000/svg" width="25" height="25" viewBox="0 0 25 25"><defs><style>.a{fill:#e59f3f;}.b{fill:#f2f6ff;}</style></defs><g transform="translate(-1071 -4972)"><g transform="translate(-346)"><g transform="translate(-84 -89)"><circle class="a" cx="12.5" cy="12.5" r="12.5" transform="translate(1501 5061)"/></g></g><g transform="translate(1077 4971.646)"><path class="b" d="M9.263,109.509a.436.436,0,0,1-.338.127c-.937-.063-2.535-1.486-3.167-2.119S3.465,105.043,3.4,104.1a.438.438,0,0,1,.127-.338l.523-.523-2.561-2.565L.431,101.739a1.391,1.391,0,0,0-.365.631c-.453,1.745,1.469,4.123,4.091,6.749s4.757,4.311,6.5,3.857a1.387,1.387,0,0,0,.63-.366l1.059-1.061-2.561-2.565Z" transform="translate(0 -92.696)"/><path class="b" d="M0,0H1.381V3.684H0Z" transform="translate(10.419 15.643) rotate(-45)"/><path class="b" d="M0,0H1.381V3.684H0Z" transform="translate(2.124 7.331) rotate(-45)"/></g></g></svg>