<svg xmlns="http://www.w3.org/2000/svg" width="28.5" height="25.5" viewBox="0 0 28.5 25.5"><defs><style>.a,.b{fill:#56b74b;}.a{stroke:#56b74b;stroke-width:0.5px;}</style></defs><g transform="translate(-265.341 -826.71)"><g transform="translate(265.591 826.96)"><path class="a" d="M18.967,24.562h-.8a1.545,1.545,0,0,0,.222-.8V21.331a1.645,1.645,0,0,0-1.678-1.607H1.678A1.646,1.646,0,0,0,0,21.331v2.434a1.645,1.645,0,0,0,1.678,1.607h.8a1.545,1.545,0,0,0-.222.8V28.6a1.544,1.544,0,0,0,.222.8h-.8A1.645,1.645,0,0,0,0,31.007v2.434a1.616,1.616,0,0,0,1.125,1.517,1.549,1.549,0,0,0-.28.887v2.434a1.549,1.549,0,0,0,.28.887A1.616,1.616,0,0,0,0,40.683v2.434a1.645,1.645,0,0,0,1.678,1.607H14.57a.405.405,0,1,0,0-.81H1.678a.816.816,0,0,1-.832-.8V40.683a.816.816,0,0,1,.832-.8H9.854a.405.405,0,1,0,0-.81H2.524a.816.816,0,0,1-.832-.8V35.845a.816.816,0,0,1,.832-.8H9.083a.405.405,0,1,0,0-.81H1.678a.816.816,0,0,1-.832-.8V31.007a.816.816,0,0,1,.832-.8h9.8a.405.405,0,1,0,0-.81H3.933a.816.816,0,0,1-.832-.8V26.169a.816.816,0,0,1,.832-.8H18.967a.816.816,0,0,1,.832.8v.3a.423.423,0,0,0,.846,0v-.3A1.645,1.645,0,0,0,18.967,24.562Zm-1.422-.8a.816.816,0,0,1-.832.8H1.678a.816.816,0,0,1-.832-.8V21.331a.816.816,0,0,1,.832-.8H16.712a.816.816,0,0,1,.832.8v2.434Z" transform="translate(0 -19.724)"/></g><g transform="translate(276.024 834.341)"><path class="a" d="M192.741,160.865a.4.4,0,0,0-.441.677,7.936,7.936,0,1,1-1.039-.572.4.4,0,1,0,.336-.735,8.794,8.794,0,1,0,1.144.63Z" transform="translate(-179.168 -159.445)"/></g><g transform="translate(280.143 837.454)"><g transform="translate(8.733 11.644) rotate(-180)"><g transform="translate(0 0)"><path class="b" d="M8.676,5.155,4.567.09a.268.268,0,0,0-.4,0L.056,5.155a.251.251,0,0,0-.031.268.258.258,0,0,0,.232.144H2.569v5.571a.511.511,0,0,0,.514.506H5.651a.511.511,0,0,0,.514-.506V5.566H8.476a.257.257,0,0,0,.231-.144A.25.25,0,0,0,8.676,5.155ZM5.908,5.06a.255.255,0,0,0-.257.253v5.824H3.082V5.313a.255.255,0,0,0-.257-.253H.792L4.367.654,7.941,5.06Z"/></g></g><path class="b" d="M-1813.287,948.609v6.066h-2.464l3.805,4.75,3.766-4.75h-2.314v-6.066Z" transform="translate(1816.287 -948.225)"/></g></g></svg>