<svg xmlns="http://www.w3.org/2000/svg" width="25" height="25" viewBox="0 0 25 25"><defs><style>.a{fill:#6e7090;}</style></defs><g transform="translate(0)"><path class="a" d="M-1654.5-3316a12.419,12.419,0,0,1-8.839-3.661A12.419,12.419,0,0,1-1667-3328.5a12.419,12.419,0,0,1,3.661-8.839A12.419,12.419,0,0,1-1654.5-3341a12.419,12.419,0,0,1,8.839,3.661A12.419,12.419,0,0,1-1642-3328.5a12.418,12.418,0,0,1-3.661,8.839A12.419,12.419,0,0,1-1654.5-3316Zm-.214-8.648h0l3,2.211a1.009,1.009,0,0,0,.482.152c.3,0,.506-.229.6-.661l1.97-9.281a.918.918,0,0,0-.108-.8.535.535,0,0,0-.432-.195.862.862,0,0,0-.292.054l-11.57,4.461c-.392.154-.613.353-.607.547.005.165.177.313.471.406l2.962.923,6.871-4.325a.6.6,0,0,1,.317-.111c.073,0,.125.024.14.064s-.013.1-.084.167l-5.56,5.024-.213,3.053a.761.761,0,0,0,.6-.3l1.447-1.394Z" transform="translate(1667 3341)"/></g></svg>