<svg xmlns="http://www.w3.org/2000/svg" width="50" height="50" viewBox="0 0 50 50"><defs><style>.a{fill:#ffe3e3;}.b{fill:#d63636;}</style></defs><g transform="translate(-1372 -384)"><g transform="translate(996 -110)"><circle class="a" cx="25" cy="25" r="25" transform="translate(376 494)"/></g><g transform="translate(1351.956 371.503) rotate(28)"><g transform="translate(47.92 0)"><path class="b" d="M65.8,10.625,57.333.186a.553.553,0,0,0-.827,0l-8.47,10.439a.517.517,0,0,0-.064.552.532.532,0,0,0,.478.3h4.765V22.956A1.052,1.052,0,0,0,54.273,24h5.294a1.052,1.052,0,0,0,1.059-1.044V11.473h4.765a.529.529,0,0,0,.477-.3A.515.515,0,0,0,65.8,10.625Zm-5.707-.2a.526.526,0,0,0-.529.522v12H54.273v-12a.526.526,0,0,0-.529-.522H49.552L56.92,1.348l7.369,9.081Z" transform="translate(-47.92 0)"/></g></g></g></svg>