<svg xmlns="http://www.w3.org/2000/svg" width="25" height="25" viewBox="0 0 25 25"><defs><style>.a{fill:#6e7090;}</style></defs><g transform="translate(-0.001)"><path class="a" d="M-1740.52-3316a12.418,12.418,0,0,1-8.839-3.661,12.418,12.418,0,0,1-3.661-8.839,12.419,12.419,0,0,1,3.661-8.839,12.419,12.419,0,0,1,8.839-3.661,12.418,12.418,0,0,1,8.839,3.661,12.419,12.419,0,0,1,3.661,8.839,12.419,12.419,0,0,1-3.661,8.839A12.419,12.419,0,0,1-1740.52-3316Zm-6.642-7.05h0a8.179,8.179,0,0,0,4.425,1.3,7.869,7.869,0,0,0,6.1-2.677,8.5,8.5,0,0,0,2.115-5.538c0-.125,0-.25-.008-.374a5.831,5.831,0,0,0,1.441-1.494,5.757,5.757,0,0,1-1.659.455,2.888,2.888,0,0,0,1.27-1.6,5.769,5.769,0,0,1-1.833.7,2.9,2.9,0,0,0-2.108-.912,2.889,2.889,0,0,0-2.886,2.886,2.878,2.878,0,0,0,.075.658,8.219,8.219,0,0,1-5.95-3.016,2.883,2.883,0,0,0-.391,1.451,2.885,2.885,0,0,0,1.284,2.4,2.883,2.883,0,0,1-1.308-.361v.036a2.893,2.893,0,0,0,2.316,2.831,2.866,2.866,0,0,1-.76.1,2.912,2.912,0,0,1-.542-.051,2.885,2.885,0,0,0,2.7,2,5.756,5.756,0,0,1-3.586,1.236A5.856,5.856,0,0,1-1747.162-3323.049Z" transform="translate(1753.021 3341)"/></g></svg>