<svg xmlns="http://www.w3.org/2000/svg" width="25" height="25" viewBox="0 0 25 25"><defs><style>.a{fill:#6e7090;}.b{fill:#f2f6ff;}</style></defs><g transform="translate(-1071 -4806)"><g transform="translate(0 -256)"><g transform="translate(-346 90)"><g transform="translate(-84 -89)"><circle class="a" cx="12.5" cy="12.5" r="12.5" transform="translate(1501 5061)"/></g></g></g><g transform="translate(1017 4812)"><path class="b" d="M68.587,4.1a.974.974,0,0,1-.987-.957V0H62.551A1.53,1.53,0,0,0,61,1.5V12.5A1.53,1.53,0,0,0,62.551,14h7.9A1.53,1.53,0,0,0,72,12.5V4.1ZM63.313,9.844h2.051a.41.41,0,1,1,0,.82H63.313a.41.41,0,1,1,0-.82ZM62.89,8.066a.417.417,0,0,1,.423-.41h6.205a.41.41,0,1,1,0,.82H63.313A.417.417,0,0,1,62.89,8.066Zm6.628-2.6a.41.41,0,1,1,0,.82H63.313a.41.41,0,1,1,0-.82Z"/><path class="b" d="M325,9.3a.142.142,0,0,0,.141.141h3.234a1.552,1.552,0,0,0-.3-.388L325.35,6.471a1.559,1.559,0,0,0-.35-.25V9.3Z" transform="translate(-256.564 -6.045)"/></g></g></svg>