<?xml version="1.0" encoding="utf-8"?>
<!-- Generator: Adobe Illustrator 22.0.0, SVG Export Plug-In . SVG Version: 6.00 Build 0)  -->
<svg version="1.1" id="Layer_1" xmlns="http://www.w3.org/2000/svg" xmlns:xlink="http://www.w3.org/1999/xlink" x="0px" y="0px"
	 viewBox="0 0 222.972 222.972" style="enable-background:new 0 0 222.972 222.972;" xml:space="preserve">
<style type="text/css">
	.st0{fill:#29A881;}
	.st1{fill:#FFFFFF;}
</style>
<circle class="st0" cx="111.486" cy="111.486" r="111.486"/>
<g>
	<path class="st1" d="M40.16,105.267c1.321-0.894,2.767-1.604,4.255-2.198c2.976-1.202,6.081-2.065,9.207-2.822
		c6.248-1.535,12.615-2.583,19-3.412c8.437-1.086,16.917-1.835,25.41-2.318l0.535,19.688c4.118-0.004,8.27-0.043,12.491-0.158
		l1.574-0.043c4.948-0.133,9.806-0.363,14.604-0.646l-0.53-19.538c7.71,0.068,15.42,0.351,23.109,0.919
		c6.423,0.483,12.837,1.176,19.158,2.373c3.16,0.586,6.308,1.279,9.344,2.318c1.518,0.513,2.998,1.146,4.366,1.967
		c1.334,0.8,2.724,1.907,2.908,3.579c-0.051-1.689-1.403-2.968-2.711-3.879c-1.351-0.924-2.831-1.646-4.34-2.254
		c-3.023-1.227-6.166-2.104-9.327-2.874c-6.342-1.445-12.782-2.352-19.235-3.062c-7.757-0.808-15.544-1.176-23.336-1.313
		l-0.53-19.547l41.814-1.137l-0.778-28.673l-112.3,3.049l0.778,28.673l41.814-1.137l0.53,19.444
		c-8.57,0.56-17.122,1.39-25.615,2.745c-6.402,1.056-12.786,2.309-19.038,4.097c-3.113,0.937-6.205,1.984-9.156,3.374
		c-1.475,0.688-2.912,1.492-4.212,2.489c-1.253,0.979-2.536,2.331-2.497,4.02C37.543,107.32,38.869,106.135,40.16,105.267z"/>
	<path class="st1" d="M182.779,108.56c-1.338,0.834-2.788,1.488-4.289,2.031c-2.989,1.09-6.089,1.903-9.215,2.574
		c-6.252,1.381-12.615,2.266-18.987,3.045c-12.756,1.454-25.598,2.271-38.444,2.596c-12.846,0.368-25.713,0.252-38.529-0.513
		c-6.402-0.432-12.803-0.971-19.119-2.01c-3.16-0.5-6.299-1.137-9.344-2.065c-1.522-0.458-3.011-1.031-4.392-1.792
		c-1.351-0.744-2.758-1.766-3.006-3.425c-0.013,1.698,1.321,3.066,2.609,4.033c1.343,0.984,2.814,1.762,4.319,2.429
		c3.015,1.338,6.171,2.271,9.327,3.122c6.346,1.608,12.799,2.668,19.269,3.425c8.587,1.018,17.216,1.471,25.842,1.595l1.557,57.341
		l28.673-0.778l-1.561-57.461c7.809-0.603,15.6-1.475,23.331-2.822c6.423-1.108,12.808-2.519,19.055-4.469
		c3.109-1.022,6.205-2.121,9.143-3.622c1.467-0.744,2.895-1.604,4.182-2.656c1.236-1.035,2.493-2.472,2.39-4.165
		C185.435,106.648,184.088,107.747,182.779,108.56z"/>
</g>
</svg>
