<?xml version="1.0" encoding="utf-8"?>
<!-- Generator: Adobe Illustrator 22.0.0, SVG Export Plug-In . SVG Version: 6.00 Build 0)  -->
<svg version="1.1" id="Layer_1" xmlns="http://www.w3.org/2000/svg" xmlns:xlink="http://www.w3.org/1999/xlink" x="0px" y="0px"
	 viewBox="0 0 222.972 222.972" style="enable-background:new 0 0 222.972 222.972;" xml:space="preserve">
<style type="text/css">
	.st0{fill:#383838;}
	.st1{fill:#FFFFFF;}
</style>
<circle class="st0" cx="111.486" cy="111.486" r="111.486"/>
<path class="st1" d="M176.674,79.12l-19.382-13.702c-0.406-0.286-0.861-0.492-1.342-0.613L63.271,42.101
	c-2.12-0.519-4.259,0.778-4.781,2.898c-0.177,0.718-0.128,1.436,0.075,2.094c0.019,0.06,0.023,0.124,0.045,0.184l46.819,131.078
	c0,0.004,0.004,0.008,0.004,0.015l0.004,0.011c0,0,0,0,0.004,0c0.278,0.703,0.759,1.331,1.425,1.793
	c0.688,0.474,1.47,0.699,2.244,0.699c1.256,0,2.488-0.598,3.255-1.707l65.276-94.574C178.876,82.812,178.444,80.368,176.674,79.12z
	 M167.374,82.225l-37.94,17.686l25.355-26.58L167.374,82.225z M116.1,104.982L71.721,52.311l76.699,18.788L116.1,104.982z
	 M112.759,110.557l-5.898,53.423L69.372,59.069L112.759,110.557z M118.826,111.64l45.033-20.99l-50.849,73.67L118.826,111.64z"/>
</svg>
