<svg xmlns="http://www.w3.org/2000/svg" viewBox="0 0 123.428 123.429"><defs><style>.cls-1{fill:#fad64a;}.cls-2{fill:#ebbc00;}.cls-3{fill:#e6a500;}</style></defs><g id="Objects"><path class="cls-1" d="M123.217,56.638a61.13,61.13,0,0,0-7.549-24.9,61.787,61.787,0,0,0-15.033-17.913A61.6,61.6,0,0,0,81.8,3.343,61.648,61.648,0,0,0,61.714,0,62.447,62.447,0,0,0,50.852.952,61.775,61.775,0,0,0,3.342,81.8a61.861,61.861,0,0,0,10.482,18.838,61.853,61.853,0,0,0,17.917,15.033,61.1,61.1,0,0,0,24.892,7.55q2.514.207,5.081.211a61.714,61.714,0,0,0,61.714-61.715C123.428,60.007,123.355,58.31,123.217,56.638ZM70.2,109.656a49,49,0,0,1-8.48.736A48.474,48.474,0,0,1,13.2,62.414c-.01-.185-.01-.365-.01-.551a48.525,48.525,0,1,1,97.049,0c0,.186,0,.366-.01.551A48.489,48.489,0,0,1,70.2,109.656Z"/><path class="cls-1" d="M110.24,61.863c0,.186,0,.366-.01.551a48.517,48.517,0,0,1-97.029,0c-.01-.185-.01-.365-.01-.551a48.525,48.525,0,0,1,97.049,0Z"/><path class="cls-2" d="M110.23,62.414a48.517,48.517,0,0,1-97.029,0,48.517,48.517,0,0,1,97.029,0Z"/><path class="cls-3" d="M64.4,35.36a17.029,17.029,0,0,1,0,34.057H57.363V92.069H46.038V35.36Zm0,22.732a5.68,5.68,0,0,0,5.662-5.663A5.75,5.75,0,0,0,64.4,46.685H57.363V58.092Z"/><path class="cls-1" d="M62.4,33.36a17.029,17.029,0,0,1,0,34.057H55.363V90.069H44.038V33.36Zm0,22.732a5.68,5.68,0,0,0,5.662-5.663A5.75,5.75,0,0,0,62.4,44.685H55.363V56.092Z"/></g></svg>