<?xml version="1.0" encoding="utf-8"?>
<!-- Generator: Adobe Illustrator 22.0.0, SVG Export Plug-In . SVG Version: 6.00 Build 0)  -->
<svg version="1.1" id="Layer_1" xmlns="http://www.w3.org/2000/svg" xmlns:xlink="http://www.w3.org/1999/xlink" x="0px" y="0px"
	 viewBox="0 0 222.972 222.972" style="enable-background:new 0 0 222.972 222.972;" xml:space="preserve">
<style type="text/css">
	.st0{fill:#F98934;}
	.st1{fill:#FFFFFF;}
</style>
<circle class="st0" cx="111.486" cy="111.486" r="111.486"/>
<g>
	<path class="st1" d="M159.615,103.724c-4.335-3.437-9.766-5.29-16.286-5.525c3.823-3.035,6.498-6.83,8.032-11.354
		c1.534-4.523,1.71-9.134,0.536-13.804c-1.083-4.304-3.075-7.941-5.992-10.896c-2.917-2.955-6.166-5.089-9.747-6.402
		c-3.583-1.322-7.396-1.818-11.444-1.498c-2.884,0.227-6.793,0.901-11.627,1.978l-3.716-14.769L92.772,45.63l3.692,14.675
		l-9.377,2.359l-1.107,0.279l-3.692-14.675l-16.597,4.176l3.692,14.675l-2.429,0.611l-15.28,3.844l4.176,16.598l15.28-3.844
		l16.733,66.513l-15.28,3.844l4.176,16.598l15.28-3.844l2.429-0.611l3.418,13.587l16.597-4.176l-3.418-13.587l1.107-0.279
		l9.377-2.359l3.418,13.587l16.599-4.176l-3.458-13.747c5.802-1.589,9.941-2.81,11.986-3.564c5.196-1.936,9.312-4.637,12.314-8.123
		c3.013-3.48,5.019-7.635,6.063-12.444c1.021-4.823,0.971-9.497-0.169-14.026C166.852,111.765,163.949,107.16,159.615,103.724z
		 M102.83,76.352c9.476-2.384,15.242-3.715,17.287-3.99c3.458-0.441,6.285,0.094,8.478,1.596c2.169,1.488,3.654,3.787,4.428,6.863
		c0.812,3.226,0.483,6.081-0.993,8.536c-1.472,2.474-3.892,4.348-7.232,5.617c-1.851,0.706-6.692,2.053-14.536,4.027l-13.198,3.32
		l-5.801-23.059L102.83,76.352z M146.55,130.98c-1.354,2.585-3.448,4.527-6.311,5.826c-1.849,0.894-6.397,2.257-13.655,4.083
		l-18.637,4.689l-6.709-26.668l16.26-4.091c9.158-2.304,15.24-3.315,18.213-3.067c2.979,0.267,5.462,1.259,7.432,2.986
		c1.987,1.714,3.357,4.072,4.112,7.072C148.141,125.336,147.897,128.409,146.55,130.98z"/>
</g>
</svg>
